<?xml version="1.0" standalone="no"?>
<!DOCTYPE svg PUBLIC "-//W3C//DTD SVG 1.1//EN" "http://www.w3.org/Graphics/SVG/1.1/DTD/svg11.dtd" >
<svg xmlns="http://www.w3.org/2000/svg" xmlns:xlink="http://www.w3.org/1999/xlink" version="1.1">
<metadata>
Created by FontForge 20170731 at Fri May 19 15:31:12 2023
 By Aleksey,,,
Copyright 2017 The Literata Project Authors (https://github.com/googlefonts/literata)
</metadata>
<defs>
<font id="Literata60pt-Medium" horiz-adv-x="500" vert-adv-y="1000" >
  <font-face 
    font-family="Literata 60pt Medium"
    font-weight="500"
    font-stretch="normal"
    units-per-em="1000"
    panose-1="0 0 0 0 0 0 0 0 0 0"
    ascent="800"
    descent="-200"
    x-height="513"
    cap-height="723"
    bbox="-378 -279 1488 1161"
    underline-thickness="50"
    underline-position="-175"
    unicode-range="U+0020-FB02"
  />
<missing-glyph vert-adv-y="1485" 
d="M50 700h400v-700h-400v700zM110 640v-580h280v580h-280z" />
    <glyph glyph-name="fi" unicode="fi" horiz-adv-x="671" vert-adv-y="1485" 
d="M37 0v22l47 5q19 2 24.5 12t5.5 38v408h-74v21l74 7v33q0 78 34.5 130.5t92 79t126.5 26.5q38 0 72.5 -7t61.5 -20t42.5 -33.5t15.5 -47.5q0 -25 -15.5 -43t-49.5 -18q-27 0 -41.5 12t-14.5 31q0 20 9 39t23 41q-25 10 -49 15t-54 5q-40 0 -71.5 -14t-49.5 -45.5
t-18 -81.5v-102h328l9 -6v-435q0 -23 5.5 -32t21.5 -11l53 -8v-21h-262v22l41 6q17 2 22 11.5t5 36.5v349q0 34 -7.5 47t-35.5 13h-180v-411q0 -25 6 -33.5t26 -11.5l45 -7v-22h-268z" />
    <glyph glyph-name="fl" unicode="fl" horiz-adv-x="684" vert-adv-y="1485" 
d="M35 0v22l47 5q19 2 24.5 12.5t5.5 37.5v408h-72v21l72 7v23q0 58 14.5 103.5t43.5 77.5t71.5 48.5t96.5 16.5q52 0 91 -16.5t69 -41.5l72 42l8 -7v-685q0 -25 5.5 -34.5t26.5 -12.5l48 -6v-21h-265v21l41 5q20 3 25 13t5 38v545q0 43 -13.5 73t-40 45.5t-63.5 15.5
q-33 0 -60.5 -13.5t-44 -45t-16.5 -83.5v-101h145v-28h-145v-412q0 -24 5.5 -33t25.5 -12l67 -7v-21h-289z" />
    <glyph glyph-name="T_h.liga" unicode="Th" horiz-adv-x="1198" vert-adv-y="1485" 
d="M181 0v22l69 5q19 1 26.5 13.5t7.5 37.5v619h-58q-34 0 -59.5 -9.5t-45 -30.5t-35.5 -56t-33 -86l-26 6l30 202h547q31 0 59.5 5t53.5 13.5t44 21.5l12 -7v-330h2q22 48 65.5 74.5t99.5 26.5q54 0 89 -20.5t52.5 -59.5t17.5 -94v-285q0 -22 6 -30.5t25 -10.5l44 -6v-21
h-258v21l40 5q19 2 24 11t5 31v283q0 45 -7 72.5t-26.5 40.5t-55.5 13q-33 0 -61.5 -16t-45 -46t-16.5 -72v-272q0 -22 5 -31t20 -12l48 -7v-21h-257v21l45 7q16 2 21 12t5 35v622h-256v-623q0 -25 7.5 -35t28.5 -12l66 -5v-22h-325z" />
    <glyph glyph-name="f_b.liga" unicode="fb" horiz-adv-x="992" vert-adv-y="1485" 
d="M483 -13l-19 7v628q0 41 -13.5 71t-40.5 46.5t-66 16.5q-32 0 -59 -14t-43 -46.5t-16 -87.5v-95h146v-28h-146v-412q0 -24 5.5 -33t25.5 -12l67 -7v-21h-289v22l47 5q19 2 24.5 12.5t5.5 37.5v408h-72v21l72 7v26q0 53 14 97.5t42.5 77t71 50.5t98.5 18q36 0 64.5 -7.5
t52 -21t43.5 -29.5l72 42l8 -7v-323h1q17 31 40.5 51t53.5 30t66 10q63 0 109.5 -28t71.5 -83t25 -139q0 -91 -29 -156.5t-83.5 -100t-132.5 -34.5q-28 0 -54.5 5.5t-50 15t-44.5 22.5zM691 16q42 0 72 23t45.5 76t15.5 141q0 78 -13.5 127t-41.5 72t-71 23
q-33 0 -60.5 -14.5t-43.5 -44t-16 -75.5v-281q21 -20 50 -33.5t63 -13.5z" />
    <glyph glyph-name="f_f" unicode="ff" horiz-adv-x="733" vert-adv-y="1485" 
d="M226 513h238v86q0 68 -31 102t-84 34q-36 0 -63.5 -13.5t-43.5 -44.5t-16 -84v-80zM35 0v22l47 5q19 2 24.5 12.5t5.5 37.5v408h-72v21l72 7v11q0 53 14 96.5t43 75t72 48.5t102 17q50 0 89.5 -18t66.5 -45q18 28 41.5 47t54 28t67.5 9q45 0 76.5 -12.5t48.5 -35
t17 -50.5q0 -24 -15 -42t-46 -18q-26 0 -40 11t-14 29q0 14 7.5 29.5t28.5 47.5q-13 7 -30 11.5t-35 4.5q-29 0 -47 -14t-26.5 -44t-8.5 -79v-107h145v-28h-145v-411q0 -24 6 -33.5t26 -11.5l73 -7v-22h-293v21l44 5q20 3 25 13t5 37v409h-238v-412q0 -24 5.5 -33t25.5 -12
l67 -7v-21h-289z" />
    <glyph glyph-name="f_f_b.liga" unicode="ffb" horiz-adv-x="1344" vert-adv-y="1485" 
d="M226 513h238v86q0 64 -31 100t-87 36q-34 0 -61.5 -13.5t-43 -44.5t-15.5 -83v-81zM1043 16q42 0 72 23t45.5 76t15.5 141q0 78 -13.5 127t-41.5 72t-71 23q-33 0 -60.5 -14.5t-43.5 -44t-16 -75.5v-281q21 -20 50 -33.5t63 -13.5zM35 0v22l47 5q19 2 24.5 12.5t5.5 37.5
v408h-72v21l72 7v11q0 55 14.5 99t43 74.5t71.5 47t99 16.5t96 -19.5t72 -53.5q32 45 76 69.5t106 24.5q35 0 63.5 -7.5t52.5 -21t44 -29.5l71 42l9 -7v-323h1q17 32 40.5 52t53 29.5t66.5 9.5q63 0 109.5 -28t71.5 -83t25 -139q0 -91 -29 -156.5t-83.5 -100t-132.5 -34.5
q-28 0 -54.5 5.5t-50 15t-44.5 22.5l-68 -42l-19 7v628q0 40 -12.5 70.5t-37 47t-63.5 16.5q-34 0 -62.5 -13.5t-45.5 -45t-17 -83.5v-101h146v-28h-146v-412q0 -24 5.5 -33t25.5 -12l67 -7v-21h-286v21l45 6q19 2 24 12.5t5 37.5v408h-238v-412q0 -24 5.5 -33t25.5 -12
l67 -7v-21h-289z" />
    <glyph glyph-name="f_f_i" unicode="ffi" horiz-adv-x="1026" vert-adv-y="1485" 
d="M35 0v22l47 5q19 2 24.5 12.5t5.5 37.5v408h-72v21l72 7v11q0 55 14.5 99t43.5 74.5t71.5 47t98.5 16.5q52 0 92.5 -18t77.5 -54q24 31 56.5 52t72 31t81.5 10q37 0 70.5 -7t60 -20t42 -33.5t15.5 -47.5q0 -24 -15 -42t-49 -18q-28 0 -42 13t-14 31q0 20 9 38t23 40
q-26 11 -49 15.5t-52 4.5q-38 0 -70 -14t-51.5 -45.5t-19.5 -83.5v-100h332l10 -6v-435q0 -23 5 -32t21 -11l53 -8v-21h-263v21l43 6q17 3 22 12.5t5 36.5v347q0 35 -7.5 48.5t-37.5 13.5h-183v-412q0 -24 5.5 -32.5t26.5 -12.5l46 -7v-21h-266v21l44 5q20 3 25 13t5 37v409
h-238v-412q0 -24 5.5 -33t25.5 -12l67 -7v-21h-289zM226 513h238v86q0 68 -31 102t-87 34q-32 0 -59.5 -13.5t-44 -44.5t-16.5 -83v-81z" />
    <glyph glyph-name="f_f_k.liga" unicode="ffk" horiz-adv-x="1303" vert-adv-y="1485" 
d="M1211 -10q-23 0 -42.5 6.5t-38.5 23t-41 47.5l-147 206v8l179 163q15 13 15 24.5t-19 15.5l-35 7l3 22h184v-22l-33 -9q-17 -4 -32.5 -13t-35.5 -26l-133 -117l163 -221q21 -29 36.5 -44t35.5 -15q8 0 19 2t23 7l6 -16q-22 -24 -48.5 -36.5t-58.5 -12.5zM35 0v22l47 5
q19 2 24.5 12.5t5.5 37.5v408h-72v21l72 7v11q0 55 14 99t42.5 74.5t71.5 47t99 16.5t96.5 -20.5t73.5 -52.5q31 45 75 69.5t107 24.5q35 0 63.5 -7.5t52.5 -21t44 -29.5l71 42l9 -7v-685q0 -24 5.5 -34.5t21.5 -12.5l33 -5v-22h-248v22l44 5q19 2 24.5 12t5.5 38v548
q0 40 -14 69t-39 45.5t-61 16.5q-31 0 -59.5 -13.5t-47 -45t-18.5 -83.5v-101h146v-28h-146v-412q0 -24 5.5 -33t26.5 -12l66 -7v-21h-286v21l46 6q18 2 23 12.5t5 37.5v408h-238v-412q0 -24 5.5 -33t25.5 -12l67 -7v-21h-289zM226 513h238v88q0 64 -30.5 99t-83.5 35
q-31 0 -59.5 -13.5t-46.5 -44.5t-18 -83v-81z" />
    <glyph glyph-name="f_f_l" unicode="ffl" horiz-adv-x="1037" vert-adv-y="1485" 
d="M35 0v22l47 5q19 2 24.5 12.5t5.5 37.5v408h-72v21l72 7v11q0 55 15 99t44.5 74.5t72.5 47t99 16.5q50 0 91 -19t75 -54q31 45 77.5 69.5t108.5 24.5q35 0 62.5 -7.5t50.5 -21t43 -29.5l71 42l9 -7v-685q0 -25 5.5 -34.5t25.5 -12.5l48 -6v-21h-264v21l41 5q19 3 24.5 13
t5.5 38v545q0 41 -14 71t-39 46.5t-61 16.5q-34 0 -62.5 -13.5t-45.5 -45t-17 -83.5v-101h146v-28h-146v-412q0 -24 5.5 -33t26.5 -12l66 -7v-21h-286v21l44 5q19 3 24.5 12.5t5.5 37.5v409h-238v-412q0 -24 5.5 -33t25.5 -12l67 -7v-21h-289zM226 513h238v86
q0 67 -30.5 101.5t-83.5 34.5q-35 0 -63.5 -13.5t-44.5 -44.5t-16 -83v-81z" />
    <glyph glyph-name="f_f_t.liga" unicode="fft" horiz-adv-x="1093" vert-adv-y="1485" 
d="M35 0v22l47 5q19 2 24.5 12.5t5.5 37.5v408h-72v21l72 7v11q0 54 14 97.5t42.5 74.5t71.5 48t99 17q46 0 86.5 -16t74.5 -48q25 40 65 62.5t94 22.5q46 0 77 -12.5t47.5 -35t16.5 -50.5q0 -24 -15 -42t-45 -18q-27 0 -40.5 11t-13.5 29q0 14 7.5 29.5t27.5 47.5
q-12 7 -27 11.5t-34 4.5q-29 0 -47 -14t-26.5 -44t-8.5 -79v-107h150q42 0 67 15.5t38.5 48t19.5 82.5l57 8l8 -5v-149h146v-28h-146v-339q0 -44 14.5 -66.5t50.5 -22.5q25 0 50 10t44 28l13 -15q-29 -44 -66 -69t-90 -25q-42 0 -71 15.5t-43.5 48.5t-14.5 85v350h-227v-411
q0 -24 6 -33.5t26 -11.5l73 -7v-22h-293v21l44 5q20 3 25 13t5 37v409h-238v-412q0 -24 5.5 -33t25.5 -12l67 -7v-21h-289zM226 513h238v86q0 67 -31 101.5t-87 34.5q-32 0 -59.5 -13.5t-44 -44.5t-16.5 -83v-81z" />
    <glyph glyph-name="f_h.liga" unicode="fh" horiz-adv-x="1002" vert-adv-y="1485" 
d="M35 0v22l47 5q19 2 24.5 12.5t5.5 37.5v408h-72v21l72 7v26q0 55 14 99.5t42 76.5t70.5 49.5t98.5 17.5q36 0 64.5 -7.5t52.5 -21t44 -29.5l72 42l8 -7v-334h1q22 48 66 75t100 27q54 0 89 -20.5t52.5 -59.5t17.5 -94v-285q0 -22 6 -30.5t25 -10.5l43 -6v-21h-257v21
l40 5q19 2 24 11t5 31v283q0 45 -7 72.5t-26.5 40.5t-55.5 13q-34 0 -62 -16t-44.5 -46t-16.5 -72v-272q0 -22 5 -31t21 -12l48 -7v-21h-259v21l42 6q19 2 24 12.5t5 36.5v546q0 41 -13.5 71t-40 46.5t-63.5 16.5q-32 0 -59.5 -13.5t-44.5 -45t-17 -83.5v-101h146v-28h-146
v-412q0 -24 5.5 -33t25.5 -12l67 -7v-21h-289z" />
    <glyph glyph-name="f_iacute.liga" unicode="f&#xed;" horiz-adv-x="676" vert-adv-y="1485" 
d="M456 583l-12 12l93 156q11 18 21 24.5t21 6.5q16 0 26.5 -7.5t16 -19t5.5 -24.5q0 -16 -10.5 -29t-26.5 -25zM37 0v22l47 5q20 2 25 12.5t5 37.5v408h-74v21l74 7v41q0 56 13 99t37.5 71.5t57.5 43t74 14.5q36 0 65.5 -12t46.5 -34t17 -52q0 -23 -14.5 -41t-43.5 -18
q-27 0 -40.5 11.5t-13.5 28.5q0 16 7.5 31.5t25.5 44.5q-11 8 -23.5 12t-24.5 4q-22 0 -38 -12t-24 -40t-8 -78v-114h332l10 -6v-435q0 -23 4.5 -32t21.5 -11l53 -8v-21h-263v21l43 6q17 3 22 12.5t5 36.5v347q0 35 -7.5 48.5t-37.5 13.5h-183v-411q0 -24 5.5 -33t26.5 -12
l52 -7v-22h-275z" />
    <glyph glyph-name="f_k.liga" unicode="fk" horiz-adv-x="950" vert-adv-y="1485" 
d="M35 0v22l47 5q19 2 24.5 12.5t5.5 37.5v408h-72v21l72 7v26q0 57 14 102t42.5 76.5t71 48t98.5 16.5q35 0 63.5 -7.5t52.5 -21t44 -29.5l72 42l8 -7v-685q0 -25 5.5 -35t25.5 -12l44 -6v-21h-262v22l43 5q20 2 25 12.5t5 37.5v545q0 41 -12.5 71t-38.5 46.5t-66 16.5
q-32 0 -60 -13.5t-44.5 -45t-16.5 -83.5v-101h146v-28h-146v-412q0 -24 5.5 -33t25.5 -12l67 -7v-21h-289zM858 -10q-23 0 -42.5 6.5t-38 23t-41.5 47.5l-147 206v8l179 163q15 13 15 24.5t-19 15.5l-35 7l4 22h183v-22l-32 -9q-18 -4 -33.5 -13t-34.5 -26l-133 -117
l162 -221q21 -29 37 -44t35 -15q9 0 19.5 2t22.5 7l7 -16q-22 -24 -49 -36.5t-59 -12.5z" />
    <glyph glyph-name="f_t.liga" unicode="ft" horiz-adv-x="739" vert-adv-y="1485" 
d="M35 0v22l47 5q19 2 24.5 12.5t5.5 37.5v408h-72v21l72 7v30q0 54 12 97.5t36.5 75.5t61 49t84.5 17q44 0 75.5 -12.5t48.5 -35t17 -50.5q0 -24 -14.5 -42t-45.5 -18q-26 0 -40 11t-14 29q0 14 7.5 29.5t28.5 47.5q-13 7 -28.5 11.5t-33.5 4.5q-29 0 -47 -14t-26 -44
t-8 -79v-107h148q42 0 67 15.5t38.5 48t19.5 82.5l57 8l8 -5v-149h146v-28h-146v-339q0 -44 14.5 -66.5t50.5 -22.5q25 0 49.5 10t44.5 29l13 -16q-30 -44 -66.5 -69t-89.5 -25q-42 0 -71 15.5t-44 48.5t-15 85v350h-224v-411q0 -24 5.5 -33.5t26.5 -11.5l73 -7v-22h-296z
" />
    <glyph glyph-name=".notdef" vert-adv-y="1485" 
d="M50 700h400v-700h-400v700zM110 640v-580h280v580h-280z" />
    <glyph glyph-name=".null" horiz-adv-x="0" vert-adv-y="0" 
 />
    <glyph glyph-name="nonmarkingreturn" horiz-adv-x="333" 
 />
    <glyph glyph-name="space" unicode=" " horiz-adv-x="203" vert-adv-y="1485" 
 />
    <glyph glyph-name="exclam" unicode="!" horiz-adv-x="333" vert-adv-y="1485" 
d="M148 199v70q0 54 -5.5 100t-14 86.5t-16.5 76.5t-14 69t-6 65q0 24 10 40t28.5 24.5t41.5 8.5q35 0 54 -18t19 -53q0 -38 -9.5 -78.5t-21.5 -88t-21.5 -105t-9.5 -128.5v-69h-35zM166 -14q-33 0 -54.5 20.5t-21.5 52.5q0 33 21.5 53.5t54.5 20.5t54 -20.5t21 -52.5
t-21 -53t-54 -21z" />
    <glyph glyph-name="quotedbl" unicode="&#x22;" horiz-adv-x="398" vert-adv-y="1485" 
d="M109 537l-37 153l-4 18t-2 16q0 24 16 42.5t44 18.5q18 0 33.5 -11.5t15.5 -30.5q0 -6 -2 -15.5t-5 -23.5l-40 -167h-19zM267 537l-37 153l-4 18t-2 16q0 24 15.5 42.5t44.5 18.5q18 0 33 -11.5t15 -30.5q0 -6 -1.5 -15.5t-5.5 -23.5l-40 -167h-18z" />
    <glyph glyph-name="numbersign" unicode="#" horiz-adv-x="625" vert-adv-y="1485" 
d="M141 -1l24 158h-123l7 36h123l26 172h-127l7 36h126l23 150h38l-23 -150h177l22 150h39l-23 -150h127l-7 -36h-125l-26 -172h133l-7 -36h-132l-24 -158h-38l25 158h-179l-25 -158h-38zM210 193h179l25 172h-179z" />
    <glyph glyph-name="dollar" unicode="$" horiz-adv-x="591" vert-adv-y="0" 
d="M280 -82v69q-49 3 -92.5 21t-79.5 45l-16 -61h-22l-19 228l25 4q17 -66 48 -111.5t72 -69.5t84 -27v300q-10 4 -20.5 7.5t-20.5 7.5q-43 16 -75.5 35.5t-54.5 44t-33 55.5t-11 70q0 43 16.5 79t45.5 62.5t68 42t85 17.5v76h34v-76q43 -3 79.5 -19.5t62.5 -38.5l12 58h23
l25 -221l-26 -4q-16 64 -41.5 107t-59 65.5t-75.5 25.5v-275q4 -1 8.5 -2.5t8.5 -3.5q52 -18 91.5 -39t66.5 -46.5t40.5 -58t13.5 -74.5q0 -47 -18 -87t-50 -70t-73 -47.5t-88 -20.5v-68h-34zM314 17q39 3 66.5 20t42 45t14.5 64q0 41 -13.5 70t-40.5 50t-69 38v-287z
M280 448v261q-53 -4 -81.5 -39t-28.5 -84q0 -34 11.5 -59t36 -43.5t62.5 -35.5z" />
    <glyph glyph-name="percent" unicode="%" horiz-adv-x="827" vert-adv-y="1485" 
d="M208 -14l368 611h40l-367 -611h-41zM205 273q-50 0 -86.5 20t-55.5 55t-19 80q0 62 23.5 99t62 53t80.5 16q43 0 79.5 -16t58.5 -49.5t22 -86.5q0 -56 -22.5 -94t-59.5 -57.5t-83 -19.5zM210 301q31 0 48 31t17 103q0 68 -19 101t-53 33q-29 0 -48 -29.5t-19 -100.5
q0 -67 19.5 -102.5t54.5 -35.5zM619 -14q-50 0 -86.5 19.5t-56 54.5t-19.5 80q0 62 23.5 99t62 53t81.5 16q42 0 78.5 -16t58.5 -49.5t22 -86.5q0 -56 -22.5 -94t-59.5 -57t-82 -19zM623 13q31 0 48.5 31t17.5 103q0 45 -9 75t-25 45t-38 15q-29 0 -48.5 -30t-19.5 -101
q0 -66 20 -102t54 -36z" />
    <glyph glyph-name="ampersand" unicode="&#x26;" horiz-adv-x="813" vert-adv-y="1485" 
d="M290 -14q-68 0 -123 23t-87.5 66.5t-32.5 105.5q0 40 14 70t38 52t55 39t65 29q-20 20 -41 45.5t-35 56.5t-14 68q0 43 14 75t39.5 54t60.5 33t76 11q71 0 112.5 -39t41.5 -101q0 -39 -15.5 -71t-43.5 -58t-65 -46l162 -170q16 76 36 126.5t43 80t48 41.5t51 12
q36 0 59 -20t23 -54q0 -16 -6 -31.5t-17.5 -25t-29.5 -9.5t-30.5 11.5t-21.5 31.5t-19 48q-17 -6 -38.5 -31.5t-41 -75t-33.5 -128.5q45 -47 75.5 -75.5t52.5 -41t42 -12.5q21 0 38 8.5t37 27.5l10 -15q-18 -27 -39.5 -50t-47 -36.5t-54.5 -13.5t-53.5 10.5t-48.5 32
t-56 53.5q-16 -27 -43 -52t-65 -40t-92 -15zM315 18q53 0 93 27.5t60 67.5l-231 239q-26 -19 -43 -42.5t-25 -52t-8 -64.5q0 -50 18 -90t53 -62.5t83 -22.5zM330 417q39 22 64 47t36.5 52.5t11.5 55.5q0 51 -32.5 82.5t-81.5 31.5q-54 0 -79 -28.5t-25 -68.5q0 -29 12.5 -56
t36.5 -55t57 -61z" />
    <glyph glyph-name="quotesingle" unicode="'" horiz-adv-x="241" vert-adv-y="1485" 
d="M109 537l-37 153l-4 18t-2 16q0 24 16 42.5t44 18.5q18 0 33.5 -11.5t15.5 -30.5q0 -6 -2 -15.5t-5 -23.5l-40 -167h-19z" />
    <glyph glyph-name="parenleft" unicode="(" horiz-adv-x="351" vert-adv-y="1485" 
d="M305 -194q-40 39 -80.5 91.5t-75 117t-55.5 139t-21 156.5t21.5 156t55.5 138.5t75 116.5t80 89l16 -9q-48 -69 -78 -145.5t-43.5 -162.5t-13.5 -184q0 -99 13.5 -183.5t43.5 -160.5t79 -149z" />
    <glyph glyph-name="parenright" unicode=")" horiz-adv-x="351" vert-adv-y="1485" 
d="M43 -194l-16 9q50 72 80 148t43.5 161t13.5 183q0 99 -13 184.5t-42.5 162t-77.5 146.5l17 10q39 -37 79 -89t74 -116t55 -138t21 -155q0 -83 -21 -158t-56 -139.5t-76 -117t-81 -91.5z" />
    <glyph glyph-name="asterisk" unicode="*" horiz-adv-x="453" vert-adv-y="1485" 
d="M221 403q-24 0 -30.5 14.5t-2.5 34.5l28 127l-89 -82q-16 -15 -35.5 -18t-32.5 20t-3 36.5t28 18.5l123 41l-112 36q-26 9 -35.5 24.5t2.5 38.5q11 20 28 19t31 -14l96 -90l-24 117q-5 25 4 42.5t35 17.5q22 0 29.5 -13.5t2.5 -35.5l-29 -129l90 82q18 16 38 17.5
t32 -21.5q12 -21 3 -33.5t-31 -19.5l-123 -39l113 -39q22 -7 33 -24t-1 -40q-11 -20 -27 -18.5t-32 15.5l-95 90l24 -116q5 -22 -3.5 -40.5t-34.5 -18.5z" />
    <glyph glyph-name="plus" unicode="+" horiz-adv-x="582" vert-adv-y="1485" 
d="M270 84v206h-177v32h177v196h35v-196h184v-32h-184v-206h-35z" />
    <glyph glyph-name="comma" unicode="," horiz-adv-x="325" vert-adv-y="1485" 
d="M114 -170l-16 22q32 27 51 52.5t27 49t8 46.5h-21q-26 0 -43.5 7.5t-26 21.5t-8.5 33q0 31 21 51.5t54 20.5q43 0 63 -28.5t20 -67.5q0 -32 -15 -70.5t-43.5 -74.5t-70.5 -63z" />
    <glyph glyph-name="hyphen" unicode="-" horiz-adv-x="350" vert-adv-y="1485" 
d="M42 258v68h266v-68h-266z" />
    <glyph glyph-name="period" unicode="." horiz-adv-x="326" vert-adv-y="1485" 
d="M163 -15q-35 0 -57 21.5t-22 54.5q0 34 22 55t57 21t57 -21t22 -54t-22 -55t-57 -22z" />
    <glyph glyph-name="slash" unicode="/" horiz-adv-x="408" vert-adv-y="1485" 
d="M17 -110l333 912h40l-332 -912h-41z" />
    <glyph glyph-name="zero" unicode="0" horiz-adv-x="607" vert-adv-y="1485" 
d="M302 -13q-85 0 -143.5 47t-88 129t-29.5 188q0 109 23.5 183t62 119t86.5 64.5t97 19.5q69 0 127 -38t93.5 -118.5t35.5 -205.5q0 -128 -35.5 -214.5t-95 -130t-133.5 -43.5zM309 16q33 0 57.5 17.5t41 58t25 106.5t8.5 162q0 98 -9 165t-27 107.5t-43.5 58.5t-59.5 18
q-31 0 -56 -16t-43 -55t-28 -104.5t-10 -164.5q0 -92 9.5 -158.5t28 -110t45 -64t61.5 -20.5z" />
    <glyph glyph-name="one" unicode="1" horiz-adv-x="415" vert-adv-y="1485" 
d="M38 0v22l85 8q19 2 25.5 13t6.5 35v536q0 27 -5 41t-36 15l-81 5l3 22l227 39l12 -12v-649q0 -23 6 -33t27 -12l82 -8v-22h-352z" />
    <glyph glyph-name="two" unicode="2" horiz-adv-x="536" vert-adv-y="1485" 
d="M49 0l-9 75q84 86 140.5 150t90.5 111.5t52 85.5t24.5 70.5t6.5 68.5q0 68 -31.5 105t-89.5 37q-43 0 -74.5 -15t-48.5 -35q19 -18 32.5 -33t21 -28t7.5 -27q0 -21 -16 -37.5t-46 -16.5q-33 0 -50.5 19t-17.5 51q0 40 27 75.5t76.5 58t115.5 22.5q72 0 120 -23t73.5 -64
t25.5 -95q0 -35 -9 -67t-31.5 -67.5t-63.5 -80t-105.5 -103.5t-157.5 -141h219q32 0 51 3t31.5 13.5t22 32.5t21.5 60h27l-19 -205h-416z" />
    <glyph glyph-name="three" unicode="3" horiz-adv-x="552" vert-adv-y="1485" 
d="M252 -14q-45 0 -80 11t-61 29t-44.5 42t-30.5 50l20 17q20 -35 46.5 -59t58.5 -36t70 -12q48 0 79.5 21t47.5 58.5t16 88.5q0 90 -48 125.5t-141 29.5l5 30q62 6 99.5 25.5t54.5 57t17 94.5q0 69 -31.5 107.5t-90.5 38.5q-38 0 -70.5 -14.5t-50.5 -37.5q33 -31 46.5 -50
t13.5 -37q0 -15 -8 -27t-22 -19t-33 -7q-24 0 -39 10t-21 26t-6 32q0 40 26 76t75.5 58.5t117.5 22.5q63 0 110 -19.5t73 -58.5t26 -97q0 -48 -20.5 -84.5t-55 -60.5t-76.5 -37v-3q53 -9 92.5 -30.5t61.5 -58.5t22 -92q0 -54 -21 -93t-56 -65t-80 -39t-92 -13z" />
    <glyph glyph-name="four" unicode="4" horiz-adv-x="576" vert-adv-y="1485" 
d="M208 0v21l83 9q23 3 29 15t6 34v93h-300l-6 37l312 507l101 18l13 -10v-503h106v-49h-106v-97q0 -22 6.5 -33t28.5 -13l54 -6v-23h-327zM66 221h260v419h-2z" />
    <glyph glyph-name="five" unicode="5" horiz-adv-x="523" vert-adv-y="1485" 
d="M243 -14q-42 0 -82.5 12t-74.5 41.5t-59 79.5l20 16q34 -55 77 -80.5t96 -25.5q45 0 76 21t47.5 64t16.5 109q0 77 -34 122.5t-99 45.5q-38 0 -70 -12t-63 -35l-21 18l36 361h350v-17l-23 -88h-304l-24 -232q34 26 76.5 43t88.5 17q63 0 111 -25.5t74.5 -74.5t26.5 -120
q0 -60 -18 -105.5t-51 -75t-77 -44.5t-96 -15z" />
    <glyph glyph-name="six" unicode="6" horiz-adv-x="566" vert-adv-y="1485" 
d="M288 -14q-89 0 -142.5 41.5t-77.5 115.5t-24 173q0 81 17 156.5t54 135.5t96.5 94.5t143.5 34.5q38 0 79 -13.5t69 -40t28 -67.5q0 -22 -7.5 -37.5t-22.5 -23.5t-37 -8q-20 0 -33.5 7t-19.5 18t-6 23q0 8 3.5 19.5t12.5 28.5t25 40q-19 14 -42 20t-52 6q-37 0 -65.5 -16
t-50 -46.5t-35.5 -73.5t-22.5 -95.5t-10.5 -113.5q20 39 62.5 64t99.5 25q58 0 103 -25.5t70.5 -75t25.5 -121.5q0 -81 -29.5 -135.5t-83.5 -82t-128 -27.5zM292 14q38 0 64.5 19t41 65t14.5 127q0 65 -14.5 105t-40.5 59t-62 19q-31 0 -61 -16t-49 -51t-19 -96
q0 -70 12.5 -121.5t40 -80.5t73.5 -29z" />
    <glyph glyph-name="seven" unicode="7" horiz-adv-x="518" vert-adv-y="1485" 
d="M178 -11l-14 10q-1 58 7.5 129.5t37 153t84.5 168.5t150 176h-262q-31 0 -50 -3.5t-30.5 -14.5t-20 -31.5t-18.5 -54.5h-28l19 201h428l9 -87q-65 -74 -104 -145t-58.5 -146t-26 -159.5t-5.5 -185.5z" />
    <glyph glyph-name="eight" unicode="8" horiz-adv-x="566" vert-adv-y="1485" 
d="M272 -13q-70 0 -125.5 21t-88 62.5t-32.5 103.5q0 40 16 75t53 65.5t100 54.5q-55 27 -85 55.5t-42 60.5t-12 69q0 45 25 87.5t75 69t127 26.5q72 0 120.5 -20.5t73.5 -55.5t25 -78q0 -39 -15 -69.5t-45.5 -55t-77.5 -45.5q66 -29 102.5 -63t52 -71.5t15.5 -76.5
q0 -53 -21.5 -93t-58.5 -67.5t-84 -41t-98 -13.5zM282 18q41 0 70 16.5t44.5 49t15.5 82.5q0 36 -10.5 62t-33 47t-58.5 40t-88 40q-47 -35 -64 -81t-17 -98t17.5 -87t48.5 -53t75 -18zM336 425q29 34 44 73t15 85q0 45 -16.5 72t-43 39.5t-57.5 12.5q-32 0 -58 -11t-41 -36
t-15 -67q0 -36 14 -63t51 -51.5t107 -53.5z" />
    <glyph glyph-name="nine" unicode="9" horiz-adv-x="556" vert-adv-y="1485" 
d="M246 -14q-68 0 -121 29t-85 97l19 17q27 -51 70 -76t97 -25q43 0 73 19t49 58t29.5 99t14.5 143q-24 -38 -61.5 -60t-91.5 -22q-59 0 -106 24.5t-74.5 73t-27.5 118.5q0 86 32 143t87 85t125 28q68 0 114.5 -23.5t74 -66.5t39.5 -102t12 -129q0 -219 -70.5 -324.5
t-198.5 -105.5zM266 306q24 0 46.5 8.5t41 29t29 58t10.5 96.5q0 64 -12.5 111.5t-39.5 73.5t-73 26q-27 0 -49 -10.5t-37 -34.5t-23 -64.5t-8 -99.5q0 -69 14 -112t40 -62.5t61 -19.5z" />
    <glyph glyph-name="colon" unicode=":" horiz-adv-x="326" vert-adv-y="1485" 
d="M163 -15q-35 0 -57 21.5t-22 54.5q0 34 22 55t57 21t57 -21t22 -54t-22 -55t-57 -22zM163 375q-35 0 -57 21.5t-22 54.5q0 34 22 55t57 21t57 -21t22 -54t-22 -55t-57 -22z" />
    <glyph glyph-name="semicolon" unicode=";" horiz-adv-x="325" vert-adv-y="1485" 
d="M114 -170l-16 22q32 27 51 52.5t27 49t8 46.5h-21q-26 0 -43.5 7.5t-26 21.5t-8.5 33q0 31 21 51.5t55 20.5q42 0 62 -28.5t20 -67.5q0 -32 -15 -70.5t-43.5 -74.5t-70.5 -63zM160 375q-33 0 -55 21.5t-22 54.5q0 34 21.5 55t55.5 21q35 0 56.5 -21t21.5 -54t-21.5 -55
t-56.5 -22z" />
    <glyph glyph-name="less" unicode="&#x3c;" horiz-adv-x="582" vert-adv-y="1485" 
d="M454 43l-380 227v28l379 228l17 -27l-357 -215l357 -213z" />
    <glyph glyph-name="equal" unicode="=" horiz-adv-x="582" vert-adv-y="1485" 
d="M101 378v32h380v-32h-380zM101 197v32h380v-32h-380z" />
    <glyph glyph-name="greater" unicode="&#x3e;" horiz-adv-x="582" vert-adv-y="1485" 
d="M128 43l-16 28l357 213l-357 215l17 27l379 -228v-28z" />
    <glyph glyph-name="question" unicode="?" horiz-adv-x="541" vert-adv-y="1485" 
d="M221 200v144q0 20 5 37.5t20 37.5t43 46q39 38 56.5 67.5t17.5 73.5q0 48 -30.5 75t-77.5 27q-33 0 -65 -10.5t-50 -29.5q20 -28 32.5 -50t12.5 -40q0 -19 -17.5 -33.5t-44.5 -14.5q-32 0 -46 18.5t-14 45.5q0 39 28.5 72t75.5 52t102 19q61 0 106 -19t70.5 -55.5
t25.5 -88.5q0 -34 -10.5 -64t-33.5 -59t-62 -63q-36 -32 -57.5 -52.5t-32.5 -34t-14.5 -24t-3.5 -23.5v-54h-36zM241 -14q-33 0 -54.5 20.5t-21.5 52.5q0 33 21.5 53.5t54.5 20.5t53.5 -20.5t20.5 -52.5t-20.5 -53t-53.5 -21z" />
    <glyph glyph-name="at" unicode="@" horiz-adv-x="868" vert-adv-y="1485" 
d="M411 -188q-69 0 -133.5 21t-115.5 65.5t-80.5 114.5t-29.5 167q0 85 27.5 157t79.5 125.5t126 82.5t167 29q82 0 148.5 -20t115 -61t74 -102.5t25.5 -144.5q0 -89 -28.5 -146.5t-76.5 -85t-104 -27.5q-36 0 -54 11t-22.5 33.5t-2.5 55.5l7 125h-4l-26 -75
q-14 -39 -29 -67.5t-32 -47t-38 -27t-46 -8.5q-34 0 -58.5 12t-40 33.5t-22.5 51t-7 62.5q0 90 28.5 146t75 82t98.5 26q37 0 66.5 -8.5t60.5 -26.5l45 30l13 -6l-14 -300q-2 -35 2 -48t25 -13q40 0 74.5 24.5t55.5 72t21 115.5q0 78 -22.5 135.5t-66 95t-104.5 56
t-138 18.5q-107 0 -189.5 -44.5t-129 -125.5t-46.5 -192q0 -92 27 -157.5t73.5 -105.5t106 -59.5t123.5 -19.5q80 0 132 22t98 58l16 -20q-46 -43 -109 -66t-142 -23zM383 31q29 1 49.5 24t39.5 71t43 120l31 97q-23 12 -43.5 19t-49.5 7q-32 0 -56 -20t-39.5 -52
t-23.5 -70.5t-8 -75.5q0 -31 5 -58t18 -44t34 -18z" />
    <glyph glyph-name="A" unicode="A" horiz-adv-x="694" vert-adv-y="1485" 
d="M2 0v22l38 7q18 4 28 14t21 41l214 639h92l215 -641q9 -26 17 -36.5t29 -15.5l36 -7v-23h-281v22l51 6q19 3 23.5 14t-3.5 36l-49 165h-254l-52 -160q-7 -23 -2.5 -37.5t27.5 -17.5l56 -7v-21h-206zM190 271h233l-114 362h-2z" />
    <glyph glyph-name="B" unicode="B" horiz-adv-x="660" vert-adv-y="1485" 
d="M56 0v22l54 4q19 3 25 14t6 41v570q0 25 -6.5 35t-26.5 12l-52 4v21h268q89 0 146 -18.5t84.5 -55.5t27.5 -92q0 -45 -19.5 -79.5t-54 -57.5t-79.5 -33v-4q93 -8 143 -52t50 -123q0 -68 -34 -114t-99.5 -70t-160.5 -24h-272zM324 27q55 0 93 19.5t57.5 58t19.5 97.5
q0 60 -19.5 95.5t-57 51t-91.5 15.5q-42 0 -64 -3v-329q11 -2 27.5 -3.5t34.5 -1.5zM309 390q43 0 76 17t51.5 52.5t18.5 91.5q0 55 -16 87t-47.5 45.5t-80.5 13.5h-49v-305q9 -1 20 -1.5t27 -0.5z" />
    <glyph glyph-name="C" unicode="C" horiz-adv-x="695" vert-adv-y="1485" 
d="M395 -14q-110 0 -187 45.5t-118 131t-41 203.5q0 80 24 147.5t67 117.5t102.5 78t131.5 28q63 0 110 -23t77 -54l11 79h23l40 -236l-26 -6q-25 67 -57.5 114t-75.5 73t-98 26q-70 0 -114 -40.5t-65 -116.5t-21 -184q0 -75 16 -138t46.5 -109t74 -71t98.5 -25
q45 0 85.5 14t74.5 41.5t59 68.5l19 -15q-19 -32 -45 -59t-58.5 -47.5t-71 -31.5t-81.5 -11z" />
    <glyph glyph-name="D" unicode="D" horiz-adv-x="770" vert-adv-y="1485" 
d="M56 0v22l54 4q19 3 25 13t6 39v573q0 25 -6.5 35t-26.5 12l-52 4v21h299q61 0 115.5 -11t100 -36t79.5 -65.5t52 -97.5t18 -135q0 -103 -29 -175t-82 -117t-125 -65.5t-158 -20.5h-270zM330 27q65 0 113.5 18.5t81.5 59t49.5 107.5t16.5 164q0 109 -29 180t-84 105.5
t-132 34.5h-84v-664q10 -2 28.5 -3.5t39.5 -1.5z" />
    <glyph glyph-name="E" unicode="E" horiz-adv-x="614" vert-adv-y="1485" 
d="M56 0v22l54 4q19 3 25 13t6 39v573q0 25 -6.5 35t-26.5 12l-52 4v21h466l29 -168l-24 -6q-16 45 -31.5 73.5t-34.5 45t-45 23t-64 6.5h-90v-313h86q31 0 47.5 6.5t25.5 26t19 58.5l23 3v-212l-23 -4q-8 39 -17 59t-26 27.5t-49 7.5h-86v-329h118q36 0 60.5 6.5t42 23.5
t32 47t28.5 77h25l-18 -181h-494z" />
    <glyph glyph-name="F" unicode="F" horiz-adv-x="593" vert-adv-y="1485" 
d="M56 0v22l54 4q19 3 25 13t6 39v573q0 25 -6.5 35t-26.5 12l-52 4v21h467l29 -173l-24 -7q-16 49 -33 79.5t-36.5 46.5t-45 22t-61.5 6h-90v-323h79q35 0 51.5 7t26 26.5t19.5 58.5l22 3v-220l-22 -3q-9 44 -19 65t-27.5 28.5t-51.5 7.5h-78v-271q0 -26 7 -37.5t30 -12.5
l70 -4v-22h-313z" />
    <glyph glyph-name="G" unicode="G" horiz-adv-x="750" vert-adv-y="1485" 
d="M365 -14q-95 0 -166 43.5t-110.5 126t-39.5 199.5q0 82 24.5 151.5t69.5 121.5t106 80.5t133 28.5q64 0 109 -23.5t75 -53.5l11 79h23l44 -236l-26 -5q-24 63 -58 110.5t-77.5 74.5t-98.5 27q-48 0 -86.5 -23.5t-65 -68.5t-40.5 -109.5t-14 -147.5q0 -77 15.5 -139
t43 -106.5t66 -68.5t83.5 -24q31 0 58.5 6.5t50.5 19t39 32.5v183q0 26 -6.5 36t-26.5 12l-56 4v22h281v-22l-49 -4q-18 -2 -24 -12.5t-6 -38.5v-265h-22l-75 61q-22 -22 -49 -38t-60 -24.5t-76 -8.5z" />
    <glyph glyph-name="H" unicode="H" horiz-adv-x="831" vert-adv-y="1485" 
d="M56 0v22l54 4q19 3 25 13t6 39v573q0 25 -6.5 35t-26.5 12l-52 4v21h289v-21l-53 -4q-17 -2 -23.5 -12.5t-6.5 -38.5v-262h308v266q0 25 -6 35t-27 12l-50 4v21h288v-21l-53 -4q-19 -2 -25 -13t-6 -38v-573q0 -25 6 -35t27 -13l51 -4v-22h-288v22l52 4q19 3 25 13t6 39
v278h-308v-282q0 -26 6.5 -35.5t25.5 -12.5l51 -4v-22h-289z" />
    <glyph glyph-name="I" unicode="I" horiz-adv-x="404" vert-adv-y="1485" 
d="M56 0v22l55 4q19 3 25 13.5t6 38.5v573q0 25 -6.5 35t-27.5 12l-52 4v21h292v-21l-55 -4q-17 -2 -24 -12.5t-7 -38.5v-573q0 -26 6.5 -35.5t26.5 -12.5l53 -4v-22h-292z" />
    <glyph glyph-name="J" unicode="J" horiz-adv-x="565" vert-adv-y="1485" 
d="M222 -14q-53 0 -95.5 16.5t-67.5 46.5t-25 68q0 24 10.5 44t28.5 31.5t41 11.5q32 0 50 -13.5t18 -37.5q0 -22 -16 -51t-36 -58q17 -13 41.5 -21.5t51.5 -8.5q35 0 57.5 16t33 55t10.5 109v456q0 25 -6.5 35.5t-27.5 11.5l-66 4v22h309v-21l-58 -4q-18 -2 -24.5 -12.5
t-6.5 -38.5v-415q0 -119 -58 -182.5t-164 -63.5z" />
    <glyph glyph-name="K" unicode="K" horiz-adv-x="755" vert-adv-y="1485" 
d="M639 -14q-31 0 -55.5 6.5t-44 19.5t-36 33t-32.5 46l-158 260l-48 -48v-229q0 -26 6.5 -35.5t25.5 -12.5l56 -4v-22h-297v22l57 4q19 3 25 13t6 39v573q0 25 -6.5 35t-26.5 12l-54 4v21h296v-21l-58 -4q-18 -2 -24 -13t-6 -38v-308l297 302q14 14 14 26.5t-12 21t-37 9.5
l-48 3l4 22h235v-22l-32 -4q-17 -1 -32.5 -9.5t-30.5 -22t-33 -31.5l-194 -199l183 -296q25 -39 43 -62t36.5 -33t42.5 -10q12 0 23 4t22 10l8 -16q-20 -22 -50 -34t-65 -12z" />
    <glyph glyph-name="L" unicode="L" horiz-adv-x="608" vert-adv-y="1485" 
d="M56 0v22l54 4q19 3 25 13t6 39v573q0 25 -6.5 35t-26.5 12l-52 4v21h301v-21l-62 -5q-19 -1 -26 -10t-7 -37v-623h111q36 0 61.5 7.5t44.5 27.5t35 54.5t31 89.5h26l-26 -206h-489z" />
    <glyph glyph-name="M" unicode="M" horiz-adv-x="985" vert-adv-y="1485" 
d="M49 0v22l56 8q19 3 25 13.5t7 37.5l34 565q2 26 -4.5 35.5t-27.5 12.5l-58 8v21h226l188 -510l2 2l186 508h220v-21l-58 -8q-15 -2 -23.5 -10.5t-6.5 -40.5l34 -566q1 -26 7 -35.5t25 -12.5l55 -8v-21h-295v22l58 8q19 3 26 12.5t5 37.5l-32 583l-1 1l-202 -551h-78
l-209 551v-1l-34 -586q-1 -24 4 -34.5t28 -13.5l55 -8v-21h-212z" />
    <glyph glyph-name="N" unicode="N" horiz-adv-x="778" vert-adv-y="1485" 
d="M56 0v22l53 4q20 1 25.5 12.5t5.5 38.5v574q0 25 -6 35t-27 12l-51 4v21h200l349 -591l1 2v516q0 26 -6 36t-27 12l-52 4v21h205v-21l-53 -4q-19 -2 -25 -12.5t-6 -39.5v-646h-90l-375 624l-1 -2v-549q0 -25 6.5 -35t26.5 -12l52 -4v-22h-205z" />
    <glyph glyph-name="O" unicode="O" horiz-adv-x="759" vert-adv-y="1485" 
d="M378 -14q-101 0 -175 44.5t-114 126t-40 191.5q0 123 41 210t117 133t181 46q98 0 170 -43t112 -123t40 -191q0 -89 -23 -162t-66 -124.5t-105 -79.5t-138 -28zM392 16q48 0 83.5 19t58.5 59.5t34 105.5t11 158q0 91 -13.5 157.5t-39.5 109.5t-64.5 63.5t-88.5 20.5
q-48 0 -84.5 -19t-61.5 -59.5t-37.5 -104.5t-12.5 -155q0 -90 14.5 -157t42.5 -111t67.5 -65.5t90.5 -21.5z" />
    <glyph glyph-name="P" unicode="P" horiz-adv-x="620" vert-adv-y="1485" 
d="M56 0v22l54 5q19 2 25 12t6 39v573q0 25 -6.5 35t-26.5 12l-52 4v21h262q54 0 97.5 -7.5t76.5 -23.5t55 -39.5t33 -55.5t11 -73q0 -44 -12.5 -79.5t-35 -61.5t-54 -43t-69.5 -26t-80 -9q-27 0 -48.5 1.5t-29.5 3.5v-234q0 -26 7 -37.5t30 -12.5l67 -4v-22h-310zM314 333
q74 0 111.5 46.5t37.5 140.5q0 65 -16.5 104t-50.5 56t-88 17h-46v-360q7 -2 21.5 -3t30.5 -1z" />
    <glyph glyph-name="Q" unicode="Q" horiz-adv-x="760" vert-adv-y="1485" 
d="M686 -191q-40 0 -73.5 21t-65 63.5t-67.5 107.5q-23 -7 -48.5 -11t-53.5 -4q-101 0 -175 44.5t-114 125.5t-40 192q0 123 41 210t117.5 133t180.5 46q98 0 170.5 -43t112.5 -123t40 -191q0 -118 -40.5 -206t-113.5 -136q29 -42 54.5 -72t51.5 -46t57 -16q32 0 61 14.5
t58 51.5l12 -11q-21 -56 -47 -89t-55.5 -47t-62.5 -14zM392 16q21 0 39 4t33 13q-27 50 -47.5 85t-38 56.5t-35.5 31t-39 9.5q-30 0 -52 -12t-42 -41q17 -50 43 -82.5t61.5 -48t77.5 -15.5zM521 88q30 38 44.5 105t14.5 165q0 91 -13.5 157.5t-40 109.5t-65 63.5t-88.5 20.5
q-48 0 -84.5 -19t-61.5 -59.5t-37.5 -104.5t-12.5 -155q0 -55 6 -101t18 -84q24 33 52 50t67 17q42 0 73.5 -18.5t61 -55t66.5 -91.5z" />
    <glyph glyph-name="R" unicode="R" horiz-adv-x="707" vert-adv-y="1485" 
d="M604 -14q-38 0 -66 12t-49.5 41t-41.5 80l-45 118q-16 42 -28.5 66.5t-28.5 35t-43 10.5h-22t-18 -2v-271q0 -26 7 -37.5t30 -12.5l64 -4v-22h-307v22l54 4q19 3 25 13t6 39v573q0 25 -6.5 35t-26.5 12l-52 4v21h265q66 0 117.5 -10t86.5 -31.5t53.5 -55t18.5 -80.5
q0 -30 -10 -56.5t-28 -48.5t-44 -38.5t-59 -28t-70 -16.5v-3q55 -10 89.5 -38.5t51.5 -70.5l38 -94q14 -33 26.5 -59t28.5 -41.5t41 -15.5q14 0 26.5 3t23.5 9l7 -15q-22 -23 -51 -35t-63 -12zM312 375q51 0 85.5 19t52.5 55.5t18 86.5q0 56 -16.5 91t-50.5 52.5t-88 17.5
h-51v-321q17 -1 29 -1h21z" />
    <glyph glyph-name="S" unicode="S" horiz-adv-x="596" vert-adv-y="1485" 
d="M301 -14q-55 0 -104 18.5t-88 48.5l-15 -61h-23l-19 228l25 4q13 -51 35 -90t51 -65.5t63 -40t69 -13.5q46 0 77.5 16.5t48.5 46.5t17 68q0 47 -18 78.5t-54.5 54.5t-93.5 40q-52 17 -90.5 37.5t-64 46.5t-38.5 59t-13 74q0 36 11.5 67t32 55.5t49 42.5t63.5 27t74 9
q49 0 90.5 -17t70.5 -41l13 58h22l25 -221l-25 -4q-17 67 -44.5 111t-64 66t-82.5 22q-62 0 -96 -35.5t-34 -89.5q0 -42 17.5 -69.5t52.5 -47.5t89 -39q53 -18 93 -39t67 -47t40.5 -58.5t13.5 -74.5q0 -49 -19.5 -90t-53 -71.5t-77.5 -47t-93 -16.5z" />
    <glyph glyph-name="T" unicode="T" horiz-adv-x="687" vert-adv-y="1485" 
d="M181 0v22l69 5q19 1 26.5 13t7.5 38v619h-58q-34 0 -59 -9.5t-45 -30.5t-36 -55.5t-33 -86.5l-26 6l30 202h575l27 -202l-26 -6q-16 52 -32.5 86.5t-35.5 55.5t-44 30.5t-59 9.5h-58v-623q0 -25 7.5 -35t28.5 -12l67 -5v-22h-326z" />
    <glyph glyph-name="U" unicode="U" horiz-adv-x="768" vert-adv-y="1485" 
d="M392 -14q-66 0 -116 16t-83 49t-49 82t-16 115v402q0 25 -6.5 35.5t-27.5 12.5l-51 4v21h289v-21l-54 -4q-17 -2 -23.5 -12.5t-6.5 -38.5v-395q0 -72 17.5 -121.5t56 -74.5t101.5 -25q62 0 103.5 26.5t63 77t21.5 120.5v395q0 27 -6.5 36.5t-27.5 11.5l-46 4v21h190v-21
l-44 -4q-19 -2 -25 -12.5t-6 -38.5v-389q0 -92 -31.5 -152.5t-88.5 -90t-134 -29.5z" />
    <glyph glyph-name="V" unicode="V" horiz-adv-x="702" vert-adv-y="1485" 
d="M309 0l-224 642q-10 27 -17.5 37t-28.5 14l-36 7v23h282v-22l-53 -6q-19 -2 -23.5 -12.5t3.5 -37.5l180 -549h3l181 544q8 25 3.5 38.5t-27.5 16.5l-66 7v21h227v-21l-53 -7q-18 -3 -27.5 -14t-19.5 -41l-215 -640h-89z" />
    <glyph glyph-name="W" unicode="W" horiz-adv-x="1018" vert-adv-y="1485" 
d="M249 0l-161 642q-7 26 -15 36.5t-31 14.5l-39 7v23h284v-21l-49 -7q-18 -3 -25 -11t0 -40l126 -547h5l153 626h98l171 -622h5l122 534q6 25 2.5 41t-30.5 19l-52 7v21h216v-21l-52 -7q-13 -2 -22 -7.5t-15.5 -17.5t-11.5 -34l-148 -636h-105l-166 611h-3l-150 -611h-107z
" />
    <glyph glyph-name="X" unicode="X" horiz-adv-x="707" vert-adv-y="1485" 
d="M2 0v22l40 5q22 3 36 10t26 19.5t26 32.5l170 245l-194 306q-17 26 -30 38.5t-36 16.5l-29 5l5 23h267v-22l-40 -4q-17 -1 -19 -10.5t12 -33.5l146 -228l140 217q15 23 10 36.5t-27 15.5l-57 6l4 23h225v-22l-41 -4q-18 -2 -30 -8.5t-22.5 -19t-23.5 -31.5l-158 -243
l191 -306q19 -29 37 -44t39 -18l37 -5v-22h-291v22l43 3q20 1 22 13t-14 36l-146 231l-158 -232q-14 -20 -6.5 -31.5t33.5 -13.5l53 -6v-22h-240z" />
    <glyph glyph-name="Y" unicode="Y" horiz-adv-x="670" vert-adv-y="1485" 
d="M193 0v22l56 4q18 3 24.5 13t6.5 39v238l-186 323q-16 26 -28.5 38.5t-34.5 16.5l-36 7v22h300v-21l-53 -7q-23 -3 -27.5 -16t8.5 -35l161 -283h5l157 279q13 23 9 35.5t-27 16.5l-57 10v21h218v-21l-47 -8q-17 -2 -28 -12.5t-30 -42.5l-184 -323v-242q0 -26 6.5 -35.5
t25.5 -12.5l53 -4v-22h-292z" />
    <glyph glyph-name="Z" unicode="Z" horiz-adv-x="640" vert-adv-y="1485" 
d="M44 0v24l416 673h-230q-24 0 -41.5 -8t-32 -29t-28.5 -58.5t-31 -97.5l-27 -2l12 221h506v-25l-412 -671h227q32 0 55.5 7t41 26.5t33 55t30.5 90.5h27l-20 -206h-526z" />
    <glyph glyph-name="bracketleft" unicode="[" horiz-adv-x="338" vert-adv-y="1485" 
d="M103 -212v1024h191l1 -22l-73 -6q-17 -1 -22.5 -9t-5.5 -34v-881q0 -27 5.5 -34.5t22.5 -9.5l73 -6l-1 -22h-191z" />
    <glyph glyph-name="backslash" unicode="\" horiz-adv-x="407" vert-adv-y="1485" 
d="M348 -110l-331 912h40l332 -912h-41z" />
    <glyph glyph-name="bracketright" unicode="]" horiz-adv-x="338" vert-adv-y="1485" 
d="M45 -212l-2 22l73 6q18 2 23 9.5t5 34.5v881q0 26 -5.5 34t-22.5 9l-73 6l2 22h190v-1024h-190z" />
    <glyph glyph-name="asciicircum" unicode="^" horiz-adv-x="580" vert-adv-y="1485" 
d="M81 383l-28 17l221 337h31l222 -337l-28 -17l-209 316z" />
    <glyph glyph-name="underscore" unicode="_" horiz-adv-x="470" vert-adv-y="1485" 
d="M0 -94v54h470v-54h-470z" />
    <glyph glyph-name="grave" unicode="`" vert-adv-y="1485" 
d="M296 582l-134 95q-15 12 -26 25t-11 29q0 13 5.5 24.5t16 19t25.5 7.5q12 0 22 -6.5t21 -24.5l93 -156z" />
    <glyph glyph-name="a" unicode="a" horiz-adv-x="544" vert-adv-y="1485" 
d="M191 -14q-66 0 -103.5 36t-37.5 99q0 52 26.5 85t89 50.5t168.5 21.5v112q0 40 -10.5 65t-31.5 36.5t-56 11.5q-31 0 -61.5 -10t-46.5 -26q18 -21 28 -36t14 -25.5t4 -18.5q0 -19 -16 -33t-44 -14q-30 0 -45.5 15t-15.5 41q0 33 26.5 63t72 49t100.5 19q65 0 108.5 -19.5
t65.5 -60t22 -105.5v-256q0 -26 11 -37.5t31 -11.5q11 0 23 3t24 9l7 -15q-23 -26 -50 -37t-53 -11q-47 0 -71 24.5t-29 70.5q-17 -34 -38 -55t-48.5 -30.5t-63.5 -9.5zM242 37q27 0 48 13t32.5 36.5t11.5 53.5v115q-61 -1 -98 -12.5t-53.5 -37.5t-16.5 -71q0 -47 19.5 -72
t56.5 -25z" />
    <glyph glyph-name="b" unicode="b" horiz-adv-x="627" vert-adv-y="1485" 
d="M117 -13l-18 6v681q0 32 -5.5 45t-32.5 16l-43 4l2 21l185 6l8 -6v-323l1 -1q18 33 42 53t54 29t64 9q63 0 109.5 -28t71.5 -83t25 -139q0 -91 -28.5 -156t-83.5 -100t-133 -35q-42 0 -80 12t-67 32zM326 16q41 0 71 22.5t46 75.5t16 142q0 80 -14 128.5t-42 71t-70 22.5
q-35 0 -62 -15t-42.5 -45t-15.5 -74v-282q21 -19 50 -32.5t63 -13.5z" />
    <glyph glyph-name="c" unicode="c" horiz-adv-x="508" vert-adv-y="1485" 
d="M276 -14q-69 0 -121 30.5t-81.5 89t-29.5 141.5q0 86 32 149t89 97t132 34q54 0 93.5 -17.5t61 -46t21.5 -62.5q0 -20 -7 -35.5t-21.5 -24.5t-36.5 -9q-30 0 -45.5 14t-15.5 37q0 15 10 34.5t31 54.5q-19 14 -40.5 21t-49.5 7q-39 0 -69.5 -23t-47.5 -71.5t-17 -125.5
q0 -105 41 -159.5t112 -54.5q48 0 83 16t62 41l16 -15q-35 -59 -84.5 -90.5t-117.5 -31.5z" />
    <glyph glyph-name="d" unicode="d" horiz-adv-x="633" vert-adv-y="1485" 
d="M255 -14q-65 0 -112 28.5t-71.5 85.5t-24.5 141q0 89 29.5 153t85 98.5t131.5 34.5q34 0 66.5 -8.5t55.5 -23.5v185q0 32 -7.5 43t-34.5 13l-46 4l2 20l192 6l8 -7v-689q0 -24 6 -33t26 -12l45 -4v-22l-176 -8l-11 87h-2q-16 -31 -40 -51.5t-54 -30.5t-68 -10zM293 35
q36 0 63 15t43 44t16 73v285q-24 20 -55 32t-64 12q-44 0 -72.5 -24t-42 -76.5t-13.5 -139.5q0 -78 14.5 -127t42.5 -71.5t68 -22.5z" />
    <glyph glyph-name="e" unicode="e" horiz-adv-x="526" vert-adv-y="1485" 
d="M280 -14q-72 0 -125 30.5t-82 88.5t-29 141q0 90 32 152.5t88.5 95.5t130.5 33q59 0 101.5 -22t66 -63.5t23.5 -96.5q0 -17 -1 -33t-4 -32h-316q-2 -74 17 -121.5t54.5 -70t82.5 -22.5q42 0 79.5 13.5t76.5 49.5l15 -15q-37 -65 -90 -96.5t-120 -31.5zM165 306h206
q1 11 1.5 23.5t0.5 26.5q0 80 -21 113t-66 33q-35 0 -60.5 -19t-40.5 -62t-20 -115z" />
    <glyph glyph-name="f" unicode="f" horiz-adv-x="380" vert-adv-y="1485" 
d="M35 0v22l47 5q19 2 24.5 12t5.5 38v408h-72v21l72 7v30q0 54 12.5 98t36.5 75.5t60.5 48.5t84.5 17q47 0 79.5 -13t49 -35t16.5 -50q0 -24 -15 -42t-45 -18q-26 0 -40 11t-14 29q0 14 7.5 29.5t27.5 47.5q-12 7 -29 11.5t-35 4.5q-30 0 -48 -14t-26 -44t-8 -79v-107h144
v-28h-144v-411q0 -25 5.5 -34t26.5 -11l73 -7v-22h-296z" />
    <glyph glyph-name="g" unicode="g" horiz-adv-x="575" vert-adv-y="1485" 
d="M264 -230q-62 0 -107 8t-73.5 23.5t-42.5 38t-14 52.5q0 26 11.5 47.5t35.5 36.5t60 23v4q-39 9 -58.5 32t-19.5 52t15 53.5t54 63.5v3q-36 18 -55.5 52t-19.5 86q0 57 27 97.5t76.5 62.5t114.5 22q26 0 50.5 -4.5t48.5 -12.5t43 -21q16 50 38.5 79.5t59.5 29.5
q20 0 36 -7.5t25 -20.5t9 -31q0 -23 -17 -41.5t-43 -18.5q-15 0 -25 8t-18 22l-17 28q-9 -14 -15 -28.5t-12 -33.5q21 -23 36 -56t15 -69q0 -53 -26 -93.5t-73.5 -62.5t-112.5 -22q-37 0 -66 6t-51 15q-17 -20 -24.5 -32t-7.5 -26q0 -16 8.5 -26.5t26.5 -15.5t46 -5h147
q98 0 146.5 -31t48.5 -99q0 -32 -10.5 -60.5t-32.5 -52t-55 -40.5t-78.5 -26t-103.5 -9zM272 -200q49 0 86.5 15t58 41t20.5 59q0 41 -25.5 59t-74.5 18h-171q-20 -15 -30.5 -37.5t-10.5 -45.5q0 -56 36 -82.5t111 -26.5zM267 201q49 0 74.5 38t25.5 108q0 74 -28 113
t-78 39q-49 0 -72.5 -37.5t-23.5 -110.5q0 -70 27.5 -110t74.5 -40z" />
    <glyph glyph-name="h" unicode="h" horiz-adv-x="651" vert-adv-y="1485" 
d="M42 0v21l45 7q16 2 21 11.5t5 35.5v599q0 35 -6.5 47t-29.5 14l-45 4l2 21l185 6l8 -6v-333l1 -2q22 50 66.5 76t98.5 26q53 0 88 -20t53.5 -58.5t18.5 -95.5v-285q0 -22 5.5 -30.5t25.5 -10.5l43 -6v-21h-257v21l40 5q18 2 23.5 11t5.5 31v283q0 47 -8 74.5t-27.5 39.5
t-53.5 12q-35 0 -63 -16.5t-44 -46.5t-16 -71v-272q0 -22 4.5 -31.5t19.5 -11.5l48 -7v-21h-257z" />
    <glyph glyph-name="i" unicode="i" horiz-adv-x="335" vert-adv-y="1485" 
d="M38 0v22l50 6q18 2 22.5 12t4.5 36v346q0 34 -6 47t-29 15l-46 4l3 21l184 9l8 -5v-440q0 -23 5 -32.5t22 -11.5l52 -8v-21h-270zM159 617q-34 0 -55 19.5t-21 51.5q0 31 21 51t55 20q35 0 55.5 -19.5t20.5 -51.5q0 -31 -21 -51t-55 -20z" />
    <glyph glyph-name="j" unicode="j" horiz-adv-x="314" vert-adv-y="1485" 
d="M43 -229l-12 18q25 20 41 41t25 47t12 61t3 82v401q0 35 -6 48t-28 15l-46 4l2 21l184 9l8 -5v-421q0 -67 -8 -116.5t-28 -86.5t-55.5 -65t-91.5 -53zM156 616q-35 0 -56 19.5t-21 52.5q0 32 21 52t56 20q36 0 56.5 -19.5t20.5 -52.5q0 -32 -21 -52t-56 -20z" />
    <glyph glyph-name="k" unicode="k" horiz-adv-x="605" vert-adv-y="1485" 
d="M505 -10q-25 0 -44 7.5t-37 24.5t-39 45l-147 206v8l179 163q15 12 15.5 24t-19.5 16l-35 7l4 22h183v-22l-32 -9q-14 -4 -29 -11t-39 -28l-133 -117l162 -221q24 -33 40.5 -46t35.5 -13q10 0 21.5 3t22.5 8l7 -16q-21 -22 -52.5 -36.5t-63.5 -14.5zM40 0v22l43 5
q19 2 24.5 12t5.5 38v599q0 31 -5.5 43.5t-30.5 15.5l-45 4l3 21l184 6l8 -6v-686q0 -21 4.5 -33t23.5 -14l32 -5v-22h-247z" />
    <glyph glyph-name="l" unicode="l" horiz-adv-x="333" vert-adv-y="1485" 
d="M40 0v22l43 5q20 2 25 12t5 38v599q0 33 -6.5 45t-29.5 14l-45 4l2 21l185 6l8 -6v-686q0 -24 5.5 -34t26.5 -13l48 -6v-21h-267z" />
    <glyph glyph-name="m" unicode="m" horiz-adv-x="956" vert-adv-y="1485" 
d="M42 0v21l46 7q16 2 20.5 11.5t4.5 35.5v348q0 34 -6 46.5t-28 14.5l-46 5l2 20l179 10l7 -6l1 -97h1q16 35 41 60t56.5 38t64.5 13q58 0 97 -27t54 -84q21 52 66 81.5t98 29.5q50 0 85.5 -20t53.5 -59t18 -95v-285q0 -22 6 -30.5t25 -10.5l44 -6v-21h-250v21l33 5
q17 2 22.5 10t5.5 32v284q0 47 -8 74t-26.5 39t-49.5 12q-33 0 -59.5 -16t-42 -45.5t-15.5 -69.5v-275q0 -20 3.5 -30t20.5 -13l41 -7v-21h-240v21l33 5q17 2 22.5 10t5.5 32v284q0 48 -8 75t-26 38.5t-49 11.5q-34 0 -60.5 -17t-42 -47t-15.5 -71v-271q0 -23 5 -31.5
t20 -11.5l40 -7v-21h-250z" />
    <glyph glyph-name="n" unicode="n" horiz-adv-x="651" vert-adv-y="1485" 
d="M42 0v21l46 7q16 2 20.5 11.5t4.5 35.5v348q0 34 -6 46.5t-28 14.5l-46 5l2 20l179 10l7 -6l1 -97h1q23 55 69.5 83t101.5 28q52 0 87.5 -20t53.5 -58.5t18 -95.5v-285q0 -22 6 -30.5t25 -10.5l43 -6v-21h-257v21l40 5q19 2 24 11t5 31v283q0 47 -8 74.5t-27.5 39.5
t-53.5 12q-35 0 -63 -17t-44 -47t-16 -71v-271q0 -22 5 -31.5t20 -11.5l47 -7v-21h-257z" />
    <glyph glyph-name="o" unicode="o" horiz-adv-x="595" vert-adv-y="1485" 
d="M293 -14q-76 0 -131.5 31t-86.5 89.5t-31 138.5q0 89 32.5 152t92 96.5t139.5 33.5q73 0 127.5 -30.5t85 -88t30.5 -138.5q0 -87 -31.5 -151t-90 -98.5t-136.5 -34.5zM309 16q39 0 65.5 23t40 73.5t13.5 133.5q0 67 -9.5 115t-27.5 78t-43 44.5t-57 14.5q-40 0 -68 -22
t-42 -71t-14 -130q0 -91 17.5 -148.5t49.5 -84t75 -26.5z" />
    <glyph glyph-name="p" unicode="p" horiz-adv-x="634" vert-adv-y="1485" 
d="M34 -216v22l45 5q15 2 21 10.5t6 35.5v565q0 37 -7 49t-29 13l-45 5l3 20l178 10l7 -6l2 -83h2q18 34 42.5 55.5t55 31.5t65.5 10q64 0 110.5 -28t71.5 -84.5t25 -142.5t-28 -150.5t-83 -100t-135 -35.5q-31 0 -64.5 8.5t-56.5 22.5v-159q0 -25 5.5 -34.5t26.5 -11.5
l58 -7v-21h-276zM336 17q41 0 70 22.5t44.5 76t15.5 146.5q0 79 -14.5 126.5t-42 68.5t-66.5 21q-38 0 -65.5 -16t-42.5 -45.5t-15 -71.5v-283q19 -18 50.5 -31.5t65.5 -13.5z" />
    <glyph glyph-name="q" unicode="q" horiz-adv-x="618" vert-adv-y="1485" 
d="M326 -216v21l56 6q19 2 26 10.5t7 32.5v213l-1 3q-18 -27 -41 -45.5t-52 -28.5t-65 -10q-66 0 -113 29.5t-71.5 85.5t-24.5 137q0 90 29.5 155t85 99.5t132.5 34.5q30 0 56 -5t49 -15.5t44 -25.5l67 42l19 -6v-665q0 -23 6.5 -31t24.5 -10l43 -5v-22h-277zM296 34
q32 0 59 15t43.5 45t16.5 76v281q-23 19 -53.5 32.5t-64.5 13.5q-44 0 -73 -24.5t-42.5 -78t-13.5 -141.5q0 -115 33 -167t95 -52z" />
    <glyph glyph-name="r" unicode="r" horiz-adv-x="489" vert-adv-y="1485" 
d="M42 0v22l46 6q16 2 20.5 11.5t4.5 35.5v348q0 34 -6 46.5t-28 14.5l-46 4l2 21l178 10l7 -6l2 -99h2q22 55 61.5 84t84.5 29q49 0 77.5 -26t28.5 -67q0 -23 -7.5 -40.5t-23 -27.5t-40.5 -10q-32 0 -47.5 14t-15.5 33q0 10 4 21t12 24.5t21 32.5q-25 8 -52 1t-49 -27
t-36.5 -50.5t-14.5 -68.5v-262q0 -24 4.5 -33t21.5 -11l80 -9v-21h-291z" />
    <glyph glyph-name="s" unicode="s" horiz-adv-x="459" vert-adv-y="1485" 
d="M62 -15l-14 183l25 2q16 -57 39 -90.5t53.5 -48.5t67.5 -15q50 0 78.5 26.5t28.5 72.5q0 31 -15.5 48.5t-43.5 28.5t-67 22q-31 9 -60 20.5t-51 28.5t-35 43.5t-13 65.5q0 45 21 80t60.5 55t94.5 20q42 0 72.5 -11.5t51.5 -27.5l13 39h19l12 -162l-26 2
q-19 64 -52.5 98.5t-87.5 34.5q-45 0 -71 -21.5t-26 -61.5q0 -31 16 -49t44 -28.5t63 -21.5q34 -10 63.5 -22.5t52.5 -30t35.5 -44.5t12.5 -66q0 -52 -24 -90t-66.5 -58.5t-99.5 -20.5q-39 0 -74 10.5t-64 32.5l-12 -44h-21z" />
    <glyph glyph-name="t" unicode="t" horiz-adv-x="392" vert-adv-y="1485" 
d="M233 -14q-41 0 -70.5 15t-44.5 47.5t-15 86.5v350h-71v22q39 3 62.5 19t36.5 50.5t19 90.5l58 8l9 -6v-156h145v-28h-145v-339q0 -45 14.5 -67.5t50.5 -22.5q25 0 49.5 9.5t44.5 29.5l13 -15q-31 -45 -67.5 -69.5t-88.5 -24.5z" />
    <glyph glyph-name="u" unicode="u" horiz-adv-x="635" vert-adv-y="1485" 
d="M256 -14q-78 0 -119 44t-41 130v264q0 34 -6 46t-27 14l-37 4l3 20l173 11l8 -6v-350q0 -46 8.5 -74t27.5 -40.5t51 -12.5q36 0 62.5 15.5t41 44.5t14.5 69v259q0 33 -5.5 45.5t-27.5 14.5l-36 4l3 20l172 11l8 -6v-440q0 -24 6.5 -34t26.5 -13l46 -4v-22l-177 -8l-12 89
h-2q-19 -34 -42.5 -55t-53 -30.5t-65.5 -9.5z" />
    <glyph glyph-name="v" unicode="v" horiz-adv-x="561" vert-adv-y="1485" 
d="M243 0l-168 431q-9 21 -14 31.5t-11.5 15t-20.5 7.5l-28 7l4 21h259v-21l-45 -5q-21 -2 -25 -13t5 -38l126 -342h3l118 336q9 24 5 38.5t-28 17.5l-39 7l4 20h175v-21l-34 -6q-19 -4 -28 -13.5t-20 -41.5l-153 -431h-85z" />
    <glyph glyph-name="w" unicode="w" horiz-adv-x="829" vert-adv-y="1485" 
d="M214 0l-140 432q-6 18 -11 28t-12.5 16t-22.5 9l-28 7l4 21h250v-21l-43 -4q-18 -2 -23 -11.5t4 -39.5l102 -341h3l117 417h73l131 -417h3l95 333q8 29 3.5 41.5t-27.5 15.5l-37 7l4 20h173v-21l-35 -7q-19 -3 -28.5 -14t-18.5 -42l-128 -429h-84l-122 389h-3l-111 -389
h-88z" />
    <glyph glyph-name="x" unicode="x" horiz-adv-x="574" vert-adv-y="1485" 
d="M-3 0v21l45 8q11 2 21 6t20.5 13t22.5 24l127 164l-142 199q-16 22 -30 34.5t-37 16.5l-33 6l4 21h274v-20l-47 -6q-16 -2 -19.5 -11.5t12.5 -31.5l93 -131l94 127q14 19 10 31.5t-27 15.5l-45 6l4 20h203v-20l-44 -7q-14 -2 -24 -7t-20 -14.5t-24 -28.5l-109 -146
l150 -212q12 -16 23 -26.5t23 -16t25 -8.5l30 -6v-21h-279v21l40 4q22 2 25.5 13.5t-12.5 32.5l-100 140l-109 -143q-8 -11 -10.5 -19.5t2.5 -14t20 -7.5l54 -6v-21h-211z" />
    <glyph glyph-name="y" unicode="y" horiz-adv-x="556" vert-adv-y="1485" 
d="M108 -230q-48 0 -75.5 22.5t-27.5 60.5q0 26 16 45.5t46 19.5q27 0 42 -13.5t16 -33.5q0 -10 -2.5 -26t-10.5 -43q23 -2 45 7t45.5 38t47.5 89l17 39l-191 456q-12 30 -20 40t-23 13l-31 8l3 21h257v-21l-46 -5q-19 -2 -24.5 -13t4.5 -38l126 -316h4l119 312
q11 28 4 39.5t-29 15.5l-36 6l3 20h173v-21l-33 -6q-17 -4 -26.5 -13t-20.5 -40l-180 -466q-22 -59 -44 -97.5t-44 -60t-47.5 -30.5t-56.5 -9z" />
    <glyph glyph-name="z" unicode="z" horiz-adv-x="492" vert-adv-y="1485" 
d="M36 0v23l304 465h-145q-39 0 -61 -13.5t-36 -45.5t-30 -88l-25 -1l12 173h402v-23l-298 -463h131q32 0 54 7t37 24.5t27 49.5t26 81h25l-14 -189h-409z" />
    <glyph glyph-name="braceleft" unicode="{" horiz-adv-x="384" vert-adv-y="1485" 
d="M263 -227q-66 0 -101.5 32.5t-35.5 87.5q0 24 3 64t7 86t7 88.5t3 70.5q0 43 -9.5 63t-29.5 26.5t-55 6.5v23q35 1 55 7t29.5 26t9.5 63q0 27 -3 66t-7 80.5t-7 78.5t-3 60q0 56 33 87.5t99 31.5q22 0 42.5 -2t38.5 -7l-4 -21q-12 2 -23.5 4t-24.5 2q-14 0 -25.5 -6
t-19 -23t-7.5 -52q0 -24 3 -60t6.5 -75.5t6 -76t2.5 -60.5q0 -48 -18 -74t-48 -39t-65 -21q35 -8 65 -21.5t48 -39.5t18 -74q0 -25 -2.5 -64.5t-6 -83.5t-6.5 -83.5t-3 -63.5q0 -35 7.5 -52.5t19.5 -23.5t27 -6q14 0 26.5 1.5t26.5 4.5l3 -21q-18 -5 -38.5 -7.5t-43.5 -2.5z
" />
    <glyph glyph-name="bar" unicode="|" horiz-adv-x="299" vert-adv-y="1485" 
d="M130 -110v912h39v-912h-39z" />
    <glyph glyph-name="braceright" unicode="}" horiz-adv-x="384" vert-adv-y="1485" 
d="M121 -227q-23 0 -43.5 2.5t-38.5 7.5l4 21q14 -3 26.5 -4.5t26.5 -1.5q15 0 26.5 6t19 23.5t7.5 52.5q0 24 -2.5 63.5t-6 83.5t-6.5 83.5t-3 64.5q0 48 18.5 74t48 39.5t64.5 21.5q-35 8 -64.5 21t-48 39t-18.5 74q0 24 3 60.5t6.5 76t6 75.5t2.5 60q0 35 -7.5 52
t-18.5 23t-26 6q-13 0 -24 -2t-24 -4l-4 21q18 5 39 7t42 2q66 0 99 -31.5t33 -87.5q0 -23 -3 -60t-7 -78.5t-7 -80.5t-3 -66q0 -43 9.5 -63t30 -26t54.5 -7v-23q-34 0 -54.5 -6.5t-30 -26.5t-9.5 -63q0 -28 3.5 -70.5t7 -88.5t6.5 -86t3 -64q0 -55 -35.5 -87.5
t-101.5 -32.5z" />
    <glyph glyph-name="asciitilde" unicode="~" horiz-adv-x="584" vert-adv-y="1485" 
d="M91 249l-25 9q16 40 30 63t30.5 33.5t40.5 10.5q27 0 61.5 -6.5t73.5 -16.5t73 -16t66 -6q20 0 30.5 9t20.5 27l25 -9q-17 -43 -31.5 -66t-30.5 -32t-38 -9q-27 0 -60 6.5t-74 16.5q-39 10 -73 16t-67 6q-21 0 -31 -8.5t-21 -27.5z" />
    <glyph glyph-name="uni00A0" unicode="&#xa0;" horiz-adv-x="203" vert-adv-y="1485" 
 />
    <glyph glyph-name="exclamdown" unicode="&#xa1;" horiz-adv-x="334" vert-adv-y="1485" 
d="M185 315v-71q0 -53 6 -99.5t14 -87t16 -76.5t14 -69t6 -65q0 -23 -10 -39t-27.5 -24.5t-42.5 -8.5q-35 0 -53.5 18t-18.5 53q0 37 9 77.5t21.5 88t21.5 105t9 128.5v70h35zM167 527q33 0 54.5 -20.5t21.5 -52.5t-21.5 -53t-54.5 -21t-53.5 20.5t-20.5 52.5t20.5 53
t53.5 21z" />
    <glyph glyph-name="cent" unicode="&#xa2;" horiz-adv-x="520" vert-adv-y="0" 
d="M180 -29l141 668h36l-142 -668h-35zM279 34q-69 0 -121 30.5t-81.5 89t-29.5 141.5q0 86 31.5 149t88.5 97t133 34q54 0 93.5 -17.5t61 -46t21.5 -62.5q0 -20 -7 -35.5t-21.5 -24.5t-36.5 -9q-30 0 -45.5 14t-15.5 37q0 15 9.5 34.5t30.5 54.5q-18 14 -39.5 21t-49.5 7
q-39 0 -69.5 -23t-47.5 -71.5t-17 -125.5q0 -105 41 -159.5t112 -54.5q47 0 82.5 16t62.5 41l16 -15q-35 -59 -84.5 -90.5t-117.5 -31.5z" />
    <glyph glyph-name="sterling" unicode="&#xa3;" horiz-adv-x="568" vert-adv-y="1485" 
d="M57 0l-8 48q41 18 70 38t44.5 49t15.5 72q0 37 -12.5 69.5t-28.5 65.5h-110l4 30h91q-15 33 -27 69.5t-12 81.5q0 67 30 115t82 73.5t120 25.5q58 0 101.5 -18.5t68.5 -50t25 -70.5q0 -30 -16.5 -47.5t-46.5 -17.5q-28 0 -45 14t-17 37q0 9 3.5 19.5t13.5 26.5t28 40
q-22 20 -50.5 29.5t-58.5 9.5q-63 0 -94 -41t-31 -108q0 -39 9.5 -71.5t23 -60.5t24.5 -56h176v-30h-163q8 -20 13.5 -41.5t5.5 -46.5q0 -49 -26 -89.5t-86 -74.5l2 -4h183q33 0 55 4t36.5 15.5t26 35t25.5 61.5h27l-28 -202h-444z" />
    <glyph glyph-name="currency" unicode="&#xa4;" horiz-adv-x="536" vert-adv-y="1485" 
d="M463 138l-89 65q-23 -14 -51 -21.5t-57 -7.5q-32 0 -59.5 7t-49.5 21l-86 -62l-17 17l60 87q-14 20 -22 48t-8 61t8 61t23 49l-62 87l18 18l86 -63q25 16 54.5 24t59.5 8q29 0 57.5 -7t51.5 -22l85 63l17 -18l-60 -85q14 -19 22 -46t8 -61q0 -37 -9 -66t-25 -51l63 -89z
M266 201q33 0 54 18.5t31 54t10 83.5q0 77 -24 115t-67 38q-45 0 -69.5 -40t-24.5 -116q0 -71 23.5 -112t66.5 -41z" />
    <glyph glyph-name="yen" unicode="&#xa5;" horiz-adv-x="702" vert-adv-y="1485" 
d="M206 0v22l56 4q19 3 25 13t6 39v164h-202l4 29h197v47l-28 48h-170l4 29h149l-140 244q-15 26 -27.5 38.5t-34.5 16.5l-37 7v22h301v-21l-54 -7q-22 -3 -27 -16t8 -35l161 -283h5l157 279q13 23 9.5 35.5t-26.5 16.5l-58 10v21h218v-21l-47 -8q-17 -2 -28 -12.5
t-30 -42.5l-138 -244h146v-31h-164l-27 -46v-47h190v-29h-191v-168q0 -26 6.5 -35.5t25.5 -12.5l54 -4v-22h-293z" />
    <glyph glyph-name="brokenbar" unicode="&#xa6;" horiz-adv-x="299" vert-adv-y="1485" 
d="M130 -110v400h39v-400h-39zM130 409v394h39v-394h-39z" />
    <glyph glyph-name="section" unicode="&#xa7;" horiz-adv-x="624" vert-adv-y="1485" 
d="M286 -158q-46 0 -81 12t-54.5 34.5t-19.5 52.5q0 21 8.5 37t23.5 25.5t34 9.5q27 0 42 -11t15 -30q0 -10 -5.5 -24t-14.5 -30.5t-20 -35.5q16 -6 33.5 -9t35.5 -3q32 0 54 15.5t33.5 39.5t11.5 49q0 26 -14 49.5t-46.5 50.5t-88.5 62q-47 30 -80 56.5t-54 51.5t-30.5 51
t-9.5 56q0 46 30.5 76.5t78.5 53.5q-8 16 -13 37.5t-5 41.5q0 46 23 81t63.5 55t91.5 20q44 0 77.5 -12.5t53 -34.5t19.5 -52q0 -20 -8.5 -36.5t-23.5 -25.5t-34 -9q-26 0 -42 11t-16 30q0 10 6 24t15.5 30.5t19.5 35.5q-14 6 -30 9t-33 3q-40 0 -64 -29t-24 -71
q0 -27 15 -52.5t49 -52.5t90 -63q45 -27 77 -53t52.5 -51t30 -51t9.5 -55q0 -46 -31 -78t-79 -56q8 -18 13.5 -38t5.5 -40q0 -46 -24 -81.5t-67 -55.5t-99 -20zM443 99q20 18 25 38t5 42q0 24 -12.5 46t-39 45.5t-70.5 50.5q-42 26 -73 49t-53.5 44.5t-42.5 44.5
q-17 -16 -23.5 -36t-6.5 -41q0 -19 7.5 -37.5t23.5 -36t41.5 -37t60.5 -42.5q58 -35 96 -66t62 -64z" />
    <glyph glyph-name="dieresis" unicode="&#xa8;" vert-adv-y="1485" 
d="M353 621q-30 0 -48.5 18t-18.5 46q0 29 18.5 47t48.5 18q31 0 49.5 -17.5t18.5 -45.5q0 -29 -19 -47.5t-49 -18.5zM146 621q-30 0 -49 18t-19 46q0 29 19 47t48 18q32 0 50.5 -17.5t18.5 -45.5q0 -29 -19 -47.5t-49 -18.5z" />
    <glyph glyph-name="copyright" unicode="&#xa9;" horiz-adv-x="801" vert-adv-y="1485" 
d="M400 -12q-114 0 -190 42.5t-113.5 116.5t-37.5 166q0 80 27 142.5t74.5 106.5t109.5 66.5t132 22.5q76 0 139 -22.5t107.5 -65.5t69 -102.5t24.5 -133.5q0 -77 -24.5 -139.5t-69.5 -107t-107.5 -68.5t-140.5 -24zM402 21q70 0 125.5 21.5t95 61.5t60.5 95t21 122
q0 96 -38.5 162t-106.5 100.5t-157 34.5q-86 0 -155 -37t-109.5 -104.5t-40.5 -163.5q0 -67 19.5 -121t58.5 -92t95.5 -58.5t131.5 -20.5zM412 107q-66 0 -110 29t-66 76.5t-22 101.5q0 66 25 112.5t68.5 71t98.5 24.5q40 0 65.5 -12.5t40.5 -25.5l5 39h17l23 -137l-22 -4
q-17 57 -45 86.5t-73 29.5q-36 0 -59.5 -24.5t-35 -66t-11.5 -90.5q0 -34 7.5 -65.5t22.5 -56t37.5 -38.5t52.5 -14q42 0 68.5 18t50.5 46l15 -16q-18 -22 -39 -41.5t-48.5 -31t-65.5 -11.5z" />
    <glyph glyph-name="ordfeminine" unicode="&#xaa;" horiz-adv-x="431" vert-adv-y="1485" 
d="M146 362q-29 0 -54 10t-41 32t-16 57q0 41 32 66t90 33q23 4 47 6t50 4v45q0 33 -7 56t-23 35t-44 12q-20 0 -37.5 -5t-36.5 -15q13 -16 22.5 -31.5t9.5 -26.5q0 -12 -12.5 -23.5t-36.5 -11.5q-25 0 -36 13t-11 31q0 25 20.5 46t55 34t77.5 13t77.5 -11t54.5 -39.5
t20 -81.5v-173q0 -20 8.5 -29t25.5 -9q11 0 21 3t20 7l5 -17q-18 -14 -39 -22t-49 -8q-33 0 -52.5 15t-24.5 48q-16 -35 -42.5 -49t-73.5 -14zM184 393q20 0 35.5 10.5t25 31.5t9.5 53v60q-35 0 -62.5 -6t-42.5 -23.5t-15 -49.5q0 -45 15 -60.5t35 -15.5z" />
    <glyph glyph-name="guillemotleft" unicode="&#xab;" horiz-adv-x="486" vert-adv-y="1485" 
d="M435 61l-180 155q-15 12 -20.5 24t-5.5 24q0 13 5.5 24t23.5 27l173 155l17 -14l-118 -188l122 -194zM254 61l-180 155q-15 12 -20.5 24t-5.5 24q0 13 5.5 24t23.5 27l173 155l17 -14l-118 -188l122 -194z" />
    <glyph glyph-name="logicalnot" unicode="&#xac;" horiz-adv-x="582" vert-adv-y="1485" 
d="M463 153v170h-378v32h412v-202h-34z" />
    <glyph glyph-name="uni00AD" unicode="&#xad;" horiz-adv-x="0" vert-adv-y="1485" 
 />
    <glyph glyph-name="registered" unicode="&#xae;" horiz-adv-x="492" vert-adv-y="1485" 
d="M246 399q-62 0 -104 23.5t-63 64t-21 91.5q0 59 25.5 101t68 64.5t95.5 22.5q86 0 137 -49t51 -132q0 -55 -24.5 -97t-67 -65.5t-97.5 -23.5zM331 464q10 0 19.5 2t15.5 5v10q-4 -1 -6.5 -1h-6.5q-8 0 -13.5 5.5t-9.5 15.5l-12 33q-6 17 -16 30.5t-35 17.5v1q14 2 29 8.5
t25.5 19t10.5 32.5q0 34 -27.5 47t-65.5 13h-92l-2 -10l17 -2q8 -1 11 -5t3 -13v-174q0 -7 -2.5 -12t-11.5 -6l-19 -2v-11h110v11l-19 2q-9 1 -11.5 5t-2.5 13v79h12q13 0 21.5 -10.5t15.5 -30.5l12 -34q8 -19 18.5 -29t31.5 -10zM220 591v100h15q22 0 36 -11t14 -38
q0 -25 -11.5 -38t-37.5 -13h-16z" />
    <glyph glyph-name="macron" unicode="&#xaf;" vert-adv-y="1485" 
d="M110 639v77h280v-77h-280z" />
    <glyph glyph-name="degree" unicode="&#xb0;" horiz-adv-x="316" vert-adv-y="1485" 
d="M157 551q-60 0 -88.5 33.5t-28.5 82.5q0 46 30 81t88 35q57 0 87.5 -32t30.5 -82q0 -48 -31 -83t-88 -35zM159 587q35 0 55.5 22.5t20.5 57.5q0 36 -21 58t-59 22q-34 0 -54 -22t-20 -58q0 -35 19 -57.5t59 -22.5z" />
    <glyph glyph-name="plusminus" unicode="&#xb1;" horiz-adv-x="582" vert-adv-y="1485" 
d="M270 143v183h-177v32h177v170h35v-170h184v-32h-184v-183h-35zM95 1v32h392v-32h-392z" />
    <glyph glyph-name="uni00B2" unicode="&#xb2;" horiz-adv-x="398" vert-adv-y="1485" 
d="M41 374l-8 59q75 64 118.5 108t64.5 75t27.5 54.5t6.5 48.5q0 44 -21.5 70.5t-62.5 26.5q-19 0 -36 -4.5t-33 -14.5q10 -16 21 -36t11 -34t-12 -27t-36 -13q-28 0 -42 15.5t-14 38.5q0 30 22 52t59.5 34.5t83.5 12.5q54 0 90 -13.5t54.5 -39.5t18.5 -62q0 -33 -18.5 -63
t-52.5 -61.5t-81.5 -68t-105.5 -81.5h183q19 0 30.5 6t19 22.5t14.5 46.5h22l-16 -152h-307z" />
    <glyph glyph-name="uni00B3" unicode="&#xb3;" horiz-adv-x="406" vert-adv-y="1485" 
d="M192 362q-57 0 -90.5 16.5t-50.5 38.5t-27 37l18 15q11 -19 28.5 -36.5t42.5 -29t58 -11.5q29 0 49.5 12t31 36t10.5 59q0 40 -12.5 61.5t-38.5 29t-67 5.5l2 22q55 5 81.5 29t26.5 78q0 45 -21 69t-60 24q-23 0 -43.5 -7t-35.5 -17q11 -16 24 -35t13 -31
q0 -16 -11.5 -27.5t-34.5 -11.5q-28 0 -42 15t-14 37q0 26 20 49t56.5 37t84.5 14q45 0 81 -12.5t57 -37.5t21 -61q0 -43 -31.5 -73t-86.5 -41v-2q62 -5 98.5 -33t36.5 -82q0 -41 -24.5 -72t-63.5 -47.5t-86 -16.5z" />
    <glyph glyph-name="acute" unicode="&#xb4;" vert-adv-y="1485" 
d="M195 582l-13 13l94 156q10 18 20.5 24.5t21.5 6.5q16 0 26.5 -7.5t16 -19t5.5 -24.5q0 -16 -10.5 -29t-26.5 -25z" />
    <glyph glyph-name="uni00B5" unicode="&#xb5;" horiz-adv-x="617" vert-adv-y="1485" 
d="M92 -222l-8 6q-3 49 -5.5 88.5t-3.5 77t-1 81.5v66.5t-0.5 94t-0.5 104.5t-0.5 99t-1 77.5t-0.5 39.5l116 7l8 -6q-3 -54 -5 -114.5t-3.5 -121t-2 -115t-0.5 -97.5q14 -13 37.5 -21.5t46.5 -8.5q57 0 89.5 35t32.5 94q0 10 -0.5 36.5t-0.5 62.5t-0.5 74.5t-1 74.5
t-1 62.5t-0.5 37.5l116 7l8 -6q-3 -45 -5.5 -89t-4 -84.5t-3 -76.5t-1.5 -66v-53q0 -42 5 -65t17 -32.5t34 -9.5q10 0 22 3.5t23 8.5l7 -15q-21 -24 -47.5 -36t-56.5 -12q-28 0 -48.5 11.5t-33 35t-18.5 60.5h-3q-14 -50 -48.5 -78.5t-80.5 -28.5q-24 0 -46.5 8.5
t-36.5 22.5h-2q0 -33 2.5 -72t7 -80t10.5 -80z" />
    <glyph glyph-name="paragraph" unicode="&#xb6;" horiz-adv-x="581" vert-adv-y="1485" 
d="M246 -121v22l83 7q19 2 25.5 13t6.5 37v765h177v-21l-47 -6q-19 -1 -25.5 -13t-6.5 -37v-767h-213zM280 262q-65 0 -113.5 26.5t-75 78t-26.5 124.5t24.5 125t73.5 79.5t122 27.5h13v-461h-18z" />
    <glyph glyph-name="periodcentered" unicode="&#xb7;" horiz-adv-x="326" vert-adv-y="1485" 
d="M163 231q-35 0 -57 21.5t-22 54.5q0 34 22 55t57 21t57 -21t22 -54t-22 -55t-57 -22z" />
    <glyph glyph-name="cedilla" unicode="&#xb8;" vert-adv-y="1485" 
d="M247 -228q-39 0 -66 13.5t-45 32.5l13 18q15 -11 31.5 -18.5t36.5 -7.5q27 0 44.5 15.5t17.5 42.5q0 21 -12 32.5t-35 11.5q-10 0 -16.5 -1t-14.5 -4l-5 14l33 82h27l-26 -65q41 8 70 0t44 -27.5t15 -48.5q0 -25 -13 -45.5t-38 -32.5t-61 -12z" />
    <glyph glyph-name="uni00B9" unicode="&#xb9;" horiz-adv-x="324" vert-adv-y="1485" 
d="M32 374v20l63 7q16 2 20 9.5t4 25.5v314q0 21 -5 29.5t-31 10.5l-53 3l3 19l177 25l9 -8v-395q0 -18 4.5 -24.5t20.5 -8.5l60 -7v-20h-272z" />
    <glyph glyph-name="ordmasculine" unicode="&#xba;" horiz-adv-x="436" vert-adv-y="1485" 
d="M214 362q-59 0 -99.5 23t-61.5 64.5t-21 94.5q0 71 27 114.5t71 63.5t95 20t91 -20t63.5 -59.5t23.5 -100.5q0 -65 -24 -109.5t-66.5 -67.5t-98.5 -23zM225 388q27 0 45.5 17t28 52.5t9.5 87.5q0 58 -11.5 96.5t-32.5 57.5t-50 19q-26 0 -45.5 -15.5t-30.5 -48.5t-11 -88
q0 -58 11 -98t33 -60t54 -20z" />
    <glyph glyph-name="guillemotright" unicode="&#xbb;" horiz-adv-x="486" vert-adv-y="1485" 
d="M53 59l-17 14l120 191l-121 191l18 14l177 -155q16 -12 21.5 -23.5t5.5 -24.5q0 -11 -5.5 -23t-23.5 -28zM233 59l-17 14l120 191l-121 191l18 14l177 -155q16 -12 21.5 -23.5t5.5 -24.5q0 -11 -5.5 -23t-23.5 -28z" />
    <glyph glyph-name="onequarter" unicode="&#xbc;" horiz-adv-x="879" vert-adv-y="1485" 
d="M32 259v20l63 7q16 2 20 9.5t4 25.5v314q0 21 -5 29.5t-31 10.5l-53 3l3 19l177 25l9 -8v-395q0 -18 4.5 -24.5t20.5 -8.5l60 -7v-20h-272zM218 -14l417 728h42l-416 -728h-43zM695 2v101h-215l-5 26l221 331l87 10l8 -7v-331h77v-29h-77v-101h-96zM511 132h184v265v14z
" />
    <glyph glyph-name="onehalf" unicode="&#xbd;" horiz-adv-x="945" vert-adv-y="1485" 
d="M32 259v20l63 7q16 2 20 9.5t4 25.5v314q0 21 -5 29.5t-31 10.5l-53 3l3 19l177 25l9 -8v-395q0 -18 4.5 -24.5t20.5 -8.5l60 -7v-20h-272zM217 -14l417 728h42l-416 -728h-43zM587 13l-8 59q75 64 118.5 108t64.5 75t27.5 54.5t6.5 48.5q0 44 -21.5 70.5t-62.5 26.5
q-19 0 -36 -4.5t-33 -14.5q10 -16 21 -36t11 -34t-12 -27t-36 -13q-28 0 -42 15.5t-14 38.5q0 30 22 52t59.5 34.5t83.5 12.5q54 0 90 -13.5t54.5 -39.5t18.5 -62q0 -33 -18.5 -63t-52.5 -61.5t-81.5 -68t-105.5 -81.5h183q19 0 30.5 6t19 22.5t14.5 46.5h22l-16 -152h-307z
" />
    <glyph glyph-name="threequarters" unicode="&#xbe;" horiz-adv-x="918" vert-adv-y="1485" 
d="M257 -14l417 728h42l-416 -728h-43zM734 2v101h-215l-5 26l221 331l87 10l8 -7v-331h77v-29h-77v-101h-96zM550 132h184v265v14zM192 237q-57 0 -90.5 16.5t-50.5 38.5t-27 37l18 15q11 -19 28.5 -36.5t42.5 -29t58 -11.5q29 0 49.5 12t31 36t10.5 59q0 40 -12.5 61.5
t-38.5 29t-67 5.5l2 22q55 5 81.5 29t26.5 78q0 45 -21 69t-60 24q-23 0 -43.5 -7t-35.5 -17q11 -16 24 -35t13 -31q0 -16 -11.5 -27.5t-34.5 -11.5q-28 0 -42 15t-14 37q0 26 20 49t56.5 37t84.5 14q45 0 81 -12.5t57 -37.5t21 -61q0 -43 -31.5 -73t-86.5 -41v-2
q62 -5 98.5 -33t36.5 -82q0 -41 -24.5 -72t-63.5 -47.5t-86 -16.5z" />
    <glyph glyph-name="questiondown" unicode="&#xbf;" horiz-adv-x="541" vert-adv-y="1485" 
d="M320 314v-144q0 -20 -5.5 -37.5t-19.5 -37t-43 -46.5q-40 -37 -57.5 -67t-17.5 -74q0 -49 31 -75.5t78 -26.5q33 0 64.5 11t50.5 29q-21 28 -33.5 50t-12.5 40q0 19 18 33.5t44 14.5q33 0 46.5 -18t13.5 -46q0 -39 -28.5 -71.5t-75.5 -52t-101 -19.5q-61 0 -106.5 19
t-70.5 56t-25 88q0 35 10.5 64.5t33.5 59t62 62.5q36 32 57.5 52.5t32.5 34t14.5 24.5t3.5 23v54h36zM300 528q33 0 54 -20.5t21 -52.5q0 -33 -21 -53.5t-54 -20.5t-54 20.5t-21 52.5t21 53t54 21z" />
    <glyph glyph-name="Agrave" unicode="&#xc0;" horiz-adv-x="694" vert-adv-y="1485" 
d="M2 0v22l38 7q18 4 28 14t21 41l214 639h92l215 -641q9 -26 17 -36.5t29 -15.5l36 -7v-23h-281v22l51 6q19 3 23.5 14t-3.5 36l-49 165h-254l-52 -160q-7 -23 -2.5 -37.5t27.5 -17.5l56 -7v-21h-206zM190 271h233l-114 362h-2zM423 770l-163 63q-23 9 -33.5 23t-10.5 33
t12 35t34 16q10 0 19.5 -5.5t22.5 -18.5l130 -131z" />
    <glyph glyph-name="Aacute" unicode="&#xc1;" horiz-adv-x="694" vert-adv-y="1485" 
d="M2 0v22l38 7q18 4 28 14t21 41l214 639h92l215 -641q9 -26 17 -36.5t29 -15.5l36 -7v-23h-281v22l51 6q19 3 23.5 14t-3.5 36l-49 165h-254l-52 -160q-7 -23 -2.5 -37.5t27.5 -17.5l56 -7v-21h-206zM190 271h233l-114 362h-2zM277 770l-10 15l129 131q14 13 23.5 18.5
t19.5 5.5q21 0 33 -16t12 -35t-10 -33t-34 -23z" />
    <glyph glyph-name="Acircumflex" unicode="&#xc2;" horiz-adv-x="694" vert-adv-y="1485" 
d="M2 0v22l38 7q18 4 28 14t21 41l214 639h92l215 -641q9 -26 17 -36.5t29 -15.5l36 -7v-23h-281v22l51 6q19 3 23.5 14t-3.5 36l-49 165h-254l-52 -160q-7 -23 -2.5 -37.5t27.5 -17.5l56 -7v-21h-206zM190 271h233l-114 362h-2zM206 761l-13 15l114 139q10 11 20.5 18
t23.5 7q14 0 24 -6.5t24 -23.5l107 -134l-12 -15l-143 81z" />
    <glyph glyph-name="Atilde" unicode="&#xc3;" horiz-adv-x="699" vert-adv-y="1485" 
d="M2 0v22l38 7q18 4 28 14t21 41l214 639h92l215 -641q9 -26 17 -36.5t29 -15.5l36 -7v-23h-281v22l51 6q19 3 23.5 14t-3.5 36l-49 165h-254l-52 -160q-7 -23 -2.5 -37.5t27.5 -17.5l56 -7v-21h-206zM190 271h233l-114 362h-2zM428 786q-21 0 -41.5 6t-50.5 19
q-26 11 -40.5 16.5t-22.5 7.5t-15 2q-14 0 -24 -6.5t-21 -30.5l-18 8q10 43 21.5 67t27.5 34t38 10q20 0 39.5 -6.5t49.5 -19.5q37 -15 52.5 -20.5t28.5 -5.5q14 0 23.5 7.5t20.5 29.5l17 -7q-10 -44 -22 -68.5t-27 -33.5t-36 -9z" />
    <glyph glyph-name="Adieresis" unicode="&#xc4;" horiz-adv-x="694" vert-adv-y="1485" 
d="M2 0v22l38 7q18 4 28 14t21 41l214 639h92l215 -641q9 -26 17 -36.5t29 -15.5l36 -7v-23h-281v22l51 6q19 3 23.5 14t-3.5 36l-49 165h-254l-52 -160q-7 -23 -2.5 -37.5t27.5 -17.5l56 -7v-21h-206zM190 271h233l-114 362h-2zM454 792q-29 0 -48 18t-19 47t19 47t48 18
q32 0 50.5 -17.5t18.5 -46.5t-19 -47.5t-50 -18.5zM246 792q-29 0 -48 18t-19 47t19 47t48 18q31 0 49.5 -17.5t18.5 -46.5t-19 -47.5t-49 -18.5z" />
    <glyph glyph-name="Aring" unicode="&#xc5;" horiz-adv-x="694" vert-adv-y="1485" 
d="M2 0v22l38 7q18 4 28 14t21 41l214 639h92l215 -641q9 -26 17 -36.5t29 -15.5l36 -7v-23h-281v22l51 6q19 3 23.5 14t-3.5 36l-49 165h-254l-52 -160q-7 -23 -2.5 -37.5t27.5 -17.5l56 -7v-21h-206zM190 271h233l-114 362h-2zM350 756q-60 0 -89 29t-29 77
q0 30 13.5 53.5t41 37.5t66.5 14q59 0 88 -28t29 -76q0 -32 -14 -56t-41 -37.5t-65 -13.5zM352 779q27 0 37 20t10 63q0 29 -5 47t-16 26.5t-28 8.5q-27 0 -37.5 -20.5t-10.5 -61.5q0 -28 5 -46.5t15.5 -27.5t29.5 -9z" />
    <glyph glyph-name="AE" unicode="&#xc6;" horiz-adv-x="954" vert-adv-y="1485" 
d="M2 0v22l31 4q24 3 41 14.5t29.5 30t23.5 41.5l291 581l-83 10v20h526l30 -168l-26 -6q-16 45 -31 73.5t-33.5 45t-44.5 23t-64 6.5h-98v-329h91q24 0 39 3.5t24 12.5t15.5 27.5t14.5 47.5l24 3v-212l-24 -3q-8 39 -17 59t-26 27.5t-50 7.5h-91v-314h126q36 0 60 6.5
t41.5 23.5t31.5 47t28 77h26l-18 -181h-501v22l58 4q19 3 25 13.5t6 39.5v252h-204l-119 -248q-7 -14 -8 -23.5t4 -16t14.5 -10t24.5 -5.5l48 -7v-21h-235zM285 359h192v336h-25z" />
    <glyph glyph-name="Ccedilla" unicode="&#xc7;" horiz-adv-x="695" vert-adv-y="1485" 
d="M376 -228q-39 0 -66 13.5t-44 32.5l12 18q16 -11 32.5 -18.5t36.5 -7.5q26 0 44 15.5t18 42.5q0 21 -12.5 32.5t-35.5 11.5q-9 0 -15.5 -1t-14.5 -4l-5 14l27 67q-97 9 -164.5 56.5t-103.5 129.5t-36 192q0 80 24 147.5t67 117.5t102.5 78t131.5 28q63 0 110 -23t77 -54
l11 79h23l40 -236l-26 -6q-25 67 -57.5 114t-75.5 73t-98 26q-70 0 -114 -40.5t-65 -116.5t-21 -184q0 -75 16 -138t46.5 -109t74 -71t98.5 -25q45 0 85.5 14t74.5 41.5t59 68.5l19 -15q-18 -32 -44 -59t-58.5 -47t-70.5 -31t-80 -12h-9h-9l-20 -48q41 8 69.5 0t43.5 -27.5
t15 -48.5q0 -25 -12.5 -45.5t-37.5 -32.5t-62 -12z" />
    <glyph glyph-name="Egrave" unicode="&#xc8;" horiz-adv-x="614" vert-adv-y="1485" 
d="M56 0v22l54 4q19 3 25 13t6 39v573q0 25 -6.5 35t-26.5 12l-52 4v21h466l29 -168l-24 -6q-16 45 -31.5 73.5t-34.5 45t-45 23t-64 6.5h-90v-313h86q31 0 47.5 6.5t25.5 26t19 58.5l23 3v-212l-23 -4q-8 39 -17 59t-26 27.5t-49 7.5h-86v-329h118q36 0 60.5 6.5t42 23.5
t32 47t28.5 77h25l-18 -181h-494zM388 770l-163 63q-23 9 -33.5 23t-10.5 33t12 35t34 16q10 0 19.5 -5.5t22.5 -18.5l130 -131z" />
    <glyph glyph-name="Eacute" unicode="&#xc9;" horiz-adv-x="614" vert-adv-y="1485" 
d="M56 0v22l54 4q19 3 25 13t6 39v573q0 25 -6.5 35t-26.5 12l-52 4v21h466l29 -168l-24 -6q-16 45 -31.5 73.5t-34.5 45t-45 23t-64 6.5h-90v-313h86q31 0 47.5 6.5t25.5 26t19 58.5l23 3v-212l-23 -4q-8 39 -17 59t-26 27.5t-49 7.5h-86v-329h118q36 0 60.5 6.5t42 23.5
t32 47t28.5 77h25l-18 -181h-494zM242 770l-10 15l129 131q14 13 23.5 18.5t19.5 5.5q21 0 33 -16t12 -35t-10 -33t-34 -23z" />
    <glyph glyph-name="Ecircumflex" unicode="&#xca;" horiz-adv-x="614" vert-adv-y="1485" 
d="M56 0v22l54 4q19 3 25 13t6 39v573q0 25 -6.5 35t-26.5 12l-52 4v21h466l29 -168l-24 -6q-16 45 -31.5 73.5t-34.5 45t-45 23t-64 6.5h-90v-313h86q31 0 47.5 6.5t25.5 26t19 58.5l23 3v-212l-23 -4q-8 39 -17 59t-26 27.5t-49 7.5h-86v-329h118q36 0 60.5 6.5t42 23.5
t32 47t28.5 77h25l-18 -181h-494zM171 761l-13 15l114 139q10 11 20.5 18t23.5 7q14 0 24 -6.5t24 -23.5l107 -134l-12 -15l-143 81z" />
    <glyph glyph-name="Edieresis" unicode="&#xcb;" horiz-adv-x="614" vert-adv-y="1485" 
d="M56 0v22l54 4q19 3 25 13t6 39v573q0 25 -6.5 35t-26.5 12l-52 4v21h466l29 -168l-24 -6q-16 45 -31.5 73.5t-34.5 45t-45 23t-64 6.5h-90v-313h86q31 0 47.5 6.5t25.5 26t19 58.5l23 3v-212l-23 -4q-8 39 -17 59t-26 27.5t-49 7.5h-86v-329h118q36 0 60.5 6.5t42 23.5
t32 47t28.5 77h25l-18 -181h-494zM419 792q-29 0 -48 18t-19 47t19 47t48 18q32 0 50.5 -17.5t18.5 -46.5t-19 -47.5t-50 -18.5zM211 792q-29 0 -48 18t-19 47t19 47t48 18q31 0 49.5 -17.5t18.5 -46.5t-19 -47.5t-49 -18.5z" />
    <glyph glyph-name="Igrave" unicode="&#xcc;" horiz-adv-x="404" vert-adv-y="1485" 
d="M56 0v22l55 4q19 3 25 13.5t6 38.5v573q0 25 -6.5 35t-27.5 12l-52 4v21h292v-21l-55 -4q-17 -2 -24 -12.5t-7 -38.5v-573q0 -26 6.5 -35.5t26.5 -12.5l53 -4v-22h-292zM274 770l-163 63q-23 9 -33.5 23t-10.5 33t12 35t34 16q10 0 19.5 -5.5t22.5 -18.5l130 -131z" />
    <glyph glyph-name="Iacute" unicode="&#xcd;" horiz-adv-x="404" vert-adv-y="1485" 
d="M56 0v22l55 4q19 3 25 13.5t6 38.5v573q0 25 -6.5 35t-27.5 12l-52 4v21h292v-21l-55 -4q-17 -2 -24 -12.5t-7 -38.5v-573q0 -26 6.5 -35.5t26.5 -12.5l53 -4v-22h-292zM128 770l-10 15l129 131q14 13 23.5 18.5t19.5 5.5q21 0 33 -16t12 -35t-10 -33t-34 -23z" />
    <glyph glyph-name="Icircumflex" unicode="&#xce;" horiz-adv-x="404" vert-adv-y="1485" 
d="M56 0v22l55 4q19 3 25 13.5t6 38.5v573q0 25 -6.5 35t-27.5 12l-52 4v21h292v-21l-55 -4q-17 -2 -24 -12.5t-7 -38.5v-573q0 -26 6.5 -35.5t26.5 -12.5l53 -4v-22h-292zM57 761l-13 15l114 139q10 11 20.5 18t23.5 7q14 0 24 -6.5t24 -23.5l107 -134l-12 -15l-143 81z
" />
    <glyph glyph-name="Idieresis" unicode="&#xcf;" horiz-adv-x="404" vert-adv-y="1485" 
d="M56 0v22l55 4q19 3 25 13.5t6 38.5v573q0 25 -6.5 35t-27.5 12l-52 4v21h292v-21l-55 -4q-17 -2 -24 -12.5t-7 -38.5v-573q0 -26 6.5 -35.5t26.5 -12.5l53 -4v-22h-292zM305 792q-29 0 -48 18t-19 47t19 47t48 18q32 0 50.5 -17.5t18.5 -46.5t-19 -47.5t-50 -18.5z
M97 792q-29 0 -48 18t-19 47t19 47t48 18q31 0 49.5 -17.5t18.5 -46.5t-19 -47.5t-49 -18.5z" />
    <glyph glyph-name="Eth" unicode="&#xd0;" horiz-adv-x="770" vert-adv-y="1485" 
d="M355 723q61 0 115.5 -11t100 -36t79.5 -65.5t52 -97.5t18 -135q0 -103 -29 -175t-82 -117t-125 -65.5t-158 -20.5h-270v22l54 4q19 3 25 13t6 39v276h-103l6 35h97v262q0 25 -6.5 35t-26.5 12l-52 4v21h299zM330 27q65 0 113.5 18.5t81.5 59t49.5 107.5t16.5 164
q0 109 -29 180t-84 105.5t-132 34.5h-84v-307h181v-35h-181v-322q10 -2 28.5 -3.5t39.5 -1.5z" />
    <glyph glyph-name="Ntilde" unicode="&#xd1;" horiz-adv-x="778" vert-adv-y="1485" 
d="M56 0v22l53 4q20 1 25.5 12.5t5.5 38.5v574q0 25 -6 35t-27 12l-51 4v21h200l349 -591l1 2v516q0 26 -6 36t-27 12l-52 4v21h205v-21l-53 -4q-19 -2 -25 -12.5t-6 -39.5v-646h-90l-375 624l-1 -2v-549q0 -25 6.5 -35t26.5 -12l52 -4v-22h-205zM466 786q-21 0 -41.5 6
t-50.5 19q-26 11 -40.5 16.5t-22.5 7.5t-15 2q-14 0 -24 -6.5t-21 -30.5l-18 8q10 43 21.5 67t27.5 34t38 10q20 0 39.5 -6.5t49.5 -19.5q37 -15 52.5 -20.5t28.5 -5.5q14 0 23.5 7.5t20.5 29.5l17 -7q-10 -44 -22 -68.5t-27 -33.5t-36 -9z" />
    <glyph glyph-name="Ograve" unicode="&#xd2;" horiz-adv-x="759" vert-adv-y="1485" 
d="M378 -14q-101 0 -175 44.5t-114 126t-40 191.5q0 123 41 210t117 133t181 46q98 0 170 -43t112 -123t40 -191q0 -89 -23 -162t-66 -124.5t-105 -79.5t-138 -28zM392 16q48 0 83.5 19t58.5 59.5t34 105.5t11 158q0 91 -13.5 157.5t-39.5 109.5t-64.5 63.5t-88.5 20.5
q-48 0 -84.5 -19t-61.5 -59.5t-37.5 -104.5t-12.5 -155q0 -90 14.5 -157t42.5 -111t67.5 -65.5t90.5 -21.5zM454 770l-163 63q-23 9 -33.5 23t-10.5 33t12 35t34 16q10 0 19.5 -5.5t22.5 -18.5l130 -131z" />
    <glyph glyph-name="Oacute" unicode="&#xd3;" horiz-adv-x="759" vert-adv-y="1485" 
d="M378 -14q-101 0 -175 44.5t-114 126t-40 191.5q0 123 41 210t117 133t181 46q98 0 170 -43t112 -123t40 -191q0 -89 -23 -162t-66 -124.5t-105 -79.5t-138 -28zM392 16q48 0 83.5 19t58.5 59.5t34 105.5t11 158q0 91 -13.5 157.5t-39.5 109.5t-64.5 63.5t-88.5 20.5
q-48 0 -84.5 -19t-61.5 -59.5t-37.5 -104.5t-12.5 -155q0 -90 14.5 -157t42.5 -111t67.5 -65.5t90.5 -21.5zM308 770l-10 15l129 131q14 13 23.5 18.5t19.5 5.5q21 0 33 -16t12 -35t-10 -33t-34 -23z" />
    <glyph glyph-name="Ocircumflex" unicode="&#xd4;" horiz-adv-x="759" vert-adv-y="1485" 
d="M378 -14q-101 0 -175 44.5t-114 126t-40 191.5q0 123 41 210t117 133t181 46q98 0 170 -43t112 -123t40 -191q0 -89 -23 -162t-66 -124.5t-105 -79.5t-138 -28zM392 16q48 0 83.5 19t58.5 59.5t34 105.5t11 158q0 91 -13.5 157.5t-39.5 109.5t-64.5 63.5t-88.5 20.5
q-48 0 -84.5 -19t-61.5 -59.5t-37.5 -104.5t-12.5 -155q0 -90 14.5 -157t42.5 -111t67.5 -65.5t90.5 -21.5zM237 761l-13 15l114 139q10 11 20.5 18t23.5 7q14 0 24 -6.5t24 -23.5l107 -134l-12 -15l-143 81z" />
    <glyph glyph-name="Otilde" unicode="&#xd5;" horiz-adv-x="759" vert-adv-y="1485" 
d="M378 -14q-101 0 -175 44.5t-114 126t-40 191.5q0 123 41 210t117 133t181 46q98 0 170 -43t112 -123t40 -191q0 -89 -23 -162t-66 -124.5t-105 -79.5t-138 -28zM392 16q48 0 83.5 19t58.5 59.5t34 105.5t11 158q0 91 -13.5 157.5t-39.5 109.5t-64.5 63.5t-88.5 20.5
q-48 0 -84.5 -19t-61.5 -59.5t-37.5 -104.5t-12.5 -155q0 -90 14.5 -157t42.5 -111t67.5 -65.5t90.5 -21.5zM456 786q-21 0 -41.5 6t-50.5 19q-26 11 -40.5 16.5t-22.5 7.5t-15 2q-14 0 -24 -6.5t-21 -30.5l-18 8q10 43 21.5 67t27.5 34t38 10q20 0 39.5 -6.5t49.5 -19.5
q37 -15 52.5 -20.5t28.5 -5.5q14 0 23.5 7.5t20.5 29.5l17 -7q-10 -44 -22 -68.5t-27 -33.5t-36 -9z" />
    <glyph glyph-name="Odieresis" unicode="&#xd6;" horiz-adv-x="759" vert-adv-y="1485" 
d="M378 -14q-101 0 -175 44.5t-114 126t-40 191.5q0 123 41 210t117 133t181 46q98 0 170 -43t112 -123t40 -191q0 -89 -23 -162t-66 -124.5t-105 -79.5t-138 -28zM392 16q48 0 83.5 19t58.5 59.5t34 105.5t11 158q0 91 -13.5 157.5t-39.5 109.5t-64.5 63.5t-88.5 20.5
q-48 0 -84.5 -19t-61.5 -59.5t-37.5 -104.5t-12.5 -155q0 -90 14.5 -157t42.5 -111t67.5 -65.5t90.5 -21.5zM485 792q-29 0 -48 18t-19 47t19 47t48 18q32 0 50.5 -17.5t18.5 -46.5t-19 -47.5t-50 -18.5zM277 792q-29 0 -48 18t-19 47t19 47t48 18q31 0 49.5 -17.5
t18.5 -46.5t-19 -47.5t-49 -18.5z" />
    <glyph glyph-name="multiply" unicode="&#xd7;" horiz-adv-x="582" vert-adv-y="1485" 
d="M440 137l-148 148l-149 -149l-23 23l149 149l-144 144l23 21l143 -142l145 145l24 -23l-145 -146l147 -147z" />
    <glyph glyph-name="Oslash" unicode="&#xd8;" horiz-adv-x="759" vert-adv-y="1485" 
d="M69 -14l73 94q-45 47 -69 115t-24 153q0 123 41 210t117 133t181 46q61 0 113 -17.5t93 -50.5l52 68h44l-71 -91q43 -47 67 -114t24 -152q0 -89 -23 -162t-66 -124.5t-105 -79.5t-138 -28q-64 0 -117 18t-94 53l-54 -71h-44zM392 16q48 0 83.5 19t58.5 59.5t34 105.5
t11 158q0 61 -7 111.5t-20 89.5l-328 -429q19 -39 43.5 -64.5t56 -37.5t68.5 -12zM209 166l327 428q-16 41 -40.5 66t-55 37t-67.5 12q-48 0 -84.5 -19t-61.5 -59.5t-37.5 -104.5t-12.5 -155q0 -63 8 -114t24 -91z" />
    <glyph glyph-name="Ugrave" unicode="&#xd9;" horiz-adv-x="768" vert-adv-y="1485" 
d="M392 -14q-66 0 -116 16t-83 49t-49 82t-16 115v402q0 25 -6.5 35.5t-27.5 12.5l-51 4v21h289v-21l-54 -4q-17 -2 -23.5 -12.5t-6.5 -38.5v-395q0 -72 17.5 -121.5t56 -74.5t101.5 -25q62 0 103.5 26.5t63 77t21.5 120.5v395q0 27 -6.5 36.5t-27.5 11.5l-46 4v21h190v-21
l-44 -4q-19 -2 -25 -12.5t-6 -38.5v-389q0 -92 -31.5 -152.5t-88.5 -90t-134 -29.5zM483 770l-163 63q-23 9 -33.5 23t-10.5 33t12 35t34 16q10 0 19.5 -5.5t22.5 -18.5l130 -131z" />
    <glyph glyph-name="Uacute" unicode="&#xda;" horiz-adv-x="768" vert-adv-y="1485" 
d="M392 -14q-66 0 -116 16t-83 49t-49 82t-16 115v402q0 25 -6.5 35.5t-27.5 12.5l-51 4v21h289v-21l-54 -4q-17 -2 -23.5 -12.5t-6.5 -38.5v-395q0 -72 17.5 -121.5t56 -74.5t101.5 -25q62 0 103.5 26.5t63 77t21.5 120.5v395q0 27 -6.5 36.5t-27.5 11.5l-46 4v21h190v-21
l-44 -4q-19 -2 -25 -12.5t-6 -38.5v-389q0 -92 -31.5 -152.5t-88.5 -90t-134 -29.5zM337 770l-10 15l129 131q14 13 23.5 18.5t19.5 5.5q21 0 33 -16t12 -35t-10 -33t-34 -23z" />
    <glyph glyph-name="Ucircumflex" unicode="&#xdb;" horiz-adv-x="768" vert-adv-y="1485" 
d="M392 -14q-66 0 -116 16t-83 49t-49 82t-16 115v402q0 25 -6.5 35.5t-27.5 12.5l-51 4v21h289v-21l-54 -4q-17 -2 -23.5 -12.5t-6.5 -38.5v-395q0 -72 17.5 -121.5t56 -74.5t101.5 -25q62 0 103.5 26.5t63 77t21.5 120.5v395q0 27 -6.5 36.5t-27.5 11.5l-46 4v21h190v-21
l-44 -4q-19 -2 -25 -12.5t-6 -38.5v-389q0 -92 -31.5 -152.5t-88.5 -90t-134 -29.5zM266 761l-13 15l114 139q10 11 20.5 18t23.5 7q14 0 24 -6.5t24 -23.5l107 -134l-12 -15l-143 81z" />
    <glyph glyph-name="Udieresis" unicode="&#xdc;" horiz-adv-x="768" vert-adv-y="1485" 
d="M392 -14q-66 0 -116 16t-83 49t-49 82t-16 115v402q0 25 -6.5 35.5t-27.5 12.5l-51 4v21h289v-21l-54 -4q-17 -2 -23.5 -12.5t-6.5 -38.5v-395q0 -72 17.5 -121.5t56 -74.5t101.5 -25q62 0 103.5 26.5t63 77t21.5 120.5v395q0 27 -6.5 36.5t-27.5 11.5l-46 4v21h190v-21
l-44 -4q-19 -2 -25 -12.5t-6 -38.5v-389q0 -92 -31.5 -152.5t-88.5 -90t-134 -29.5zM514 792q-29 0 -48 18t-19 47t19 47t48 18q32 0 50.5 -17.5t18.5 -46.5t-19 -47.5t-50 -18.5zM306 792q-29 0 -48 18t-19 47t19 47t48 18q31 0 49.5 -17.5t18.5 -46.5t-19 -47.5t-49 -18.5
z" />
    <glyph glyph-name="Yacute" unicode="&#xdd;" horiz-adv-x="670" vert-adv-y="1485" 
d="M193 0v22l56 4q18 3 24.5 13t6.5 39v238l-186 323q-16 26 -28.5 38.5t-34.5 16.5l-36 7v22h300v-21l-53 -7q-23 -3 -27.5 -16t8.5 -35l161 -283h5l157 279q13 23 9 35.5t-27 16.5l-57 10v21h218v-21l-47 -8q-17 -2 -28 -12.5t-30 -42.5l-184 -323v-242q0 -26 6.5 -35.5
t25.5 -12.5l53 -4v-22h-292zM294 770l-10 15l129 131q14 13 23.5 18.5t19.5 5.5q21 0 33 -16t12 -35t-10 -33t-34 -23z" />
    <glyph glyph-name="Thorn" unicode="&#xde;" horiz-adv-x="621" vert-adv-y="1485" 
d="M56 0v22l54 4q19 3 25 13t6 39v569q0 27 -6 37.5t-26 12.5l-53 4v22h309v-22l-67 -3q-22 -2 -29 -12.5t-7 -37.5v-92h54q55 0 99 -7t77.5 -22t55 -37t32.5 -52t11 -68q0 -42 -12.5 -74.5t-35.5 -57.5t-54.5 -41.5t-70 -24.5t-79.5 -8q-17 0 -31.5 0.5t-26.5 1.5t-19 2
v-93q0 -26 7 -37t29 -12l67 -4v-22h-309zM262 195q8 -1 22.5 -2t29.5 -1q39 0 67 11.5t46 34.5t27 56t9 75q0 57 -16 92t-50 52t-90 17h-45v-335z" />
    <glyph glyph-name="germandbls" unicode="&#xdf;" horiz-adv-x="707" vert-adv-y="1485" 
d="M317 -14l-14 185l26 1q13 -52 32 -83t41.5 -46.5t45.5 -21t43 -5.5q27 0 50 10t37 31.5t14 55.5q0 31 -17.5 52t-45.5 37t-59 30t-58.5 31.5t-45 42.5t-17.5 62q0 32 12 55t30 43t35.5 43t30 55.5t12.5 80.5q0 47 -15.5 71t-39.5 32.5t-49 8.5q-27 0 -51 -7.5t-42 -25.5
t-28 -48.5t-10 -75.5v-600h-199v21l53 6q22 2 26.5 14.5t4.5 36.5v406h-78v21l78 8v30q0 55 18 99.5t50.5 75.5t78.5 47.5t103 16.5q54 0 98.5 -12.5t72 -39.5t27.5 -73q0 -32 -13.5 -56.5t-33.5 -44t-40.5 -38t-33.5 -39.5t-13 -46q0 -27 17.5 -46.5t45 -34.5t58.5 -31
t58.5 -37t45.5 -51t18 -74q0 -46 -21 -85.5t-62 -63.5t-101 -24q-43 0 -79.5 13t-62.5 34l-13 -46z" />
    <glyph glyph-name="agrave" unicode="&#xe0;" horiz-adv-x="544" vert-adv-y="1485" 
d="M191 -14q-66 0 -103.5 36t-37.5 99q0 52 26.5 85t89 50.5t168.5 21.5v112q0 40 -10.5 65t-31.5 36.5t-56 11.5q-31 0 -61.5 -10t-46.5 -26q18 -21 28 -36t14 -25.5t4 -18.5q0 -19 -16 -33t-44 -14q-30 0 -45.5 15t-15.5 41q0 33 26.5 63t72 49t100.5 19q65 0 108.5 -19.5
t65.5 -60t22 -105.5v-256q0 -26 11 -37.5t31 -11.5q11 0 23 3t24 9l7 -15q-23 -26 -50 -37t-53 -11q-47 0 -71 24.5t-29 70.5q-17 -34 -38 -55t-48.5 -30.5t-63.5 -9.5zM242 37q27 0 48 13t32.5 36.5t11.5 53.5v115q-61 -1 -98 -12.5t-53.5 -37.5t-16.5 -71q0 -47 19.5 -72
t56.5 -25zM297 582l-134 95q-15 12 -26 25t-11 29q0 13 5.5 24.5t16 19t25.5 7.5q12 0 22 -6.5t21 -24.5l93 -156z" />
    <glyph glyph-name="aacute" unicode="&#xe1;" horiz-adv-x="544" vert-adv-y="1485" 
d="M191 -14q-66 0 -103.5 36t-37.5 99q0 52 26.5 85t89 50.5t168.5 21.5v112q0 40 -10.5 65t-31.5 36.5t-56 11.5q-31 0 -61.5 -10t-46.5 -26q18 -21 28 -36t14 -25.5t4 -18.5q0 -19 -16 -33t-44 -14q-30 0 -45.5 15t-15.5 41q0 33 26.5 63t72 49t100.5 19q65 0 108.5 -19.5
t65.5 -60t22 -105.5v-256q0 -26 11 -37.5t31 -11.5q11 0 23 3t24 9l7 -15q-23 -26 -50 -37t-53 -11q-47 0 -71 24.5t-29 70.5q-17 -34 -38 -55t-48.5 -30.5t-63.5 -9.5zM242 37q27 0 48 13t32.5 36.5t11.5 53.5v115q-61 -1 -98 -12.5t-53.5 -37.5t-16.5 -71q0 -47 19.5 -72
t56.5 -25zM196 582l-13 13l94 156q10 18 20.5 24.5t21.5 6.5q16 0 26.5 -7.5t16 -19t5.5 -24.5q0 -16 -10.5 -29t-26.5 -25z" />
    <glyph glyph-name="acircumflex" unicode="&#xe2;" horiz-adv-x="544" vert-adv-y="1485" 
d="M191 -14q-66 0 -103.5 36t-37.5 99q0 52 26.5 85t89 50.5t168.5 21.5v112q0 40 -10.5 65t-31.5 36.5t-56 11.5q-31 0 -61.5 -10t-46.5 -26q18 -21 28 -36t14 -25.5t4 -18.5q0 -19 -16 -33t-44 -14q-30 0 -45.5 15t-15.5 41q0 33 26.5 63t72 49t100.5 19q65 0 108.5 -19.5
t65.5 -60t22 -105.5v-256q0 -26 11 -37.5t31 -11.5q11 0 23 3t24 9l7 -15q-23 -26 -50 -37t-53 -11q-47 0 -71 24.5t-29 70.5q-17 -34 -38 -55t-48.5 -30.5t-63.5 -9.5zM242 37q27 0 48 13t32.5 36.5t11.5 53.5v115q-61 -1 -98 -12.5t-53.5 -37.5t-16.5 -71q0 -47 19.5 -72
t56.5 -25zM109 582l-13 13l112 159q10 14 21.5 20t23.5 6q9 0 16 -2.5t14.5 -9.5t15.5 -20l107 -152l-13 -13l-140 97z" />
    <glyph glyph-name="atilde" unicode="&#xe3;" horiz-adv-x="544" vert-adv-y="1485" 
d="M191 -14q-66 0 -103.5 36t-37.5 99q0 52 26.5 85t89 50.5t168.5 21.5v112q0 40 -10.5 65t-31.5 36.5t-56 11.5q-31 0 -61.5 -10t-46.5 -26q18 -21 28 -36t14 -25.5t4 -18.5q0 -19 -16 -33t-44 -14q-30 0 -45.5 15t-15.5 41q0 33 26.5 63t72 49t100.5 19q65 0 108.5 -19.5
t65.5 -60t22 -105.5v-256q0 -26 11 -37.5t31 -11.5q11 0 23 3t24 9l7 -15q-23 -26 -50 -37t-53 -11q-47 0 -71 24.5t-29 70.5q-17 -34 -38 -55t-48.5 -30.5t-63.5 -9.5zM242 37q27 0 48 13t32.5 36.5t11.5 53.5v115q-61 -1 -98 -12.5t-53.5 -37.5t-16.5 -71q0 -47 19.5 -72
t56.5 -25zM324 617q-21 0 -41.5 6t-49.5 19q-27 11 -41.5 16.5t-22 7.5t-13.5 2q-14 0 -24.5 -6.5t-21.5 -30.5l-17 8q9 42 20.5 66.5t27.5 34t39 9.5q20 0 39 -6t49 -19q37 -15 52 -20.5t28 -5.5q15 0 24.5 7t20.5 30l17 -8q-11 -43 -23 -67.5t-27 -33.5t-36 -9z" />
    <glyph glyph-name="adieresis" unicode="&#xe4;" horiz-adv-x="544" vert-adv-y="1485" 
d="M191 -14q-66 0 -103.5 36t-37.5 99q0 52 26.5 85t89 50.5t168.5 21.5v112q0 40 -10.5 65t-31.5 36.5t-56 11.5q-31 0 -61.5 -10t-46.5 -26q18 -21 28 -36t14 -25.5t4 -18.5q0 -19 -16 -33t-44 -14q-30 0 -45.5 15t-15.5 41q0 33 26.5 63t72 49t100.5 19q65 0 108.5 -19.5
t65.5 -60t22 -105.5v-256q0 -26 11 -37.5t31 -11.5q11 0 23 3t24 9l7 -15q-23 -26 -50 -37t-53 -11q-47 0 -71 24.5t-29 70.5q-17 -34 -38 -55t-48.5 -30.5t-63.5 -9.5zM242 37q27 0 48 13t32.5 36.5t11.5 53.5v115q-61 -1 -98 -12.5t-53.5 -37.5t-16.5 -71q0 -47 19.5 -72
t56.5 -25zM356 621q-30 0 -48.5 18t-18.5 46q0 29 18.5 47t48.5 18q31 0 49.5 -17.5t18.5 -45.5q0 -29 -19 -47.5t-49 -18.5zM149 621q-30 0 -49 18t-19 46q0 29 19 47t48 18q32 0 50.5 -17.5t18.5 -45.5q0 -29 -19 -47.5t-49 -18.5z" />
    <glyph glyph-name="aring" unicode="&#xe5;" horiz-adv-x="544" vert-adv-y="1485" 
d="M191 -14q-66 0 -103.5 36t-37.5 99q0 52 26.5 85t89 50.5t168.5 21.5v112q0 40 -10.5 65t-31.5 36.5t-56 11.5q-31 0 -61.5 -10t-46.5 -26q18 -21 28 -36t14 -25.5t4 -18.5q0 -19 -16 -33t-44 -14q-30 0 -45.5 15t-15.5 41q0 33 26.5 63t72 49t100.5 19q65 0 108.5 -19.5
t65.5 -60t22 -105.5v-256q0 -26 11 -37.5t31 -11.5q11 0 23 3t24 9l7 -15q-23 -26 -50 -37t-53 -11q-47 0 -71 24.5t-29 70.5q-17 -34 -38 -55t-48.5 -30.5t-63.5 -9.5zM242 37q27 0 48 13t32.5 36.5t11.5 53.5v115q-61 -1 -98 -12.5t-53.5 -37.5t-16.5 -71q0 -47 19.5 -72
t56.5 -25zM249 582q-58 0 -87 29.5t-29 76.5q0 30 13.5 54t40.5 37.5t66 13.5q59 0 87.5 -27.5t28.5 -75.5q0 -32 -14 -56.5t-41 -38t-65 -13.5zM252 605q18 0 27.5 8.5t14 27t4.5 47.5t-5 47.5t-15.5 27t-27.5 8.5t-27 -9t-15 -27t-5 -47t5 -47.5t15.5 -27t28.5 -8.5z" />
    <glyph glyph-name="ae" unicode="&#xe6;" horiz-adv-x="805" vert-adv-y="1485" 
d="M192 -14q-43 0 -75 15.5t-49.5 46.5t-17.5 75q0 69 41.5 105t134.5 49q24 4 51 6t57 3v104q0 41 -10.5 65.5t-32 36t-55.5 11.5q-31 0 -61.5 -10.5t-46.5 -25.5q18 -21 28 -36.5t14 -25.5t4 -18q0 -19 -16 -33t-44 -14q-31 0 -46 15.5t-15 40.5q0 33 26.5 63.5t72 49
t100.5 18.5t94 -15.5t62 -48.5q32 31 75 47.5t93 16.5q57 0 99 -22t66 -63t24 -97q0 -17 -1 -38.5t-4 -37.5h-311q-1 -68 17 -113t52 -67.5t80 -22.5q44 0 81 14t74 49l16 -15q-36 -63 -88.5 -95.5t-120.5 -32.5q-72 0 -125 33t-80 94q-8 -44 -30 -72.5t-55 -41.5t-78 -13z
M242 34q25 0 46 12.5t33.5 36t12.5 55.5v124q-25 0 -45.5 -2t-37.5 -6q-47 -11 -66 -37.5t-19 -74.5q0 -54 20 -81t56 -27zM450 296h200q1 11 1.5 28.5t0.5 31.5q0 80 -20.5 113t-65.5 33q-35 0 -59.5 -23t-38.5 -68.5t-18 -114.5z" />
    <glyph glyph-name="ccedilla" unicode="&#xe7;" horiz-adv-x="508" vert-adv-y="1485" 
d="M279 -228q-39 0 -66 13.5t-45 32.5l13 18q15 -11 31.5 -18.5t36.5 -7.5q27 0 44.5 15.5t17.5 42.5q0 21 -12 32.5t-35 11.5q-10 0 -16.5 -1t-14.5 -4l-5 14l26 66q-62 5 -109.5 36.5t-74 88t-26.5 135.5q0 86 32 149t89 97t132 34q54 0 93.5 -17.5t61 -46t21.5 -62.5
q0 -20 -7 -35.5t-21.5 -24.5t-36.5 -9q-30 0 -45.5 14t-15.5 37q0 15 10 34.5t31 54.5q-19 14 -40.5 21t-49.5 7q-39 0 -69.5 -23t-47.5 -71.5t-17 -125.5q0 -105 41 -159.5t112 -54.5q48 0 83 16t62 41l16 -15q-35 -59 -82.5 -89.5t-114.5 -32.5l-19 -48q41 8 70 0
t44 -27.5t15 -48.5q0 -25 -13 -45.5t-38 -32.5t-61 -12z" />
    <glyph glyph-name="egrave" unicode="&#xe8;" horiz-adv-x="526" vert-adv-y="1485" 
d="M280 -14q-72 0 -125 30.5t-82 88.5t-29 141q0 90 32 152.5t88.5 95.5t130.5 33q59 0 101.5 -22t66 -63.5t23.5 -96.5q0 -17 -1 -33t-4 -32h-316q-2 -74 17 -121.5t54.5 -70t82.5 -22.5q42 0 79.5 13.5t76.5 49.5l15 -15q-37 -65 -90 -96.5t-120 -31.5zM165 306h206
q1 11 1.5 23.5t0.5 26.5q0 80 -21 113t-66 33q-35 0 -60.5 -19t-40.5 -62t-20 -115zM327 582l-134 95q-15 12 -26 25t-11 29q0 13 5.5 24.5t16 19t25.5 7.5q12 0 22 -6.5t21 -24.5l93 -156z" />
    <glyph glyph-name="eacute" unicode="&#xe9;" horiz-adv-x="526" vert-adv-y="1485" 
d="M280 -14q-72 0 -125 30.5t-82 88.5t-29 141q0 90 32 152.5t88.5 95.5t130.5 33q59 0 101.5 -22t66 -63.5t23.5 -96.5q0 -17 -1 -33t-4 -32h-316q-2 -74 17 -121.5t54.5 -70t82.5 -22.5q42 0 79.5 13.5t76.5 49.5l15 -15q-37 -65 -90 -96.5t-120 -31.5zM165 306h206
q1 11 1.5 23.5t0.5 26.5q0 80 -21 113t-66 33q-35 0 -60.5 -19t-40.5 -62t-20 -115zM226 582l-13 13l94 156q10 18 20.5 24.5t21.5 6.5q16 0 26.5 -7.5t16 -19t5.5 -24.5q0 -16 -10.5 -29t-26.5 -25z" />
    <glyph glyph-name="ecircumflex" unicode="&#xea;" horiz-adv-x="526" vert-adv-y="1485" 
d="M280 -14q-72 0 -125 30.5t-82 88.5t-29 141q0 90 32 152.5t88.5 95.5t130.5 33q59 0 101.5 -22t66 -63.5t23.5 -96.5q0 -17 -1 -33t-4 -32h-316q-2 -74 17 -121.5t54.5 -70t82.5 -22.5q42 0 79.5 13.5t76.5 49.5l15 -15q-37 -65 -90 -96.5t-120 -31.5zM165 306h206
q1 11 1.5 23.5t0.5 26.5q0 80 -21 113t-66 33q-35 0 -60.5 -19t-40.5 -62t-20 -115zM139 582l-13 13l112 159q10 14 21.5 20t23.5 6q9 0 16 -2.5t14.5 -9.5t15.5 -20l107 -152l-13 -13l-140 97z" />
    <glyph glyph-name="edieresis" unicode="&#xeb;" horiz-adv-x="526" vert-adv-y="1485" 
d="M280 -14q-72 0 -125 30.5t-82 88.5t-29 141q0 90 32 152.5t88.5 95.5t130.5 33q59 0 101.5 -22t66 -63.5t23.5 -96.5q0 -17 -1 -33t-4 -32h-316q-2 -74 17 -121.5t54.5 -70t82.5 -22.5q42 0 79.5 13.5t76.5 49.5l15 -15q-37 -65 -90 -96.5t-120 -31.5zM165 306h206
q1 11 1.5 23.5t0.5 26.5q0 80 -21 113t-66 33q-35 0 -60.5 -19t-40.5 -62t-20 -115zM386 621q-30 0 -48.5 18t-18.5 46q0 29 18.5 47t48.5 18q31 0 49.5 -17.5t18.5 -45.5q0 -29 -19 -47.5t-49 -18.5zM179 621q-30 0 -49 18t-19 46q0 29 19 47t48 18q32 0 50.5 -17.5
t18.5 -45.5q0 -29 -19 -47.5t-49 -18.5z" />
    <glyph glyph-name="igrave" unicode="&#xec;" horiz-adv-x="335" vert-adv-y="1485" 
d="M38 0v22l50 6q17 2 22 11.5t5 36.5v346q0 35 -6 47.5t-29 14.5l-46 4l3 21l184 9l8 -5v-440q0 -24 5.5 -33t21.5 -11l52 -8v-21h-270zM195 582l-134 95q-15 12 -26 25t-11 29q0 13 5.5 24.5t16 19t25.5 7.5q12 0 22 -6.5t21 -24.5l93 -156z" />
    <glyph glyph-name="iacute" unicode="&#xed;" horiz-adv-x="335" vert-adv-y="1485" 
d="M38 0v22l50 6q17 2 22 11.5t5 36.5v346q0 35 -6 47.5t-29 14.5l-46 4l3 21l184 9l8 -5v-440q0 -24 5.5 -33t21.5 -11l52 -8v-21h-270zM94 582l-13 13l94 156q10 18 20.5 24.5t21.5 6.5q16 0 26.5 -7.5t16 -19t5.5 -24.5q0 -16 -10.5 -29t-26.5 -25z" />
    <glyph glyph-name="icircumflex" unicode="&#xee;" horiz-adv-x="335" vert-adv-y="1485" 
d="M38 0v22l50 6q17 2 22 11.5t5 36.5v346q0 35 -6 47.5t-29 14.5l-46 4l3 21l184 9l8 -5v-440q0 -24 5.5 -33t21.5 -11l52 -8v-21h-270zM7 582l-13 13l112 159q10 14 21.5 20t23.5 6q9 0 16 -2.5t14.5 -9.5t15.5 -20l107 -152l-13 -13l-140 97z" />
    <glyph glyph-name="idieresis" unicode="&#xef;" horiz-adv-x="335" vert-adv-y="1485" 
d="M38 0v22l50 6q17 2 22 11.5t5 36.5v346q0 35 -6 47.5t-29 14.5l-46 4l3 21l184 9l8 -5v-440q0 -24 5.5 -33t21.5 -11l52 -8v-21h-270zM253 621q-30 0 -48.5 18t-18.5 46q0 29 18.5 47t48.5 18q31 0 49.5 -17.5t18.5 -45.5q0 -29 -19 -47.5t-49 -18.5zM46 621
q-30 0 -49 18t-19 46q0 29 19 47t48 18q32 0 50.5 -17.5t18.5 -45.5q0 -29 -19 -47.5t-49 -18.5z" />
    <glyph glyph-name="eth" unicode="&#xf0;" horiz-adv-x="585" vert-adv-y="1485" 
d="M281 -14q-108 0 -172.5 67t-64.5 188q0 68 20.5 116t53.5 79t74 45.5t82 14.5q48 0 88.5 -20.5t65.5 -56.5h3q-5 40 -17 85t-30.5 85t-43.5 66l-102 -77l-14 25l96 69q-31 27 -75 48t-102 27l4 25q61 -3 119.5 -18.5t102.5 -45.5l103 78l13 -25l-92 -68
q41 -34 74.5 -80.5t53.5 -110.5t20 -153q0 -84 -15 -151t-47 -114.5t-81 -72.5t-117 -25zM298 15q41 0 68.5 29.5t41.5 82t14 122.5q0 28 -2 54.5t-7 50.5t-15 44q-15 30 -41.5 48t-62.5 18q-35 0 -64 -25.5t-45.5 -74t-16.5 -118.5q0 -53 8 -95.5t24 -72.5t41 -46.5
t57 -16.5z" />
    <glyph glyph-name="ntilde" unicode="&#xf1;" horiz-adv-x="651" vert-adv-y="1485" 
d="M42 0v21l46 7q16 2 20.5 11.5t4.5 35.5v348q0 34 -6 46.5t-28 14.5l-46 5l2 20l179 10l7 -6l1 -97h1q23 55 69.5 83t101.5 28q52 0 87.5 -20t53.5 -58.5t18 -95.5v-285q0 -22 6 -30.5t25 -10.5l43 -6v-21h-257v21l40 5q19 2 24 11t5 31v283q0 47 -8 74.5t-27.5 39.5
t-53.5 12q-35 0 -63 -17t-44 -47t-16 -71v-271q0 -22 5 -31.5t20 -11.5l47 -7v-21h-257zM407 617q-21 0 -41.5 6t-49.5 19q-27 11 -41.5 16.5t-22 7.5t-13.5 2q-14 0 -24.5 -6.5t-21.5 -30.5l-17 8q9 42 20.5 66.5t27.5 34t39 9.5q20 0 39 -6t49 -19q37 -15 52 -20.5
t28 -5.5q15 0 24.5 7t20.5 30l17 -8q-11 -43 -23 -67.5t-27 -33.5t-36 -9z" />
    <glyph glyph-name="ograve" unicode="&#xf2;" horiz-adv-x="595" vert-adv-y="1485" 
d="M293 -14q-76 0 -131.5 31t-86.5 89.5t-31 138.5q0 89 32.5 152t92 96.5t139.5 33.5q73 0 127.5 -30.5t85 -88t30.5 -138.5q0 -87 -31.5 -151t-90 -98.5t-136.5 -34.5zM309 16q39 0 65.5 23t40 73.5t13.5 133.5q0 67 -9.5 115t-27.5 78t-43 44.5t-57 14.5q-40 0 -68 -22
t-42 -71t-14 -130q0 -91 17.5 -148.5t49.5 -84t75 -26.5zM339 582l-134 95q-15 12 -26 25t-11 29q0 13 5.5 24.5t16 19t25.5 7.5q12 0 22 -6.5t21 -24.5l93 -156z" />
    <glyph glyph-name="oacute" unicode="&#xf3;" horiz-adv-x="595" vert-adv-y="1485" 
d="M293 -14q-76 0 -131.5 31t-86.5 89.5t-31 138.5q0 89 32.5 152t92 96.5t139.5 33.5q73 0 127.5 -30.5t85 -88t30.5 -138.5q0 -87 -31.5 -151t-90 -98.5t-136.5 -34.5zM309 16q39 0 65.5 23t40 73.5t13.5 133.5q0 67 -9.5 115t-27.5 78t-43 44.5t-57 14.5q-40 0 -68 -22
t-42 -71t-14 -130q0 -91 17.5 -148.5t49.5 -84t75 -26.5zM238 582l-13 13l94 156q10 18 20.5 24.5t21.5 6.5q16 0 26.5 -7.5t16 -19t5.5 -24.5q0 -16 -10.5 -29t-26.5 -25z" />
    <glyph glyph-name="ocircumflex" unicode="&#xf4;" horiz-adv-x="595" vert-adv-y="1485" 
d="M293 -14q-76 0 -131.5 31t-86.5 89.5t-31 138.5q0 89 32.5 152t92 96.5t139.5 33.5q73 0 127.5 -30.5t85 -88t30.5 -138.5q0 -87 -31.5 -151t-90 -98.5t-136.5 -34.5zM309 16q39 0 65.5 23t40 73.5t13.5 133.5q0 67 -9.5 115t-27.5 78t-43 44.5t-57 14.5q-40 0 -68 -22
t-42 -71t-14 -130q0 -91 17.5 -148.5t49.5 -84t75 -26.5zM151 582l-13 13l112 159q10 14 21.5 20t23.5 6q9 0 16 -2.5t14.5 -9.5t15.5 -20l107 -152l-13 -13l-140 97z" />
    <glyph glyph-name="otilde" unicode="&#xf5;" horiz-adv-x="595" vert-adv-y="1485" 
d="M293 -14q-76 0 -131.5 31t-86.5 89.5t-31 138.5q0 89 32.5 152t92 96.5t139.5 33.5q73 0 127.5 -30.5t85 -88t30.5 -138.5q0 -87 -31.5 -151t-90 -98.5t-136.5 -34.5zM309 16q39 0 65.5 23t40 73.5t13.5 133.5q0 67 -9.5 115t-27.5 78t-43 44.5t-57 14.5q-40 0 -68 -22
t-42 -71t-14 -130q0 -91 17.5 -148.5t49.5 -84t75 -26.5zM366 617q-21 0 -41.5 6t-49.5 19q-27 11 -41.5 16.5t-22 7.5t-13.5 2q-14 0 -24.5 -6.5t-21.5 -30.5l-17 8q9 42 20.5 66.5t27.5 34t39 9.5q20 0 39 -6t49 -19q37 -15 52 -20.5t28 -5.5q15 0 24.5 7t20.5 30l17 -8
q-11 -43 -23 -67.5t-27 -33.5t-36 -9z" />
    <glyph glyph-name="odieresis" unicode="&#xf6;" horiz-adv-x="600" vert-adv-y="1485" 
d="M293 -14q-76 0 -131.5 31t-86.5 89.5t-31 138.5q0 89 32.5 152t92 96.5t139.5 33.5q73 0 127.5 -30.5t85 -88t30.5 -138.5q0 -87 -31.5 -151t-90 -98.5t-136.5 -34.5zM309 16q39 0 65.5 23t40 73.5t13.5 133.5q0 67 -9.5 115t-27.5 78t-43 44.5t-57 14.5q-40 0 -68 -22
t-42 -71t-14 -130q0 -91 17.5 -148.5t49.5 -84t75 -26.5zM405 621q-30 0 -48.5 18t-18.5 46q0 29 18.5 47t48.5 18q31 0 49.5 -17.5t18.5 -45.5q0 -29 -19 -47.5t-49 -18.5zM198 621q-30 0 -49 18t-19 46q0 29 19 47t48 18q32 0 50.5 -17.5t18.5 -45.5q0 -29 -19 -47.5
t-49 -18.5z" />
    <glyph glyph-name="divide" unicode="&#xf7;" horiz-adv-x="582" vert-adv-y="1485" 
d="M75 289v35h432v-35h-432zM290 91q-26 0 -45 17t-19 43t19 43.5t45 17.5q27 0 46 -17.5t19 -42.5q0 -26 -19 -43.5t-46 -17.5zM290 398q-26 0 -45 17t-19 43q0 25 19 43t45 18q27 0 46 -17.5t19 -43.5t-19 -43t-46 -17z" />
    <glyph glyph-name="oslash" unicode="&#xf8;" horiz-adv-x="595" vert-adv-y="1485" 
d="M50 -14l62 72q-33 33 -50.5 80.5t-17.5 106.5q0 89 32.5 152t92 96.5t139.5 33.5q47 0 87 -13t70 -39l44 53h40l-61 -73q30 -32 46.5 -79t16.5 -106q0 -87 -31.5 -151t-90 -98.5t-136.5 -34.5q-48 0 -88 13t-71 37l-43 -50h-41zM309 16q39 0 65.5 23t40 73.5t13.5 133.5
q0 36 -3.5 67t-10.5 56l-220 -262q13 -32 30 -52.5t38.5 -29.5t46.5 -9zM183 141l220 262q-11 34 -28 55t-38 30.5t-46 9.5q-40 0 -68 -22t-42 -71t-14 -130q0 -41 4 -74t12 -60z" />
    <glyph glyph-name="ugrave" unicode="&#xf9;" horiz-adv-x="635" vert-adv-y="1485" 
d="M256 -14q-78 0 -119 44t-41 130v264q0 34 -6 46t-27 14l-37 4l3 20l173 11l8 -6v-350q0 -46 8.5 -74t27.5 -40.5t51 -12.5q36 0 62.5 15.5t41 44.5t14.5 69v259q0 33 -5.5 45.5t-27.5 14.5l-36 4l3 20l172 11l8 -6v-440q0 -24 6.5 -34t26.5 -13l46 -4v-22l-177 -8l-12 89
h-2q-19 -34 -42.5 -55t-53 -30.5t-65.5 -9.5zM344 582l-134 95q-15 12 -26 25t-11 29q0 13 5.5 24.5t16 19t25.5 7.5q12 0 22 -6.5t21 -24.5l93 -156z" />
    <glyph glyph-name="uacute" unicode="&#xfa;" horiz-adv-x="635" vert-adv-y="1485" 
d="M256 -14q-78 0 -119 44t-41 130v264q0 34 -6 46t-27 14l-37 4l3 20l173 11l8 -6v-350q0 -46 8.5 -74t27.5 -40.5t51 -12.5q36 0 62.5 15.5t41 44.5t14.5 69v259q0 33 -5.5 45.5t-27.5 14.5l-36 4l3 20l172 11l8 -6v-440q0 -24 6.5 -34t26.5 -13l46 -4v-22l-177 -8l-12 89
h-2q-19 -34 -42.5 -55t-53 -30.5t-65.5 -9.5zM243 582l-13 13l94 156q10 18 20.5 24.5t21.5 6.5q16 0 26.5 -7.5t16 -19t5.5 -24.5q0 -16 -10.5 -29t-26.5 -25z" />
    <glyph glyph-name="ucircumflex" unicode="&#xfb;" horiz-adv-x="635" vert-adv-y="1485" 
d="M256 -14q-78 0 -119 44t-41 130v264q0 34 -6 46t-27 14l-37 4l3 20l173 11l8 -6v-350q0 -46 8.5 -74t27.5 -40.5t51 -12.5q36 0 62.5 15.5t41 44.5t14.5 69v259q0 33 -5.5 45.5t-27.5 14.5l-36 4l3 20l172 11l8 -6v-440q0 -24 6.5 -34t26.5 -13l46 -4v-22l-177 -8l-12 89
h-2q-19 -34 -42.5 -55t-53 -30.5t-65.5 -9.5zM156 582l-13 13l112 159q10 14 21.5 20t23.5 6q9 0 16 -2.5t14.5 -9.5t15.5 -20l107 -152l-13 -13l-140 97z" />
    <glyph glyph-name="udieresis" unicode="&#xfc;" horiz-adv-x="635" vert-adv-y="1485" 
d="M256 -14q-78 0 -119 44t-41 130v264q0 34 -6 46t-27 14l-37 4l3 20l173 11l8 -6v-350q0 -46 8.5 -74t27.5 -40.5t51 -12.5q36 0 62.5 15.5t41 44.5t14.5 69v259q0 33 -5.5 45.5t-27.5 14.5l-36 4l3 20l172 11l8 -6v-440q0 -24 6.5 -34t26.5 -13l46 -4v-22l-177 -8l-12 89
h-2q-19 -34 -42.5 -55t-53 -30.5t-65.5 -9.5zM403 621q-30 0 -48.5 18t-18.5 46q0 29 18.5 47t48.5 18q31 0 49.5 -17.5t18.5 -45.5q0 -29 -19 -47.5t-49 -18.5zM196 621q-30 0 -49 18t-19 46q0 29 19 47t48 18q32 0 50.5 -17.5t18.5 -45.5q0 -29 -19 -47.5t-49 -18.5z" />
    <glyph glyph-name="yacute" unicode="&#xfd;" horiz-adv-x="556" vert-adv-y="1485" 
d="M108 -230q-48 0 -75.5 22.5t-27.5 60.5q0 26 16 45.5t46 19.5q27 0 42 -13.5t16 -33.5q0 -10 -2.5 -26t-10.5 -43q23 -2 45 7t45.5 38t47.5 89l17 39l-191 456q-12 30 -20 40t-23 13l-31 8l3 21h257v-21l-46 -5q-19 -2 -24.5 -13t4.5 -38l126 -316h4l119 312
q11 28 4 39.5t-29 15.5l-36 6l3 20h173v-21l-33 -6q-17 -4 -26.5 -13t-20.5 -40l-180 -466q-22 -59 -44 -97.5t-44 -60t-47.5 -30.5t-56.5 -9zM253 582l-13 13l94 156q10 18 20.5 24.5t21.5 6.5q16 0 26.5 -7.5t16 -19t5.5 -24.5q0 -16 -10.5 -29t-26.5 -25z" />
    <glyph glyph-name="thorn" unicode="&#xfe;" horiz-adv-x="623" vert-adv-y="1485" 
d="M23 -217v22l45 6q17 2 21.5 12.5t4.5 33.5v817q0 23 -2.5 35.5t-10 18t-25.5 7.5l-43 4l2 21l184 6l8 -6v-324l1 -2q17 30 40 51t53.5 31.5t67.5 10.5q64 0 110 -27.5t71.5 -84t25.5 -143.5t-28.5 -151t-83.5 -99t-134 -35q-33 0 -66 8.5t-56 22.5v-161q0 -25 6.5 -34.5
t26.5 -11.5l58 -6v-22h-276zM325 17q41 0 70 23t44.5 76.5t15.5 145.5q0 78 -14.5 125.5t-41.5 69t-67 21.5q-36 0 -64 -15t-44 -44.5t-16 -73.5v-282q20 -19 52 -32.5t65 -13.5z" />
    <glyph glyph-name="ydieresis" unicode="&#xff;" horiz-adv-x="556" vert-adv-y="1485" 
d="M108 -230q-48 0 -75.5 22.5t-27.5 60.5q0 26 16 45.5t46 19.5q27 0 42 -13.5t16 -33.5q0 -10 -2.5 -26t-10.5 -43q23 -2 45 7t45.5 38t47.5 89l17 39l-191 456q-12 30 -20 40t-23 13l-31 8l3 21h257v-21l-46 -5q-19 -2 -24.5 -13t4.5 -38l126 -316h4l119 312
q11 28 4 39.5t-29 15.5l-36 6l3 20h173v-21l-33 -6q-17 -4 -26.5 -13t-20.5 -40l-180 -466q-22 -59 -44 -97.5t-44 -60t-47.5 -30.5t-56.5 -9zM412 621q-30 0 -48.5 18t-18.5 46q0 29 18.5 47t48.5 18q31 0 49.5 -17.5t18.5 -45.5q0 -29 -19 -47.5t-49 -18.5zM205 621
q-30 0 -49 18t-19 46q0 29 19 47t48 18q32 0 50.5 -17.5t18.5 -45.5q0 -29 -19 -47.5t-49 -18.5z" />
    <glyph glyph-name="Amacron" unicode="&#x100;" horiz-adv-x="694" vert-adv-y="1485" 
d="M2 0v22l38 7q18 4 28 14t21 41l214 639h92l215 -641q9 -26 17 -36.5t29 -15.5l36 -7v-23h-281v22l51 6q19 3 23.5 14t-3.5 36l-49 165h-254l-52 -160q-7 -23 -2.5 -37.5t27.5 -17.5l56 -7v-21h-206zM190 271h233l-114 362h-2zM208 813v77h284v-77h-284z" />
    <glyph glyph-name="amacron" unicode="&#x101;" horiz-adv-x="544" vert-adv-y="1485" 
d="M191 -14q-66 0 -103.5 36t-37.5 99q0 52 26.5 85t89 50.5t168.5 21.5v112q0 40 -10.5 65t-31.5 36.5t-56 11.5q-31 0 -61.5 -10t-46.5 -26q18 -21 28 -36t14 -25.5t4 -18.5q0 -19 -16 -33t-44 -14q-30 0 -45.5 15t-15.5 41q0 33 26.5 63t72 49t100.5 19q65 0 108.5 -19.5
t65.5 -60t22 -105.5v-256q0 -26 11 -37.5t31 -11.5q11 0 23 3t24 9l7 -15q-23 -26 -50 -37t-53 -11q-47 0 -71 24.5t-29 70.5q-17 -34 -38 -55t-48.5 -30.5t-63.5 -9.5zM242 37q27 0 48 13t32.5 36.5t11.5 53.5v115q-61 -1 -98 -12.5t-53.5 -37.5t-16.5 -71q0 -47 19.5 -72
t56.5 -25zM111 639v77h280v-77h-280z" />
    <glyph glyph-name="Abreve" unicode="&#x102;" horiz-adv-x="694" vert-adv-y="1485" 
d="M2 0v22l38 7q18 4 28 14t21 41l214 639h92l215 -641q9 -26 17 -36.5t29 -15.5l36 -7v-23h-281v22l51 6q19 3 23.5 14t-3.5 36l-49 165h-254l-52 -160q-7 -23 -2.5 -37.5t27.5 -17.5l56 -7v-21h-206zM190 271h233l-114 362h-2zM348 776q-48 0 -80 21t-48.5 58.5
t-22.5 87.5l21 5q18 -46 50 -67t85 -21t85.5 23.5t46.5 64.5l20 -4q-3 -48 -22 -85.5t-52.5 -60t-82.5 -22.5z" />
    <glyph glyph-name="abreve" unicode="&#x103;" horiz-adv-x="544" vert-adv-y="1485" 
d="M191 -14q-66 0 -103.5 36t-37.5 99q0 52 26.5 85t89 50.5t168.5 21.5v112q0 40 -10.5 65t-31.5 36.5t-56 11.5q-31 0 -61.5 -10t-46.5 -26q18 -21 28 -36t14 -25.5t4 -18.5q0 -19 -16 -33t-44 -14q-30 0 -45.5 15t-15.5 41q0 33 26.5 63t72 49t100.5 19q65 0 108.5 -19.5
t65.5 -60t22 -105.5v-256q0 -26 11 -37.5t31 -11.5q11 0 23 3t24 9l7 -15q-23 -26 -50 -37t-53 -11q-47 0 -71 24.5t-29 70.5q-17 -34 -38 -55t-48.5 -30.5t-63.5 -9.5zM242 37q27 0 48 13t32.5 36.5t11.5 53.5v115q-61 -1 -98 -12.5t-53.5 -37.5t-16.5 -71q0 -47 19.5 -72
t56.5 -25zM252 587q-49 0 -79 24.5t-45 65.5t-21 91l22 6q18 -50 47.5 -75t79.5 -25q53 0 82.5 27t44.5 72l20 -5q-4 -48 -21 -89.5t-48 -66.5t-82 -25z" />
    <glyph glyph-name="Aogonek" unicode="&#x104;" horiz-adv-x="694" vert-adv-y="1485" 
d="M541 -233q-30 0 -49.5 11t-29.5 29t-10 38q0 31 18.5 59t48.5 52t66 44h-174v22l51 6q19 3 23.5 14t-3.5 36l-49 165h-254l-52 -160q-7 -23 -2.5 -37.5t27.5 -17.5l56 -7v-21h-206v22l38 7q18 4 28 14t21 41l214 639h92l215 -641q9 -26 17 -36.5t29 -15.5l36 -7v-23h-71
q-38 -30 -57 -59.5t-19 -63.5q0 -28 12 -40.5t31 -12.5q13 0 26.5 5.5t26.5 15.5l9 -13q-14 -25 -33 -39t-38.5 -20t-37.5 -6zM190 271h233l-114 362h-2z" />
    <glyph glyph-name="aogonek" unicode="&#x105;" horiz-adv-x="544" vert-adv-y="1485" 
d="M419 -233q-43 0 -66 23t-23 55q0 27 14.5 51.5t40.5 47t61 43.5q-49 0 -74 21.5t-31 72.5q-25 -52 -61.5 -73.5t-88.5 -21.5q-66 0 -103.5 36t-37.5 99q0 52 26 84.5t88.5 50.5t169.5 22v112q0 61 -23 87t-75 26q-31 0 -61.5 -10t-46.5 -26q25 -30 35.5 -49t10.5 -31
q0 -19 -16.5 -33t-43.5 -14q-29 0 -45 14.5t-16 41.5q0 34 27.5 64t73 48.5t98.5 18.5q100 0 148 -45t48 -140v-256q0 -26 11.5 -37.5t30.5 -11.5q11 0 23 3t24 9l7 -15q-23 -15 -44 -31.5t-38.5 -35t-28 -40.5t-10.5 -49q0 -28 11.5 -41t31.5 -13q13 0 26.5 5.5t26.5 15.5
l9 -13q-22 -36 -51.5 -50.5t-57.5 -14.5zM242 37q27 0 47.5 13t32.5 36.5t12 53.5v115q-61 -1 -98 -12.5t-53.5 -37.5t-16.5 -71q0 -47 19.5 -72t56.5 -25z" />
    <glyph glyph-name="Cacute" unicode="&#x106;" horiz-adv-x="695" vert-adv-y="1485" 
d="M395 -14q-110 0 -187 45.5t-118 131t-41 203.5q0 80 24 147.5t67 117.5t102.5 78t131.5 28q63 0 110 -23t77 -54l11 79h23l40 -236l-26 -6q-25 67 -57.5 114t-75.5 73t-98 26q-70 0 -114 -40.5t-65 -116.5t-21 -184q0 -75 16 -138t46.5 -109t74 -71t98.5 -25
q45 0 85.5 14t74.5 41.5t59 68.5l19 -15q-19 -32 -45 -59t-58.5 -47.5t-71 -31.5t-81.5 -11zM294 770l-10 15l129 131q14 13 23.5 18.5t19.5 5.5q21 0 33 -16t12 -35t-10 -33t-34 -23z" />
    <glyph glyph-name="cacute" unicode="&#x107;" horiz-adv-x="508" vert-adv-y="1485" 
d="M276 -14q-69 0 -121 30.5t-81.5 89t-29.5 141.5q0 86 32 149t89 97t132 34q54 0 93.5 -17.5t61 -46t21.5 -62.5q0 -20 -7 -35.5t-21.5 -24.5t-36.5 -9q-30 0 -45.5 14t-15.5 37q0 15 10 34.5t31 54.5q-19 14 -40.5 21t-49.5 7q-39 0 -69.5 -23t-47.5 -71.5t-17 -125.5
q0 -105 41 -159.5t112 -54.5q48 0 83 16t62 41l16 -15q-35 -59 -84.5 -90.5t-117.5 -31.5zM230 582l-13 13l94 156q10 18 20.5 24.5t21.5 6.5q16 0 26.5 -7.5t16 -19t5.5 -24.5q0 -16 -10.5 -29t-26.5 -25z" />
    <glyph glyph-name="Ccircumflex" unicode="&#x108;" horiz-adv-x="695" vert-adv-y="1485" 
d="M395 -14q-110 0 -187 45.5t-118 131t-41 203.5q0 80 24 147.5t67 117.5t102.5 78t131.5 28q63 0 110 -23t77 -54l11 79h23l40 -236l-26 -6q-25 67 -57.5 114t-75.5 73t-98 26q-70 0 -114 -40.5t-65 -116.5t-21 -184q0 -75 16 -138t46.5 -109t74 -71t98.5 -25
q45 0 85.5 14t74.5 41.5t59 68.5l19 -15q-19 -32 -45 -59t-58.5 -47.5t-71 -31.5t-81.5 -11zM223 761l-13 15l114 139q10 11 20.5 18t23.5 7q14 0 24 -6.5t24 -23.5l107 -134l-12 -15l-143 81z" />
    <glyph glyph-name="ccircumflex" unicode="&#x109;" horiz-adv-x="508" vert-adv-y="1485" 
d="M276 -14q-69 0 -121 30.5t-81.5 89t-29.5 141.5q0 86 32 149t89 97t132 34q54 0 93.5 -17.5t61 -46t21.5 -62.5q0 -20 -7 -35.5t-21.5 -24.5t-36.5 -9q-30 0 -45.5 14t-15.5 37q0 15 10 34.5t31 54.5q-19 14 -40.5 21t-49.5 7q-39 0 -69.5 -23t-47.5 -71.5t-17 -125.5
q0 -105 41 -159.5t112 -54.5q48 0 83 16t62 41l16 -15q-35 -59 -84.5 -90.5t-117.5 -31.5zM143 582l-13 13l112 159q10 14 21.5 20t23.5 6q9 0 16 -2.5t14.5 -9.5t15.5 -20l107 -152l-13 -13l-140 97z" />
    <glyph glyph-name="Cdotaccent" unicode="&#x10a;" horiz-adv-x="695" vert-adv-y="1485" 
d="M395 -14q-110 0 -187 45.5t-118 131t-41 203.5q0 80 24 147.5t67 117.5t102.5 78t131.5 28q63 0 110 -23t77 -54l11 79h23l40 -236l-26 -6q-25 67 -57.5 114t-75.5 73t-98 26q-70 0 -114 -40.5t-65 -116.5t-21 -184q0 -75 16 -138t46.5 -109t74 -71t98.5 -25
q45 0 85.5 14t74.5 41.5t59 68.5l19 -15q-19 -32 -45 -59t-58.5 -47.5t-71 -31.5t-81.5 -11zM367 793q-34 0 -54.5 19.5t-20.5 51.5t20.5 52t54.5 20q35 0 55.5 -19.5t20.5 -51.5t-20.5 -52t-55.5 -20z" />
    <glyph glyph-name="cdotaccent" unicode="&#x10b;" horiz-adv-x="508" vert-adv-y="1485" 
d="M276 -14q-69 0 -121 30.5t-81.5 89t-29.5 141.5q0 86 32 149t89 97t132 34q54 0 93.5 -17.5t61 -46t21.5 -62.5q0 -20 -7 -35.5t-21.5 -24.5t-36.5 -9q-30 0 -45.5 14t-15.5 37q0 15 10 34.5t31 54.5q-19 14 -40.5 21t-49.5 7q-39 0 -69.5 -23t-47.5 -71.5t-17 -125.5
q0 -105 41 -159.5t112 -54.5q48 0 83 16t62 41l16 -15q-35 -59 -84.5 -90.5t-117.5 -31.5zM284 617q-34 0 -54.5 19.5t-20.5 51.5q0 31 20.5 51t54.5 20q35 0 55.5 -19.5t20.5 -51.5q0 -31 -20.5 -51t-55.5 -20z" />
    <glyph glyph-name="Ccaron" unicode="&#x10c;" horiz-adv-x="695" vert-adv-y="1485" 
d="M395 -14q-110 0 -187 45.5t-118 131t-41 203.5q0 80 24 147.5t67 117.5t102.5 78t131.5 28q63 0 110 -23t77 -54l11 79h23l40 -236l-26 -6q-25 67 -57.5 114t-75.5 73t-98 26q-70 0 -114 -40.5t-65 -116.5t-21 -184q0 -75 16 -138t46.5 -109t74 -71t98.5 -25
q45 0 85.5 14t74.5 41.5t59 68.5l19 -15q-19 -32 -45 -59t-58.5 -47.5t-71 -31.5t-81.5 -11zM367 773q-14 0 -24 6.5t-24 23.5l-108 134l13 15l143 -82l146 82l12 -15l-115 -139q-9 -12 -19 -18.5t-24 -6.5z" />
    <glyph glyph-name="ccaron" unicode="&#x10d;" horiz-adv-x="508" vert-adv-y="1485" 
d="M276 -14q-69 0 -121 30.5t-81.5 89t-29.5 141.5q0 86 32 149t89 97t132 34q54 0 93.5 -17.5t61 -46t21.5 -62.5q0 -20 -7 -35.5t-21.5 -24.5t-36.5 -9q-30 0 -45.5 14t-15.5 37q0 15 10 34.5t31 54.5q-19 14 -40.5 21t-49.5 7q-39 0 -69.5 -23t-47.5 -71.5t-17 -125.5
q0 -105 41 -159.5t112 -54.5q48 0 83 16t62 41l16 -15q-35 -59 -84.5 -90.5t-117.5 -31.5zM284 583q-8 0 -15.5 2.5t-14.5 10t-16 19.5l-107 153l13 13l140 -98l144 98l13 -12l-112 -159q-10 -15 -21 -21t-24 -6z" />
    <glyph glyph-name="Dcaron" unicode="&#x10e;" horiz-adv-x="770" vert-adv-y="1485" 
d="M56 0v22l54 4q19 3 25 13t6 39v573q0 25 -6.5 35t-26.5 12l-52 4v21h299q61 0 115.5 -11t100 -36t79.5 -65.5t52 -97.5t18 -135q0 -103 -29 -175t-82 -117t-125 -65.5t-158 -20.5h-270zM330 27q65 0 113.5 18.5t81.5 59t49.5 107.5t16.5 164q0 109 -29 180t-84 105.5
t-132 34.5h-84v-664q10 -2 28.5 -3.5t39.5 -1.5zM364 773q-14 0 -24 6.5t-24 23.5l-108 134l13 15l143 -82l146 82l12 -15l-115 -139q-9 -12 -19 -18.5t-24 -6.5z" />
    <glyph glyph-name="dcaron" unicode="&#x10f;" horiz-adv-x="712" vert-adv-y="1485" 
d="M255 -14q-65 0 -112 28.5t-71.5 85.5t-24.5 141q0 89 29.5 153t85 98.5t131.5 34.5q34 0 66.5 -8.5t55.5 -23.5v185q0 32 -7.5 43t-34.5 13l-46 4l2 20l192 6l8 -7v-689q0 -24 6 -33t26 -12l45 -4v-22l-176 -8l-11 87h-2q-16 -31 -40 -51.5t-54 -30.5t-68 -10zM293 35
q36 0 63 15t43 44t16 73v285q-24 20 -55 32t-64 12q-44 0 -72.5 -24t-42 -76.5t-13.5 -139.5q0 -78 14.5 -127t42.5 -71.5t68 -22.5zM602 531l-16 16q29 33 38 54.5t9 41.5q0 13 -5 22t-18 19q-10 9 -16 18.5t-6 23.5q0 22 16.5 33.5t35.5 11.5q35 0 50 -23t15 -49
q0 -25 -11.5 -54t-34.5 -58t-57 -56z" />
    <glyph glyph-name="Dcroat" unicode="&#x110;" horiz-adv-x="770" vert-adv-y="1485" 
d="M56 0v22l54 4q19 3 25 13t6 39v276h-105l6 35h99v262q0 25 -6.5 35t-26.5 12l-52 4v21h299q61 0 115.5 -11t100 -36t79.5 -65.5t52 -97.5t18 -135q0 -103 -29 -175t-82 -117t-125 -65.5t-158 -20.5h-270zM330 27q65 0 113.5 18.5t81.5 59t49.5 107.5t16.5 164
q0 109 -29 180t-84 105.5t-132 34.5h-84v-307h179v-35h-179v-322q10 -2 28.5 -3.5t39.5 -1.5z" />
    <glyph glyph-name="dcroat" unicode="&#x111;" horiz-adv-x="627" vert-adv-y="0" 
d="M255 -14q-65 0 -112 28.5t-71.5 85.5t-24.5 141q0 89 29.5 153t85 98.5t131.5 34.5q34 0 66.5 -8.5t55.5 -23.5v114h-156l6 33h150v39q0 32 -7.5 42.5t-34.5 12.5l-46 4l2 20l192 6l8 -7v-117h85v-33h-85v-539q0 -24 6 -33t26 -12l45 -4v-22l-176 -8l-11 87h-2
q-16 -31 -40 -51.5t-54 -30.5t-68 -10zM293 35q36 0 63 15t43 44t16 73v285q-24 20 -55 32t-64 12q-44 0 -72.5 -24t-42 -76.5t-13.5 -139.5q0 -78 14.5 -127t42.5 -71.5t68 -22.5z" />
    <glyph glyph-name="Emacron" unicode="&#x112;" horiz-adv-x="614" vert-adv-y="1485" 
d="M56 0v22l54 4q19 3 25 13t6 39v573q0 25 -6.5 35t-26.5 12l-52 4v21h466l29 -168l-24 -6q-16 45 -31.5 73.5t-34.5 45t-45 23t-64 6.5h-90v-313h86q31 0 47.5 6.5t25.5 26t19 58.5l23 3v-212l-23 -4q-8 39 -17 59t-26 27.5t-49 7.5h-86v-329h118q36 0 60.5 6.5t42 23.5
t32 47t28.5 77h25l-18 -181h-494zM173 813v77h284v-77h-284z" />
    <glyph glyph-name="emacron" unicode="&#x113;" horiz-adv-x="526" vert-adv-y="1485" 
d="M280 -14q-72 0 -125 30.5t-82 88.5t-29 141q0 90 32 152.5t88.5 95.5t130.5 33q59 0 101.5 -22t66 -63.5t23.5 -96.5q0 -17 -1 -33t-4 -32h-316q-2 -74 17 -121.5t54.5 -70t82.5 -22.5q42 0 79.5 13.5t76.5 49.5l15 -15q-37 -65 -90 -96.5t-120 -31.5zM165 306h206
q1 11 1.5 23.5t0.5 26.5q0 80 -21 113t-66 33q-35 0 -60.5 -19t-40.5 -62t-20 -115zM141 639v77h280v-77h-280z" />
    <glyph glyph-name="Ebreve" unicode="&#x114;" horiz-adv-x="614" vert-adv-y="1485" 
d="M56 0v22l54 4q19 3 25 13t6 39v573q0 25 -6.5 35t-26.5 12l-52 4v21h466l29 -168l-24 -6q-16 45 -31.5 73.5t-34.5 45t-45 23t-64 6.5h-90v-313h86q31 0 47.5 6.5t25.5 26t19 58.5l23 3v-212l-23 -4q-8 39 -17 59t-26 27.5t-49 7.5h-86v-329h118q36 0 60.5 6.5t42 23.5
t32 47t28.5 77h25l-18 -181h-494zM313 776q-48 0 -80 21t-48.5 58.5t-22.5 87.5l21 5q18 -46 50 -67t85 -21t85.5 23.5t46.5 64.5l20 -4q-3 -48 -22 -85.5t-52.5 -60t-82.5 -22.5z" />
    <glyph glyph-name="ebreve" unicode="&#x115;" horiz-adv-x="526" vert-adv-y="1485" 
d="M280 -14q-72 0 -125 30.5t-82 88.5t-29 141q0 90 32 152.5t88.5 95.5t130.5 33q59 0 101.5 -22t66 -63.5t23.5 -96.5q0 -17 -1 -33t-4 -32h-316q-2 -74 17 -121.5t54.5 -70t82.5 -22.5q42 0 79.5 13.5t76.5 49.5l15 -15q-37 -65 -90 -96.5t-120 -31.5zM165 306h206
q1 11 1.5 23.5t0.5 26.5q0 80 -21 113t-66 33q-35 0 -60.5 -19t-40.5 -62t-20 -115zM282 587q-49 0 -79 24.5t-45 65.5t-21 91l22 6q18 -50 47.5 -75t79.5 -25q53 0 82.5 27t44.5 72l20 -5q-4 -48 -21 -89.5t-48 -66.5t-82 -25z" />
    <glyph glyph-name="Edotaccent" unicode="&#x116;" horiz-adv-x="614" vert-adv-y="1485" 
d="M56 0v22l54 4q19 3 25 13t6 39v573q0 25 -6.5 35t-26.5 12l-52 4v21h466l29 -168l-24 -6q-16 45 -31.5 73.5t-34.5 45t-45 23t-64 6.5h-90v-313h86q31 0 47.5 6.5t25.5 26t19 58.5l23 3v-212l-23 -4q-8 39 -17 59t-26 27.5t-49 7.5h-86v-329h118q36 0 60.5 6.5t42 23.5
t32 47t28.5 77h25l-18 -181h-494zM315 793q-34 0 -54.5 19.5t-20.5 51.5t20.5 52t54.5 20q35 0 55.5 -19.5t20.5 -51.5t-20.5 -52t-55.5 -20z" />
    <glyph glyph-name="edotaccent" unicode="&#x117;" horiz-adv-x="526" vert-adv-y="1485" 
d="M280 -14q-72 0 -125 30.5t-82 88.5t-29 141q0 90 32 152.5t88.5 95.5t130.5 33q59 0 101.5 -22t66 -63.5t23.5 -96.5q0 -17 -1 -33t-4 -32h-316q-2 -74 17 -121.5t54.5 -70t82.5 -22.5q42 0 79.5 13.5t76.5 49.5l15 -15q-37 -65 -90 -96.5t-120 -31.5zM165 306h206
q1 11 1.5 23.5t0.5 26.5q0 80 -21 113t-66 33q-35 0 -60.5 -19t-40.5 -62t-20 -115zM280 617q-34 0 -54.5 19.5t-20.5 51.5q0 31 20.5 51t54.5 20q35 0 55.5 -19.5t20.5 -51.5q0 -31 -20.5 -51t-55.5 -20z" />
    <glyph glyph-name="Eogonek" unicode="&#x118;" horiz-adv-x="614" vert-adv-y="1485" 
d="M443 -233q-30 0 -50 11t-29.5 29t-9.5 38q0 33 21 60.5t56 51t79 43.5h-454v22l54 4q19 3 25 13t6 39v573q0 25 -6.5 35t-26.5 12l-52 4v21h466l29 -168l-24 -6q-16 45 -31.5 73.5t-34.5 45t-45 23t-64 6.5h-90v-313h86q31 0 47.5 6.5t25.5 26t19 58.5l23 3v-212l-23 -4
q-8 39 -17 59t-26 27.5t-49 7.5h-86v-329h118q36 0 60.5 6.5t42 23.5t32 47t28.5 77h25l-18 -181q-34 -19 -57 -39t-34.5 -41t-11.5 -43q0 -28 12 -40.5t31 -12.5q12 0 26 5.5t27 15.5l9 -13q-14 -25 -33.5 -39t-38.5 -20t-37 -6z" />
    <glyph glyph-name="eogonek" unicode="&#x119;" horiz-adv-x="526" vert-adv-y="1485" 
d="M318 -233q-30 0 -50 11t-29.5 29t-9.5 38q0 40 31 77t81 72q-14 -4 -29.5 -6t-31.5 -2q-72 0 -125 30.5t-82 88.5t-29 141q0 90 32 152.5t88.5 95.5t130.5 33q59 0 101.5 -22t66 -63.5t23.5 -96.5q0 -17 -1 -33t-4 -32h-316q-2 -74 17 -121.5t54.5 -70t82.5 -22.5
q42 0 79.5 13.5t76.5 49.5l15 -15q-17 -29 -37 -52t-44 -39q-32 -28 -51.5 -53t-27.5 -47.5t-8 -46.5q0 -28 12 -40t31 -12q12 0 26 5.5t27 15.5l9 -13q-14 -25 -33.5 -39t-38.5 -20t-37 -6zM165 306h206q1 11 1.5 23.5t0.5 26.5q0 80 -21 113t-66 33q-35 0 -60.5 -19
t-40.5 -62t-20 -115z" />
    <glyph glyph-name="Ecaron" unicode="&#x11a;" horiz-adv-x="614" vert-adv-y="1485" 
d="M56 0v22l54 4q19 3 25 13t6 39v573q0 25 -6.5 35t-26.5 12l-52 4v21h466l29 -168l-24 -6q-16 45 -31.5 73.5t-34.5 45t-45 23t-64 6.5h-90v-313h86q31 0 47.5 6.5t25.5 26t19 58.5l23 3v-212l-23 -4q-8 39 -17 59t-26 27.5t-49 7.5h-86v-329h118q36 0 60.5 6.5t42 23.5
t32 47t28.5 77h25l-18 -181h-494zM315 773q-14 0 -24 6.5t-24 23.5l-108 134l13 15l143 -82l146 82l12 -15l-115 -139q-9 -12 -19 -18.5t-24 -6.5z" />
    <glyph glyph-name="ecaron" unicode="&#x11b;" horiz-adv-x="526" vert-adv-y="1485" 
d="M280 -14q-72 0 -125 30.5t-82 88.5t-29 141q0 90 32 152.5t88.5 95.5t130.5 33q59 0 101.5 -22t66 -63.5t23.5 -96.5q0 -17 -1 -33t-4 -32h-316q-2 -74 17 -121.5t54.5 -70t82.5 -22.5q42 0 79.5 13.5t76.5 49.5l15 -15q-37 -65 -90 -96.5t-120 -31.5zM165 306h206
q1 11 1.5 23.5t0.5 26.5q0 80 -21 113t-66 33q-35 0 -60.5 -19t-40.5 -62t-20 -115zM280 583q-8 0 -15.5 2.5t-14.5 10t-16 19.5l-107 153l13 13l140 -98l144 98l13 -12l-112 -159q-10 -15 -21 -21t-24 -6z" />
    <glyph glyph-name="Gcircumflex" unicode="&#x11c;" horiz-adv-x="750" vert-adv-y="1485" 
d="M365 -14q-95 0 -166 43.5t-110.5 126t-39.5 199.5q0 82 24.5 151.5t69.5 121.5t106 80.5t133 28.5q64 0 109 -23.5t75 -53.5l11 79h23l44 -236l-26 -5q-24 63 -58 110.5t-77.5 74.5t-98.5 27q-48 0 -86.5 -23.5t-65 -68.5t-40.5 -109.5t-14 -147.5q0 -77 15.5 -139
t43 -106.5t66 -68.5t83.5 -24q31 0 58.5 6.5t50.5 19t39 32.5v183q0 26 -6.5 36t-26.5 12l-56 4v22h281v-22l-49 -4q-18 -2 -24 -12.5t-6 -38.5v-265h-22l-75 61q-22 -22 -49 -38t-60 -24.5t-76 -8.5zM226 761l-13 15l114 139q10 11 20.5 18t23.5 7q14 0 24 -6.5t24 -23.5
l107 -134l-12 -15l-143 81z" />
    <glyph glyph-name="gcircumflex" unicode="&#x11d;" horiz-adv-x="569" vert-adv-y="1485" 
d="M122 582l-13 13l112 159q10 14 21.5 20t23.5 6q13 0 23 -6.5t23 -25.5l103 -149l-13 -13l-137 94zM264 -230q-62 0 -107 8t-73.5 23.5t-42.5 38t-14 52.5q0 26 11.5 47.5t35.5 36.5t60 23v4q-39 9 -58.5 32t-19.5 52t15 53.5t54 63.5v3q-36 18 -55.5 52t-19.5 86
q0 57 27 97.5t76.5 62.5t114.5 22q26 0 51 -4.5t48.5 -12.5t42.5 -21q16 50 38.5 79.5t59.5 29.5q20 0 36 -7.5t25 -20.5t9 -31q0 -23 -17 -41.5t-43 -18.5q-15 0 -25 8t-18 22l-17 28q-9 -14 -15 -28.5t-12 -33.5q21 -23 36 -56t15 -69q0 -53 -26 -93.5t-73.5 -62.5
t-112.5 -22q-37 0 -66 6t-51 15q-17 -20 -24.5 -32.5t-7.5 -25.5q0 -15 8.5 -26t26.5 -16t46 -5h147q98 0 146.5 -31t48.5 -99q0 -32 -10.5 -60.5t-32.5 -52t-55 -40.5t-78.5 -26t-103.5 -9zM272 -200q49 0 86.5 15t58 41t20.5 59q0 41 -25.5 59t-74.5 18h-171
q-20 -15 -30.5 -37.5t-10.5 -45.5q0 -56 36 -82.5t111 -26.5zM267 201q49 0 74.5 38t25.5 108q0 74 -28 113t-78 39q-49 0 -72.5 -37.5t-23.5 -110.5q0 -70 27.5 -110t74.5 -40z" />
    <glyph glyph-name="Gbreve" unicode="&#x11e;" horiz-adv-x="750" vert-adv-y="1485" 
d="M365 -14q-95 0 -166 43.5t-110.5 126t-39.5 199.5q0 82 24.5 151.5t69.5 121.5t106 80.5t133 28.5q64 0 109 -23.5t75 -53.5l11 79h23l44 -236l-26 -5q-24 63 -58 110.5t-77.5 74.5t-98.5 27q-48 0 -86.5 -23.5t-65 -68.5t-40.5 -109.5t-14 -147.5q0 -77 15.5 -139
t43 -106.5t66 -68.5t83.5 -24q31 0 58.5 6.5t50.5 19t39 32.5v183q0 26 -6.5 36t-26.5 12l-56 4v22h281v-22l-49 -4q-18 -2 -24 -12.5t-6 -38.5v-265h-22l-75 61q-22 -22 -49 -38t-60 -24.5t-76 -8.5zM368 776q-48 0 -80 21t-48.5 58.5t-22.5 87.5l21 5q18 -46 50 -67
t85 -21t85.5 23.5t46.5 64.5l20 -4q-3 -48 -22 -85.5t-52.5 -60t-82.5 -22.5z" />
    <glyph glyph-name="gbreve" unicode="&#x11f;" horiz-adv-x="575" vert-adv-y="1485" 
d="M264 -230q-62 0 -107 8t-73.5 23.5t-42.5 38t-14 52.5q0 26 11.5 47.5t35.5 36.5t60 23v4q-39 9 -58.5 32t-19.5 52t15 53.5t54 63.5v3q-36 18 -55.5 52t-19.5 86q0 57 27 97.5t76.5 62.5t114.5 22q26 0 50.5 -4.5t48.5 -12.5t43 -21q16 50 38.5 79.5t59.5 29.5
q20 0 36 -7.5t25 -20.5t9 -31q0 -23 -17 -41.5t-43 -18.5q-15 0 -25 8t-18 22l-17 28q-9 -14 -15 -28.5t-12 -33.5q21 -23 36 -56t15 -69q0 -53 -26 -93.5t-73.5 -62.5t-112.5 -22q-37 0 -66 6t-51 15q-17 -20 -24.5 -32t-7.5 -26q0 -16 8.5 -26.5t26.5 -15.5t46 -5h147
q98 0 146.5 -31t48.5 -99q0 -32 -10.5 -60.5t-32.5 -52t-55 -40.5t-78.5 -26t-103.5 -9zM272 -200q49 0 86.5 15t58 41t20.5 59q0 41 -25.5 59t-74.5 18h-171q-20 -15 -30.5 -37.5t-10.5 -45.5q0 -56 36 -82.5t111 -26.5zM267 201q49 0 74.5 38t25.5 108q0 74 -28 113
t-78 39q-49 0 -72.5 -37.5t-23.5 -110.5q0 -70 27.5 -110t74.5 -40zM268 588q-49 0 -79 24.5t-45 65.5t-21 91l22 6q18 -50 47.5 -75t79.5 -25q53 0 82.5 27t44.5 72l20 -5q-4 -48 -21 -89.5t-48 -66.5t-82 -25z" />
    <glyph glyph-name="Gdotaccent" unicode="&#x120;" horiz-adv-x="750" vert-adv-y="1485" 
d="M365 -14q-95 0 -166 43.5t-110.5 126t-39.5 199.5q0 82 24.5 151.5t69.5 121.5t106 80.5t133 28.5q64 0 109 -23.5t75 -53.5l11 79h23l44 -236l-26 -5q-24 63 -58 110.5t-77.5 74.5t-98.5 27q-48 0 -86.5 -23.5t-65 -68.5t-40.5 -109.5t-14 -147.5q0 -77 15.5 -139
t43 -106.5t66 -68.5t83.5 -24q31 0 58.5 6.5t50.5 19t39 32.5v183q0 26 -6.5 36t-26.5 12l-56 4v22h281v-22l-49 -4q-18 -2 -24 -12.5t-6 -38.5v-265h-22l-75 61q-22 -22 -49 -38t-60 -24.5t-76 -8.5zM370 793q-34 0 -54.5 19.5t-20.5 51.5t20.5 52t54.5 20q35 0 55.5 -19.5
t20.5 -51.5t-20.5 -52t-55.5 -20z" />
    <glyph glyph-name="gdotaccent" unicode="&#x121;" horiz-adv-x="575" vert-adv-y="1485" 
d="M264 -230q-62 0 -107 8t-73.5 23.5t-42.5 38t-14 52.5q0 26 11.5 47.5t35.5 36.5t60 23v4q-39 9 -58.5 32t-19.5 52t15 53.5t54 63.5v3q-36 18 -55.5 52t-19.5 86q0 57 27 97.5t76.5 62.5t114.5 22q26 0 50.5 -4.5t48.5 -12.5t43 -21q16 50 38.5 79.5t59.5 29.5
q20 0 36 -7.5t25 -20.5t9 -31q0 -23 -17 -41.5t-43 -18.5q-15 0 -25 8t-18 22l-17 28q-9 -14 -15 -28.5t-12 -33.5q21 -23 36 -56t15 -69q0 -53 -26 -93.5t-73.5 -62.5t-112.5 -22q-37 0 -66 6t-51 15q-17 -20 -24.5 -32t-7.5 -26q0 -16 8.5 -26.5t26.5 -15.5t46 -5h147
q98 0 146.5 -31t48.5 -99q0 -32 -10.5 -60.5t-32.5 -52t-55 -40.5t-78.5 -26t-103.5 -9zM272 -200q49 0 86.5 15t58 41t20.5 59q0 41 -25.5 59t-74.5 18h-171q-20 -15 -30.5 -37.5t-10.5 -45.5q0 -56 36 -82.5t111 -26.5zM267 201q49 0 74.5 38t25.5 108q0 74 -28 113
t-78 39q-49 0 -72.5 -37.5t-23.5 -110.5q0 -70 27.5 -110t74.5 -40zM266 618q-34 0 -54.5 19.5t-20.5 51.5q0 31 20.5 51t54.5 20q35 0 55.5 -19.5t20.5 -51.5q0 -31 -20.5 -51t-55.5 -20z" />
    <glyph glyph-name="uni0122" unicode="&#x122;" horiz-adv-x="750" vert-adv-y="1485" 
d="M365 -14q-95 0 -166 43.5t-110.5 126t-39.5 199.5q0 82 24.5 151.5t69.5 121.5t106 80.5t133 28.5q64 0 109 -23.5t75 -53.5l11 79h23l44 -236l-26 -5q-24 63 -58 110.5t-77.5 74.5t-98.5 27q-48 0 -86.5 -23.5t-65 -68.5t-40.5 -109.5t-14 -147.5q0 -77 15.5 -139
t43 -106.5t66 -68.5t83.5 -24q31 0 58.5 6.5t50.5 19t39 32.5v183q0 26 -6.5 36t-26.5 12l-56 4v22h281v-22l-49 -4q-18 -2 -24 -12.5t-6 -38.5v-265h-22l-75 61q-22 -22 -49 -38t-60 -24.5t-76 -8.5zM332 -279l-13 16q27 20 40.5 36t18.5 31.5t5 31.5h-12q-36 0 -50 14
t-14 36q0 17 7.5 30t22 20t33.5 7q23 0 38 -10.5t22.5 -26.5t7.5 -37q0 -23 -8 -48t-31 -50.5t-67 -49.5z" />
    <glyph glyph-name="uni0123" unicode="&#x123;" horiz-adv-x="575" vert-adv-y="1485" 
d="M264 -230q-62 0 -107 8t-73.5 23.5t-42.5 38t-14 52.5q0 26 11.5 47.5t35.5 36.5t60 23v4q-39 9 -58.5 32t-19.5 52t15 53.5t54 63.5v3q-36 18 -55.5 52t-19.5 86q0 57 27 97.5t76.5 62.5t114.5 22q26 0 50.5 -4.5t48.5 -12.5t43 -21q16 50 38.5 79.5t59.5 29.5
q20 0 36 -7.5t25 -20.5t9 -31q0 -23 -17 -41.5t-43 -18.5q-15 0 -25 8t-18 22l-17 28q-9 -14 -15 -28.5t-12 -33.5q21 -23 36 -56t15 -69q0 -53 -26 -93.5t-73.5 -62.5t-112.5 -22q-37 0 -66 6t-51 15q-17 -20 -24.5 -32t-7.5 -26q0 -16 8.5 -26.5t26.5 -15.5t46 -5h147
q98 0 146.5 -31t48.5 -99q0 -32 -10.5 -60.5t-32.5 -52t-55 -40.5t-78.5 -26t-103.5 -9zM272 -200q49 0 86.5 15t58 41t20.5 59q0 41 -25.5 59t-74.5 18h-171q-20 -15 -30.5 -37.5t-10.5 -45.5q0 -56 36 -82.5t111 -26.5zM267 201q49 0 74.5 38t25.5 108q0 74 -28 113
t-78 39q-49 0 -72.5 -37.5t-23.5 -110.5q0 -70 27.5 -110t74.5 -40zM268 585q-34 0 -51 21.5t-17 50.5q0 24 9 49t31.5 50t63.5 48l12 -17q-26 -19 -39 -35t-18.5 -31t-5.5 -31h12q35 0 49.5 -13.5t14.5 -35.5q0 -16 -7.5 -29t-21 -20t-32.5 -7z" />
    <glyph glyph-name="Hcircumflex" unicode="&#x124;" horiz-adv-x="831" vert-adv-y="1485" 
d="M56 0v22l54 4q19 3 25 13t6 39v573q0 25 -6.5 35t-26.5 12l-52 4v21h289v-21l-53 -4q-17 -2 -23.5 -12.5t-6.5 -38.5v-262h308v266q0 25 -6 35t-27 12l-50 4v21h288v-21l-53 -4q-19 -2 -25 -13t-6 -38v-573q0 -25 6 -35t27 -13l51 -4v-22h-288v22l52 4q19 3 25 13t6 39
v278h-308v-282q0 -26 6.5 -35.5t25.5 -12.5l51 -4v-22h-289zM273 761l-13 15l114 139q10 11 20.5 18t23.5 7q14 0 24 -6.5t24 -23.5l107 -134l-12 -15l-143 81z" />
    <glyph glyph-name="hcircumflex" unicode="&#x125;" horiz-adv-x="651" vert-adv-y="1485" 
d="M42 0v21l45 7q16 2 21 11.5t5 35.5v599q0 35 -6.5 47t-29.5 14l-45 4l2 21l185 6l8 -6v-333l1 -2q22 50 66.5 76t98.5 26q53 0 88 -20t53.5 -58.5t18.5 -95.5v-285q0 -22 5.5 -30.5t25.5 -10.5l43 -6v-21h-257v21l40 5q18 2 23.5 11t5.5 31v283q0 47 -8 74.5t-27.5 39.5
t-53.5 12q-35 0 -63 -16.5t-44 -46.5t-16 -71v-272q0 -22 4.5 -31.5t19.5 -11.5l48 -7v-21h-257zM-2 781l-13 15l114 139q10 11 20.5 18t23.5 7q14 0 24 -6.5t24 -23.5l107 -134l-12 -15l-143 81z" />
    <glyph glyph-name="Hbar" unicode="&#x126;" horiz-adv-x="821" vert-adv-y="1485" 
d="M51 0v22l54 4q19 3 25 13t6 39v447h-97l6 31h91v95q0 26 -6.5 35.5t-26.5 11.5l-52 4v21h289v-21l-53 -4q-18 -2 -24 -13t-6 -38v-91h308v95q0 26 -6.5 35.5t-26.5 11.5l-50 4v21h288v-21l-53 -4q-19 -2 -25 -12.5t-6 -38.5v-91h95v-31h-95v-451q0 -25 6.5 -35t26.5 -13
l51 -4v-22h-288v22l52 4q19 3 25 13t6 39v275h-308v-279q0 -26 6.5 -35.5t25.5 -12.5l51 -4v-22h-289zM257 381h308v144h-308v-144z" />
    <glyph glyph-name="hbar" unicode="&#x127;" horiz-adv-x="651" vert-adv-y="0" 
d="M42 0v21l45 7q16 2 21 11.5t5 35.5v532h-99l6 33h93v35q0 34 -6.5 46t-29.5 14l-45 4l2 21l185 6l8 -6v-120h134v-33h-134v-182h1q22 50 66.5 76t98.5 26q53 0 88 -20t53.5 -58.5t18.5 -95.5v-285q0 -22 5.5 -30.5t25.5 -10.5l43 -6v-21h-257v21l40 5q18 2 23.5 11
t5.5 31v283q0 47 -8 74.5t-27.5 39.5t-53.5 12q-35 0 -63 -16.5t-44 -46.5t-16 -71v-272q0 -22 4.5 -31.5t19.5 -11.5l48 -7v-21h-257z" />
    <glyph glyph-name="Itilde" unicode="&#x128;" horiz-adv-x="404" vert-adv-y="1485" 
d="M56 0v22l55 4q19 3 25 13.5t6 38.5v573q0 25 -6.5 35t-27.5 12l-52 4v21h292v-21l-55 -4q-17 -2 -24 -12.5t-7 -38.5v-573q0 -26 6.5 -35.5t26.5 -12.5l53 -4v-22h-292zM276 786q-21 0 -41.5 6t-50.5 19q-26 11 -40.5 16.5t-22.5 7.5t-15 2q-14 0 -24 -6.5t-21 -30.5
l-18 8q10 43 21.5 67t27.5 34t38 10q20 0 39.5 -6.5t49.5 -19.5q37 -15 52.5 -20.5t28.5 -5.5q14 0 23.5 7.5t20.5 29.5l17 -7q-10 -44 -22 -68.5t-27 -33.5t-36 -9z" />
    <glyph glyph-name="itilde" unicode="&#x129;" horiz-adv-x="335" vert-adv-y="1485" 
d="M38 0v22l50 6q17 2 22 11.5t5 36.5v346q0 35 -6 47.5t-29 14.5l-46 4l3 21l184 9l8 -5v-440q0 -24 5.5 -33t21.5 -11l52 -8v-21h-270zM222 617q-21 0 -41.5 6t-49.5 19q-27 11 -41.5 16.5t-22 7.5t-13.5 2q-14 0 -24.5 -6.5t-21.5 -30.5l-17 8q9 42 20.5 66.5t27.5 34
t39 9.5q20 0 39 -6t49 -19q37 -15 52 -20.5t28 -5.5q15 0 24.5 7t20.5 30l17 -8q-11 -43 -23 -67.5t-27 -33.5t-36 -9z" />
    <glyph glyph-name="Imacron" unicode="&#x12a;" horiz-adv-x="404" vert-adv-y="1485" 
d="M56 0v22l55 4q19 3 25 13.5t6 38.5v573q0 25 -6.5 35t-27.5 12l-52 4v21h292v-21l-55 -4q-17 -2 -24 -12.5t-7 -38.5v-573q0 -26 6.5 -35.5t26.5 -12.5l53 -4v-22h-292zM59 813v77h284v-77h-284z" />
    <glyph glyph-name="imacron" unicode="&#x12b;" horiz-adv-x="335" vert-adv-y="1485" 
d="M38 0v22l50 6q17 2 22 11.5t5 36.5v346q0 35 -6 47.5t-29 14.5l-46 4l3 21l184 9l8 -5v-440q0 -24 5.5 -33t21.5 -11l52 -8v-21h-270zM9 639v77h280v-77h-280z" />
    <glyph glyph-name="Ibreve" unicode="&#x12c;" horiz-adv-x="404" vert-adv-y="1485" 
d="M56 0v22l55 4q19 3 25 13.5t6 38.5v573q0 25 -6.5 35t-27.5 12l-52 4v21h292v-21l-55 -4q-17 -2 -24 -12.5t-7 -38.5v-573q0 -26 6.5 -35.5t26.5 -12.5l53 -4v-22h-292zM199 776q-48 0 -80 21t-48.5 58.5t-22.5 87.5l21 5q18 -46 50 -67t85 -21t85.5 23.5t46.5 64.5
l20 -4q-3 -48 -22 -85.5t-52.5 -60t-82.5 -22.5z" />
    <glyph glyph-name="ibreve" unicode="&#x12d;" horiz-adv-x="335" vert-adv-y="1485" 
d="M38 0v22l50 6q17 2 22 11.5t5 36.5v346q0 35 -6 47.5t-29 14.5l-46 4l3 21l184 9l8 -5v-440q0 -24 5.5 -33t21.5 -11l52 -8v-21h-270zM147 587q-49 0 -79 24.5t-45 65.5t-21 91l21 6q18 -51 48 -75.5t80 -24.5q53 0 82.5 26.5t44.5 72.5l20 -5q-4 -48 -21 -89.5
t-48.5 -66.5t-81.5 -25z" />
    <glyph glyph-name="Iogonek" unicode="&#x12e;" horiz-adv-x="396" vert-adv-y="1485" 
d="M185 -233q-31 0 -50.5 11t-29 29t-9.5 38q0 31 18.5 59t48.5 52t66 44h-173v22l55 4q19 3 25 13.5t6 38.5v573q0 25 -6.5 35t-27.5 12l-52 4v21h292v-21l-55 -4q-17 -2 -24 -12.5t-7 -38.5v-573q0 -26 6.5 -35.5t26.5 -12.5l53 -4v-22h-84q-38 -30 -56.5 -59.5
t-18.5 -63.5q0 -28 12 -40.5t30 -12.5q13 0 27 5.5t26 15.5l10 -13q-15 -25 -34 -39t-38.5 -20t-36.5 -6z" />
    <glyph glyph-name="iogonek" unicode="&#x12f;" horiz-adv-x="341" vert-adv-y="1485" 
d="M161 -233q-31 0 -50.5 11t-29.5 29t-10 38q0 31 18.5 59t48.5 52t66 44h-166v22l50 6q18 2 22.5 12t4.5 36v346q0 34 -6 47t-29 15l-46 4l3 21l184 9l8 -5v-440q0 -23 5 -32.5t22 -11.5l52 -8v-21h-68q-38 -30 -57 -59.5t-19 -63.5q0 -28 12 -40.5t31 -12.5
q13 0 26.5 5.5t26.5 15.5l9 -13q-14 -25 -33 -39t-38.5 -20t-36.5 -6zM159 617q-34 0 -55 19.5t-21 51.5q0 31 21 51t55 20q35 0 55.5 -19.5t20.5 -51.5q0 -31 -21 -51t-55 -20z" />
    <glyph glyph-name="Idotaccent" unicode="&#x130;" horiz-adv-x="404" vert-adv-y="1485" 
d="M56 0v22l55 4q19 3 25 13.5t6 38.5v573q0 25 -6.5 35t-27.5 12l-52 4v21h292v-21l-55 -4q-17 -2 -24 -12.5t-7 -38.5v-573q0 -26 6.5 -35.5t26.5 -12.5l53 -4v-22h-292zM201 793q-34 0 -54.5 19.5t-20.5 51.5t20.5 52t54.5 20q35 0 55.5 -19.5t20.5 -51.5t-20.5 -52
t-55.5 -20z" />
    <glyph glyph-name="dotlessi" unicode="&#x131;" horiz-adv-x="335" vert-adv-y="1485" 
d="M38 0v22l50 6q17 2 22 11.5t5 36.5v346q0 35 -6 47.5t-29 14.5l-46 4l3 21l184 9l8 -5v-440q0 -24 5.5 -33t21.5 -11l52 -8v-21h-270z" />
    <glyph glyph-name="IJ" unicode="&#x132;" horiz-adv-x="969" vert-adv-y="1485" 
d="M56 0v22l55 4q19 3 25 13.5t6 38.5v573q0 25 -6.5 35t-27.5 12l-52 4v21h292v-21l-55 -4q-17 -2 -24 -12.5t-7 -38.5v-573q0 -26 6.5 -35.5t26.5 -12.5l53 -4v-22h-292zM626 -14q-53 0 -95.5 16.5t-67.5 46.5t-25 68q0 24 10.5 44t28.5 31.5t41 11.5q32 0 50 -13.5
t18 -37.5q0 -22 -16 -51t-36 -58q17 -13 41.5 -21.5t51.5 -8.5q35 0 57.5 16t33 55t10.5 109v456q0 25 -6.5 35.5t-27.5 11.5l-66 4v22h309v-21l-58 -4q-18 -2 -24.5 -12.5t-6.5 -38.5v-415q0 -119 -58 -182.5t-164 -63.5z" />
    <glyph glyph-name="ij" unicode="&#x133;" horiz-adv-x="642" vert-adv-y="1485" 
d="M38 0v22l50 6q18 2 22.5 12t4.5 36v346q0 34 -6 47t-29 15l-46 4l3 21l184 9l8 -5v-440q0 -23 5 -32.5t22 -11.5l52 -8v-21h-270zM159 617q-34 0 -55 19.5t-21 51.5q0 31 21 51t55 20q35 0 55.5 -19.5t20.5 -51.5q0 -31 -21 -51t-55 -20zM371 -229l-12 18q25 20 41 41
t25 47t12 61t3 82v401q0 35 -6 48t-28 15l-46 4l2 21l184 9l8 -5v-421q0 -67 -8 -116.5t-28 -86.5t-55.5 -65t-91.5 -53zM484 616q-35 0 -56 19.5t-21 52.5q0 32 21 52t56 20q36 0 56.5 -19.5t20.5 -52.5q0 -32 -21 -52t-56 -20z" />
    <glyph glyph-name="Jcircumflex" unicode="&#x134;" horiz-adv-x="565" vert-adv-y="1485" 
d="M222 -14q-53 0 -95.5 16.5t-67.5 46.5t-25 68q0 24 10.5 44t28.5 31.5t41 11.5q32 0 50 -13.5t18 -37.5q0 -22 -16 -51t-36 -58q17 -13 41.5 -21.5t51.5 -8.5q35 0 57.5 16t33 55t10.5 109v456q0 25 -6.5 35.5t-27.5 11.5l-66 4v22h309v-21l-58 -4q-18 -2 -24.5 -12.5
t-6.5 -38.5v-415q0 -119 -58 -182.5t-164 -63.5zM237 761l-13 15l114 139q10 11 20.5 18t23.5 7q14 0 24 -6.5t24 -23.5l107 -134l-12 -15l-143 81z" />
    <glyph glyph-name="jcircumflex" unicode="&#x135;" horiz-adv-x="307" vert-adv-y="1485" 
d="M43 -229l-12 18q26 21 42 42t24.5 47t11.5 60.5t3 81.5v401q0 36 -6 48.5t-28 14.5l-46 4l2 21l184 9l8 -5v-421q0 -67 -8 -116.5t-28 -86.5t-55.5 -65t-91.5 -53zM2 582l-13 13l112 159q10 14 21.5 20t23.5 6q9 0 16 -2.5t14.5 -9.5t15.5 -20l107 -152l-13 -13l-140 97z
" />
    <glyph glyph-name="uni0136" unicode="&#x136;" horiz-adv-x="755" vert-adv-y="1485" 
d="M639 -14q-31 0 -55.5 6.5t-44 19.5t-36 33t-32.5 46l-158 260l-48 -48v-229q0 -26 6.5 -35.5t25.5 -12.5l56 -4v-22h-297v22l57 4q19 3 25 13t6 39v573q0 25 -6.5 35t-26.5 12l-54 4v21h296v-21l-58 -4q-18 -2 -24 -13t-6 -38v-308l297 302q14 14 14 26.5t-12 21t-37 9.5
l-48 3l4 22h235v-22l-32 -4q-17 -1 -32.5 -9.5t-30.5 -22t-33 -31.5l-194 -199l183 -296q25 -39 43 -62t36.5 -33t42.5 -10q12 0 23 4t22 10l8 -16q-20 -22 -50 -34t-65 -12zM362 -279l-13 16q27 20 40.5 36t18.5 31.5t5 31.5h-12q-36 0 -50 14t-14 36q0 17 7.5 30t22 20
t33.5 7q23 0 38 -10.5t22.5 -26.5t7.5 -37q0 -23 -8 -48t-31 -50.5t-67 -49.5z" />
    <glyph glyph-name="uni0137" unicode="&#x137;" horiz-adv-x="605" vert-adv-y="1485" 
d="M505 -10q-25 0 -44 7.5t-37 24.5t-39 45l-147 206v8l179 163q15 12 15.5 24t-19.5 16l-35 7l4 22h183v-22l-32 -9q-14 -4 -29 -11t-39 -28l-133 -117l162 -221q24 -33 40.5 -46t35.5 -13q10 0 21.5 3t22.5 8l7 -16q-21 -22 -52.5 -36.5t-63.5 -14.5zM40 0v22l43 5
q19 2 24.5 12t5.5 38v599q0 31 -5.5 43.5t-30.5 15.5l-45 4l3 21l184 6l8 -6v-686q0 -21 4.5 -33t23.5 -14l32 -5v-22h-247zM275 -279l-13 16q27 20 40.5 36t18.5 31.5t5 31.5h-12q-36 0 -50 14t-14 36q0 17 7.5 30t22 20t33.5 7q23 0 38 -10.5t22.5 -26.5t7.5 -37
q0 -23 -8 -48t-31 -50.5t-67 -49.5z" />
    <glyph glyph-name="kgreenlandic" unicode="&#x138;" horiz-adv-x="601" vert-adv-y="1485" 
d="M510 -10q-23 0 -43 6.5t-39 23.5t-41 47l-147 206v8l179 163q15 13 15 24.5t-19 15.5l-35 7l4 22h183v-22l-32 -9q-18 -4 -33.5 -13t-34.5 -26l-133 -117l162 -221q22 -30 37.5 -44.5t33.5 -14.5q9 0 20 2t24 7l6 -16q-22 -23 -49 -36t-58 -13zM41 0v22l44 5
q19 2 24.5 12t5.5 38v349q0 33 -6 44.5t-31 14.5l-44 4l2 21l185 9l8 -7v-438q0 -24 5.5 -34.5t21.5 -12.5l33 -5v-22h-248z" />
    <glyph glyph-name="Lacute" unicode="&#x139;" horiz-adv-x="608" vert-adv-y="1485" 
d="M56 0v22l54 4q19 3 25 13t6 39v573q0 25 -6.5 35t-26.5 12l-52 4v21h301v-21l-62 -5q-19 -1 -26 -10t-7 -37v-623h111q36 0 61.5 7.5t44.5 27.5t35 54.5t31 89.5h26l-26 -206h-489zM128 770l-10 15l129 131q14 13 23.5 18.5t19.5 5.5q21 0 33 -16t12 -35t-10 -33t-34 -23
z" />
    <glyph glyph-name="lacute" unicode="&#x13a;" horiz-adv-x="333" vert-adv-y="1485" 
d="M40 0v22l43 5q20 2 25 12t5 38v599q0 33 -6.5 45t-29.5 14l-45 4l2 21l185 6l8 -6v-686q0 -24 5.5 -34t26.5 -13l48 -6v-21h-267zM68 804l-10 15l129 131q14 13 23.5 18.5t19.5 5.5q21 0 33 -16t12 -35t-10 -33t-34 -23z" />
    <glyph glyph-name="uni013B" unicode="&#x13b;" horiz-adv-x="608" vert-adv-y="1485" 
d="M56 0v22l54 4q19 3 25 13t6 39v573q0 25 -6.5 35t-26.5 12l-52 4v21h301v-21l-62 -5q-19 -1 -26 -10t-7 -37v-623h111q36 0 61.5 7.5t44.5 27.5t35 54.5t31 89.5h26l-26 -206h-489zM285 -279l-13 16q27 20 40.5 36t18.5 31.5t5 31.5h-12q-36 0 -50 14t-14 36q0 17 7.5 30
t22 20t33.5 7q23 0 38 -10.5t22.5 -26.5t7.5 -37q0 -23 -8 -48t-31 -50.5t-67 -49.5z" />
    <glyph glyph-name="uni013C" unicode="&#x13c;" horiz-adv-x="333" vert-adv-y="1485" 
d="M40 0v22l43 5q20 2 25 12t5 38v599q0 33 -6.5 45t-29.5 14l-45 4l2 21l185 6l8 -6v-686q0 -24 5.5 -34t26.5 -13l48 -6v-21h-267zM131 -279l-13 16q27 20 40.5 36t18.5 31.5t5 31.5h-12q-36 0 -50 14t-14 36q0 17 7.5 30t22 20t33.5 7q23 0 38 -10.5t22.5 -26.5t7.5 -37
q0 -23 -8 -48t-31 -50.5t-67 -49.5z" />
    <glyph glyph-name="Lcaron" unicode="&#x13d;" horiz-adv-x="608" vert-adv-y="1485" 
d="M56 0v22l54 4q19 3 25 13t6 39v573q0 25 -6.5 35t-26.5 12l-52 4v21h301v-21l-62 -5q-19 -1 -26 -10t-7 -37v-623h111q36 0 61.5 7.5t44.5 27.5t35 54.5t31 89.5h26l-26 -206h-489zM426 535l-16 16q29 33 38 54.5t9 41.5q0 13 -5 22t-18 19q-10 9 -16 18.5t-6 23.5
q0 22 16.5 33.5t35.5 11.5q35 0 50 -23t15 -49q0 -25 -11.5 -54t-34.5 -58t-57 -56z" />
    <glyph glyph-name="lcaron" unicode="&#x13e;" horiz-adv-x="409" vert-adv-y="1485" 
d="M40 0v22l43 5q20 2 25 12t5 38v599q0 33 -6.5 45t-29.5 14l-45 4l2 21l185 6l8 -6v-686q0 -24 5.5 -34t26.5 -13l48 -6v-21h-267zM299 530l-16 16q29 33 38 54.5t9 41.5q0 13 -5 22t-18 19q-10 9 -16 18.5t-6 23.5q0 22 16.5 33.5t35.5 11.5q35 0 50 -23t15 -49
q0 -25 -11.5 -54t-34.5 -58t-57 -56z" />
    <glyph glyph-name="Ldot" unicode="&#x13f;" horiz-adv-x="608" vert-adv-y="1485" 
d="M56 0v22l54 4q19 3 25 13t6 39v573q0 25 -6.5 35t-26.5 12l-52 4v21h301v-21l-62 -5q-19 -1 -26 -10t-7 -37v-623h111q36 0 61.5 7.5t44.5 27.5t35 54.5t31 89.5h26l-26 -206h-489zM495 325q-34 0 -54.5 19.5t-20.5 51.5q0 31 20.5 51t54.5 20q35 0 55.5 -19.5
t20.5 -51.5q0 -31 -20.5 -51t-55.5 -20z" />
    <glyph glyph-name="ldot" unicode="&#x140;" horiz-adv-x="376" vert-adv-y="1485" 
d="M40 3v22l43 5q20 2 25 12t5 38v599q0 33 -6.5 45t-29.5 14l-45 4l2 21l185 6l8 -6v-686q0 -24 5.5 -34t26.5 -13l48 -6v-21h-267zM364 327q-34 0 -54.5 19.5t-20.5 51.5q0 31 20.5 51t54.5 20q35 0 55.5 -19.5t20.5 -51.5q0 -31 -20.5 -51t-55.5 -20z" />
    <glyph glyph-name="Lslash" unicode="&#x141;" horiz-adv-x="608" vert-adv-y="1485" 
d="M545 206h26l-26 -206h-489v22l54 4q19 3 25 13t6 39v235l-111 -60v41l111 58v299q0 25 -6.5 35t-26.5 12l-52 4v21h301v-21l-62 -5q-19 -1 -26 -10t-7 -37v-249l190 103v-40l-190 -102v-335h111q36 0 61.5 7.5t44.5 27.5t35 54.5t31 89.5z" />
    <glyph glyph-name="lslash" unicode="&#x142;" horiz-adv-x="337" vert-adv-y="1485" 
d="M40 0v22l44 5q19 2 24.5 12t5.5 38v297l-100 -54v41l100 53v262q0 33 -6.5 45t-29.5 14l-45 4l2 21l185 6l8 -6v-302l102 55v-40l-102 -55v-344q0 -24 5.5 -34t26.5 -13l47 -6v-21h-267z" />
    <glyph glyph-name="Nacute" unicode="&#x143;" horiz-adv-x="778" vert-adv-y="1485" 
d="M56 0v22l53 4q20 1 25.5 12.5t5.5 38.5v574q0 25 -6 35t-27 12l-51 4v21h200l349 -591l1 2v516q0 26 -6 36t-27 12l-52 4v21h205v-21l-53 -4q-19 -2 -25 -12.5t-6 -39.5v-646h-90l-375 624l-1 -2v-549q0 -25 6.5 -35t26.5 -12l52 -4v-22h-205zM318 770l-10 15l129 131
q14 13 23.5 18.5t19.5 5.5q21 0 33 -16t12 -35t-10 -33t-34 -23z" />
    <glyph glyph-name="nacute" unicode="&#x144;" horiz-adv-x="651" vert-adv-y="1485" 
d="M42 0v21l46 7q16 2 20.5 11.5t4.5 35.5v348q0 34 -6 46.5t-28 14.5l-46 5l2 20l179 10l7 -6l1 -97h1q23 55 69.5 83t101.5 28q52 0 87.5 -20t53.5 -58.5t18 -95.5v-285q0 -22 6 -30.5t25 -10.5l43 -6v-21h-257v21l40 5q19 2 24 11t5 31v283q0 47 -8 74.5t-27.5 39.5
t-53.5 12q-35 0 -63 -17t-44 -47t-16 -71v-271q0 -22 5 -31.5t20 -11.5l47 -7v-21h-257zM279 582l-13 13l94 156q10 18 20.5 24.5t21.5 6.5q16 0 26.5 -7.5t16 -19t5.5 -24.5q0 -16 -10.5 -29t-26.5 -25z" />
    <glyph glyph-name="uni0145" unicode="&#x145;" horiz-adv-x="778" vert-adv-y="1485" 
d="M56 0v22l53 4q20 1 25.5 12.5t5.5 38.5v574q0 25 -6 35t-27 12l-51 4v21h200l349 -591l1 2v516q0 26 -6 36t-27 12l-52 4v21h205v-21l-53 -4q-19 -2 -25 -12.5t-6 -39.5v-646h-90l-375 624l-1 -2v-549q0 -25 6.5 -35t26.5 -12l52 -4v-22h-205zM346 -279l-13 16
q27 20 40.5 36t18.5 31.5t5 31.5h-12q-36 0 -50 14t-14 36q0 17 7.5 30t22 20t33.5 7q23 0 38 -10.5t22.5 -26.5t7.5 -37q0 -23 -8 -48t-31 -50.5t-67 -49.5z" />
    <glyph glyph-name="uni0146" unicode="&#x146;" horiz-adv-x="651" vert-adv-y="1485" 
d="M42 0v21l46 7q16 2 20.5 11.5t4.5 35.5v348q0 34 -6 46.5t-28 14.5l-46 5l2 20l179 10l7 -6l1 -97h1q23 55 69.5 83t101.5 28q52 0 87.5 -20t53.5 -58.5t18 -95.5v-285q0 -22 6 -30.5t25 -10.5l43 -6v-21h-257v21l40 5q19 2 24 11t5 31v283q0 47 -8 74.5t-27.5 39.5
t-53.5 12q-35 0 -63 -17t-44 -47t-16 -71v-271q0 -22 5 -31.5t20 -11.5l47 -7v-21h-257zM293 -279l-13 16q27 20 40.5 36t18.5 31.5t5 31.5h-12q-36 0 -50 14t-14 36q0 17 7.5 30t22 20t33.5 7q23 0 38 -10.5t22.5 -26.5t7.5 -37q0 -23 -8 -48t-31 -50.5t-67 -49.5z" />
    <glyph glyph-name="Ncaron" unicode="&#x147;" horiz-adv-x="778" vert-adv-y="1485" 
d="M56 0v22l53 4q20 1 25.5 12.5t5.5 38.5v574q0 25 -6 35t-27 12l-51 4v21h200l349 -591l1 2v516q0 26 -6 36t-27 12l-52 4v21h205v-21l-53 -4q-19 -2 -25 -12.5t-6 -39.5v-646h-90l-375 624l-1 -2v-549q0 -25 6.5 -35t26.5 -12l52 -4v-22h-205zM391 773q-14 0 -24 6.5
t-24 23.5l-108 134l13 15l143 -82l146 82l12 -15l-115 -139q-9 -12 -19 -18.5t-24 -6.5z" />
    <glyph glyph-name="ncaron" unicode="&#x148;" horiz-adv-x="651" vert-adv-y="1485" 
d="M42 0v21l46 7q16 2 20.5 11.5t4.5 35.5v348q0 34 -6 46.5t-28 14.5l-46 5l2 20l179 10l7 -6l1 -97h1q23 55 69.5 83t101.5 28q52 0 87.5 -20t53.5 -58.5t18 -95.5v-285q0 -22 6 -30.5t25 -10.5l43 -6v-21h-257v21l40 5q19 2 24 11t5 31v283q0 47 -8 74.5t-27.5 39.5
t-53.5 12q-35 0 -63 -17t-44 -47t-16 -71v-271q0 -22 5 -31.5t20 -11.5l47 -7v-21h-257zM333 583q-8 0 -15.5 2.5t-14.5 10t-16 19.5l-107 153l13 13l140 -98l144 98l13 -12l-112 -159q-10 -15 -21 -21t-24 -6z" />
    <glyph glyph-name="napostrophe" unicode="&#x149;" horiz-adv-x="797" vert-adv-y="1485" 
d="M188 0v21l46 7q16 2 20.5 11.5t4.5 35.5v348q0 34 -6 46.5t-28 14.5l-46 5l2 20l179 10l7 -6l1 -97h1q23 55 69.5 83t101.5 28q52 0 87.5 -20t53.5 -58.5t18 -95.5v-285q0 -22 6 -30.5t25 -10.5l43 -6v-21h-257v21l40 5q19 2 24 11t5 31v283q0 47 -8 74.5t-27.5 39.5
t-53.5 12q-35 0 -63 -17t-44 -47t-16 -71v-271q0 -22 5 -31.5t20 -11.5l47 -7v-21h-257zM52 491l-17 21q41 31 59 63t18 64h-25q-21 0 -35 7t-21.5 20t-7.5 30q0 29 20.5 49.5t51.5 20.5q40 0 59.5 -25.5t19.5 -64.5q0 -31 -14.5 -64t-42 -64t-65.5 -57z" />
    <glyph glyph-name="Eng" unicode="&#x14a;" horiz-adv-x="781" vert-adv-y="1485" 
d="M56 0v22l53 4q20 1 25.5 12.5t5.5 38.5v574q0 25 -6 35t-27 12l-51 4v21h200l351 -589h1v516q0 26 -6 36t-27 12l-52 4v21h206v-21l-53 -4q-19 -2 -25 -12.5t-6 -39.5v-554q0 -66 -8.5 -116t-29 -87t-56.5 -65t-91 -53l-12 18q25 20 41 40.5t24.5 46t12.5 59t4 79.5v30
l-352 582h-1v-553q0 -25 6.5 -35t26.5 -12l52 -4v-22h-206z" />
    <glyph glyph-name="eng" unicode="&#x14b;" horiz-adv-x="634" vert-adv-y="1485" 
d="M394 527q52 0 87.5 -20t53.5 -58.5t18 -95.5v-261q0 -67 -8 -116.5t-28 -86.5t-56 -65t-91 -53l-12 18q26 21 42 42t24.5 47t11.5 60.5t3 81.5v331q0 47 -8 74.5t-27.5 39.5t-53.5 12q-35 0 -63 -17t-44 -47t-16 -71v-271q0 -22 5 -31.5t20 -11.5l47 -7v-21h-257v21l46 7
q16 2 20.5 11.5t4.5 35.5v348q0 34 -6 46.5t-28 14.5l-46 5l2 20l179 10l7 -6l1 -97h1q23 55 69.5 83t101.5 28z" />
    <glyph glyph-name="Omacron" unicode="&#x14c;" horiz-adv-x="759" vert-adv-y="1485" 
d="M378 -14q-101 0 -175 44.5t-114 126t-40 191.5q0 123 41 210t117 133t181 46q98 0 170 -43t112 -123t40 -191q0 -89 -23 -162t-66 -124.5t-105 -79.5t-138 -28zM392 16q48 0 83.5 19t58.5 59.5t34 105.5t11 158q0 91 -13.5 157.5t-39.5 109.5t-64.5 63.5t-88.5 20.5
q-48 0 -84.5 -19t-61.5 -59.5t-37.5 -104.5t-12.5 -155q0 -90 14.5 -157t42.5 -111t67.5 -65.5t90.5 -21.5zM239 813v77h284v-77h-284z" />
    <glyph glyph-name="omacron" unicode="&#x14d;" horiz-adv-x="595" vert-adv-y="1485" 
d="M293 -14q-76 0 -131.5 31t-86.5 89.5t-31 138.5q0 89 32.5 152t92 96.5t139.5 33.5q73 0 127.5 -30.5t85 -88t30.5 -138.5q0 -87 -31.5 -151t-90 -98.5t-136.5 -34.5zM309 16q39 0 65.5 23t40 73.5t13.5 133.5q0 67 -9.5 115t-27.5 78t-43 44.5t-57 14.5q-40 0 -68 -22
t-42 -71t-14 -130q0 -91 17.5 -148.5t49.5 -84t75 -26.5zM153 639v77h280v-77h-280z" />
    <glyph glyph-name="Obreve" unicode="&#x14e;" horiz-adv-x="759" vert-adv-y="1485" 
d="M378 -14q-101 0 -175 44.5t-114 126t-40 191.5q0 123 41 210t117 133t181 46q98 0 170 -43t112 -123t40 -191q0 -89 -23 -162t-66 -124.5t-105 -79.5t-138 -28zM392 16q48 0 83.5 19t58.5 59.5t34 105.5t11 158q0 91 -13.5 157.5t-39.5 109.5t-64.5 63.5t-88.5 20.5
q-48 0 -84.5 -19t-61.5 -59.5t-37.5 -104.5t-12.5 -155q0 -90 14.5 -157t42.5 -111t67.5 -65.5t90.5 -21.5zM379 776q-48 0 -80 21t-48.5 58.5t-22.5 87.5l21 5q18 -46 50 -67t85 -21t85.5 23.5t46.5 64.5l20 -4q-3 -48 -22 -85.5t-52.5 -60t-82.5 -22.5z" />
    <glyph glyph-name="obreve" unicode="&#x14f;" horiz-adv-x="595" vert-adv-y="1485" 
d="M293 -14q-76 0 -131.5 31t-86.5 89.5t-31 138.5q0 89 32.5 152t92 96.5t139.5 33.5q73 0 127.5 -30.5t85 -88t30.5 -138.5q0 -87 -31.5 -151t-90 -98.5t-136.5 -34.5zM309 16q39 0 65.5 23t40 73.5t13.5 133.5q0 67 -9.5 115t-27.5 78t-43 44.5t-57 14.5q-40 0 -68 -22
t-42 -71t-14 -130q0 -91 17.5 -148.5t49.5 -84t75 -26.5zM291 587q-49 0 -79 24.5t-45 65.5t-21 91l21 6q18 -51 48 -75.5t80 -24.5q53 0 82.5 26.5t44.5 72.5l20 -5q-4 -48 -21 -89.5t-48.5 -66.5t-81.5 -25z" />
    <glyph glyph-name="Ohungarumlaut" unicode="&#x150;" horiz-adv-x="759" vert-adv-y="1485" 
d="M378 -14q-101 0 -175 44.5t-114 126t-40 191.5q0 123 41 210t117 133t181 46q98 0 170 -43t112 -123t40 -191q0 -89 -23 -162t-66 -124.5t-105 -79.5t-138 -28zM392 16q48 0 83.5 19t58.5 59.5t34 105.5t11 158q0 91 -13.5 157.5t-39.5 109.5t-64.5 63.5t-88.5 20.5
q-48 0 -84.5 -19t-61.5 -59.5t-37.5 -104.5t-12.5 -155q0 -90 14.5 -157t42.5 -111t67.5 -65.5t90.5 -21.5zM274 769l-12 15l113 134q13 15 23 20.5t20 5.5q21 0 32.5 -15t11.5 -33t-10 -32t-32 -24zM450 769l-10 16l126 129q13 14 23 19.5t20 5.5q20 0 32 -15t12 -35
q0 -18 -10.5 -32.5t-32.5 -23.5z" />
    <glyph glyph-name="ohungarumlaut" unicode="&#x151;" horiz-adv-x="595" vert-adv-y="1485" 
d="M293 -14q-76 0 -131.5 31t-86.5 89.5t-31 138.5q0 89 32.5 152t92 96.5t139.5 33.5q73 0 127.5 -30.5t85 -88t30.5 -138.5q0 -87 -31.5 -151t-90 -98.5t-136.5 -34.5zM309 16q39 0 65.5 23t40 73.5t13.5 133.5q0 67 -9.5 115t-27.5 78t-43 44.5t-57 14.5q-40 0 -68 -22
t-42 -71t-14 -130q0 -91 17.5 -148.5t49.5 -84t75 -26.5zM351 583l-12 12l94 155q10 16 20.5 23.5t21.5 7.5q16 0 26 -7.5t15 -18.5t5 -22q0 -16 -10 -30.5t-26 -25.5zM197 583l-13 12l83 157q10 18 20.5 24.5t21.5 6.5q15 0 25.5 -6.5t16 -17.5t5.5 -25t-8.5 -27t-28.5 -29
z" />
    <glyph glyph-name="OE" unicode="&#x152;" horiz-adv-x="1046" vert-adv-y="1485" 
d="M376 -14q-99 0 -173 44.5t-114 126t-40 191.5q0 122 41 209.5t116 133.5t178 46q62 0 113 -21t90 -65v72h366l30 -168l-26 -6q-16 45 -31 73.5t-33.5 45t-44.5 23t-64 6.5h-88v-313h81q32 0 48 6.5t25.5 26t19.5 58.5l24 3v-212l-24 -4q-8 39 -17.5 59t-26.5 27.5
t-49 7.5h-81v-329h116q36 0 60 6.5t41.5 23.5t31 47t28.5 77h26l-18 -181h-395v80q-40 -49 -93 -71.5t-117 -22.5zM390 16q48 0 84 19t60.5 59.5t36.5 105.5t12 158q0 91 -13.5 157.5t-40 109.5t-65.5 63.5t-91 20.5q-48 0 -84.5 -19t-61.5 -59.5t-37.5 -104.5t-12.5 -155
q0 -90 14.5 -157t42 -111t67 -65.5t89.5 -21.5z" />
    <glyph glyph-name="oe" unicode="&#x153;" horiz-adv-x="905" vert-adv-y="1485" 
d="M292 -14q-76 0 -131.5 31.5t-86 89.5t-30.5 138q0 92 33.5 154.5t93 95t136.5 32.5q40 0 74 -9.5t62 -29t49 -47.5q33 44 80 65t103 21q57 0 99.5 -22t66.5 -63t24 -97q0 -17 -1 -33t-4 -32h-313q-2 -74 17 -121t53.5 -70t80.5 -23q44 0 81 14t75 49l15 -15
q-36 -63 -87.5 -95.5t-120.5 -32.5q-38 0 -71 9.5t-60 29.5t-47 49q-33 -43 -82.5 -65.5t-108.5 -22.5zM309 16q39 0 65.5 23t40 73.5t13.5 133.5q0 67 -9.5 115t-27.5 78.5t-43.5 44.5t-57.5 14q-39 0 -66.5 -21.5t-42 -70.5t-14.5 -131q0 -68 10 -117.5t28.5 -81t45 -46
t58.5 -14.5zM548 306h203q1 11 1.5 23.5t0.5 26.5q0 80 -21.5 113t-65.5 33q-35 0 -60 -20t-39 -63.5t-19 -112.5z" />
    <glyph glyph-name="Racute" unicode="&#x154;" horiz-adv-x="710" vert-adv-y="1485" 
d="M604 -14q-38 0 -66 12t-49.5 41t-41.5 80l-45 118q-16 42 -28.5 66.5t-28.5 35t-43 10.5h-22t-18 -2v-271q0 -26 7 -37.5t30 -12.5l64 -4v-22h-307v22l54 4q19 3 25 13t6 39v573q0 25 -6.5 35t-26.5 12l-52 4v21h265q66 0 117.5 -10t86.5 -31.5t53.5 -55t18.5 -80.5
q0 -30 -10 -56.5t-28 -48.5t-44 -38.5t-59 -28t-70 -16.5v-3q55 -10 89.5 -38.5t51.5 -70.5l38 -94q14 -33 26.5 -59t28.5 -41.5t41 -15.5q14 0 26.5 3t23.5 9l7 -15q-22 -23 -51 -35t-63 -12zM312 375q51 0 85.5 19t52.5 55.5t18 86.5q0 56 -16.5 91t-50.5 52.5t-88 17.5
h-51v-321q17 -1 29 -1h21zM257 770l-10 15l129 131q14 13 23.5 18.5t19.5 5.5q21 0 33 -16t12 -35t-10 -33t-34 -23z" />
    <glyph glyph-name="racute" unicode="&#x155;" horiz-adv-x="489" vert-adv-y="1485" 
d="M42 0v22l46 6q16 2 20.5 11.5t4.5 35.5v348q0 34 -6 46.5t-28 14.5l-46 4l2 21l178 10l7 -6l2 -99h2q22 55 61.5 84t84.5 29q49 0 77.5 -26t28.5 -67q0 -23 -7.5 -40.5t-23 -27.5t-40.5 -10q-32 0 -47.5 14t-15.5 33q0 10 4 21t12 24.5t21 32.5q-25 8 -52 1t-49 -27
t-36.5 -50.5t-14.5 -68.5v-262q0 -24 4.5 -33t21.5 -11l80 -9v-21h-291zM211 582l-13 13l94 156q10 18 20.5 24.5t21.5 6.5q16 0 26.5 -7.5t16 -19t5.5 -24.5q0 -16 -10.5 -29t-26.5 -25z" />
    <glyph glyph-name="uni0156" unicode="&#x156;" horiz-adv-x="707" vert-adv-y="1485" 
d="M604 -14q-38 0 -66 12t-49.5 41t-41.5 80l-45 118q-16 42 -28.5 66.5t-28.5 35t-43 10.5h-22t-18 -2v-271q0 -26 7 -37.5t30 -12.5l64 -4v-22h-307v22l54 4q19 3 25 13t6 39v573q0 25 -6.5 35t-26.5 12l-52 4v21h265q66 0 117.5 -10t86.5 -31.5t53.5 -55t18.5 -80.5
q0 -30 -10 -56.5t-28 -48.5t-44 -38.5t-59 -28t-70 -16.5v-3q55 -10 89.5 -38.5t51.5 -70.5l38 -94q14 -33 26.5 -59t28.5 -41.5t41 -15.5q14 0 26.5 3t23.5 9l7 -15q-22 -23 -51 -35t-63 -12zM312 375q51 0 85.5 19t52.5 55.5t18 86.5q0 56 -16.5 91t-50.5 52.5t-88 17.5
h-51v-321q17 -1 29 -1h21zM331 -279l-13 16q27 20 40.5 36t18.5 31.5t5 31.5h-12q-36 0 -50 14t-14 36q0 17 7.5 30t22 20t33.5 7q23 0 38 -10.5t22.5 -26.5t7.5 -37q0 -23 -8 -48t-31 -50.5t-67 -49.5z" />
    <glyph glyph-name="uni0157" unicode="&#x157;" horiz-adv-x="489" vert-adv-y="1485" 
d="M42 0v22l46 6q16 2 20.5 11.5t4.5 35.5v348q0 34 -6 46.5t-28 14.5l-46 4l2 21l178 10l7 -6l2 -99h2q22 55 61.5 84t84.5 29q49 0 77.5 -26t28.5 -67q0 -23 -7.5 -40.5t-23 -27.5t-40.5 -10q-32 0 -47.5 14t-15.5 33q0 10 4 21t12 24.5t21 32.5q-25 8 -52 1t-49 -27
t-36.5 -50.5t-14.5 -68.5v-262q0 -24 4.5 -33t21.5 -11l80 -9v-21h-291zM135 -279l-13 16q27 20 40.5 36t18.5 31.5t5 31.5h-12q-36 0 -50 14t-14 36q0 17 7.5 30t22 20t33.5 7q23 0 38 -10.5t22.5 -26.5t7.5 -37q0 -23 -8 -48t-31 -50.5t-67 -49.5z" />
    <glyph glyph-name="Rcaron" unicode="&#x158;" horiz-adv-x="707" vert-adv-y="1485" 
d="M604 -14q-38 0 -66 12t-49.5 41t-41.5 80l-45 118q-16 42 -28.5 66.5t-28.5 35t-43 10.5h-22t-18 -2v-271q0 -26 7 -37.5t30 -12.5l64 -4v-22h-307v22l54 4q19 3 25 13t6 39v573q0 25 -6.5 35t-26.5 12l-52 4v21h265q66 0 117.5 -10t86.5 -31.5t53.5 -55t18.5 -80.5
q0 -30 -10 -56.5t-28 -48.5t-44 -38.5t-59 -28t-70 -16.5v-3q55 -10 89.5 -38.5t51.5 -70.5l38 -94q14 -33 26.5 -59t28.5 -41.5t41 -15.5q14 0 26.5 3t23.5 9l7 -15q-22 -23 -51 -35t-63 -12zM312 375q51 0 85.5 19t52.5 55.5t18 86.5q0 56 -16.5 91t-50.5 52.5t-88 17.5
h-51v-321q17 -1 29 -1h21zM326 773q-14 0 -24 6.5t-24 23.5l-108 134l13 15l143 -82l146 82l12 -15l-115 -139q-9 -12 -19 -18.5t-24 -6.5z" />
    <glyph glyph-name="rcaron" unicode="&#x159;" horiz-adv-x="489" vert-adv-y="1485" 
d="M42 0v22l46 6q16 2 20.5 11.5t4.5 35.5v348q0 34 -6 46.5t-28 14.5l-46 4l2 21l178 10l7 -6l2 -99h2q22 55 61.5 84t84.5 29q49 0 77.5 -26t28.5 -67q0 -23 -7.5 -40.5t-23 -27.5t-40.5 -10q-32 0 -47.5 14t-15.5 33q0 10 4 21t12 24.5t21 32.5q-25 8 -52 1t-49 -27
t-36.5 -50.5t-14.5 -68.5v-262q0 -24 4.5 -33t21.5 -11l80 -9v-21h-291zM265 583q-8 0 -15.5 2.5t-14.5 10t-16 19.5l-107 153l13 13l140 -98l144 98l13 -12l-112 -159q-10 -15 -21 -21t-24 -6z" />
    <glyph glyph-name="Sacute" unicode="&#x15a;" horiz-adv-x="596" vert-adv-y="1485" 
d="M301 -14q-55 0 -104 18.5t-88 48.5l-15 -61h-23l-19 228l25 4q13 -51 35 -90t51 -65.5t63 -40t69 -13.5q46 0 77.5 16.5t48.5 46.5t17 68q0 47 -18 78.5t-54.5 54.5t-93.5 40q-52 17 -90.5 37.5t-64 46.5t-38.5 59t-13 74q0 36 11.5 67t32 55.5t49 42.5t63.5 27t74 9
q49 0 90.5 -17t70.5 -41l13 58h22l25 -221l-25 -4q-17 67 -44.5 111t-64 66t-82.5 22q-62 0 -96 -35.5t-34 -89.5q0 -42 17.5 -69.5t52.5 -47.5t89 -39q53 -18 93 -39t67 -47t40.5 -58.5t13.5 -74.5q0 -49 -19.5 -90t-53 -71.5t-77.5 -47t-93 -16.5zM221 769l-10 15l129 131
q14 13 23.5 18.5t19.5 5.5q21 0 33 -16t12 -35t-10 -33t-34 -23z" />
    <glyph glyph-name="sacute" unicode="&#x15b;" horiz-adv-x="459" vert-adv-y="1485" 
d="M62 -15l-14 183l25 2q16 -57 39 -90.5t53.5 -48.5t67.5 -15q50 0 78.5 26.5t28.5 72.5q0 31 -15.5 48.5t-43.5 28.5t-67 22q-31 9 -60 20.5t-51 28.5t-35 43.5t-13 65.5q0 45 21 80t60.5 55t94.5 20q42 0 72.5 -11.5t51.5 -27.5l13 39h19l12 -162l-26 2
q-19 64 -52.5 98.5t-87.5 34.5q-45 0 -71 -21.5t-26 -61.5q0 -31 16 -49t44 -28.5t63 -21.5q34 -10 63.5 -22.5t52.5 -30t35.5 -44.5t12.5 -66q0 -52 -24 -90t-66.5 -58.5t-99.5 -20.5q-39 0 -74 10.5t-64 32.5l-12 -44h-21zM175 582l-13 13l94 156q10 18 20.5 24.5
t21.5 6.5q16 0 26.5 -7.5t16 -19t5.5 -24.5q0 -16 -10.5 -29t-26.5 -25z" />
    <glyph glyph-name="Scircumflex" unicode="&#x15c;" horiz-adv-x="596" vert-adv-y="1485" 
d="M301 -14q-55 0 -104 18.5t-88 48.5l-15 -61h-23l-19 228l25 4q13 -51 35 -90t51 -65.5t63 -40t69 -13.5q46 0 77.5 16.5t48.5 46.5t17 68q0 47 -18 78.5t-54.5 54.5t-93.5 40q-52 17 -90.5 37.5t-64 46.5t-38.5 59t-13 74q0 36 11.5 67t32 55.5t49 42.5t63.5 27t74 9
q49 0 90.5 -17t70.5 -41l13 58h22l25 -221l-25 -4q-17 67 -44.5 111t-64 66t-82.5 22q-62 0 -96 -35.5t-34 -89.5q0 -42 17.5 -69.5t52.5 -47.5t89 -39q53 -18 93 -39t67 -47t40.5 -58.5t13.5 -74.5q0 -49 -19.5 -90t-53 -71.5t-77.5 -47t-93 -16.5zM150 760l-13 15l114 139
q10 11 20.5 18t23.5 7q14 0 24 -6.5t24 -23.5l107 -134l-12 -15l-143 81z" />
    <glyph glyph-name="scircumflex" unicode="&#x15d;" horiz-adv-x="459" vert-adv-y="1485" 
d="M62 -15l-14 183l25 2q16 -57 39 -90.5t53.5 -48.5t67.5 -15q50 0 78.5 26.5t28.5 72.5q0 31 -15.5 48.5t-43.5 28.5t-67 22q-31 9 -60 20.5t-51 28.5t-35 43.5t-13 65.5q0 45 21 80t60.5 55t94.5 20q42 0 72.5 -11.5t51.5 -27.5l13 39h19l12 -162l-26 2
q-19 64 -52.5 98.5t-87.5 34.5q-45 0 -71 -21.5t-26 -61.5q0 -31 16 -49t44 -28.5t63 -21.5q34 -10 63.5 -22.5t52.5 -30t35.5 -44.5t12.5 -66q0 -52 -24 -90t-66.5 -58.5t-99.5 -20.5q-39 0 -74 10.5t-64 32.5l-12 -44h-21zM88 582l-13 13l112 159q10 14 21.5 20t23.5 6
q9 0 16 -2.5t14.5 -9.5t15.5 -20l107 -152l-13 -13l-140 97z" />
    <glyph glyph-name="Scedilla" unicode="&#x15e;" horiz-adv-x="596" vert-adv-y="1485" 
d="M296 -228q-39 0 -66 13.5t-44 32.5l12 18q16 -11 32 -18.5t37 -7.5q26 0 44 15.5t18 42.5q0 21 -12.5 32.5t-35.5 11.5q-9 0 -16 -1t-14 -4l-5 14l27 67q-48 4 -89 22t-75 43l-15 -61h-23l-19 228l25 4q13 -51 35 -90t51 -65.5t63 -40t69 -13.5q46 0 77.5 16.5t48.5 46.5
t17 68q0 47 -18 78.5t-54.5 54.5t-93.5 40q-52 17 -90.5 37.5t-64 46.5t-38.5 59t-13 74q0 36 11.5 67t32 55.5t49 42.5t63.5 27t74 9q49 0 90.5 -17t70.5 -41l13 58h22l25 -221l-25 -4q-17 67 -44.5 111t-64 66t-82.5 22q-62 0 -96 -35.5t-34 -89.5q0 -42 17.5 -69.5
t52.5 -47.5t89 -39q53 -18 93 -39t67 -47t40.5 -58.5t13.5 -74.5q0 -48 -19 -89.5t-53 -72.5t-78.5 -47.5t-94.5 -15.5l-19 -48q40 8 69 0t44 -27.5t15 -48.5q0 -25 -12.5 -45.5t-37.5 -32.5t-62 -12z" />
    <glyph glyph-name="scedilla" unicode="&#x15f;" horiz-adv-x="456" vert-adv-y="1485" 
d="M244 -228q-40 0 -67 13.5t-44 32.5l12 18q16 -11 32.5 -18.5t36.5 -7.5q27 0 44.5 15.5t17.5 42.5q0 21 -12.5 32.5t-34.5 11.5q-10 0 -16.5 -1t-14.5 -4l-5 14l26 66q-38 2 -68.5 12t-55.5 30l-12 -44h-21l-14 183l25 2q16 -57 39 -90.5t53.5 -48.5t67.5 -15
q50 0 78.5 26.5t28.5 72.5q0 31 -15.5 48.5t-43.5 28.5t-67 22q-31 9 -60 20.5t-51 28.5t-35 43.5t-13 65.5q0 45 21 80t60.5 55t94.5 20q42 0 72.5 -11.5t51.5 -27.5l13 39h19l12 -162l-26 2q-19 64 -52.5 98.5t-87.5 34.5q-45 0 -71 -21.5t-26 -61.5q0 -31 16 -49
t44 -28.5t63 -21.5q34 -10 63.5 -22.5t52.5 -30t35.5 -44.5t12.5 -66q0 -37 -12.5 -67.5t-36.5 -52.5t-56 -34.5t-71 -13.5l-20 -49q41 8 69.5 0t43.5 -27.5t15 -48.5q0 -25 -12.5 -45.5t-37.5 -32.5t-61 -12z" />
    <glyph glyph-name="Scaron" unicode="&#x160;" horiz-adv-x="596" vert-adv-y="1485" 
d="M301 -14q-55 0 -104 18.5t-88 48.5l-15 -61h-23l-19 228l25 4q13 -51 35 -90t51 -65.5t63 -40t69 -13.5q46 0 77.5 16.5t48.5 46.5t17 68q0 47 -18 78.5t-54.5 54.5t-93.5 40q-52 17 -90.5 37.5t-64 46.5t-38.5 59t-13 74q0 36 11.5 67t32 55.5t49 42.5t63.5 27t74 9
q49 0 90.5 -17t70.5 -41l13 58h22l25 -221l-25 -4q-17 67 -44.5 111t-64 66t-82.5 22q-62 0 -96 -35.5t-34 -89.5q0 -42 17.5 -69.5t52.5 -47.5t89 -39q53 -18 93 -39t67 -47t40.5 -58.5t13.5 -74.5q0 -49 -19.5 -90t-53 -71.5t-77.5 -47t-93 -16.5zM294 772q-14 0 -24 6.5
t-24 23.5l-108 134l13 15l143 -82l146 82l12 -15l-115 -139q-9 -12 -19 -18.5t-24 -6.5z" />
    <glyph glyph-name="scaron" unicode="&#x161;" horiz-adv-x="459" vert-adv-y="1485" 
d="M62 -15l-14 183l25 2q16 -57 39 -90.5t53.5 -48.5t67.5 -15q50 0 78.5 26.5t28.5 72.5q0 31 -15.5 48.5t-43.5 28.5t-67 22q-31 9 -60 20.5t-51 28.5t-35 43.5t-13 65.5q0 45 21 80t60.5 55t94.5 20q42 0 72.5 -11.5t51.5 -27.5l13 39h19l12 -162l-26 2
q-19 64 -52.5 98.5t-87.5 34.5q-45 0 -71 -21.5t-26 -61.5q0 -31 16 -49t44 -28.5t63 -21.5q34 -10 63.5 -22.5t52.5 -30t35.5 -44.5t12.5 -66q0 -52 -24 -90t-66.5 -58.5t-99.5 -20.5q-39 0 -74 10.5t-64 32.5l-12 -44h-21zM228 583q-8 0 -15.5 2.5t-14.5 10t-16 19.5
l-107 153l13 13l140 -98l144 98l13 -12l-112 -159q-10 -15 -21 -21t-24 -6z" />
    <glyph glyph-name="uni0162" unicode="&#x162;" horiz-adv-x="687" vert-adv-y="1485" 
d="M341 -228q-39 0 -66 13.5t-45 32.5l13 18q15 -11 31.5 -18.5t36.5 -7.5q27 0 44.5 15.5t17.5 42.5q0 21 -12 32.5t-35 11.5q-10 0 -16.5 -1t-13.5 -4l-6 14l32 79h-141v22l69 5q19 1 26.5 13t7.5 38v619h-58q-34 0 -59 -9.5t-45 -30.5t-36 -55.5t-33 -86.5l-26 6l30 202
h575l27 -202l-26 -6q-16 52 -32.5 86.5t-35.5 55.5t-44 30.5t-59 9.5h-58v-623q0 -25 7.5 -35t28.5 -12l67 -5v-22h-158l-25 -62q41 8 70 0t44 -27.5t15 -48.5q0 -25 -13 -45.5t-38 -32.5t-61 -12z" />
    <glyph glyph-name="uni0163" unicode="&#x163;" horiz-adv-x="392" vert-adv-y="1485" 
d="M235 -228q-39 0 -66 13.5t-45 32.5l13 18q15 -11 31.5 -18.5t36.5 -7.5q27 0 44.5 15.5t17.5 42.5q0 21 -12 32.5t-35 11.5q-10 0 -16.5 -1t-13.5 -4l-6 14l27 66q-52 5 -80 39.5t-28 108.5v350h-71v22q39 3 62.5 19t36.5 50.5t19 90.5l58 8l9 -6v-156h145v-28h-145v-339
q0 -45 14.5 -67.5t50.5 -22.5q25 0 49.5 9.5t44.5 29.5l13 -15q-30 -43 -66 -67.5t-86 -26.5l-19 -48q41 8 70 0t44 -27.5t15 -48.5q0 -25 -13 -45.5t-38 -32.5t-61 -12z" />
    <glyph glyph-name="Tcaron" unicode="&#x164;" horiz-adv-x="687" vert-adv-y="1485" 
d="M181 0v22l69 5q19 1 26.5 13t7.5 38v619h-58q-34 0 -59 -9.5t-45 -30.5t-36 -55.5t-33 -86.5l-26 6l30 202h575l27 -202l-26 -6q-16 52 -32.5 86.5t-35.5 55.5t-44 30.5t-59 9.5h-58v-623q0 -25 7.5 -35t28.5 -12l67 -5v-22h-326zM342 773q-14 0 -24 6.5t-24 23.5
l-108 134l13 15l143 -82l146 82l12 -15l-115 -139q-9 -12 -19 -18.5t-24 -6.5z" />
    <glyph glyph-name="tcaron" unicode="&#x165;" horiz-adv-x="404" vert-adv-y="1485" 
d="M233 -14q-41 0 -70.5 15t-44.5 47.5t-15 86.5v350h-71v22q39 3 62.5 19t36.5 50.5t19 90.5l58 8l9 -6v-156h145v-28h-145v-339q0 -45 14.5 -67.5t50.5 -22.5q25 0 49.5 9.5t44.5 29.5l13 -15q-31 -45 -67.5 -69.5t-88.5 -24.5zM299 566l-16 16q29 33 38 54.5t9 41.5
q0 13 -5 22t-18 19q-10 9 -16 18.5t-6 23.5q0 22 16.5 33.5t35.5 11.5q35 0 50 -23t15 -49q0 -25 -11.5 -54t-34.5 -58t-57 -56z" />
    <glyph glyph-name="Tbar" unicode="&#x166;" horiz-adv-x="687" vert-adv-y="1485" 
d="M181 0v22l69 5q19 1 26.5 13t7.5 38v265h-150l6 36h144v318h-58q-34 0 -59 -9.5t-45 -30.5t-36 -55.5t-33 -86.5l-26 6l30 202h575l27 -202l-26 -6q-16 52 -32.5 86.5t-35.5 55.5t-44 30.5t-59 9.5h-58v-318h152v-36h-152v-269q0 -25 7.5 -35t28.5 -12l67 -5v-22h-326z
" />
    <glyph glyph-name="tbar" unicode="&#x167;" horiz-adv-x="392" vert-adv-y="1485" 
d="M233 -14q-41 0 -70.5 15t-44.5 47.5t-15 86.5v150h-74l6 34h68v166h-71v22q39 3 62.5 19t36.5 50.5t19 90.5l58 8l9 -6v-156h145v-28h-145v-166h141v-34h-141v-139q0 -45 14.5 -67.5t50.5 -22.5q25 0 49.5 9.5t44.5 29.5l13 -15q-31 -45 -67.5 -69.5t-88.5 -24.5z" />
    <glyph glyph-name="Utilde" unicode="&#x168;" horiz-adv-x="768" vert-adv-y="1485" 
d="M392 -14q-66 0 -116 16t-83 49t-49 82t-16 115v402q0 25 -6.5 35.5t-27.5 12.5l-51 4v21h289v-21l-54 -4q-17 -2 -23.5 -12.5t-6.5 -38.5v-395q0 -72 17.5 -121.5t56 -74.5t101.5 -25q62 0 103.5 26.5t63 77t21.5 120.5v395q0 27 -6.5 36.5t-27.5 11.5l-46 4v21h190v-21
l-44 -4q-19 -2 -25 -12.5t-6 -38.5v-389q0 -92 -31.5 -152.5t-88.5 -90t-134 -29.5zM485 786q-21 0 -41.5 6t-50.5 19q-26 11 -40.5 16.5t-22.5 7.5t-15 2q-14 0 -24 -6.5t-21 -30.5l-18 8q10 43 21.5 67t27.5 34t38 10q20 0 39.5 -6.5t49.5 -19.5q37 -15 52.5 -20.5
t28.5 -5.5q14 0 23.5 7.5t20.5 29.5l17 -7q-10 -44 -22 -68.5t-27 -33.5t-36 -9z" />
    <glyph glyph-name="utilde" unicode="&#x169;" horiz-adv-x="635" vert-adv-y="1485" 
d="M256 -14q-78 0 -119 44t-41 130v264q0 34 -6 46t-27 14l-37 4l3 20l173 11l8 -6v-350q0 -46 8.5 -74t27.5 -40.5t51 -12.5q36 0 62.5 15.5t41 44.5t14.5 69v259q0 33 -5.5 45.5t-27.5 14.5l-36 4l3 20l172 11l8 -6v-440q0 -24 6.5 -34t26.5 -13l46 -4v-22l-177 -8l-12 89
h-2q-19 -34 -42.5 -55t-53 -30.5t-65.5 -9.5zM371 617q-21 0 -41.5 6t-49.5 19q-27 11 -41.5 16.5t-22 7.5t-13.5 2q-14 0 -24.5 -6.5t-21.5 -30.5l-17 8q9 42 20.5 66.5t27.5 34t39 9.5q20 0 39 -6t49 -19q37 -15 52 -20.5t28 -5.5q15 0 24.5 7t20.5 30l17 -8
q-11 -43 -23 -67.5t-27 -33.5t-36 -9z" />
    <glyph glyph-name="Umacron" unicode="&#x16a;" horiz-adv-x="768" vert-adv-y="1485" 
d="M392 -14q-66 0 -116 16t-83 49t-49 82t-16 115v402q0 25 -6.5 35.5t-27.5 12.5l-51 4v21h289v-21l-54 -4q-17 -2 -23.5 -12.5t-6.5 -38.5v-395q0 -72 17.5 -121.5t56 -74.5t101.5 -25q62 0 103.5 26.5t63 77t21.5 120.5v395q0 27 -6.5 36.5t-27.5 11.5l-46 4v21h190v-21
l-44 -4q-19 -2 -25 -12.5t-6 -38.5v-389q0 -92 -31.5 -152.5t-88.5 -90t-134 -29.5zM268 813v77h284v-77h-284z" />
    <glyph glyph-name="umacron" unicode="&#x16b;" horiz-adv-x="635" vert-adv-y="1485" 
d="M256 -14q-78 0 -119 44t-41 130v264q0 34 -6 46t-27 14l-37 4l3 20l173 11l8 -6v-350q0 -46 8.5 -74t27.5 -40.5t51 -12.5q36 0 62.5 15.5t41 44.5t14.5 69v259q0 33 -5.5 45.5t-27.5 14.5l-36 4l3 20l172 11l8 -6v-440q0 -24 6.5 -34t26.5 -13l46 -4v-22l-177 -8l-12 89
h-2q-19 -34 -42.5 -55t-53 -30.5t-65.5 -9.5zM158 639v77h280v-77h-280z" />
    <glyph glyph-name="Ubreve" unicode="&#x16c;" horiz-adv-x="768" vert-adv-y="1485" 
d="M392 -14q-66 0 -116 16t-83 49t-49 82t-16 115v402q0 25 -6.5 35.5t-27.5 12.5l-51 4v21h289v-21l-54 -4q-17 -2 -23.5 -12.5t-6.5 -38.5v-395q0 -72 17.5 -121.5t56 -74.5t101.5 -25q62 0 103.5 26.5t63 77t21.5 120.5v395q0 27 -6.5 36.5t-27.5 11.5l-46 4v21h190v-21
l-44 -4q-19 -2 -25 -12.5t-6 -38.5v-389q0 -92 -31.5 -152.5t-88.5 -90t-134 -29.5zM408 776q-48 0 -80 21t-48.5 58.5t-22.5 87.5l21 5q18 -46 50 -67t85 -21t85.5 23.5t46.5 64.5l20 -4q-3 -48 -22 -85.5t-52.5 -60t-82.5 -22.5z" />
    <glyph glyph-name="ubreve" unicode="&#x16d;" horiz-adv-x="635" vert-adv-y="1485" 
d="M256 -14q-78 0 -119 44t-41 130v264q0 34 -6 46t-27 14l-37 4l3 20l173 11l8 -6v-350q0 -46 8.5 -74t27.5 -40.5t51 -12.5q36 0 62.5 15.5t41 44.5t14.5 69v259q0 33 -5.5 45.5t-27.5 14.5l-36 4l3 20l172 11l8 -6v-440q0 -24 6.5 -34t26.5 -13l46 -4v-22l-177 -8l-12 89
h-2q-19 -34 -42.5 -55t-53 -30.5t-65.5 -9.5zM299 587q-49 0 -79 24.5t-45 65.5t-21 91l22 6q18 -50 47.5 -75t79.5 -25q53 0 82.5 27t44.5 72l20 -5q-4 -48 -21 -89.5t-48 -66.5t-82 -25z" />
    <glyph glyph-name="Uring" unicode="&#x16e;" horiz-adv-x="768" vert-adv-y="1485" 
d="M392 -14q-66 0 -116 16t-83 49t-49 82t-16 115v402q0 25 -6.5 35.5t-27.5 12.5l-51 4v21h289v-21l-54 -4q-17 -2 -23.5 -12.5t-6.5 -38.5v-395q0 -72 17.5 -121.5t56 -74.5t101.5 -25q62 0 103.5 26.5t63 77t21.5 120.5v395q0 27 -6.5 36.5t-27.5 11.5l-46 4v21h190v-21
l-44 -4q-19 -2 -25 -12.5t-6 -38.5v-389q0 -92 -31.5 -152.5t-88.5 -90t-134 -29.5zM410 756q-60 0 -89 29t-29 77q0 30 13.5 53.5t41 37.5t66.5 14q59 0 88 -28t29 -76q0 -32 -14 -56t-41 -37.5t-65 -13.5zM412 779q27 0 37 20t10 63q0 29 -5 47t-16 26.5t-28 8.5
q-27 0 -37.5 -20.5t-10.5 -61.5q0 -28 5 -46.5t15.5 -27.5t29.5 -9z" />
    <glyph glyph-name="uring" unicode="&#x16f;" horiz-adv-x="635" vert-adv-y="1485" 
d="M256 -14q-78 0 -119 44t-41 130v264q0 34 -6 46t-27 14l-37 4l3 20l173 11l8 -6v-350q0 -46 8.5 -74t27.5 -40.5t51 -12.5q36 0 62.5 15.5t41 44.5t14.5 69v259q0 33 -5.5 45.5t-27.5 14.5l-36 4l3 20l172 11l8 -6v-440q0 -24 6.5 -34t26.5 -13l46 -4v-22l-177 -8l-12 89
h-2q-19 -34 -42.5 -55t-53 -30.5t-65.5 -9.5zM296 582q-58 0 -87 29.5t-29 76.5q0 30 13.5 54t40.5 37.5t66 13.5q59 0 87.5 -27.5t28.5 -75.5q0 -32 -14 -56.5t-41 -38t-65 -13.5zM299 605q18 0 27.5 8.5t14 27t4.5 47.5t-5 47.5t-15.5 27t-27.5 8.5t-27 -9t-15 -27t-5 -47
t5 -47.5t15.5 -27t28.5 -8.5z" />
    <glyph glyph-name="Uhungarumlaut" unicode="&#x170;" horiz-adv-x="768" vert-adv-y="1485" 
d="M392 -14q-66 0 -116 16t-83 49t-49 82t-16 115v402q0 25 -6.5 35.5t-27.5 12.5l-51 4v21h289v-21l-54 -4q-17 -2 -23.5 -12.5t-6.5 -38.5v-395q0 -72 17.5 -121.5t56 -74.5t101.5 -25q62 0 103.5 26.5t63 77t21.5 120.5v395q0 27 -6.5 36.5t-27.5 11.5l-46 4v21h190v-21
l-44 -4q-19 -2 -25 -12.5t-6 -38.5v-389q0 -92 -31.5 -152.5t-88.5 -90t-134 -29.5zM303 769l-12 15l113 134q13 15 23 20.5t20 5.5q21 0 32.5 -15t11.5 -33t-10 -32t-32 -24zM479 769l-10 16l126 129q13 14 23 19.5t20 5.5q20 0 32 -15t12 -35q0 -18 -10.5 -32.5
t-32.5 -23.5z" />
    <glyph glyph-name="uhungarumlaut" unicode="&#x171;" horiz-adv-x="635" vert-adv-y="1485" 
d="M256 -14q-78 0 -119 44t-41 130v264q0 34 -6 46t-27 14l-37 4l3 20l173 11l8 -6v-350q0 -46 8.5 -74t27.5 -40.5t51 -12.5q36 0 62.5 15.5t41 44.5t14.5 69v259q0 33 -5.5 45.5t-27.5 14.5l-36 4l3 20l172 11l8 -6v-440q0 -24 6.5 -34t26.5 -13l46 -4v-22l-177 -8l-12 89
h-2q-19 -34 -42.5 -55t-53 -30.5t-65.5 -9.5zM356 583l-12 12l94 155q10 16 20.5 23.5t21.5 7.5q16 0 26 -7.5t15 -18.5t5 -22q0 -16 -10 -30.5t-26 -25.5zM202 583l-13 12l83 157q10 18 20.5 24.5t21.5 6.5q15 0 25.5 -6.5t16 -17.5t5.5 -25t-8.5 -27t-28.5 -29z" />
    <glyph glyph-name="Uogonek" unicode="&#x172;" horiz-adv-x="768" vert-adv-y="1485" 
d="M424 -233q-30 0 -49.5 11t-29.5 29t-10 38q0 29 16 55t42.5 49t58.5 43q-14 -3 -29 -4.5t-31 -1.5q-66 0 -116 16t-83 49t-49 82t-16 115v402q0 25 -6.5 35.5t-27.5 12.5l-51 4v21h289v-21l-54 -4q-17 -2 -23.5 -12.5t-6.5 -38.5v-395q0 -72 17.5 -121.5t56 -74.5
t101.5 -25q62 0 103.5 26.5t63 77t21.5 120.5v395q0 27 -6.5 36.5t-27.5 11.5l-46 4v21h190v-21l-44 -4q-19 -2 -25 -12.5t-6 -38.5v-389q0 -98 -35.5 -159.5t-98.5 -89.5q-43 -33 -63.5 -65t-20.5 -67q0 -28 12 -40.5t31 -12.5q12 0 26 5.5t27 15.5l9 -13q-14 -25 -33 -39
t-38.5 -20t-37.5 -6z" />
    <glyph glyph-name="uogonek" unicode="&#x173;" horiz-adv-x="632" vert-adv-y="1485" 
d="M488 -233q-30 0 -50 11t-29.5 29t-9.5 38q0 31 17.5 58t46.5 50.5t63 42.5l-95 -4l-12 89h-2q-19 -34 -42.5 -55t-53 -30.5t-65.5 -9.5q-78 0 -119 44t-41 130v264q0 34 -6 46t-27 14l-37 4l3 20l173 11l8 -6v-350q0 -46 8.5 -74t27.5 -40.5t51 -12.5q36 0 62.5 15.5
t41 44.5t14.5 69v259q0 33 -5.5 45.5t-27.5 14.5l-36 4l3 20l172 11l8 -6v-440q0 -24 6.5 -34t26.5 -13l46 -4v-22l-43 -2q-36 -30 -54.5 -58.5t-18.5 -62.5q0 -28 12 -40.5t31 -12.5q12 0 26 5.5t27 15.5l9 -13q-14 -25 -33 -39t-38.5 -20t-37.5 -6z" />
    <glyph glyph-name="Wcircumflex" unicode="&#x174;" horiz-adv-x="1018" vert-adv-y="1485" 
d="M249 0l-161 642q-7 26 -15 36.5t-31 14.5l-39 7v23h284v-21l-49 -7q-18 -3 -25 -11t0 -40l126 -547h5l153 626h98l171 -622h5l122 534q6 25 2.5 41t-30.5 19l-52 7v21h216v-21l-52 -7q-13 -2 -22 -7.5t-15.5 -17.5t-11.5 -34l-148 -636h-105l-166 611h-3l-150 -611h-107z
M396 761l-13 15l114 139q10 11 20.5 18t23.5 7q14 0 24 -6.5t24 -23.5l107 -134l-12 -15l-143 81z" />
    <glyph glyph-name="wcircumflex" unicode="&#x175;" horiz-adv-x="829" vert-adv-y="1485" 
d="M214 0l-140 432q-6 18 -11 28t-12.5 16t-22.5 9l-28 7l4 21h250v-21l-43 -4q-18 -2 -23 -11.5t4 -39.5l102 -341h3l117 417h73l131 -417h3l95 333q8 29 3.5 41.5t-27.5 15.5l-37 7l4 20h173v-21l-35 -7q-19 -3 -28.5 -14t-18.5 -42l-128 -429h-84l-122 389h-3l-111 -389
h-88zM305 582l-13 13l112 159q10 14 21.5 20t23.5 6q9 0 16 -2.5t14.5 -9.5t15.5 -20l107 -152l-13 -13l-140 97z" />
    <glyph glyph-name="Ycircumflex" unicode="&#x176;" horiz-adv-x="670" vert-adv-y="1485" 
d="M193 0v22l56 4q18 3 24.5 13t6.5 39v238l-186 323q-16 26 -28.5 38.5t-34.5 16.5l-36 7v22h300v-21l-53 -7q-23 -3 -27.5 -16t8.5 -35l161 -283h5l157 279q13 23 9 35.5t-27 16.5l-57 10v21h218v-21l-47 -8q-17 -2 -28 -12.5t-30 -42.5l-184 -323v-242q0 -26 6.5 -35.5
t25.5 -12.5l53 -4v-22h-292zM223 761l-13 15l114 139q10 11 20.5 18t23.5 7q14 0 24 -6.5t24 -23.5l107 -134l-12 -15l-143 81z" />
    <glyph glyph-name="ycircumflex" unicode="&#x177;" horiz-adv-x="556" vert-adv-y="1485" 
d="M108 -230q-48 0 -75.5 22.5t-27.5 60.5q0 26 16 45.5t46 19.5q27 0 42 -13.5t16 -33.5q0 -10 -2.5 -26t-10.5 -43q23 -2 45 7t45.5 38t47.5 89l17 39l-191 456q-12 30 -20 40t-23 13l-31 8l3 21h257v-21l-46 -5q-19 -2 -24.5 -13t4.5 -38l126 -316h4l119 312
q11 28 4 39.5t-29 15.5l-36 6l3 20h173v-21l-33 -6q-17 -4 -26.5 -13t-20.5 -40l-180 -466q-22 -59 -44 -97.5t-44 -60t-47.5 -30.5t-56.5 -9zM166 582l-13 13l112 159q10 14 21.5 20t23.5 6q9 0 16 -2.5t14.5 -9.5t15.5 -20l107 -152l-13 -13l-140 97z" />
    <glyph glyph-name="Ydieresis" unicode="&#x178;" horiz-adv-x="670" vert-adv-y="1485" 
d="M193 0v22l56 4q18 3 24.5 13t6.5 39v238l-186 323q-16 26 -28.5 38.5t-34.5 16.5l-36 7v22h300v-21l-53 -7q-23 -3 -27.5 -16t8.5 -35l161 -283h5l157 279q13 23 9 35.5t-27 16.5l-57 10v21h218v-21l-47 -8q-17 -2 -28 -12.5t-30 -42.5l-184 -323v-242q0 -26 6.5 -35.5
t25.5 -12.5l53 -4v-22h-292zM471 792q-29 0 -48 18t-19 47t19 47t48 18q32 0 50.5 -17.5t18.5 -46.5t-19 -47.5t-50 -18.5zM263 792q-29 0 -48 18t-19 47t19 47t48 18q31 0 49.5 -17.5t18.5 -46.5t-19 -47.5t-49 -18.5z" />
    <glyph glyph-name="Zacute" unicode="&#x179;" horiz-adv-x="640" vert-adv-y="1485" 
d="M44 0v24l416 673h-230q-24 0 -41.5 -8t-32 -29t-28.5 -58.5t-31 -97.5l-27 -2l12 221h506v-25l-412 -671h227q32 0 55.5 7t41 26.5t33 55t30.5 90.5h27l-20 -206h-526zM256 770l-10 15l129 131q14 13 23.5 18.5t19.5 5.5q21 0 33 -16t12 -35t-10 -33t-34 -23z" />
    <glyph glyph-name="zacute" unicode="&#x17a;" horiz-adv-x="492" vert-adv-y="1485" 
d="M36 0v23l304 465h-145q-39 0 -61 -13.5t-36 -45.5t-30 -88l-25 -1l12 173h402v-23l-298 -463h131q32 0 54 7t37 24.5t27 49.5t26 81h25l-14 -189h-409zM193 582l-13 13l94 156q10 18 20.5 24.5t21.5 6.5q16 0 26.5 -7.5t16 -19t5.5 -24.5q0 -16 -10.5 -29t-26.5 -25z" />
    <glyph glyph-name="Zdotaccent" unicode="&#x17b;" horiz-adv-x="640" vert-adv-y="1485" 
d="M44 0v24l416 673h-230q-24 0 -41.5 -8t-32 -29t-28.5 -58.5t-31 -97.5l-27 -2l12 221h506v-25l-412 -671h227q32 0 55.5 7t41 26.5t33 55t30.5 90.5h27l-20 -206h-526zM329 793q-34 0 -54.5 19.5t-20.5 51.5t20.5 52t54.5 20q35 0 55.5 -19.5t20.5 -51.5t-20.5 -52
t-55.5 -20z" />
    <glyph glyph-name="zdotaccent" unicode="&#x17c;" horiz-adv-x="492" vert-adv-y="1485" 
d="M36 0v23l304 465h-145q-39 0 -61 -13.5t-36 -45.5t-30 -88l-25 -1l12 173h402v-23l-298 -463h131q32 0 54 7t37 24.5t27 49.5t26 81h25l-14 -189h-409zM247 617q-34 0 -54.5 19.5t-20.5 51.5q0 31 20.5 51t54.5 20q35 0 55.5 -19.5t20.5 -51.5q0 -31 -20.5 -51t-55.5 -20
z" />
    <glyph glyph-name="Zcaron" unicode="&#x17d;" horiz-adv-x="640" vert-adv-y="1485" 
d="M44 0v24l416 673h-230q-24 0 -41.5 -8t-32 -29t-28.5 -58.5t-31 -97.5l-27 -2l12 221h506v-25l-412 -671h227q32 0 55.5 7t41 26.5t33 55t30.5 90.5h27l-20 -206h-526zM329 773q-14 0 -24 6.5t-24 23.5l-108 134l13 15l143 -82l146 82l12 -15l-115 -139q-9 -12 -19 -18.5
t-24 -6.5z" />
    <glyph glyph-name="zcaron" unicode="&#x17e;" horiz-adv-x="492" vert-adv-y="1485" 
d="M36 0v23l304 465h-145q-39 0 -61 -13.5t-36 -45.5t-30 -88l-25 -1l12 173h402v-23l-298 -463h131q32 0 54 7t37 24.5t27 49.5t26 81h25l-14 -189h-409zM247 583q-8 0 -15.5 2.5t-14.5 10t-16 19.5l-107 153l13 13l140 -98l144 98l13 -12l-112 -159q-10 -15 -21 -21
t-24 -6z" />
    <glyph glyph-name="uni018F" unicode="&#x18f;" horiz-adv-x="699" vert-adv-y="1485" 
d="M316 -14q-74 0 -134 29.5t-95 86t-35 136.5q0 28 2 54t7 50h460q-3 106 -30 178t-77 108.5t-124 36.5q-45 0 -83.5 -11.5t-72.5 -33t-65 -52.5l-19 18q26 43 66 77t93 54t119 20q104 0 175.5 -46t108.5 -130t37 -197q0 -92 -24 -162t-68.5 -118.5t-106 -73t-134.5 -24.5z
M331 16q65 0 105 35t60 100t25 156h-340q-2 -21 -3 -39t-1 -42q0 -79 20 -125.5t55 -65.5t79 -19z" />
    <glyph glyph-name="florin" unicode="&#x192;" horiz-adv-x="583" vert-adv-y="1485" 
d="M50 -173q-44 0 -75.5 12.5t-47.5 34t-16 49.5q0 23 15 41t46 18q27 0 40 -11t13 -30q0 -13 -7.5 -29t-26.5 -45q12 -7 27 -11t33 -4q25 0 44.5 15t34.5 50t21 94l52 423h-80l3 25h81l5 38q7 53 25.5 97.5t47 76.5t67 49t83.5 17t76 -12t47.5 -33.5t16.5 -50.5
q0 -24 -15.5 -42t-45.5 -18q-27 0 -40 11.5t-13 29.5q0 14 7.5 30t26.5 45q-12 7 -27.5 11t-33.5 4q-26 0 -46 -14.5t-34.5 -49t-22.5 -93.5l-12 -94h147l-4 -27h-147l-45 -368q-9 -71 -38.5 -125t-75.5 -84t-106 -30z" />
    <glyph glyph-name="Ohorn" unicode="&#x1a0;" horiz-adv-x="865" vert-adv-y="1485" 
d="M378 -14q-102 0 -176 44.5t-113.5 126t-39.5 191.5q0 94 24.5 167t69.5 122.5t107 74.5t138 25q78 0 140.5 -28t105 -81t61.5 -130q47 18 71 41.5t34 49.5t12 50h-20q-37 0 -54 14t-17 42q0 20 8 35t23 23.5t35 8.5q27 0 44.5 -13t25.5 -34t8 -45q0 -35 -17.5 -74
t-53.5 -72t-92 -51q4 -21 6 -44.5t2 -49.5q0 -90 -23 -163t-67 -124.5t-105.5 -78.5t-136.5 -27zM392 16q47 0 82.5 18.5t58.5 59t34.5 105.5t11.5 158q0 92 -13.5 159t-40 109.5t-64.5 63t-88 20.5q-47 0 -83.5 -18.5t-61.5 -59t-38 -104.5t-13 -156q0 -91 14.5 -157.5
t42.5 -110.5t67.5 -65.5t90.5 -21.5z" />
    <glyph glyph-name="ohorn" unicode="&#x1a1;" horiz-adv-x="640" vert-adv-y="1485" 
d="M293 -14q-77 0 -132.5 31.5t-86 89.5t-30.5 138q0 92 33.5 154.5t93 95t137.5 32.5q68 0 121 -27t84 -79q29 18 44.5 38.5t22.5 42t8 41.5h-20q-38 0 -55 14t-17 42q0 20 8.5 35t23.5 23.5t34 8.5q28 0 45 -13t25 -34t8 -45q0 -29 -12 -61.5t-37.5 -62.5t-64.5 -52
q12 -27 18.5 -59t6.5 -69q0 -88 -32 -151.5t-90 -98t-136 -34.5zM309 16q39 0 65.5 23t40 73.5t13.5 133.5q0 67 -9.5 115t-27.5 78.5t-43.5 44.5t-57.5 14q-39 0 -66.5 -21.5t-42 -70.5t-14.5 -131q0 -68 10 -117.5t28.5 -81t45 -46t58.5 -14.5z" />
    <glyph glyph-name="Uhorn" unicode="&#x1af;" horiz-adv-x="846" vert-adv-y="1485" 
d="M392 -14q-68 0 -118 17t-82.5 50t-48 82t-15.5 113v402q0 26 -6.5 36t-27.5 12l-51 4v21h289v-21l-54 -4q-19 -2 -24.5 -13.5t-5.5 -37.5v-395q0 -72 17.5 -121t56 -74.5t101.5 -25.5q60 0 102.5 26t64 76.5t21.5 121.5v395q0 26 -6.5 36t-27.5 12l-47 4v21h116v-233
q45 15 73.5 32.5t43.5 37.5t21.5 40t8.5 39h-20q-38 0 -54.5 14t-16.5 42q0 20 8 35t23 23.5t35 8.5q27 0 44 -13t25.5 -34t8.5 -45q0 -28 -11.5 -58.5t-35 -59.5t-61.5 -52t-92 -36v-206q0 -93 -31.5 -153.5t-88.5 -89.5t-134 -29z" />
    <glyph glyph-name="uhorn" unicode="&#x1b0;" horiz-adv-x="704" vert-adv-y="1485" 
d="M256 -14q-53 0 -88.5 20.5t-53.5 59.5t-18 94v264q0 35 -5.5 46.5t-27.5 13.5l-37 4l3 20l173 11l8 -6v-350q0 -44 7.5 -72t26.5 -41.5t53 -13.5q35 0 61.5 15t41.5 44t15 70v259q0 34 -5.5 46t-27.5 14l-36 4l3 20l172 11l8 -6v-114q49 18 75 42t36 50.5t12 51.5h-19
q-38 0 -55 14t-17 42q0 20 8.5 35t23.5 23.5t34 8.5q27 0 44.5 -13t25 -34t7.5 -45q0 -36 -18.5 -76.5t-57 -74.5t-99.5 -50v-300q0 -24 6.5 -34t26.5 -13l46 -4v-22l-177 -8l-12 89h-2q-19 -34 -42.5 -55t-53 -30.5t-65.5 -9.5z" />
    <glyph glyph-name="uni01C4" unicode="&#x1c4;" horiz-adv-x="1396" vert-adv-y="1485" 
d="M56 0v22l54 4q19 3 25 13t6 39v573q0 25 -6.5 35t-26.5 12l-52 4v21h299q61 0 115.5 -11t100 -36t79.5 -65.5t52 -97.5t18 -135q0 -103 -29 -175t-82 -117t-125 -65.5t-158 -20.5h-270zM330 27q65 0 113.5 18.5t81.5 59t49.5 107.5t16.5 164q0 109 -29 180t-84 105.5
t-132 34.5h-84v-664q10 -2 28.5 -3.5t39.5 -1.5zM801 0v24l416 673h-230q-24 0 -41.5 -8t-32 -29t-28.5 -58.5t-31 -97.5l-27 -2l12 221h506v-25l-412 -671h227q32 0 55.5 7t41 26.5t33 55t30.5 90.5h27l-20 -206h-526zM1086 773q-14 0 -24 6.5t-24 23.5l-108 134l13 15
l143 -82l146 82l12 -15l-115 -139q-9 -12 -19 -18.5t-24 -6.5z" />
    <glyph glyph-name="uni01C5" unicode="&#x1c5;" horiz-adv-x="1260" vert-adv-y="1485" 
d="M56 0v22l54 4q19 3 25 13t6 39v573q0 25 -6.5 35t-26.5 12l-52 4v21h299q61 0 115.5 -11t100 -36t79.5 -65.5t52 -97.5t18 -135q0 -103 -29 -175t-82 -117t-125 -65.5t-158 -20.5h-270zM330 27q65 0 113.5 18.5t81.5 59t49.5 107.5t16.5 164q0 109 -29 180t-84 105.5
t-132 34.5h-84v-664q10 -2 28.5 -3.5t39.5 -1.5zM804 0v23l304 465h-145q-39 0 -61 -13.5t-36 -45.5t-30 -88l-25 -1l12 173h402v-23l-298 -463h131q32 0 54 7t37 24.5t27 49.5t26 81h25l-14 -189h-409zM1015 583q-8 0 -15.5 2.5t-14.5 10t-16 19.5l-107 153l13 13l140 -98
l144 98l13 -12l-112 -159q-10 -15 -21 -21t-24 -6z" />
    <glyph glyph-name="uni01C6" unicode="&#x1c6;" horiz-adv-x="1125" vert-adv-y="1485" 
d="M255 -14q-65 0 -112 28.5t-71.5 85.5t-24.5 141q0 89 29.5 153t85 98.5t131.5 34.5q34 0 66.5 -8.5t55.5 -23.5v185q0 32 -7.5 43t-34.5 13l-46 4l2 20l192 6l8 -7v-689q0 -24 6 -33t26 -12l45 -4v-22l-176 -8l-11 87h-2q-16 -31 -40 -51.5t-54 -30.5t-68 -10zM293 35
q36 0 63 15t43 44t16 73v285q-24 20 -55 32t-64 12q-44 0 -72.5 -24t-42 -76.5t-13.5 -139.5q0 -78 14.5 -127t42.5 -71.5t68 -22.5zM669 0v23l304 465h-145q-39 0 -61 -13.5t-36 -45.5t-30 -88l-25 -1l12 173h402v-23l-298 -463h131q32 0 54 7t37 24.5t27 49.5t26 81h25
l-14 -189h-409zM880 583q-8 0 -15.5 2.5t-14.5 10t-16 19.5l-107 153l13 13l140 -98l144 98l13 -12l-112 -159q-10 -15 -21 -21t-24 -6z" />
    <glyph glyph-name="uni01C7" unicode="&#x1c7;" horiz-adv-x="1172" vert-adv-y="1485" 
d="M56 0v22l54 4q19 3 25 13t6 39v573q0 25 -6.5 35t-26.5 12l-52 4v21h301v-21l-62 -5q-19 -1 -26 -10t-7 -37v-623h111q36 0 61.5 7.5t44.5 27.5t35 54.5t31 89.5h26l-26 -206h-489zM829 -14q-53 0 -95.5 16.5t-67.5 46.5t-25 68q0 24 10.5 44t28.5 31.5t41 11.5
q32 0 50 -13.5t18 -37.5q0 -22 -16 -51t-36 -58q17 -13 41.5 -21.5t51.5 -8.5q35 0 57.5 16t33 55t10.5 109v456q0 25 -6.5 35.5t-27.5 11.5l-66 4v22h309v-21l-58 -4q-18 -2 -24.5 -12.5t-6.5 -38.5v-415q0 -119 -58 -182.5t-164 -63.5z" />
    <glyph glyph-name="uni01C8" unicode="&#x1c8;" horiz-adv-x="908" vert-adv-y="1485" 
d="M56 0v22l54 4q19 3 25 13t6 39v573q0 25 -6.5 35t-26.5 12l-52 4v21h301v-21l-62 -5q-19 -1 -26 -10t-7 -37v-623h111q36 0 61.5 7.5t44.5 27.5t35 54.5t31 89.5h26l-26 -206h-489zM637 -229l-12 18q25 20 41 41t25 47t12 61t3 82v401q0 35 -6 48t-28 15l-46 4l2 21
l184 9l8 -5v-421q0 -67 -8 -116.5t-28 -86.5t-55.5 -65t-91.5 -53zM750 616q-35 0 -56 19.5t-21 52.5q0 32 21 52t56 20q36 0 56.5 -19.5t20.5 -52.5q0 -32 -21 -52t-56 -20z" />
    <glyph glyph-name="uni01C9" unicode="&#x1c9;" horiz-adv-x="640" vert-adv-y="1485" 
d="M40 0v22l43 5q20 2 25 12t5 38v599q0 33 -6.5 45t-29.5 14l-45 4l2 21l185 6l8 -6v-686q0 -24 5.5 -34t26.5 -13l48 -6v-21h-267zM369 -229l-12 18q25 20 41 41t25 47t12 61t3 82v401q0 35 -6 48t-28 15l-46 4l2 21l184 9l8 -5v-421q0 -67 -8 -116.5t-28 -86.5t-55.5 -65
t-91.5 -53zM482 616q-35 0 -56 19.5t-21 52.5q0 32 21 52t56 20q36 0 56.5 -19.5t20.5 -52.5q0 -32 -21 -52t-56 -20z" />
    <glyph glyph-name="uni01CA" unicode="&#x1ca;" horiz-adv-x="1292" vert-adv-y="1485" 
d="M56 0v22l53 4q20 1 25.5 12.5t5.5 38.5v574q0 25 -6 35t-27 12l-51 4v21h200l349 -591l1 2v516q0 26 -6 36t-27 12l-52 4v21h205v-21l-53 -4q-19 -2 -25 -12.5t-6 -39.5v-646h-90l-375 624l-1 -2v-549q0 -25 6.5 -35t26.5 -12l52 -4v-22h-205zM949 -14q-53 0 -95.5 16.5
t-67.5 46.5t-25 68q0 24 10.5 44t28.5 31.5t41 11.5q32 0 50 -13.5t18 -37.5q0 -22 -16 -51t-36 -58q17 -13 41.5 -21.5t51.5 -8.5q35 0 57.5 16t33 55t10.5 109v456q0 25 -6.5 35.5t-27.5 11.5l-66 4v22h309v-21l-58 -4q-18 -2 -24.5 -12.5t-6.5 -38.5v-415
q0 -119 -58 -182.5t-164 -63.5z" />
    <glyph glyph-name="uni01CB" unicode="&#x1cb;" horiz-adv-x="1080" vert-adv-y="1485" 
d="M56 0v22l53 4q20 1 25.5 12.5t5.5 38.5v574q0 25 -6 35t-27 12l-51 4v21h200l349 -591l1 2v516q0 26 -6 36t-27 12l-52 4v21h205v-21l-53 -4q-19 -2 -25 -12.5t-6 -39.5v-646h-90l-375 624l-1 -2v-549q0 -25 6.5 -35t26.5 -12l52 -4v-22h-205zM809 -229l-12 18
q25 20 41 41t25 47t12 61t3 82v401q0 35 -6 48t-28 15l-46 4l2 21l184 9l8 -5v-421q0 -67 -8 -116.5t-28 -86.5t-55.5 -65t-91.5 -53zM922 616q-35 0 -56 19.5t-21 52.5q0 32 21 52t56 20q36 0 56.5 -19.5t20.5 -52.5q0 -32 -21 -52t-56 -20z" />
    <glyph glyph-name="uni01CC" unicode="&#x1cc;" horiz-adv-x="956" vert-adv-y="1485" 
d="M42 0v21l46 7q16 2 20.5 11.5t4.5 35.5v348q0 34 -6 46.5t-28 14.5l-46 5l2 20l179 10l7 -6l1 -97h1q23 55 69.5 83t101.5 28q52 0 87.5 -20t53.5 -58.5t18 -95.5v-285q0 -22 6 -30.5t25 -10.5l43 -6v-21h-257v21l40 5q19 2 24 11t5 31v283q0 47 -8 74.5t-27.5 39.5
t-53.5 12q-35 0 -63 -17t-44 -47t-16 -71v-271q0 -22 5 -31.5t20 -11.5l47 -7v-21h-257zM684 -229l-12 18q25 20 41 41t25 47t12 61t3 82v401q0 35 -6 48t-28 15l-46 4l2 21l184 9l8 -5v-421q0 -67 -8 -116.5t-28 -86.5t-55.5 -65t-91.5 -53zM797 616q-35 0 -56 19.5
t-21 52.5q0 32 21 52t56 20q36 0 56.5 -19.5t20.5 -52.5q0 -32 -21 -52t-56 -20z" />
    <glyph glyph-name="uni01CD" unicode="&#x1cd;" horiz-adv-x="694" vert-adv-y="1485" 
d="M2 0v22l38 7q18 4 28 14t21 41l214 639h92l215 -641q9 -26 17 -36.5t29 -15.5l36 -7v-23h-281v22l51 6q19 3 23.5 14t-3.5 36l-49 165h-254l-52 -160q-7 -23 -2.5 -37.5t27.5 -17.5l56 -7v-21h-206zM190 271h233l-114 362h-2zM350 773q-14 0 -24 6.5t-24 23.5l-108 134
l13 15l143 -82l146 82l12 -15l-115 -139q-9 -12 -19 -18.5t-24 -6.5z" />
    <glyph glyph-name="uni01CE" unicode="&#x1ce;" horiz-adv-x="544" vert-adv-y="1485" 
d="M191 -14q-66 0 -103.5 36t-37.5 99q0 52 26.5 85t89 50.5t168.5 21.5v112q0 40 -10.5 65t-31.5 36.5t-56 11.5q-31 0 -61.5 -10t-46.5 -26q18 -21 28 -36t14 -25.5t4 -18.5q0 -19 -16 -33t-44 -14q-30 0 -45.5 15t-15.5 41q0 33 26.5 63t72 49t100.5 19q65 0 108.5 -19.5
t65.5 -60t22 -105.5v-256q0 -26 11 -37.5t31 -11.5q11 0 23 3t24 9l7 -15q-23 -26 -50 -37t-53 -11q-47 0 -71 24.5t-29 70.5q-17 -34 -38 -55t-48.5 -30.5t-63.5 -9.5zM242 37q27 0 48 13t32.5 36.5t11.5 53.5v115q-61 -1 -98 -12.5t-53.5 -37.5t-16.5 -71q0 -47 19.5 -72
t56.5 -25zM250 583q-8 0 -15.5 2.5t-14.5 10t-16 19.5l-107 153l13 13l140 -98l144 98l13 -12l-112 -159q-10 -15 -21 -21t-24 -6z" />
    <glyph glyph-name="uni01CF" unicode="&#x1cf;" horiz-adv-x="404" vert-adv-y="1485" 
d="M56 0v22l55 4q19 3 25 13.5t6 38.5v573q0 25 -6.5 35t-27.5 12l-52 4v21h292v-21l-55 -4q-17 -2 -24 -12.5t-7 -38.5v-573q0 -26 6.5 -35.5t26.5 -12.5l53 -4v-22h-292zM201 773q-14 0 -24 6.5t-24 23.5l-108 134l13 15l143 -82l146 82l12 -15l-115 -139
q-9 -12 -19 -18.5t-24 -6.5z" />
    <glyph glyph-name="uni01D0" unicode="&#x1d0;" horiz-adv-x="335" vert-adv-y="1485" 
d="M38 0v22l50 6q17 2 22 11.5t5 36.5v346q0 35 -6 47.5t-29 14.5l-46 4l3 21l184 9l8 -5v-440q0 -24 5.5 -33t21.5 -11l52 -8v-21h-270zM147 583q-8 0 -15.5 2.5t-14.5 10t-16 19.5l-107 153l13 13l140 -98l144 98l13 -12l-112 -159q-10 -15 -21 -21t-24 -6z" />
    <glyph glyph-name="uni01D1" unicode="&#x1d1;" horiz-adv-x="759" vert-adv-y="1485" 
d="M378 -14q-101 0 -175 44.5t-114 126t-40 191.5q0 123 41 210t117 133t181 46q98 0 170 -43t112 -123t40 -191q0 -89 -23 -162t-66 -124.5t-105 -79.5t-138 -28zM392 16q48 0 83.5 19t58.5 59.5t34 105.5t11 158q0 91 -13.5 157.5t-39.5 109.5t-64.5 63.5t-88.5 20.5
q-48 0 -84.5 -19t-61.5 -59.5t-37.5 -104.5t-12.5 -155q0 -90 14.5 -157t42.5 -111t67.5 -65.5t90.5 -21.5zM381 773q-14 0 -24 6.5t-24 23.5l-108 134l13 15l143 -82l146 82l12 -15l-115 -139q-9 -12 -19 -18.5t-24 -6.5z" />
    <glyph glyph-name="uni01D2" unicode="&#x1d2;" horiz-adv-x="595" vert-adv-y="1485" 
d="M293 -14q-76 0 -131.5 31t-86.5 89.5t-31 138.5q0 89 32.5 152t92 96.5t139.5 33.5q73 0 127.5 -30.5t85 -88t30.5 -138.5q0 -87 -31.5 -151t-90 -98.5t-136.5 -34.5zM309 16q39 0 65.5 23t40 73.5t13.5 133.5q0 67 -9.5 115t-27.5 78t-43 44.5t-57 14.5q-40 0 -68 -22
t-42 -71t-14 -130q0 -91 17.5 -148.5t49.5 -84t75 -26.5zM292 583q-8 0 -15.5 2.5t-14.5 10t-16 19.5l-107 153l13 13l140 -98l144 98l13 -12l-112 -159q-10 -15 -21 -21t-24 -6z" />
    <glyph glyph-name="uni01D3" unicode="&#x1d3;" horiz-adv-x="768" vert-adv-y="1485" 
d="M392 -14q-66 0 -116 16t-83 49t-49 82t-16 115v402q0 25 -6.5 35.5t-27.5 12.5l-51 4v21h289v-21l-54 -4q-17 -2 -23.5 -12.5t-6.5 -38.5v-395q0 -72 17.5 -121.5t56 -74.5t101.5 -25q62 0 103.5 26.5t63 77t21.5 120.5v395q0 27 -6.5 36.5t-27.5 11.5l-46 4v21h190v-21
l-44 -4q-19 -2 -25 -12.5t-6 -38.5v-389q0 -92 -31.5 -152.5t-88.5 -90t-134 -29.5zM410 773q-14 0 -24 6.5t-24 23.5l-108 134l13 15l143 -82l146 82l12 -15l-115 -139q-9 -12 -19 -18.5t-24 -6.5z" />
    <glyph glyph-name="uni01D4" unicode="&#x1d4;" horiz-adv-x="635" vert-adv-y="1485" 
d="M256 -14q-78 0 -119 44t-41 130v264q0 34 -6 46t-27 14l-37 4l3 20l173 11l8 -6v-350q0 -46 8.5 -74t27.5 -40.5t51 -12.5q36 0 62.5 15.5t41 44.5t14.5 69v259q0 33 -5.5 45.5t-27.5 14.5l-36 4l3 20l172 11l8 -6v-440q0 -24 6.5 -34t26.5 -13l46 -4v-22l-177 -8l-12 89
h-2q-19 -34 -42.5 -55t-53 -30.5t-65.5 -9.5zM297 583q-8 0 -15.5 2.5t-14.5 10t-16 19.5l-107 153l13 13l140 -98l144 98l13 -12l-112 -159q-10 -15 -21 -21t-24 -6z" />
    <glyph glyph-name="uni01D5" unicode="&#x1d5;" horiz-adv-x="763" vert-adv-y="1485" 
d="M392 -14q-66 0 -116 16t-83 49t-49 82t-16 115v402q0 25 -6.5 35.5t-27.5 12.5l-51 4v21h289v-21l-54 -4q-17 -2 -23.5 -12.5t-6.5 -38.5v-395q0 -72 17.5 -121.5t56 -74.5t101.5 -25q62 0 103.5 26.5t63 77t21.5 120.5v395q0 27 -6.5 36.5t-27.5 11.5l-46 4v21h190v-21
l-44 -4q-19 -2 -25 -12.5t-6 -38.5v-389q0 -92 -31.5 -152.5t-88.5 -90t-134 -29.5zM514 792q-29 0 -48 18t-19 47t19 47t48 18q32 0 50.5 -17.5t18.5 -46.5t-19 -47.5t-50 -18.5zM306 792q-29 0 -48 18t-19 47t19 47t48 18q31 0 49.5 -17.5t18.5 -46.5t-19 -47.5t-49 -18.5
zM266 993v77h284v-77h-284z" />
    <glyph glyph-name="uni01D6" unicode="&#x1d6;" horiz-adv-x="635" vert-adv-y="1485" 
d="M256 -14q-78 0 -119 44t-41 130v264q0 34 -6 46t-27 14l-37 4l3 20l173 11l8 -6v-350q0 -46 8.5 -74t27.5 -40.5t51 -12.5q36 0 62.5 15.5t41 44.5t14.5 69v259q0 33 -5.5 45.5t-27.5 14.5l-36 4l3 20l172 11l8 -6v-440q0 -24 6.5 -34t26.5 -13l46 -4v-22l-177 -8l-12 89
h-2q-19 -34 -42.5 -55t-53 -30.5t-65.5 -9.5zM405 621q-30 0 -48.5 18t-18.5 46q0 29 18.5 47t48.5 18q31 0 49.5 -17.5t18.5 -45.5q0 -29 -19 -47.5t-49 -18.5zM198 621q-30 0 -49 18t-19 46q0 29 19 47t48 18q32 0 50.5 -17.5t18.5 -45.5q0 -29 -19 -47.5t-49 -18.5z
M157 842v77h284v-77h-284z" />
    <glyph glyph-name="uni01D7" unicode="&#x1d7;" horiz-adv-x="763" vert-adv-y="1485" 
d="M392 -14q-66 0 -116 16t-83 49t-49 82t-16 115v402q0 25 -6.5 35.5t-27.5 12.5l-51 4v21h289v-21l-54 -4q-17 -2 -23.5 -12.5t-6.5 -38.5v-395q0 -72 17.5 -121.5t56 -74.5t101.5 -25q62 0 103.5 26.5t63 77t21.5 120.5v395q0 27 -6.5 36.5t-27.5 11.5l-46 4v21h190v-21
l-44 -4q-19 -2 -25 -12.5t-6 -38.5v-389q0 -92 -31.5 -152.5t-88.5 -90t-134 -29.5zM322 961l-10 15l129 131q14 13 23.5 18.5t19.5 5.5q21 0 33 -16t12 -35t-10 -33t-34 -23zM514 792q-29 0 -48 18t-19 47t19 47t48 18q32 0 50.5 -17.5t18.5 -46.5t-19 -47.5t-50 -18.5z
M306 792q-29 0 -48 18t-19 47t19 47t48 18q31 0 49.5 -17.5t18.5 -46.5t-19 -47.5t-49 -18.5z" />
    <glyph glyph-name="uni01D8" unicode="&#x1d8;" horiz-adv-x="635" vert-adv-y="1485" 
d="M256 -14q-78 0 -119 44t-41 130v264q0 34 -6 46t-27 14l-37 4l3 20l173 11l8 -6v-350q0 -46 8.5 -74t27.5 -40.5t51 -12.5q36 0 62.5 15.5t41 44.5t14.5 69v259q0 33 -5.5 45.5t-27.5 14.5l-36 4l3 20l172 11l8 -6v-440q0 -24 6.5 -34t26.5 -13l46 -4v-22l-177 -8l-12 89
h-2q-19 -34 -42.5 -55t-53 -30.5t-65.5 -9.5zM219 805l-10 15l129 131q14 13 23.5 18.5t19.5 5.5q21 0 33 -16t12 -35t-10 -33t-34 -23zM405 621q-30 0 -48.5 18t-18.5 46q0 29 18.5 47t48.5 18q31 0 49.5 -17.5t18.5 -45.5q0 -29 -19 -47.5t-49 -18.5zM198 621
q-30 0 -49 18t-19 46q0 29 19 47t48 18q32 0 50.5 -17.5t18.5 -45.5q0 -29 -19 -47.5t-49 -18.5z" />
    <glyph glyph-name="uni01D9" unicode="&#x1d9;" horiz-adv-x="763" vert-adv-y="1485" 
d="M392 -14q-66 0 -116 16t-83 49t-49 82t-16 115v402q0 25 -6.5 35.5t-27.5 12.5l-51 4v21h289v-21l-54 -4q-17 -2 -23.5 -12.5t-6.5 -38.5v-395q0 -72 17.5 -121.5t56 -74.5t101.5 -25q62 0 103.5 26.5t63 77t21.5 120.5v395q0 27 -6.5 36.5t-27.5 11.5l-46 4v21h190v-21
l-44 -4q-19 -2 -25 -12.5t-6 -38.5v-389q0 -92 -31.5 -152.5t-88.5 -90t-134 -29.5zM409 962q-14 0 -24 6.5t-24 23.5l-108 134l13 15l143 -82l146 82l12 -15l-115 -139q-9 -12 -19 -18.5t-24 -6.5zM514 792q-29 0 -48 18t-19 47t19 47t48 18q32 0 50.5 -17.5t18.5 -46.5
t-19 -47.5t-50 -18.5zM306 792q-29 0 -48 18t-19 47t19 47t48 18q31 0 49.5 -17.5t18.5 -46.5t-19 -47.5t-49 -18.5z" />
    <glyph glyph-name="uni01DA" unicode="&#x1da;" horiz-adv-x="635" vert-adv-y="1485" 
d="M256 -14q-78 0 -119 44t-41 130v264q0 34 -6 46t-27 14l-37 4l3 20l173 11l8 -6v-350q0 -46 8.5 -74t27.5 -40.5t51 -12.5q36 0 62.5 15.5t41 44.5t14.5 69v259q0 33 -5.5 45.5t-27.5 14.5l-36 4l3 20l172 11l8 -6v-440q0 -24 6.5 -34t26.5 -13l46 -4v-22l-177 -8l-12 89
h-2q-19 -34 -42.5 -55t-53 -30.5t-65.5 -9.5zM302 809q-14 0 -24 6.5t-24 23.5l-108 134l13 15l143 -82l146 82l12 -15l-115 -139q-9 -12 -19 -18.5t-24 -6.5zM405 621q-30 0 -48.5 18t-18.5 46q0 29 18.5 47t48.5 18q31 0 49.5 -17.5t18.5 -45.5q0 -29 -19 -47.5t-49 -18.5
zM198 621q-30 0 -49 18t-19 46q0 29 19 47t48 18q32 0 50.5 -17.5t18.5 -45.5q0 -29 -19 -47.5t-49 -18.5z" />
    <glyph glyph-name="uni01DB" unicode="&#x1db;" horiz-adv-x="763" vert-adv-y="1485" 
d="M392 -14q-66 0 -116 16t-83 49t-49 82t-16 115v402q0 25 -6.5 35.5t-27.5 12.5l-51 4v21h289v-21l-54 -4q-17 -2 -23.5 -12.5t-6.5 -38.5v-395q0 -72 17.5 -121.5t56 -74.5t101.5 -25q62 0 103.5 26.5t63 77t21.5 120.5v395q0 27 -6.5 36.5t-27.5 11.5l-46 4v21h190v-21
l-44 -4q-19 -2 -25 -12.5t-6 -38.5v-389q0 -92 -31.5 -152.5t-88.5 -90t-134 -29.5zM480 961l-163 63q-23 9 -33.5 23t-10.5 33t12 35t34 16q10 0 19.5 -5.5t22.5 -18.5l130 -131zM514 792q-29 0 -48 18t-19 47t19 47t48 18q32 0 50.5 -17.5t18.5 -46.5t-19 -47.5t-50 -18.5
zM306 792q-29 0 -48 18t-19 47t19 47t48 18q31 0 49.5 -17.5t18.5 -46.5t-19 -47.5t-49 -18.5z" />
    <glyph glyph-name="uni01DC" unicode="&#x1dc;" horiz-adv-x="635" vert-adv-y="1485" 
d="M256 -14q-78 0 -119 44t-41 130v264q0 34 -6 46t-27 14l-37 4l3 20l173 11l8 -6v-350q0 -46 8.5 -74t27.5 -40.5t51 -12.5q36 0 62.5 15.5t41 44.5t14.5 69v259q0 33 -5.5 45.5t-27.5 14.5l-36 4l3 20l172 11l8 -6v-440q0 -24 6.5 -34t26.5 -13l46 -4v-22l-177 -8l-12 89
h-2q-19 -34 -42.5 -55t-53 -30.5t-65.5 -9.5zM377 806l-163 63q-23 9 -33.5 23t-10.5 33t12 35t34 16q10 0 19.5 -5.5t22.5 -18.5l130 -131zM405 621q-30 0 -48.5 18t-18.5 46q0 29 18.5 47t48.5 18q31 0 49.5 -17.5t18.5 -45.5q0 -29 -19 -47.5t-49 -18.5zM198 621
q-30 0 -49 18t-19 46q0 29 19 47t48 18q32 0 50.5 -17.5t18.5 -45.5q0 -29 -19 -47.5t-49 -18.5z" />
    <glyph glyph-name="Gcaron" unicode="&#x1e6;" horiz-adv-x="750" vert-adv-y="1485" 
d="M365 -14q-95 0 -166 43.5t-110.5 126t-39.5 199.5q0 82 24.5 151.5t69.5 121.5t106 80.5t133 28.5q64 0 109 -23.5t75 -53.5l11 79h23l44 -236l-26 -5q-24 63 -58 110.5t-77.5 74.5t-98.5 27q-48 0 -86.5 -23.5t-65 -68.5t-40.5 -109.5t-14 -147.5q0 -77 15.5 -139
t43 -106.5t66 -68.5t83.5 -24q31 0 58.5 6.5t50.5 19t39 32.5v183q0 26 -6.5 36t-26.5 12l-56 4v22h281v-22l-49 -4q-18 -2 -24 -12.5t-6 -38.5v-265h-22l-75 61q-22 -22 -49 -38t-60 -24.5t-76 -8.5zM370 773q-14 0 -24 6.5t-24 23.5l-108 134l13 15l143 -82l146 82l12 -15
l-115 -139q-9 -12 -19 -18.5t-24 -6.5z" />
    <glyph glyph-name="gcaron" unicode="&#x1e7;" horiz-adv-x="575" vert-adv-y="1485" 
d="M264 -230q-62 0 -107 8t-73.5 23.5t-42.5 38t-14 52.5q0 26 11.5 47.5t35.5 36.5t60 23v4q-39 9 -58.5 32t-19.5 52t15 53.5t54 63.5v3q-36 18 -55.5 52t-19.5 86q0 57 27 97.5t76.5 62.5t114.5 22q26 0 50.5 -4.5t48.5 -12.5t43 -21q16 50 38.5 79.5t59.5 29.5
q20 0 36 -7.5t25 -20.5t9 -31q0 -23 -17 -41.5t-43 -18.5q-15 0 -25 8t-18 22l-17 28q-9 -14 -15 -28.5t-12 -33.5q21 -23 36 -56t15 -69q0 -53 -26 -93.5t-73.5 -62.5t-112.5 -22q-37 0 -66 6t-51 15q-17 -20 -24.5 -32t-7.5 -26q0 -16 8.5 -26.5t26.5 -15.5t46 -5h147
q98 0 146.5 -31t48.5 -99q0 -32 -10.5 -60.5t-32.5 -52t-55 -40.5t-78.5 -26t-103.5 -9zM272 -200q49 0 86.5 15t58 41t20.5 59q0 41 -25.5 59t-74.5 18h-171q-20 -15 -30.5 -37.5t-10.5 -45.5q0 -56 36 -82.5t111 -26.5zM267 201q49 0 74.5 38t25.5 108q0 74 -28 113
t-78 39q-49 0 -72.5 -37.5t-23.5 -110.5q0 -70 27.5 -110t74.5 -40zM266 584q-8 0 -15.5 2.5t-14.5 10t-16 19.5l-107 153l13 13l140 -98l144 98l13 -12l-112 -159q-10 -15 -21 -21t-24 -6z" />
    <glyph glyph-name="uni01EA" unicode="&#x1ea;" horiz-adv-x="759" vert-adv-y="1485" 
d="M405 -233q-31 0 -50.5 11t-29 29t-9.5 38q0 29 16 55t43 49t59 42q-13 -3 -27.5 -4t-28.5 -1q-101 0 -175 44.5t-114 126t-40 191.5q0 123 41 210t117 133t181 46q98 0 170 -43t112 -123t40 -191q0 -96 -26 -172.5t-75.5 -128.5t-119.5 -76q-27 -21 -45 -41t-26.5 -41
t-8.5 -44q0 -28 12 -40.5t30 -12.5q13 0 27 5.5t26 15.5l10 -13q-15 -25 -34 -39t-38.5 -20t-36.5 -6zM392 16q48 0 83.5 19t58.5 59.5t34 105.5t11 158q0 91 -13.5 157.5t-39.5 109.5t-64.5 63.5t-88.5 20.5q-48 0 -84.5 -19t-61.5 -59.5t-37.5 -104.5t-12.5 -155
q0 -90 14.5 -157t42.5 -111t67.5 -65.5t90.5 -21.5z" />
    <glyph glyph-name="uni01EB" unicode="&#x1eb;" horiz-adv-x="595" vert-adv-y="1485" 
d="M309 -233q-30 0 -50 11t-29.5 29t-9.5 38q0 29 15.5 55t42 48.5t59.5 41.5q-12 -2 -23.5 -3t-24.5 -1q-74 1 -129 32.5t-85.5 89t-30.5 137.5q0 89 32.5 152t92 96.5t139.5 33.5q73 0 127.5 -30.5t85 -88t30.5 -138.5q0 -100 -42 -169.5t-116 -97.5q-41 -31 -60.5 -61
t-19.5 -65q0 -28 12 -40.5t31 -12.5q12 0 26 5.5t27 15.5l9 -13q-14 -25 -33 -39t-38.5 -20t-37.5 -6zM309 16q39 0 65.5 23t40 73.5t13.5 133.5q0 67 -9.5 115t-27.5 78t-43 44.5t-57 14.5q-40 0 -68 -22t-42 -71t-14 -130q0 -91 17.5 -148.5t49.5 -84t75 -26.5z" />
    <glyph glyph-name="Aringacute" unicode="&#x1fa;" horiz-adv-x="694" vert-adv-y="1485" 
d="M2 0v22l38 7q18 4 28 14t21 41l210 626q-33 10 -49 35.5t-16 61.5q0 30 13.5 53.5t40.5 37t66 13.5q58 0 86.5 -27.5t28.5 -75.5q0 -35 -17.5 -61t-51.5 -37l210 -628q9 -26 17 -36.5t29 -15.5l36 -7v-23h-281v22l51 6q19 3 23.5 14t-3.5 36l-49 165h-254l-52 -160
q-7 -23 -2.5 -37.5t27.5 -17.5l56 -7v-21h-206zM190 271h233l-114 362h-2zM352 724q18 0 27.5 8.5t14 27t4.5 47.5t-5 47t-15.5 26.5t-27.5 8.5t-27 -9t-15 -27t-5 -46q0 -29 5 -47.5t15.5 -27t28.5 -8.5zM265 936l-10 15l129 131q13 14 23 19t19 5q22 0 34 -16t12 -35
q0 -18 -10.5 -32.5t-33.5 -22.5z" />
    <glyph glyph-name="aringacute" unicode="&#x1fb;" horiz-adv-x="543" vert-adv-y="1485" 
d="M191 -14q-66 0 -103.5 36t-37.5 99q0 52 26.5 85t89 50.5t168.5 21.5v112q0 40 -10.5 65t-31.5 36.5t-56 11.5q-31 0 -61.5 -10t-46.5 -26q18 -21 28 -36t14 -25.5t4 -18.5q0 -19 -16 -33t-44 -14q-30 0 -45.5 15t-15.5 41q0 33 26.5 63t72 49t100.5 19q65 0 108.5 -19.5
t65.5 -60t22 -105.5v-256q0 -26 11 -37.5t31 -11.5q11 0 23 3t24 9l7 -15q-23 -26 -50 -37t-53 -11q-47 0 -71 24.5t-29 70.5q-17 -34 -38 -55t-48.5 -30.5t-63.5 -9.5zM242 37q27 0 48 13t32.5 36.5t11.5 53.5v115q-61 -1 -98 -12.5t-53.5 -37.5t-16.5 -71q0 -47 19.5 -72
t56.5 -25zM250 581q-59 0 -88 29t-29 77q0 30 14 53.5t40.5 37t66.5 13.5q57 0 86 -27.5t29 -75.5q0 -32 -14 -56t-41 -37.5t-64 -13.5zM252 604q17 0 27 8.5t14.5 27t4.5 47.5t-5 47t-15.5 26.5t-27.5 8.5t-27 -9t-15 -27t-5 -46q0 -29 5 -47t15.5 -27t28.5 -9zM176 827
l-10 15l129 131q14 13 23.5 18.5t19.5 5.5q21 0 33 -16t12 -35t-10 -33t-34 -23z" />
    <glyph glyph-name="AEacute" unicode="&#x1fc;" horiz-adv-x="954" vert-adv-y="1485" 
d="M2 0v22l31 4q24 3 41 14.5t29.5 30t23.5 41.5l291 581l-83 10v20h526l30 -168l-26 -6q-16 45 -31 73.5t-33.5 45t-44.5 23t-64 6.5h-98v-329h91q24 0 39 3.5t24 12.5t15.5 27.5t14.5 47.5l24 3v-212l-24 -3q-8 39 -17 59t-26 27.5t-50 7.5h-91v-314h126q36 0 60 6.5
t41.5 23.5t31.5 47t28 77h26l-18 -181h-501v22l58 4q19 3 25 13.5t6 39.5v252h-204l-119 -248q-7 -14 -8 -23.5t4 -16t14.5 -10t24.5 -5.5l48 -7v-21h-235zM285 359h192v336h-25zM560 770l-10 15l129 131q14 13 23.5 18.5t19.5 5.5q21 0 33 -16t12 -35t-10 -33t-34 -23z" />
    <glyph glyph-name="aeacute" unicode="&#x1fd;" horiz-adv-x="805" vert-adv-y="1485" 
d="M192 -14q-43 0 -75 15.5t-49.5 46.5t-17.5 75q0 69 41.5 105t134.5 49q24 4 51 6t57 3v104q0 41 -10.5 65.5t-32 36t-55.5 11.5q-31 0 -61.5 -10.5t-46.5 -25.5q18 -21 28 -36.5t14 -25.5t4 -18q0 -19 -16 -33t-44 -14q-31 0 -46 15.5t-15 40.5q0 33 26.5 63.5t72 49
t100.5 18.5t94 -15.5t62 -48.5q32 31 75 47.5t93 16.5q57 0 99 -22t66 -63t24 -97q0 -17 -1 -38.5t-4 -37.5h-311q-1 -68 17 -113t52 -67.5t80 -22.5q44 0 81 14t74 49l16 -15q-36 -63 -88.5 -95.5t-120.5 -32.5q-72 0 -125 33t-80 94q-8 -44 -30 -72.5t-55 -41.5t-78 -13z
M242 34q25 0 46 12.5t33.5 36t12.5 55.5v124q-25 0 -45.5 -2t-37.5 -6q-47 -11 -66 -37.5t-19 -74.5q0 -54 20 -81t56 -27zM450 296h200q1 11 1.5 28.5t0.5 31.5q0 80 -20.5 113t-65.5 33q-35 0 -59.5 -23t-38.5 -68.5t-18 -114.5zM364 582l-13 13l94 156q10 18 20.5 24.5
t21.5 6.5q16 0 26.5 -7.5t16 -19t5.5 -24.5q0 -16 -10.5 -29t-26.5 -25z" />
    <glyph glyph-name="Oslashacute" unicode="&#x1fe;" horiz-adv-x="759" vert-adv-y="1485" 
d="M69 -14l73 94q-45 47 -69 115t-24 153q0 123 41 210t117 133t181 46q61 0 113 -17.5t93 -50.5l52 68h44l-71 -91q43 -47 67 -114t24 -152q0 -89 -23 -162t-66 -124.5t-105 -79.5t-138 -28q-64 0 -117 18t-94 53l-54 -71h-44zM392 16q48 0 83.5 19t58.5 59.5t34 105.5
t11 158q0 61 -7 111.5t-20 89.5l-328 -429q19 -39 43.5 -64.5t56 -37.5t68.5 -12zM209 166l327 428q-16 41 -40.5 66t-55 37t-67.5 12q-48 0 -84.5 -19t-61.5 -59.5t-37.5 -104.5t-12.5 -155q0 -63 8 -114t24 -91zM308 770l-10 15l129 131q14 13 23.5 18.5t19.5 5.5
q21 0 33 -16t12 -35t-10 -33t-34 -23z" />
    <glyph glyph-name="oslashacute" unicode="&#x1ff;" horiz-adv-x="595" vert-adv-y="1485" 
d="M50 -14l62 72q-33 33 -50.5 80.5t-17.5 106.5q0 89 32.5 152t92 96.5t139.5 33.5q47 0 87 -13t70 -39l44 53h40l-61 -73q30 -32 46.5 -79t16.5 -106q0 -87 -31.5 -151t-90 -98.5t-136.5 -34.5q-48 0 -88 13t-71 37l-43 -50h-41zM309 16q39 0 65.5 23t40 73.5t13.5 133.5
q0 36 -3.5 67t-10.5 56l-220 -262q13 -32 30 -52.5t38.5 -29.5t46.5 -9zM183 141l220 262q-11 34 -28 55t-38 30.5t-46 9.5q-40 0 -68 -22t-42 -71t-14 -130q0 -41 4 -74t12 -60zM238 582l-13 13l94 156q10 18 20.5 24.5t21.5 6.5q16 0 26.5 -7.5t16 -19t5.5 -24.5
q0 -16 -10.5 -29t-26.5 -25z" />
    <glyph glyph-name="uni0200" unicode="&#x200;" horiz-adv-x="694" vert-adv-y="1485" 
d="M2 0v22l38 7q18 4 28 14t21 41l214 639h92l215 -641q9 -26 17 -36.5t29 -15.5l36 -7v-23h-281v22l51 6q19 3 23.5 14t-3.5 36l-49 165h-254l-52 -160q-7 -23 -2.5 -37.5t27.5 -17.5l56 -7v-21h-206zM190 271h233l-114 362h-2zM464 770l-146 70q-22 11 -32.5 24.5
t-10.5 31.5t11.5 33t32.5 15q10 0 20.5 -5t22.5 -21l113 -133zM287 770l-159 64q-22 8 -33 22.5t-11 33.5t12 34t33 15q9 0 19 -5t24 -19l126 -130z" />
    <glyph glyph-name="uni0201" unicode="&#x201;" horiz-adv-x="544" vert-adv-y="1485" 
d="M191 -14q-66 0 -103.5 36t-37.5 99q0 52 26.5 85t89 50.5t168.5 21.5v112q0 40 -10.5 65t-31.5 36.5t-56 11.5q-31 0 -61.5 -10t-46.5 -26q18 -21 28 -36t14 -25.5t4 -18.5q0 -19 -16 -33t-44 -14q-30 0 -45.5 15t-15.5 41q0 33 26.5 63t72 49t100.5 19q65 0 108.5 -19.5
t65.5 -60t22 -105.5v-256q0 -26 11 -37.5t31 -11.5q11 0 23 3t24 9l7 -15q-23 -26 -50 -37t-53 -11q-47 0 -71 24.5t-29 70.5q-17 -34 -38 -55t-48.5 -30.5t-63.5 -9.5zM242 37q27 0 48 13t32.5 36.5t11.5 53.5v115q-61 -1 -98 -12.5t-53.5 -37.5t-16.5 -71q0 -47 19.5 -72
t56.5 -25zM192 583l-134 94q-15 11 -25 25.5t-10 30.5q0 11 5 22t15.5 18.5t25.5 7.5q11 0 21.5 -7.5t20.5 -23.5l94 -155zM347 583l-122 95q-19 16 -28 29t-9 27t5.5 25t16 17.5t25.5 6.5q12 0 22 -6.5t19 -24.5l84 -157z" />
    <glyph glyph-name="uni0202" unicode="&#x202;" horiz-adv-x="694" vert-adv-y="1485" 
d="M2 0v22l38 7q18 4 28 14t21 41l214 639h92l215 -641q9 -26 17 -36.5t29 -15.5l36 -7v-23h-281v22l51 6q19 3 23.5 14t-3.5 36l-49 165h-254l-52 -160q-7 -23 -2.5 -37.5t27.5 -17.5l56 -7v-21h-206zM190 271h233l-114 362h-2zM354 934q50 0 81.5 -20.5t48.5 -57.5t21 -88
l-20 -5q-17 46 -49.5 66.5t-85.5 20.5q-54 0 -86 -23t-46 -64l-21 4q5 48 23.5 85.5t52 59.5t81.5 22z" />
    <glyph glyph-name="uni0203" unicode="&#x203;" horiz-adv-x="544" vert-adv-y="1485" 
d="M191 -14q-66 0 -103.5 36t-37.5 99q0 52 26.5 85t89 50.5t168.5 21.5v112q0 40 -10.5 65t-31.5 36.5t-56 11.5q-31 0 -61.5 -10t-46.5 -26q18 -21 28 -36t14 -25.5t4 -18.5q0 -19 -16 -33t-44 -14q-30 0 -45.5 15t-15.5 41q0 33 26.5 63t72 49t100.5 19q65 0 108.5 -19.5
t65.5 -60t22 -105.5v-256q0 -26 11 -37.5t31 -11.5q11 0 23 3t24 9l7 -15q-23 -26 -50 -37t-53 -11q-47 0 -71 24.5t-29 70.5q-17 -34 -38 -55t-48.5 -30.5t-63.5 -9.5zM242 37q27 0 48 13t32.5 36.5t11.5 53.5v115q-61 -1 -98 -12.5t-53.5 -37.5t-16.5 -71q0 -47 19.5 -72
t56.5 -25zM255 765q49 0 79 -24.5t45 -65t20 -91.5l-21 -6q-11 34 -28.5 56.5t-41.5 33t-58 10.5q-52 0 -82 -26.5t-45 -72.5l-20 5q6 48 22 89.5t48 66.5t82 25z" />
    <glyph glyph-name="uni0204" unicode="&#x204;" horiz-adv-x="614" vert-adv-y="1485" 
d="M56 0v22l54 4q19 3 25 13t6 39v573q0 25 -6.5 35t-26.5 12l-52 4v21h466l29 -168l-24 -6q-16 45 -31.5 73.5t-34.5 45t-45 23t-64 6.5h-90v-313h86q31 0 47.5 6.5t25.5 26t19 58.5l23 3v-212l-23 -4q-8 39 -17 59t-26 27.5t-49 7.5h-86v-329h118q36 0 60.5 6.5t42 23.5
t32 47t28.5 77h25l-18 -181h-494zM429 770l-146 70q-22 11 -32.5 24.5t-10.5 31.5t11.5 33t32.5 15q10 0 20.5 -5t22.5 -21l113 -133zM252 770l-159 64q-22 8 -33 22.5t-11 33.5t12 34t33 15q9 0 19 -5t24 -19l126 -130z" />
    <glyph glyph-name="uni0205" unicode="&#x205;" horiz-adv-x="526" vert-adv-y="1485" 
d="M280 -14q-72 0 -125 30.5t-82 88.5t-29 141q0 90 32 152.5t88.5 95.5t130.5 33q59 0 101.5 -22t66 -63.5t23.5 -96.5q0 -17 -1 -33t-4 -32h-316q-2 -74 17 -121.5t54.5 -70t82.5 -22.5q42 0 79.5 13.5t76.5 49.5l15 -15q-37 -65 -90 -96.5t-120 -31.5zM165 306h206
q1 11 1.5 23.5t0.5 26.5q0 80 -21 113t-66 33q-35 0 -60.5 -19t-40.5 -62t-20 -115zM221 583l-134 94q-15 11 -25 25.5t-10 30.5q0 11 5 22t15.5 18.5t25.5 7.5q11 0 21.5 -7.5t20.5 -23.5l94 -155zM376 583l-122 95q-19 16 -28 29t-9 27t5.5 25t16 17.5t25.5 6.5
q12 0 22 -6.5t19 -24.5l84 -157z" />
    <glyph glyph-name="uni0206" unicode="&#x206;" horiz-adv-x="614" vert-adv-y="1485" 
d="M56 0v22l54 4q19 3 25 13t6 39v573q0 25 -6.5 35t-26.5 12l-52 4v21h466l29 -168l-24 -6q-16 45 -31.5 73.5t-34.5 45t-45 23t-64 6.5h-90v-313h86q31 0 47.5 6.5t25.5 26t19 58.5l23 3v-212l-23 -4q-8 39 -17 59t-26 27.5t-49 7.5h-86v-329h118q36 0 60.5 6.5t42 23.5
t32 47t28.5 77h25l-18 -181h-494zM319 934q50 0 81.5 -20.5t48.5 -57.5t21 -88l-20 -5q-17 46 -49.5 66.5t-85.5 20.5q-54 0 -86 -23t-46 -64l-21 4q5 48 23.5 85.5t52 59.5t81.5 22z" />
    <glyph glyph-name="uni0207" unicode="&#x207;" horiz-adv-x="526" vert-adv-y="1485" 
d="M280 -14q-72 0 -125 30.5t-82 88.5t-29 141q0 90 32 152.5t88.5 95.5t130.5 33q59 0 101.5 -22t66 -63.5t23.5 -96.5q0 -17 -1 -33t-4 -32h-316q-2 -74 17 -121.5t54.5 -70t82.5 -22.5q42 0 79.5 13.5t76.5 49.5l15 -15q-37 -65 -90 -96.5t-120 -31.5zM165 306h206
q1 11 1.5 23.5t0.5 26.5q0 80 -21 113t-66 33q-35 0 -60.5 -19t-40.5 -62t-20 -115zM285 765q49 0 79 -24.5t45 -65t20 -91.5l-21 -6q-11 34 -28.5 56.5t-41.5 33t-58 10.5q-52 0 -82 -26.5t-45 -72.5l-20 5q6 48 22 89.5t48 66.5t82 25z" />
    <glyph glyph-name="uni0208" unicode="&#x208;" horiz-adv-x="404" vert-adv-y="1485" 
d="M56 0v22l55 4q19 3 25 13.5t6 38.5v573q0 25 -6.5 35t-27.5 12l-52 4v21h292v-21l-55 -4q-17 -2 -24 -12.5t-7 -38.5v-573q0 -26 6.5 -35.5t26.5 -12.5l53 -4v-22h-292zM315 770l-146 70q-22 11 -32.5 24.5t-10.5 31.5t11.5 33t32.5 15q10 0 20.5 -5t22.5 -21l113 -133z
M138 770l-159 64q-22 8 -33 22.5t-11 33.5t12 34t33 15q9 0 19 -5t24 -19l126 -130z" />
    <glyph glyph-name="uni0209" unicode="&#x209;" horiz-adv-x="335" vert-adv-y="1485" 
d="M38 0v22l50 6q17 2 22 11.5t5 36.5v346q0 35 -6 47.5t-29 14.5l-46 4l3 21l184 9l8 -5v-440q0 -24 5.5 -33t21.5 -11l52 -8v-21h-270zM89 583l-134 94q-15 11 -25 25.5t-10 30.5q0 11 5 22t15.5 18.5t25.5 7.5q11 0 21.5 -7.5t20.5 -23.5l94 -155zM244 583l-122 95
q-19 16 -28 29t-9 27t5.5 25t16 17.5t25.5 6.5q12 0 22 -6.5t19 -24.5l84 -157z" />
    <glyph glyph-name="uni020A" unicode="&#x20a;" horiz-adv-x="404" vert-adv-y="1485" 
d="M56 0v22l55 4q19 3 25 13.5t6 38.5v573q0 25 -6.5 35t-27.5 12l-52 4v21h292v-21l-55 -4q-17 -2 -24 -12.5t-7 -38.5v-573q0 -26 6.5 -35.5t26.5 -12.5l53 -4v-22h-292zM205 934q50 0 81.5 -20.5t48.5 -57.5t21 -88l-20 -5q-17 46 -49.5 66.5t-85.5 20.5q-54 0 -86 -23
t-46 -64l-21 4q5 48 23.5 85.5t52 59.5t81.5 22z" />
    <glyph glyph-name="uni020B" unicode="&#x20b;" horiz-adv-x="335" vert-adv-y="1485" 
d="M38 0v22l50 6q17 2 22 11.5t5 36.5v346q0 35 -6 47.5t-29 14.5l-46 4l3 21l184 9l8 -5v-440q0 -24 5.5 -33t21.5 -11l52 -8v-21h-270zM153 765q49 0 79 -24.5t45 -65t20 -91.5l-21 -6q-11 34 -28.5 56.5t-41.5 33t-58 10.5q-52 0 -82 -26.5t-45 -72.5l-20 5q6 48 22 89.5
t48 66.5t82 25z" />
    <glyph glyph-name="uni020C" unicode="&#x20c;" horiz-adv-x="759" vert-adv-y="1485" 
d="M378 -14q-101 0 -175 44.5t-114 126t-40 191.5q0 123 41 210t117 133t181 46q98 0 170 -43t112 -123t40 -191q0 -89 -23 -162t-66 -124.5t-105 -79.5t-138 -28zM392 16q48 0 83.5 19t58.5 59.5t34 105.5t11 158q0 91 -13.5 157.5t-39.5 109.5t-64.5 63.5t-88.5 20.5
q-48 0 -84.5 -19t-61.5 -59.5t-37.5 -104.5t-12.5 -155q0 -90 14.5 -157t42.5 -111t67.5 -65.5t90.5 -21.5zM495 770l-146 70q-22 11 -32.5 24.5t-10.5 31.5t11.5 33t32.5 15q10 0 20.5 -5t22.5 -21l113 -133zM318 770l-159 64q-22 8 -33 22.5t-11 33.5t12 34t33 15
q9 0 19 -5t24 -19l126 -130z" />
    <glyph glyph-name="uni020D" unicode="&#x20d;" horiz-adv-x="595" vert-adv-y="1485" 
d="M293 -14q-76 0 -131.5 31t-86.5 89.5t-31 138.5q0 89 32.5 152t92 96.5t139.5 33.5q73 0 127.5 -30.5t85 -88t30.5 -138.5q0 -87 -31.5 -151t-90 -98.5t-136.5 -34.5zM309 16q39 0 65.5 23t40 73.5t13.5 133.5q0 67 -9.5 115t-27.5 78t-43 44.5t-57 14.5q-40 0 -68 -22
t-42 -71t-14 -130q0 -91 17.5 -148.5t49.5 -84t75 -26.5zM233 583l-134 94q-15 11 -25 25.5t-10 30.5q0 11 5 22t15.5 18.5t25.5 7.5q11 0 21.5 -7.5t20.5 -23.5l94 -155zM388 583l-122 95q-19 16 -28 29t-9 27t5.5 25t16 17.5t25.5 6.5q12 0 22 -6.5t19 -24.5l84 -157z" />
    <glyph glyph-name="uni020E" unicode="&#x20e;" horiz-adv-x="759" vert-adv-y="1485" 
d="M378 -14q-101 0 -175 44.5t-114 126t-40 191.5q0 123 41 210t117 133t181 46q98 0 170 -43t112 -123t40 -191q0 -89 -23 -162t-66 -124.5t-105 -79.5t-138 -28zM392 16q48 0 83.5 19t58.5 59.5t34 105.5t11 158q0 91 -13.5 157.5t-39.5 109.5t-64.5 63.5t-88.5 20.5
q-48 0 -84.5 -19t-61.5 -59.5t-37.5 -104.5t-12.5 -155q0 -90 14.5 -157t42.5 -111t67.5 -65.5t90.5 -21.5zM385 934q50 0 81.5 -20.5t48.5 -57.5t21 -88l-20 -5q-17 46 -49.5 66.5t-85.5 20.5q-54 0 -86 -23t-46 -64l-21 4q5 48 23.5 85.5t52 59.5t81.5 22z" />
    <glyph glyph-name="uni020F" unicode="&#x20f;" horiz-adv-x="595" vert-adv-y="1485" 
d="M293 -14q-76 0 -131.5 31t-86.5 89.5t-31 138.5q0 89 32.5 152t92 96.5t139.5 33.5q73 0 127.5 -30.5t85 -88t30.5 -138.5q0 -87 -31.5 -151t-90 -98.5t-136.5 -34.5zM309 16q39 0 65.5 23t40 73.5t13.5 133.5q0 67 -9.5 115t-27.5 78t-43 44.5t-57 14.5q-40 0 -68 -22
t-42 -71t-14 -130q0 -91 17.5 -148.5t49.5 -84t75 -26.5zM297 765q49 0 79 -24.5t45 -65t20 -91.5l-21 -6q-11 34 -28.5 56.5t-41.5 33t-58 10.5q-52 0 -82 -26.5t-45 -72.5l-20 5q6 48 22 89.5t48 66.5t82 25z" />
    <glyph glyph-name="uni0210" unicode="&#x210;" horiz-adv-x="707" vert-adv-y="1485" 
d="M604 -14q-38 0 -66 12t-49.5 41t-41.5 80l-45 118q-16 42 -28.5 66.5t-28.5 35t-43 10.5h-22t-18 -2v-271q0 -26 7 -37.5t30 -12.5l64 -4v-22h-307v22l54 4q19 3 25 13t6 39v573q0 25 -6.5 35t-26.5 12l-52 4v21h265q66 0 117.5 -10t86.5 -31.5t53.5 -55t18.5 -80.5
q0 -30 -10 -56.5t-28 -48.5t-44 -38.5t-59 -28t-70 -16.5v-3q55 -10 89.5 -38.5t51.5 -70.5l38 -94q14 -33 26.5 -59t28.5 -41.5t41 -15.5q14 0 26.5 3t23.5 9l7 -15q-22 -23 -51 -35t-63 -12zM312 375q51 0 85.5 19t52.5 55.5t18 86.5q0 56 -16.5 91t-50.5 52.5t-88 17.5
h-51v-321q17 -1 29 -1h21zM440 770l-146 70q-22 11 -32.5 24.5t-10.5 31.5t11.5 33t32.5 15q10 0 20.5 -5t22.5 -21l113 -133zM263 770l-159 64q-22 8 -33 22.5t-11 33.5t12 34t33 15q9 0 19 -5t24 -19l126 -130z" />
    <glyph glyph-name="uni0211" unicode="&#x211;" horiz-adv-x="489" vert-adv-y="1485" 
d="M42 0v22l46 6q16 2 20.5 11.5t4.5 35.5v348q0 34 -6 46.5t-28 14.5l-46 4l2 21l178 10l7 -6l2 -99h2q22 55 61.5 84t84.5 29q49 0 77.5 -26t28.5 -67q0 -23 -7.5 -40.5t-23 -27.5t-40.5 -10q-32 0 -47.5 14t-15.5 33q0 10 4 21t12 24.5t21 32.5q-25 8 -52 1t-49 -27
t-36.5 -50.5t-14.5 -68.5v-262q0 -24 4.5 -33t21.5 -11l80 -9v-21h-291zM207 583l-134 94q-15 11 -25 25.5t-10 30.5q0 11 5 22t15.5 18.5t25.5 7.5q11 0 21.5 -7.5t20.5 -23.5l94 -155zM362 583l-122 95q-19 16 -28 29t-9 27t5.5 25t16 17.5t25.5 6.5q12 0 22 -6.5
t19 -24.5l84 -157z" />
    <glyph glyph-name="uni0212" unicode="&#x212;" horiz-adv-x="707" vert-adv-y="1485" 
d="M604 -14q-38 0 -66 12t-49.5 41t-41.5 80l-45 118q-16 42 -28.5 66.5t-28.5 35t-43 10.5h-22t-18 -2v-271q0 -26 7 -37.5t30 -12.5l64 -4v-22h-307v22l54 4q19 3 25 13t6 39v573q0 25 -6.5 35t-26.5 12l-52 4v21h265q66 0 117.5 -10t86.5 -31.5t53.5 -55t18.5 -80.5
q0 -30 -10 -56.5t-28 -48.5t-44 -38.5t-59 -28t-70 -16.5v-3q55 -10 89.5 -38.5t51.5 -70.5l38 -94q14 -33 26.5 -59t28.5 -41.5t41 -15.5q14 0 26.5 3t23.5 9l7 -15q-22 -23 -51 -35t-63 -12zM312 375q51 0 85.5 19t52.5 55.5t18 86.5q0 56 -16.5 91t-50.5 52.5t-88 17.5
h-51v-321q17 -1 29 -1h21zM330 934q50 0 81.5 -20.5t48.5 -57.5t21 -88l-20 -5q-17 46 -49.5 66.5t-85.5 20.5q-54 0 -86 -23t-46 -64l-21 4q5 48 23.5 85.5t52 59.5t81.5 22z" />
    <glyph glyph-name="uni0213" unicode="&#x213;" horiz-adv-x="489" vert-adv-y="1485" 
d="M42 0v22l46 6q16 2 20.5 11.5t4.5 35.5v348q0 34 -6 46.5t-28 14.5l-46 4l2 21l178 10l7 -6l2 -99h2q22 55 61.5 84t84.5 29q49 0 77.5 -26t28.5 -67q0 -23 -7.5 -40.5t-23 -27.5t-40.5 -10q-32 0 -47.5 14t-15.5 33q0 10 4 21t12 24.5t21 32.5q-25 8 -52 1t-49 -27
t-36.5 -50.5t-14.5 -68.5v-262q0 -24 4.5 -33t21.5 -11l80 -9v-21h-291zM270 765q49 0 79 -24.5t45 -65t20 -91.5l-21 -6q-11 34 -28.5 56.5t-41.5 33t-58 10.5q-52 0 -82 -26.5t-45 -72.5l-20 5q6 48 22 89.5t48 66.5t82 25z" />
    <glyph glyph-name="uni0214" unicode="&#x214;" horiz-adv-x="768" vert-adv-y="1485" 
d="M392 -14q-66 0 -116 16t-83 49t-49 82t-16 115v402q0 25 -6.5 35.5t-27.5 12.5l-51 4v21h289v-21l-54 -4q-17 -2 -23.5 -12.5t-6.5 -38.5v-395q0 -72 17.5 -121.5t56 -74.5t101.5 -25q62 0 103.5 26.5t63 77t21.5 120.5v395q0 27 -6.5 36.5t-27.5 11.5l-46 4v21h190v-21
l-44 -4q-19 -2 -25 -12.5t-6 -38.5v-389q0 -92 -31.5 -152.5t-88.5 -90t-134 -29.5zM524 770l-146 70q-22 11 -32.5 24.5t-10.5 31.5t11.5 33t32.5 15q10 0 20.5 -5t22.5 -21l113 -133zM347 770l-159 64q-22 8 -33 22.5t-11 33.5t12 34t33 15q9 0 19 -5t24 -19l126 -130z
" />
    <glyph glyph-name="uni0215" unicode="&#x215;" horiz-adv-x="635" vert-adv-y="1485" 
d="M256 -14q-78 0 -119 44t-41 130v264q0 34 -6 46t-27 14l-37 4l3 20l173 11l8 -6v-350q0 -46 8.5 -74t27.5 -40.5t51 -12.5q36 0 62.5 15.5t41 44.5t14.5 69v259q0 33 -5.5 45.5t-27.5 14.5l-36 4l3 20l172 11l8 -6v-440q0 -24 6.5 -34t26.5 -13l46 -4v-22l-177 -8l-12 89
h-2q-19 -34 -42.5 -55t-53 -30.5t-65.5 -9.5zM239 583l-134 94q-15 11 -25 25.5t-10 30.5q0 11 5 22t15.5 18.5t25.5 7.5q11 0 21.5 -7.5t20.5 -23.5l94 -155zM394 583l-122 95q-19 16 -28 29t-9 27t5.5 25t16 17.5t25.5 6.5q12 0 22 -6.5t19 -24.5l84 -157z" />
    <glyph glyph-name="uni0216" unicode="&#x216;" horiz-adv-x="768" vert-adv-y="1485" 
d="M392 -14q-66 0 -116 16t-83 49t-49 82t-16 115v402q0 25 -6.5 35.5t-27.5 12.5l-51 4v21h289v-21l-54 -4q-17 -2 -23.5 -12.5t-6.5 -38.5v-395q0 -72 17.5 -121.5t56 -74.5t101.5 -25q62 0 103.5 26.5t63 77t21.5 120.5v395q0 27 -6.5 36.5t-27.5 11.5l-46 4v21h190v-21
l-44 -4q-19 -2 -25 -12.5t-6 -38.5v-389q0 -92 -31.5 -152.5t-88.5 -90t-134 -29.5zM414 934q50 0 81.5 -20.5t48.5 -57.5t21 -88l-20 -5q-17 46 -49.5 66.5t-85.5 20.5q-54 0 -86 -23t-46 -64l-21 4q5 48 23.5 85.5t52 59.5t81.5 22z" />
    <glyph glyph-name="uni0217" unicode="&#x217;" horiz-adv-x="635" vert-adv-y="1485" 
d="M256 -14q-78 0 -119 44t-41 130v264q0 34 -6 46t-27 14l-37 4l3 20l173 11l8 -6v-350q0 -46 8.5 -74t27.5 -40.5t51 -12.5q36 0 62.5 15.5t41 44.5t14.5 69v259q0 33 -5.5 45.5t-27.5 14.5l-36 4l3 20l172 11l8 -6v-440q0 -24 6.5 -34t26.5 -13l46 -4v-22l-177 -8l-12 89
h-2q-19 -34 -42.5 -55t-53 -30.5t-65.5 -9.5zM302 765q49 0 79 -24.5t45 -65t20 -91.5l-21 -6q-11 34 -28.5 56.5t-41.5 33t-58 10.5q-52 0 -82 -26.5t-45 -72.5l-20 5q6 48 22 89.5t48 66.5t82 25z" />
    <glyph glyph-name="uni0218" unicode="&#x218;" horiz-adv-x="596" vert-adv-y="1485" 
d="M301 -14q-55 0 -104 18.5t-88 48.5l-15 -61h-23l-19 228l25 4q13 -51 35 -90t51 -65.5t63 -40t69 -13.5q46 0 77.5 16.5t48.5 46.5t17 68q0 47 -18 78.5t-54.5 54.5t-93.5 40q-52 17 -90.5 37.5t-64 46.5t-38.5 59t-13 74q0 36 11.5 67t32 55.5t49 42.5t63.5 27t74 9
q49 0 90.5 -17t70.5 -41l13 58h22l25 -221l-25 -4q-17 67 -44.5 111t-64 66t-82.5 22q-62 0 -96 -35.5t-34 -89.5q0 -42 17.5 -69.5t52.5 -47.5t89 -39q53 -18 93 -39t67 -47t40.5 -58.5t13.5 -74.5q0 -49 -19.5 -90t-53 -71.5t-77.5 -47t-93 -16.5zM260 -279l-13 16
q27 20 40.5 36t18.5 31.5t5 31.5h-12q-36 0 -50 14t-14 36q0 17 7.5 30t22 20t33.5 7q23 0 38 -10.5t22.5 -26.5t7.5 -37q0 -23 -8 -48t-31 -50.5t-67 -49.5z" />
    <glyph glyph-name="uni0219" unicode="&#x219;" horiz-adv-x="459" vert-adv-y="1485" 
d="M62 -15l-14 183l25 2q16 -57 39 -90.5t53.5 -48.5t67.5 -15q50 0 78.5 26.5t28.5 72.5q0 31 -15.5 48.5t-43.5 28.5t-67 22q-31 9 -60 20.5t-51 28.5t-35 43.5t-13 65.5q0 45 21 80t60.5 55t94.5 20q42 0 72.5 -11.5t51.5 -27.5l13 39h19l12 -162l-26 2
q-19 64 -52.5 98.5t-87.5 34.5q-45 0 -71 -21.5t-26 -61.5q0 -31 16 -49t44 -28.5t63 -21.5q34 -10 63.5 -22.5t52.5 -30t35.5 -44.5t12.5 -66q0 -52 -24 -90t-66.5 -58.5t-99.5 -20.5q-39 0 -74 10.5t-64 32.5l-12 -44h-21zM195 -279l-13 16q27 20 40.5 36t18.5 31.5
t5 31.5h-12q-36 0 -50 14t-14 36q0 17 7.5 30t22 20t33.5 7q23 0 38 -10.5t22.5 -26.5t7.5 -37q0 -23 -8 -48t-31 -50.5t-67 -49.5z" />
    <glyph glyph-name="uni021A" unicode="&#x21a;" horiz-adv-x="687" vert-adv-y="1485" 
d="M181 0v22l69 5q19 1 26.5 13t7.5 38v619h-58q-34 0 -59 -9.5t-45 -30.5t-36 -55.5t-33 -86.5l-26 6l30 202h575l27 -202l-26 -6q-16 52 -32.5 86.5t-35.5 55.5t-44 30.5t-59 9.5h-58v-623q0 -25 7.5 -35t28.5 -12l67 -5v-22h-326zM304 -279l-13 16q27 20 40.5 36
t18.5 31.5t5 31.5h-12q-36 0 -50 14t-14 36q0 17 7.5 30t22 20t33.5 7q23 0 38 -10.5t22.5 -26.5t7.5 -37q0 -23 -8 -48t-31 -50.5t-67 -49.5z" />
    </font>
</defs>
</svg>
