<?xml version="1.0" standalone="no"?>
<!DOCTYPE svg PUBLIC "-//W3C//DTD SVG 1.1//EN" "http://www.w3.org/Graphics/SVG/1.1/DTD/svg11.dtd" >
<svg xmlns="http://www.w3.org/2000/svg" xmlns:xlink="http://www.w3.org/1999/xlink" version="1.1">
<metadata>
Created by FontForge 20170731 at Fri May 19 15:31:12 2023
 By Aleksey,,,
Copyright 2017 The Literata Project Authors (https://github.com/googlefonts/literata)
</metadata>
<defs>
<font id="Literata60pt-ExtraLight" horiz-adv-x="606" vert-adv-y="1000" >
  <font-face 
    font-family="Literata 60pt ExtraLight"
    font-weight="250"
    font-stretch="normal"
    units-per-em="1000"
    panose-1="0 0 0 0 0 0 0 0 0 0"
    ascent="800"
    descent="-200"
    x-height="507"
    cap-height="723"
    bbox="-334 -264 1343 1125"
    underline-thickness="50"
    underline-position="-175"
    unicode-range="U+0020-FB02"
  />
<missing-glyph horiz-adv-x="500" vert-adv-y="1485" 
d="M50 700h400v-700h-400v700zM110 640v-580h280v580h-280z" />
    <glyph glyph-name="fi" unicode="fi" horiz-adv-x="575" vert-adv-y="1485" 
d="M42 0v15l50 5q17 2 22 10t5 35v421h-73v15l73 7v55q0 80 27 128t71 69.5t94 21.5q28 0 55 -5.5t49 -16.5t34.5 -26t12.5 -36q0 -19 -11 -32t-35 -13q-14 0 -22.5 7t-8.5 18q0 13 6 28.5t15 33.5q-18 10 -39 15.5t-55 5.5q-39 0 -71.5 -14.5t-52.5 -49t-20 -95.5v-94h287
l6 -5v-440q0 -24 5 -32.5t20 -10.5l52 -6v-14h-203v15l51 5q16 2 21 10.5t5 34.5v359q0 37 -7 49.5t-36 12.5h-201v-422q0 -25 5.5 -33.5t20.5 -10.5l84 -6v-14h-236z" />
    <glyph glyph-name="fl" unicode="fl" horiz-adv-x="589" vert-adv-y="1485" 
d="M42 0v15l50 5q17 2 22 10t5 35v421h-73v15l73 7v74q0 60 16 99t43 61t61 31t68 9q39 0 69 -12.5t51 -31.5l40 28l7 -5v-698q0 -24 5 -32.5t20 -10.5l52 -6v-14h-200v15l48 5q16 2 21 10.5t5 34.5v575q0 45 -15 71t-42 38t-62 12q-34 0 -65.5 -13.5t-52 -48.5t-20.5 -97
v-94h141v-22h-141v-422q0 -25 5.5 -34t20.5 -10l86 -6v-14h-238z" />
    <glyph glyph-name="T_h.liga" unicode="Th" horiz-adv-x="1084" vert-adv-y="1485" 
d="M176 0v15l76 7q18 2 26.5 10t8.5 36v634h-87q-37 0 -61 -5.5t-40.5 -24t-30 -55t-31.5 -97.5l-16 2l33 201h455q30 0 54.5 4t44 11t36.5 19l12 -5v-336h1q24 54 72.5 80t105.5 26q46 0 78.5 -19t49 -54.5t16.5 -87.5v-300q0 -22 6 -30.5t25 -10.5l46 -5v-15h-203v14l47 5
q19 2 24.5 11t5.5 32v293q0 46 -12.5 75.5t-39.5 44t-69 14.5q-44 0 -78.5 -19t-54.5 -53t-20 -79v-275q0 -24 5 -32.5t20 -10.5l54 -6v-14h-201v15l47 5q16 2 21 10.5t5 34.5v637h-271v-635q0 -26 6.5 -34.5t27.5 -10.5l73 -7v-15h-267z" />
    <glyph glyph-name="f_b.liga" unicode="fb" horiz-adv-x="881" vert-adv-y="1485" 
d="M430 -5l-5 2v643q0 45 -15 71t-41.5 38t-61.5 12q-34 0 -66 -14t-52.5 -49t-20.5 -98v-92h141v-22h-141v-422q0 -25 5.5 -34t20.5 -10l86 -6v-14h-238v15l50 5q17 2 22 10t5 35v421h-73v15l73 7v73q0 60 16 99.5t43 61.5t61 31t68 9q27 0 48.5 -6t39.5 -16t32 -22l40 28
l7 -6v-331h1q16 30 39 50.5t53.5 31.5t66.5 11q64 0 108 -29.5t67.5 -87.5t23.5 -144q0 -85 -28.5 -147t-79 -95t-119.5 -33q-24 0 -47.5 4t-46.5 12.5t-46 20.5zM612 8q50 0 88.5 24.5t60 79t21.5 143.5q0 81 -19 133.5t-54.5 78t-86.5 25.5q-44 0 -77.5 -17.5t-52 -50.5
t-18.5 -81v-293q31 -21 66 -31.5t72 -10.5z" />
    <glyph glyph-name="f_f" unicode="ff" horiz-adv-x="634" vert-adv-y="1485" 
d="M168 508h258v52q0 89 -25.5 132t-90.5 43q-35 0 -67.5 -11t-53.5 -41t-21 -87v-88zM42 0v15l50 5q17 2 22 10t5 35v421h-73v15l73 7v45q0 61 17 100.5t45 62t61.5 31.5t64.5 9q48 0 82.5 -15.5t56.5 -52.5q13 34 33.5 54t45.5 30t52 10q31 0 56 -8.5t40 -26t15 -44.5
q0 -17 -9.5 -29.5t-31.5 -12.5q-14 0 -22.5 8t-8.5 19q0 13 6.5 26.5t18.5 29.5q-11 8 -27 12.5t-36 4.5q-32 0 -55 -14.5t-35.5 -49t-12.5 -95.5v-94h148v-22h-148v-422q0 -25 5 -34t21 -10l86 -6v-14h-238v15l50 5q16 2 21.5 10t5.5 35v421h-258v-422q0 -25 5.5 -34
t20.5 -10l86 -6v-14h-238z" />
    <glyph glyph-name="f_f_b.liga" unicode="ffb" horiz-adv-x="1187" vert-adv-y="1485" 
d="M168 508h257v52q0 89 -25 132t-90 43q-35 0 -68 -11t-53.5 -41.5t-20.5 -88.5v-86zM918 8q50 0 88.5 24.5t60 79t21.5 143.5q0 81 -19 133.5t-54.5 78t-86.5 25.5q-44 0 -77.5 -17.5t-52 -50.5t-18.5 -81v-293q31 -21 66 -31.5t72 -10.5zM42 0v15l50 5q17 2 22 10t5 35
v421h-73v15l73 7v45q0 61 17 100.5t45 62t61.5 31.5t64.5 9q48 0 82 -16t57 -51q24 54 70.5 73.5t96.5 19.5q27 0 48.5 -6t39.5 -16t32 -22l40 28l7 -5v-332h1q16 30 39 50.5t53.5 31.5t66.5 11q64 0 108 -29.5t67.5 -87.5t23.5 -144q0 -85 -28.5 -147t-79 -95t-119.5 -33
q-24 0 -47.5 4t-46.5 12.5t-46 20.5l-36 -28l-5 2v643q0 45 -15 71t-41.5 38t-61.5 12q-34 0 -66 -14.5t-52.5 -49t-20.5 -95.5v-94h141v-22h-141v-422q0 -25 5.5 -34t20.5 -10l86 -6v-14h-238v15l50 5q17 2 22 10t5 35v421h-257v-422q0 -25 5.5 -34t20.5 -10l86 -6v-14
h-238z" />
    <glyph glyph-name="f_f_i" unicode="ffi" horiz-adv-x="881" vert-adv-y="1485" 
d="M42 0v15l50 5q17 2 22 10t5 35v421h-73v15l73 7v48q0 60 17 99t45 61t61.5 31t64.5 9q47 0 82.5 -16t57.5 -53q15 34 44 54.5t63 30.5t63 10q28 0 54.5 -5.5t48.5 -16.5t35 -26t13 -36q0 -19 -11.5 -32t-34.5 -13q-15 0 -23 7t-8 18q0 13 6 28.5t15 33.5
q-18 10 -39.5 15.5t-55.5 5.5t-67 -14t-54 -49t-21 -96v-94h286l6 -5v-440q0 -24 5 -32.5t20 -10.5l52 -6v-14h-204v15l52 5q16 2 21 10.5t5 34.5v359q0 37 -7.5 49.5t-36.5 12.5h-199v-422q0 -25 5 -33.5t21 -10.5l84 -6v-14h-236v15l50 5q16 2 21.5 10t5.5 35v421h-258
v-422q0 -25 5.5 -34t20.5 -10l86 -6v-14h-238zM168 508h258v52q0 89 -25.5 132t-90.5 43q-36 0 -68.5 -11t-53 -41t-20.5 -87v-88z" />
    <glyph glyph-name="f_f_k.liga" unicode="ffk" horiz-adv-x="1152" vert-adv-y="1485" 
d="M1065 -8q-16 0 -32 5t-34 20t-39 44l-157 219v8l181 162q16 14 18.5 24.5t-18.5 12.5l-41 5l1 16h164v-15l-32 -5q-19 -2 -34.5 -15.5t-32.5 -28.5l-159 -144l148 -212q22 -31 44 -48.5t44 -17.5q19 0 32.5 6.5t25.5 14.5l7 -11q-19 -17 -40.5 -28.5t-45.5 -11.5zM42 0
v15l50 5q17 2 22 10t5 35v421h-73v15l73 7v48q0 60 17 99t45 61t61.5 31t64.5 9q48 0 82.5 -16t56.5 -51q25 53 71 73t96 20q27 0 48.5 -6t39.5 -16t32 -22l40 28l7 -5v-698q0 -24 5 -32.5t20 -10.5l53 -6v-14h-203v15l50 5q16 2 21 10.5t5 34.5v575q0 45 -15 71t-41.5 38
t-61.5 12q-34 0 -66 -14.5t-52.5 -49t-20.5 -95.5v-94h141v-22h-141v-422q0 -25 5.5 -34t20.5 -10l86 -6v-14h-238v15l50 5q17 2 22 10t5 35v421h-257v-422q0 -25 5.5 -34t20.5 -10l86 -6v-14h-238zM168 508h257v52q0 89 -25 132t-91 43q-35 0 -67.5 -11t-53 -41t-20.5 -87
v-88z" />
    <glyph glyph-name="f_f_l" unicode="ffl" horiz-adv-x="895" vert-adv-y="1485" 
d="M42 0v15l50 5q17 2 22 10t5 35v421h-73v15l73 7v49q0 59 17 98t45 61t61.5 31t64.5 9q48 0 82 -16t57 -51q24 54 70.5 73.5t96.5 19.5q27 0 48.5 -6t39.5 -16t32 -22l40 28l7 -5v-698q0 -24 5 -32.5t20 -10.5l52 -6v-14h-200v15l48 5q16 2 21 10.5t5 34.5v575
q0 45 -15 71t-41.5 38t-61.5 12q-34 0 -66 -14.5t-52.5 -49t-20.5 -95.5v-94h141v-22h-141v-422q0 -25 5.5 -34t20.5 -10l86 -6v-14h-238v15l50 5q17 2 22 10t5 35v421h-257v-422q0 -25 5.5 -34t20.5 -10l86 -6v-14h-238zM168 508h257v52q0 89 -25 132t-92 43
q-33 0 -65.5 -11t-53.5 -41t-21 -87v-88z" />
    <glyph glyph-name="f_f_t.liga" unicode="fft" horiz-adv-x="945" vert-adv-y="1485" 
d="M42 0v15l50 5q17 2 22 10t5 35v421h-73v15l73 7v50q0 59 17 97.5t45 60.5t61.5 31t64.5 9q52 0 85.5 -17.5t54.5 -51.5q19 51 54.5 73t75.5 22q31 0 56 -8.5t40 -26t15 -44.5q0 -17 -9.5 -29.5t-31.5 -12.5q-14 0 -22.5 8t-8.5 19q0 13 6.5 26.5t18.5 29.5
q-11 8 -27 12.5t-36 4.5q-32 0 -55 -14.5t-35.5 -49t-12.5 -95.5v-94h154q29 0 50 11t34 39t19 80l18 3l4 -3v-130h154v-22h-154v-362q0 -60 19 -82t61 -22q24 0 49.5 11.5t48.5 35.5l11 -10q-28 -37 -59.5 -54t-68.5 -17q-39 0 -63.5 15t-35.5 47.5t-11 83.5v354h-230v-422
q0 -25 5 -34t21 -10l86 -6v-14h-238v15l50 5q16 2 21.5 10t5.5 35v421h-258v-422q0 -25 5.5 -34t20.5 -10l86 -6v-14h-238zM168 508h258v52q0 89 -25.5 132t-92.5 43q-34 0 -66.5 -11t-53 -41t-20.5 -87v-88z" />
    <glyph glyph-name="f_h.liga" unicode="fh" horiz-adv-x="902" vert-adv-y="1485" 
d="M42 0v15l50 5q17 2 22 10t5 35v421h-73v15l73 7v75q0 59 16 98t43 61t61 31t68 9q26 0 47.5 -6t40 -16t32.5 -22l40 28l7 -5v-345h1q24 54 72.5 80t104.5 26q47 0 79 -19t49 -54.5t17 -87.5v-300q0 -22 5.5 -30.5t24.5 -10.5l47 -5v-15h-204v14l47 5q20 2 25.5 11t5.5 32
v293q0 46 -12.5 75.5t-39.5 44t-69 14.5q-44 0 -78.5 -19t-54.5 -53t-20 -79v-275q0 -24 5 -32.5t20 -10.5l54 -6v-14h-202v15l48 5q16 2 21 10.5t5 34.5v577q0 43 -15 69t-42 38t-62 12q-34 0 -65.5 -14t-52 -48.5t-20.5 -95.5v-95h141v-22h-141v-422q0 -25 5.5 -34
t20.5 -10l86 -6v-14h-238z" />
    <glyph glyph-name="f_iacute.liga" unicode="f&#xed;" horiz-adv-x="575" vert-adv-y="1485" 
d="M391 586l-10 9l100 137q8 11 15.5 16.5t15.5 5.5q7 0 12.5 -3.5t8.5 -9.5t3 -13q0 -9 -7 -20t-24 -25zM42 0v15l50 5q17 2 22 10t5 35v421h-73v15l73 7v61q0 58 12 98t31.5 65.5t45 37.5t50.5 12q29 0 53 -8.5t38.5 -26t14.5 -44.5q0 -17 -9.5 -29.5t-31.5 -12.5
q-14 0 -22.5 8t-8.5 19q0 13 6.5 26.5t18.5 29.5q-11 8 -25.5 12.5t-31.5 4.5q-27 0 -47.5 -13.5t-32.5 -47t-12 -92.5v-100h287l6 -5v-440q0 -24 5 -32.5t20 -10.5l52 -6v-14h-203v15l51 5q16 2 21 10.5t5 34.5v359q0 37 -7 49.5t-36 12.5h-201v-422q0 -25 5.5 -33.5
t20.5 -10.5l84 -6v-14h-236z" />
    <glyph glyph-name="f_k.liga" unicode="fk" horiz-adv-x="846" vert-adv-y="1485" 
d="M42 0v15l50 5q17 2 22 10t5 35v421h-73v15l73 7v75q0 59 16 98t43 61t61 31t68 9q26 0 47.5 -6t40 -16t32.5 -22l40 28l7 -5v-698q0 -24 5 -32.5t20 -10.5l52 -6v-14h-200v15l48 5q16 2 21 10.5t5 34.5v575q0 45 -15 71t-42 38t-62 12q-34 0 -65.5 -14.5t-52 -49
t-20.5 -95.5v-94h141v-22h-141v-422q0 -25 5.5 -34t20.5 -10l86 -6v-14h-238zM759 -8q-16 0 -32 5t-34 20t-39 44l-157 219v8l181 162q16 14 18.5 24.5t-18.5 12.5l-41 5l1 16h164v-15l-31 -5q-20 -2 -35.5 -15.5t-32.5 -28.5l-159 -144l148 -212q22 -31 44 -48.5t44 -17.5
q19 0 32.5 6.5t25.5 14.5l7 -11q-19 -17 -40.5 -28.5t-45.5 -11.5z" />
    <glyph glyph-name="f_t.liga" unicode="ft" horiz-adv-x="639" vert-adv-y="1485" 
d="M42 0v15l50 5q17 2 22 10t5 35v421h-73v15l73 7v56q0 59 12.5 100.5t34 67.5t48.5 38t57 12q31 0 56 -8.5t40 -26t15 -44.5q0 -17 -9.5 -29.5t-32.5 -12.5q-14 0 -22 8t-8 19q0 13 6.5 26.5t17.5 29.5q-11 8 -26.5 12.5t-35.5 4.5q-32 0 -55.5 -14.5t-36 -49t-12.5 -95.5
v-94h154q30 0 50.5 11t34 39t18.5 80l18 3l4 -3v-130h154v-22h-154v-362q0 -60 19.5 -82t60.5 -22q24 0 50 11.5t49 35.5l10 -10q-27 -37 -58.5 -54t-69.5 -17q-39 0 -63 15t-35.5 47.5t-11.5 83.5v354h-230v-422q0 -25 5.5 -34t20.5 -10l86 -6v-14h-238z" />
    <glyph glyph-name=".notdef" horiz-adv-x="500" vert-adv-y="1485" 
d="M50 700h400v-700h-400v700zM110 640v-580h280v580h-280z" />
    <glyph glyph-name=".null" horiz-adv-x="0" vert-adv-y="0" 
 />
    <glyph glyph-name="nonmarkingreturn" horiz-adv-x="333" 
 />
    <glyph glyph-name="space" unicode=" " horiz-adv-x="198" vert-adv-y="1485" 
 />
    <glyph glyph-name="exclam" unicode="!" horiz-adv-x="281" vert-adv-y="1485" 
d="M129 175v104q0 50 -3 96t-6.5 86.5t-8 77t-7 69.5t-2.5 63q0 20 3 35t12 23t26 8q24 0 31 -16.5t7 -49.5t-4.5 -71.5t-10 -85.5t-10 -105t-4.5 -131v-103h-23zM139 -8q-21 0 -34.5 14t-13.5 35q0 22 13.5 36t34.5 14q22 0 36.5 -14t14.5 -35q0 -22 -14 -36t-37 -14z" />
    <glyph glyph-name="quotedbl" unicode="&#x22;" horiz-adv-x="347" vert-adv-y="1485" 
d="M95 562l-22 142q-1 6 -1.5 12t-0.5 11q0 21 9.5 34.5t28.5 13.5q13 0 21.5 -7t8.5 -20q0 -10 -1 -17t-3 -20l-27 -149h-13zM233 562l-22 142q-1 6 -1.5 12t-0.5 11q0 21 9.5 34.5t28.5 13.5q12 0 20.5 -7t8.5 -20q0 -10 -1 -17t-3 -20l-26 -149h-13z" />
    <glyph glyph-name="numbersign" unicode="#" horiz-adv-x="572" vert-adv-y="1485" 
d="M133 6l24 162h-110l5 27h110l25 168h-113l4 27h113l23 154h30l-23 -154h166l24 154h30l-23 -154h108l-4 -27h-109l-24 -168h114l-4 -27h-115l-24 -162h-30l24 162h-166l-24 -162h-31zM192 195h166l25 168h-166z" />
    <glyph glyph-name="dollar" unicode="$" horiz-adv-x="554" vert-adv-y="0" 
d="M262 -81v68q-57 5 -96.5 26.5t-69.5 46.5l-12 -72h-14l-14 213h13q16 -71 47 -112t69.5 -59t76.5 -22v353q-7 3 -14 5.5t-14 5.5q-47 18 -77.5 39t-47.5 44.5t-24.5 51.5t-7.5 59q0 42 15 73t41 52.5t59.5 33t69.5 12.5v73h24v-73q44 -2 79 -19.5t67 -44.5l16 64h14
l13 -183l-16 -1q-17 60 -44.5 94.5t-60.5 50.5t-68 18v-307q4 -1 7.5 -2.5t9.5 -3.5q57 -19 94.5 -43t59.5 -51.5t31 -57.5t9 -61q0 -47 -14.5 -84t-41.5 -64t-66 -41.5t-89 -14.5v-67h-24zM286 7q50 0 87 17.5t57.5 52.5t20.5 84q0 45 -14.5 80t-50.5 62.5t-100 48.5v-345z
M262 418v298q-65 -3 -102.5 -38t-37.5 -94q0 -36 12 -66t43 -54t85 -46z" />
    <glyph glyph-name="percent" unicode="%" horiz-adv-x="751" vert-adv-y="1485" 
d="M208 -14l358 611h-6l-358 -611h6zM199 275q-47 0 -80 20.5t-50.5 55.5t-17.5 79q0 62 22 99t57.5 53t73.5 16q39 0 72 -17t53.5 -51t20.5 -84q0 -55 -20.5 -93.5t-54.5 -58t-76 -19.5zM205 293q50 0 76.5 34.5t26.5 107.5q0 74 -30 109.5t-81 35.5q-47 0 -76 -33.5
t-29 -106.5t30.5 -110t82.5 -37zM565 -12q-46 0 -79.5 20t-51 55t-17.5 80q0 62 22.5 99t58 53t72.5 16q40 0 73 -17t53 -51t20 -84q0 -56 -20 -94t-54.5 -57.5t-76.5 -19.5zM571 5q51 0 77 35t26 107q0 50 -13.5 82t-38.5 48t-59 16q-46 0 -75 -33.5t-29 -106.5
q0 -74 30.5 -111t81.5 -37z" />
    <glyph glyph-name="ampersand" unicode="&#x26;" horiz-adv-x="805" vert-adv-y="1485" 
d="M296 -14q-70 0 -124 23.5t-84 67t-30 104.5q0 43 16.5 73.5t44 52.5t60.5 37.5t67 27.5q-20 18 -45 43.5t-42.5 59.5t-17.5 77q0 38 13.5 67.5t38 51t58 32.5t72.5 11q69 0 113 -39t44 -100q0 -45 -21.5 -80.5t-59 -63.5t-87.5 -54l201 -197q17 96 40 156t48.5 92
t52.5 44.5t52 12.5q27 0 45.5 -15.5t18.5 -44.5q0 -15 -6 -26.5t-15.5 -17.5t-20.5 -6q-15 0 -24.5 9.5t-16 26.5t-14.5 41q-26 -5 -52.5 -35t-49 -91.5t-39.5 -162.5q51 -51 79.5 -80t48 -40.5t43.5 -11.5t42 10t34 25l9 -11q-15 -18 -30.5 -33t-33.5 -23t-42 -8
q-27 0 -48.5 11t-48 37t-71.5 72q-16 -30 -45 -59t-72 -47.5t-101 -18.5zM298 8q71 0 121.5 32.5t77.5 87.5l-234 228q-43 -18 -77.5 -42.5t-54.5 -57.5t-20 -78q0 -51 22 -89.5t63.5 -59.5t101.5 -21zM294 392q55 25 91 53t54 59.5t18 67.5q0 51 -35.5 86t-99.5 35
q-68 0 -104 -33t-36 -85q0 -30 10 -57t34.5 -56.5t67.5 -69.5z" />
    <glyph glyph-name="quotesingle" unicode="'" horiz-adv-x="209" vert-adv-y="1485" 
d="M95 562l-22 142q-1 6 -1.5 12t-0.5 11q0 21 9.5 34.5t28.5 13.5q13 0 21.5 -7t8.5 -20q0 -10 -1 -17t-3 -20l-27 -149h-13z" />
    <glyph glyph-name="parenleft" unicode="(" horiz-adv-x="277" vert-adv-y="1485" 
d="M237 -193q-18 25 -48.5 73t-62 113.5t-52.5 142.5t-21 161q0 91 21.5 170t53.5 144.5t64.5 114.5t54.5 79l12 -8q-46 -70 -82 -147t-56 -162t-20 -180t18 -180.5t51.5 -163t79.5 -149.5z" />
    <glyph glyph-name="parenright" unicode=")" horiz-adv-x="277" vert-adv-y="1485" 
d="M30 -193l-13 7q47 70 83 148t56 163t20 179q0 95 -18 180t-51 162.5t-80 149.5l13 9q18 -25 48.5 -73.5t62 -113.5t52.5 -142.5t21 -161.5q0 -90 -21.5 -169.5t-54 -145t-64.5 -114.5t-54 -78z" />
    <glyph glyph-name="asterisk" unicode="*" horiz-adv-x="405" vert-adv-y="1485" 
d="M195 416q-17 0 -21 9.5t0 26.5l24 132l-99 -78q-14 -11 -28 -14t-25 19q-9 16 -3 24.5t22 13.5l125 46l-115 46q-19 8 -26.5 18t4.5 32q8 14 18.5 13.5t22.5 -11.5l104 -88l-19 125q-3 19 1.5 31t30.5 12q16 0 20 -8.5t1 -26.5l-24 -132l98 78q16 13 29 14t25 -21
q8 -13 2 -22t-22 -15l-125 -45l115 -46q17 -7 25.5 -18.5t-4.5 -32.5q-7 -15 -17 -14t-24 13l-102 88l18 -125q3 -18 -1.5 -31t-29.5 -13z" />
    <glyph glyph-name="plus" unicode="+" horiz-adv-x="582" vert-adv-y="1485" 
d="M278 98v195h110v23h-110v189h24v-189h-108v-23h108v-195h-24z" />
    <glyph glyph-name="comma" unicode="," horiz-adv-x="274" vert-adv-y="1485" 
d="M98 -140l-10 11q25 25 39.5 46t21.5 42t7 42h-13q-18 0 -30.5 6t-19 16.5t-6.5 23.5q0 16 12.5 31t35.5 15q28 0 41.5 -19.5t13.5 -48.5q0 -26 -11.5 -56t-32 -58t-48.5 -51z" />
    <glyph glyph-name="hyphen" unicode="-" horiz-adv-x="345" vert-adv-y="1485" 
d="M55 272v36h235v-36h-235z" />
    <glyph glyph-name="period" unicode="." horiz-adv-x="267" vert-adv-y="1485" 
d="M134 -8q-22 0 -35.5 14t-13.5 35q0 22 13.5 36t34.5 14q22 0 36.5 -13.5t14.5 -35.5t-14 -36t-36 -14z" />
    <glyph glyph-name="slash" unicode="/" horiz-adv-x="371" vert-adv-y="1485" 
d="M18 -110l305 912h30l-304 -912h-31z" />
    <glyph glyph-name="zero" unicode="0" horiz-adv-x="584" vert-adv-y="1485" 
d="M289 -14q-77 0 -130 46.5t-80.5 128t-27.5 188.5q0 109 20 183.5t55 120t79.5 65t94.5 19.5q63 0 116 -38t85 -118.5t32 -206.5q0 -131 -32 -216.5t-87 -128.5t-125 -43zM294 9q45 0 80 19.5t59 61t36.5 108.5t12.5 161q0 95 -11.5 162.5t-34.5 110.5t-58 63.5t-84 20.5
q-42 0 -77.5 -18t-61 -59t-39.5 -108t-14 -165q0 -88 11.5 -154.5t35 -111.5t59.5 -68t86 -23z" />
    <glyph glyph-name="one" unicode="1" horiz-adv-x="377" vert-adv-y="1485" 
d="M50 0v15l88 6q23 2 30.5 16.5t7.5 39.5v534q0 37 -6 53t-42 17l-83 5l-1 14l172 32l8 -8v-650q0 -25 6 -38t32 -15l88 -6v-15h-300z" />
    <glyph glyph-name="two" unicode="2" horiz-adv-x="495" vert-adv-y="1485" 
d="M54 0l-9 39q88 98 147.5 169.5t96 123.5t54.5 91t24.5 73t6.5 70q0 75 -38 112.5t-107 37.5q-44 0 -80.5 -17.5t-59.5 -51.5q14 -12 24.5 -23t17.5 -23t7 -26q0 -17 -12.5 -27t-31.5 -10q-23 0 -34 13t-11 37q0 39 23.5 73t65.5 55t98 21q63 0 104.5 -21t63 -60t21.5 -91
q0 -38 -8 -73t-28 -73.5t-58 -88.5t-98.5 -118t-149.5 -162h217q31 0 52 6.5t36 21.5t25 38t17 56h16l-28 -172h-364z" />
    <glyph glyph-name="three" unicode="3" horiz-adv-x="500" vert-adv-y="1485" 
d="M239 -14q-34 0 -63.5 8t-54.5 24t-45.5 42t-36.5 62l14 10q21 -41 48 -68t60.5 -40t73.5 -13q48 0 83.5 19.5t56 59t20.5 99.5q0 97 -53.5 138t-147.5 35l3 19q60 4 99 25.5t58 61.5t19 100q0 74 -34.5 111.5t-105.5 37.5q-44 0 -80.5 -17t-58.5 -48q29 -22 39 -38
t10 -32q0 -14 -5.5 -23t-16 -12.5t-22.5 -3.5q-17 0 -27.5 7.5t-14.5 19t-4 22.5q0 38 23.5 71t66 53.5t99.5 20.5q59 0 99.5 -21t61.5 -59.5t21 -90.5q0 -50 -21 -88.5t-54 -63t-68 -36.5v-2q51 -9 88.5 -32t58 -60.5t20.5 -90.5q0 -51 -16 -89t-44.5 -64.5t-66.5 -40
t-82 -13.5z" />
    <glyph glyph-name="four" unicode="4" horiz-adv-x="541" vert-adv-y="1485" 
d="M220 0v15l95 9q18 2 25 14t7 40v101h-305l-3 17l316 527l33 8l8 -7v-521h113v-24h-113v-104q0 -26 5.5 -38.5t27.5 -14.5l61 -6v-16h-270zM71 203h276v456h-2z" />
    <glyph glyph-name="five" unicode="5" horiz-adv-x="503" vert-adv-y="1485" 
d="M239 -14q-44 0 -82 14.5t-67.5 44.5t-50.5 75l14 8q30 -57 77.5 -86.5t106.5 -29.5q52 0 89 23t56.5 69.5t19.5 116.5q0 88 -37 138.5t-115 50.5q-44 0 -85 -12.5t-80 -40.5l-11 9l36 357h315v-3l-10 -48h-289l-28 -282q29 19 70 34t89 15q64 0 108 -26.5t66.5 -74.5
t22.5 -115q0 -52 -15 -96t-43.5 -75.5t-68 -48.5t-88.5 -17z" />
    <glyph glyph-name="six" unicode="6" horiz-adv-x="536" vert-adv-y="1485" 
d="M278 -13q-75 0 -122.5 42t-69 116t-21.5 168q0 84 15 160t48 136t86 94t127 34q33 0 67 -11t57.5 -36t23.5 -64q0 -20 -7 -31.5t-17.5 -16t-21.5 -4.5q-12 0 -21 5t-14 14t-5 21q0 7 3 16.5t10.5 22.5t19.5 30q-14 14 -38 23.5t-63 9.5q-50 0 -86 -20t-61 -57t-41 -85
t-23 -104.5t-9 -117.5q19 51 65.5 86.5t118.5 35.5q54 0 97 -28.5t67.5 -80t24.5 -120.5q0 -78 -26 -131t-73 -80t-111 -27zM280 9q46 0 81.5 19t56 66t20.5 130q0 69 -19 113.5t-54 66t-82 21.5q-40 0 -77.5 -18t-61.5 -57t-24 -103q0 -75 17.5 -128.5t53 -81.5t89.5 -28z
" />
    <glyph glyph-name="seven" unicode="7" horiz-adv-x="484" vert-adv-y="1485" 
d="M206 -8l-6 7q2 86 8 170t27.5 168t67 168.5t126.5 170.5h-255q-29 0 -47 -4t-28.5 -16t-19.5 -33.5t-21 -57.5h-15l21 158l391 -1l6 -41q-74 -86 -116 -167.5t-60.5 -163t-23 -168t-2.5 -183.5z" />
    <glyph glyph-name="eight" unicode="8" horiz-adv-x="533" vert-adv-y="1485" 
d="M269 -14q-60 0 -112 21.5t-84 63t-32 103.5q0 41 15 77t52 69t102 63q-52 24 -81.5 53t-41 61.5t-11.5 65.5q0 45 21.5 84.5t64.5 64.5t109 25q58 0 100.5 -20.5t66.5 -55t24 -75.5q0 -43 -18.5 -78.5t-47.5 -65t-61 -54.5q64 -25 97.5 -55t46 -64.5t12.5 -73.5
q0 -49 -20 -88t-52.5 -66t-72 -41t-77.5 -14zM271 8q41 0 79.5 17.5t63.5 55t25 95.5q0 40 -10 68t-34.5 49t-65 40t-99.5 41q-62 -38 -98 -84.5t-36 -116.5q0 -58 23 -94.5t62.5 -53.5t89.5 -17zM315 396q45 48 70.5 90t25.5 97q0 50 -19.5 79t-52.5 42t-72 13
q-35 0 -68 -12.5t-54 -41.5t-21 -78q0 -42 13.5 -73t54.5 -58.5t123 -57.5z" />
    <glyph glyph-name="nine" unicode="9" horiz-adv-x="523" vert-adv-y="1485" 
d="M231 -14q-58 0 -104 29.5t-80 97.5l12 10q32 -56 74 -84t95 -28q51 0 85.5 20t56.5 64.5t33 117t14 178.5q-23 -55 -70 -86.5t-110 -31.5q-56 0 -99.5 27t-68 76.5t-24.5 118.5q0 81 28 134.5t75 80.5t104 27q56 0 96 -20t66 -59.5t38 -98.5t12 -136q0 -226 -59 -331.5
t-174 -105.5zM247 303q30 0 59 8.5t53 30t38.5 58.5t14.5 95q0 66 -16 115.5t-51 77t-93 27.5q-33 0 -62 -10.5t-49.5 -34.5t-32 -64.5t-11.5 -99.5q0 -74 17.5 -119t51.5 -64.5t81 -19.5z" />
    <glyph glyph-name="colon" unicode=":" horiz-adv-x="268" vert-adv-y="1485" 
d="M134 -8q-22 0 -35.5 14t-13.5 35q0 22 13.5 36t34.5 14q22 0 36.5 -13.5t14.5 -35.5t-14 -36t-36 -14zM134 417q-22 0 -35.5 14t-13.5 35t13.5 35.5t34.5 14.5q22 0 36.5 -14t14.5 -35q0 -22 -14 -36t-36 -14z" />
    <glyph glyph-name="semicolon" unicode=";" horiz-adv-x="275" vert-adv-y="1485" 
d="M98 -140l-10 11q25 25 40 46t22 42t7 42h-13q-18 0 -31 6t-19 16.5t-6 23.5q0 16 12.5 31t35.5 15q28 0 41.5 -19.5t13.5 -48.5q0 -26 -11.5 -56t-32.5 -58t-49 -51zM135 417q-21 0 -35 13.5t-14 35.5q0 21 13.5 35.5t34.5 14.5q23 0 37 -14t14 -35q0 -22 -13.5 -36
t-36.5 -14z" />
    <glyph glyph-name="less" unicode="&#x3c;" horiz-adv-x="582" vert-adv-y="1485" 
d="M455 45l-381 228v22l381 230l12 -19l-368 -222l368 -220z" />
    <glyph glyph-name="equal" unicode="=" horiz-adv-x="582" vert-adv-y="1485" 
d="M106 381v23h370v-23h-370zM106 204v23h370v-23h-370z" />
    <glyph glyph-name="greater" unicode="&#x3e;" horiz-adv-x="582" vert-adv-y="1485" 
d="M117 45l-12 19l368 222l-368 220l12 19l381 -229v-21z" />
    <glyph glyph-name="question" unicode="?" horiz-adv-x="467" vert-adv-y="1485" 
d="M209 176v136q0 18 5.5 35t19.5 37t39 45q47 46 63.5 85t16.5 85q0 56 -34 87t-88 31q-43 0 -74.5 -13.5t-48.5 -33.5q22 -26 30 -41t8 -32q0 -13 -11 -22.5t-31 -9.5q-22 0 -32 15t-10 34q0 39 25.5 66.5t64.5 42t78 14.5q51 0 89 -18.5t59 -52t21 -79.5q0 -31 -7.5 -60
t-26.5 -59t-53 -64q-26 -26 -42 -43t-24 -31t-11 -30.5t-3 -41.5v-82h-23zM220 -8q-21 0 -35 14t-14 35q0 22 14 36t35 14q22 0 36 -14t14 -35q0 -22 -13.5 -36t-36.5 -14z" />
    <glyph glyph-name="at" unicode="@" horiz-adv-x="792" vert-adv-y="1485" 
d="M393 -170q-68 0 -130.5 20.5t-111 64t-76.5 112.5t-28 165q0 78 26 144.5t74 115t114.5 76t147.5 27.5q76 0 137.5 -20t105.5 -59t67.5 -98t23.5 -137q0 -87 -24.5 -141.5t-62 -80t-76.5 -25.5q-42 0 -62 13.5t-26 35t-5 43.5l8 152h-3l-26 -90q-10 -35 -20.5 -63.5
t-25.5 -48.5t-35.5 -31t-51.5 -11q-29 0 -50 11.5t-35 32t-20.5 49t-6.5 61.5q0 84 24.5 136t65 76t87.5 24q35 0 60 -5.5t50 -16.5l24 24l8 -3l-9 -294q-1 -37 7.5 -55t44.5 -18q35 0 66.5 24t51.5 73t20 121q0 74 -20.5 130t-60 94t-98 57t-133.5 19q-100 0 -176.5 -42.5
t-120 -120t-43.5 -182.5q0 -91 27 -155.5t73 -104.5t104.5 -59t123.5 -19q73 0 121 19t89 54l13 -15q-43 -40 -100.5 -59.5t-126.5 -19.5zM345 17q36 1 57 27.5t38.5 84t42.5 149.5l18 67q-25 10 -44.5 14.5t-47.5 4.5q-37 0 -64 -17.5t-44 -47.5t-25.5 -67t-8.5 -75
q0 -41 9 -72t26.5 -49.5t42.5 -18.5z" />
    <glyph glyph-name="A" unicode="A" vert-adv-y="1485" 
d="M-6 0v15l40 6q17 2 24 10.5t16 35.5l213 656h30l208 -652q8 -26 17.5 -36.5t30.5 -13.5l39 -5v-16h-208v15l51 6q20 2 22.5 13.5t-4.5 33.5l-53 179h-262l-59 -180q-7 -20 -4 -32t24 -14l57 -6v-15h-182zM164 268h248l-122 392h-1z" />
    <glyph glyph-name="B" unicode="B" horiz-adv-x="593" vert-adv-y="1485" 
d="M58 0v15l62 6q19 2 25 11.5t6 35.5v587q0 26 -6.5 36t-26.5 12l-60 5v15h228q71 0 122 -15.5t78.5 -50t27.5 -93.5q0 -47 -18 -83t-51 -59.5t-80 -35.5v-1q99 -10 144 -56t45 -123q0 -75 -34.5 -120.5t-95.5 -65.5t-139 -20h-227zM279 22q69 0 119 16t77.5 54.5
t27.5 103.5q0 60 -21.5 98.5t-67 57t-120.5 18.5q-68 0 -94 -3v-340q10 -1 33 -3t46 -2zM268 391q57 0 100.5 17t69 54t25.5 96q0 57 -20 88t-60.5 43.5t-100.5 12.5h-82v-309q10 -1 25.5 -1.5t42.5 -0.5z" />
    <glyph glyph-name="C" unicode="C" horiz-adv-x="660" vert-adv-y="1485" 
d="M356 -14q-91 0 -159.5 43t-106 125.5t-37.5 200.5q0 89 21.5 159t61.5 120.5t96.5 76.5t125.5 26q65 0 112.5 -23t81.5 -57l10 80h14l36 -221l-15 -1q-26 67 -60 112t-79 67t-104 22q-75 0 -131.5 -40t-87.5 -117t-31 -189q0 -81 17 -146t50.5 -110.5t84 -70.5t118.5 -25
q42 0 81.5 11t77 37t68.5 70l16 -14q-28 -40 -60.5 -66.5t-67 -42t-68 -21.5t-65.5 -6z" />
    <glyph glyph-name="D" unicode="D" horiz-adv-x="717" vert-adv-y="1485" 
d="M58 0v15l62 6q19 2 25 11.5t6 35.5v587q0 26 -6 36t-27 12l-60 5v15h257q60 0 113 -12t96 -37.5t74.5 -65.5t48 -95.5t16.5 -128.5q0 -113 -28.5 -187.5t-78.5 -117.5t-114.5 -61t-136.5 -18h-247zM292 21q69 0 127.5 16t101.5 55t67 108t24 175q0 111 -36 183.5
t-103.5 108t-164.5 35.5h-108v-676q19 -2 43 -3.5t49 -1.5z" />
    <glyph glyph-name="E" unicode="E" horiz-adv-x="576" vert-adv-y="1485" 
d="M58 0v15l62 6q19 2 25 11.5t6 35.5v587q0 26 -6 36t-27 12l-60 5v15h427l30 -151l-16 -1q-15 48 -28.5 74.5t-29.5 38.5t-41.5 15t-63.5 3h-136v-321h136q37 0 53.5 6t24.5 25t15 58l16 1v-200h-16q-6 38 -14 56.5t-27 25.5t-58 7h-130v-339h166q35 0 59 5t40 19.5t27 43
t22 75.5h16l-17 -164h-455z" />
    <glyph glyph-name="F" unicode="F" horiz-adv-x="557" vert-adv-y="1485" 
d="M58 0v15l62 6q19 2 25 12t6 35v587q0 26 -6 36t-27 12l-60 5v15h427l30 -151l-16 -1q-15 48 -28.5 74.5t-30 38.5t-41.5 15t-63 3h-136v-328h130q37 0 53.5 6t24.5 25.5t15 58.5l16 1v-202h-16q-6 39 -14 58t-26.5 25.5t-57.5 6.5h-125v-286q0 -25 8 -35.5t28 -11.5
l98 -5v-15h-276z" />
    <glyph glyph-name="G" unicode="G" horiz-adv-x="706" vert-adv-y="1485" 
d="M354 -14q-90 0 -158 43t-105.5 125.5t-37.5 200.5q0 89 22 159.5t62 120.5t96.5 76t126.5 26q66 0 114 -23t83 -57l10 80h14l36 -221l-16 -1q-26 67 -60 112t-79.5 67t-106.5 22q-56 0 -102 -22t-79 -66t-51.5 -108.5t-18.5 -149.5q0 -80 17.5 -145.5t51 -112.5t83 -72
t113.5 -25q37 0 70 8.5t62 24.5t54 39v176q0 24 -7 32.5t-26 10.5l-69 5v15h235v-15l-56 -5q-13 -1 -20.5 -8t-7.5 -36v-263h-16l-29 62q-32 -27 -66.5 -43.5t-70 -24t-68.5 -7.5z" />
    <glyph glyph-name="H" unicode="H" horiz-adv-x="778" vert-adv-y="1485" 
d="M58 0v15l63 6q19 2 25 11.5t6 35.5v587q0 26 -6 36t-26 12l-62 5v15h235v-15l-63 -6q-16 -1 -22.5 -10t-6.5 -39v-271h377v273q0 26 -6.5 36t-26.5 12l-60 5v15h236v-15l-63 -5q-19 -1 -25 -11t-6 -39v-587q0 -24 7 -33.5t26 -11.5l61 -6v-15h-236v15l62 6q19 2 25 11.5
t6 35.5v293h-377v-295q0 -22 6 -32.5t25 -12.5l61 -6v-15h-235z" />
    <glyph glyph-name="I" unicode="I" horiz-adv-x="351" vert-adv-y="1485" 
d="M58 0v15l62 6q19 2 25 11.5t6 35.5v587q0 26 -6.5 36t-26.5 12l-60 5v15h236v-15l-63 -5q-19 -2 -25 -11.5t-6 -37.5v-588q0 -24 7 -33.5t26 -11.5l61 -6v-15h-236z" />
    <glyph glyph-name="J" unicode="J" horiz-adv-x="495" vert-adv-y="1485" 
d="M192 -14q-47 0 -81.5 12.5t-53.5 34t-19 47.5q0 19 7.5 31.5t20.5 19.5t28 7q17 0 29.5 -9t12.5 -28q0 -15 -9.5 -32t-24.5 -39q19 -13 43 -18t49 -5q43 0 71 19t43 60t15 107v462q0 28 -6 37.5t-26 10.5l-82 5v15h261v-15l-68 -5q-17 -2 -23.5 -11t-6.5 -38v-447
q0 -112 -47.5 -166.5t-132.5 -54.5z" />
    <glyph glyph-name="K" unicode="K" horiz-adv-x="659" vert-adv-y="1485" 
d="M577 -14q-27 0 -46.5 8.5t-34.5 22.5t-27 32t-23 37l-173 296l-73 -75v-241q0 -23 7 -33t26 -12l63 -6v-15h-238v15l62 6q19 2 25 11.5t6 35.5v587q0 26 -6.5 36t-26.5 12l-60 5v15h236v-15l-63 -5q-19 -2 -25 -11.5t-6 -37.5v-313l304 316q12 13 18.5 23t-1.5 17t-38 8
l-42 2l2 16h207v-15l-35 -4q-15 -1 -28 -7t-25 -15.5t-27 -26.5l-227 -238l177 -298q19 -33 36.5 -57t36 -37.5t40.5 -13.5q15 0 29 5.5t25 13.5l6 -11q-13 -15 -34 -24t-47 -9z" />
    <glyph glyph-name="L" unicode="L" horiz-adv-x="552" vert-adv-y="1485" 
d="M58 0v15l62 6q19 2 25 11.5t6 35.5v587q0 27 -6.5 36.5t-26.5 11.5l-60 5v15h256v-15l-82 -5q-19 -2 -25.5 -11.5t-6.5 -36.5v-634h154q37 0 59.5 4t37 19.5t26 47t27.5 86.5h16l-26 -178h-436z" />
    <glyph glyph-name="M" unicode="M" horiz-adv-x="928" vert-adv-y="1485" 
d="M44 0v15l60 7q21 3 27 14t7 38l36 579q2 27 -5 36.5t-26 11.5l-58 7v15h151l231 -566h2l220 566h148v-15l-61 -6q-16 -1 -23 -10.5t-5 -40.5l42 -580q2 -29 9.5 -38t23.5 -11l61 -7v-15h-243v15l66 7q15 2 24.5 11.5t7.5 40.5l-41 607h-1l-227 -581h-31l-239 579h-1
l-35 -611q-1 -21 3.5 -31.5t27.5 -13.5l62 -8v-15h-213z" />
    <glyph glyph-name="N" unicode="N" horiz-adv-x="774" vert-adv-y="1485" 
d="M58 0v15l59 4q19 1 26.5 11.5t7.5 36.5v590q0 25 -5.5 34.5t-27.5 11.5l-60 5v15h147l397 -628h1v561q0 25 -8 35t-30 12l-53 5v15h210v-15l-61 -4q-19 -2 -26 -12t-7 -37v-655h-27l-422 674h-2v-608q0 -26 7 -35.5t26 -11.5l58 -4v-15h-210z" />
    <glyph glyph-name="O" unicode="O" horiz-adv-x="700" vert-adv-y="1485" 
d="M351 -14q-95 0 -161.5 44t-101.5 126t-35 195q0 123 35 209t101.5 131.5t163.5 45.5q94 0 159.5 -43.5t99.5 -124.5t34 -194q0 -95 -20 -167.5t-58.5 -122t-93 -74.5t-123.5 -25zM356 8q60 0 104.5 23.5t74 68.5t44.5 112t15 152q0 83 -16 148.5t-47 110.5t-77.5 69
t-107.5 24q-60 0 -105.5 -23.5t-75 -68.5t-44.5 -110t-15 -148q0 -84 16 -150.5t47.5 -113t78.5 -70.5t108 -24z" />
    <glyph glyph-name="P" unicode="P" horiz-adv-x="556" vert-adv-y="1485" 
d="M58 0v15l62 6q19 2 25 11.5t6 35.5v587q0 27 -6.5 36.5t-26.5 11.5l-60 5v15h217q49 0 89.5 -7.5t70.5 -22.5t50 -37.5t30 -53.5t10 -69q0 -41 -9 -75t-28 -60.5t-48 -45t-69 -28t-92 -9.5q-26 0 -45 1.5t-34 2.5v-252q0 -24 7.5 -35t28.5 -12l98 -5v-15h-276zM278 337
q95 0 144.5 41.5t49.5 149.5q0 65 -23.5 103t-68.5 54.5t-110 16.5h-70v-361q16 -2 35 -3t43 -1z" />
    <glyph glyph-name="Q" unicode="Q" horiz-adv-x="703" vert-adv-y="1485" 
d="M677 -186q-40 0 -76 19.5t-71 61t-75 109.5q-24 -9 -48.5 -13.5t-53.5 -4.5q-96 0 -163 44t-102 126t-35 195q0 123 35 209t102 131.5t165 45.5q95 0 160.5 -43.5t100 -124.5t34.5 -194q0 -135 -41 -225.5t-117 -130.5q30 -51 58.5 -86.5t61 -55t73.5 -19.5
q38 0 65.5 17.5t57.5 66.5l10 -7q-20 -49 -42.5 -75.5t-47 -36t-51.5 -9.5zM358 8q25 0 45.5 3.5t39.5 12.5q-31 57 -54 94t-41.5 57.5t-36 29t-37.5 8.5q-31 0 -60 -22t-61 -60q21 -39 50.5 -66.5t68.5 -42t86 -14.5zM480 42q59 38 88 120t29 202q0 83 -15.5 148.5
t-47 110.5t-78 69t-108.5 24q-61 0 -106.5 -23.5t-75.5 -68.5t-45 -110t-15 -148q0 -65 10 -119.5t29 -98.5q30 37 65 62t75 25q42 0 70.5 -18t56.5 -60.5t68 -114.5z" />
    <glyph glyph-name="R" unicode="R" horiz-adv-x="632" vert-adv-y="1485" 
d="M580 -14q-26 0 -48 9t-39.5 31t-32.5 60l-56 142q-21 54 -40 79.5t-42 33t-55 7.5h-37t-29 -2v-280q0 -22 7 -32.5t26 -12.5l68 -6v-15h-244v15l63 6q19 2 25 11.5t6 35.5v587q0 27 -6.5 36.5t-26.5 11.5l-61 5v15h207q68 0 117.5 -11t81.5 -32.5t47 -54t15 -75.5
q0 -23 -5.5 -47.5t-18 -47.5t-35 -42.5t-54.5 -33.5t-78 -20v-3q44 -10 73 -41.5t43 -69.5l38 -93q16 -40 31 -72t32.5 -50t39.5 -18q18 0 32 5t24 12l6 -10q-14 -16 -34 -24.5t-40 -8.5zM277 369q55 0 99 19.5t70.5 59t26.5 99.5q0 55 -23.5 89t-69 50t-113.5 16h-66v-332
q31 -1 48.5 -1h27.5z" />
    <glyph glyph-name="S" unicode="S" horiz-adv-x="550" vert-adv-y="1485" 
d="M288 -14q-69 0 -114 23t-78 51l-12 -72h-14l-14 213h13q13 -58 36.5 -96t53.5 -59.5t63 -30t64 -8.5q40 0 78 14.5t62.5 48.5t24.5 91q0 46 -15 81.5t-52.5 63.5t-105.5 49q-60 20 -99.5 42.5t-61.5 47.5t-31 55.5t-9 65.5t10.5 62.5t29.5 48t44 34t54.5 20t59.5 6.5
q48 0 85 -17.5t72 -46.5l16 64h14l13 -183l-16 -1q-18 64 -48 99.5t-65.5 49.5t-73.5 14q-69 0 -109.5 -35.5t-40.5 -96.5q0 -40 14.5 -71.5t52 -57t105.5 -48.5q59 -20 98.5 -44.5t62 -52.5t32.5 -58.5t10 -61.5q0 -41 -12.5 -78t-38.5 -65t-65 -44.5t-93 -16.5z" />
    <glyph glyph-name="T" unicode="T" horiz-adv-x="624" vert-adv-y="1485" 
d="M176 0v15l76 7q17 2 26 10t9 36v634h-87q-37 0 -61 -5.5t-40.5 -24t-30 -55t-31.5 -97.5l-16 2l33 201h518l31 -201l-15 -2q-18 61 -32.5 97.5t-31.5 55t-40.5 24t-59.5 5.5h-88v-635q0 -26 6.5 -34.5t27.5 -10.5l77 -7v-15h-271z" />
    <glyph glyph-name="U" unicode="U" horiz-adv-x="746" vert-adv-y="1485" 
d="M379 -14q-62 0 -108 16t-75.5 49t-44 83.5t-14.5 119.5v402q0 26 -6.5 35.5t-26.5 11.5l-62 5v15h236v-15l-64 -5q-16 -2 -23 -10.5t-7 -36.5v-384q0 -85 21 -142.5t67 -85.5t122 -28q69 0 114 31.5t67 91t22 143.5v374q0 25 -5.5 35t-25.5 12l-51 5v15h189v-15l-53 -5
q-19 -2 -24 -12t-5 -36v-376q0 -93 -27 -158.5t-81 -100t-135 -34.5z" />
    <glyph glyph-name="V" unicode="V" horiz-adv-x="613" vert-adv-y="1485" 
d="M300 0l-216 652q-10 29 -19 38t-29 12l-39 6v15h206v-15l-51 -6q-19 -2 -22.5 -12.5t3.5 -34.5l192 -587h1l193 588q8 24 3 34.5t-24 12.5l-58 5v15h186v-15l-41 -5q-17 -3 -24 -11t-16 -36l-217 -656h-28z" />
    <glyph glyph-name="W" unicode="W" horiz-adv-x="935" vert-adv-y="1485" 
d="M256 0l-172 652q-7 23 -15.5 35t-32.5 15l-39 6v15h205v-15l-50 -6q-20 -1 -23 -12.5t4 -34.5l149 -579h1l183 647h31l194 -647h1l149 581q6 20 3.5 32t-23.5 14l-58 5v15h185v-15l-41 -6q-11 -1 -18.5 -5t-12 -13t-9.5 -28l-169 -656h-31l-197 647h-1l-182 -647h-31z
" />
    <glyph glyph-name="X" unicode="X" horiz-adv-x="650" vert-adv-y="1485" 
d="M17 0v15l37 5q13 3 23 6.5t20 13t22 27.5l189 285l-189 307q-14 24 -23 34t-31 11l-38 4l1 15h204v-15l-39 -5q-20 -3 -26.5 -14t6.5 -31l165 -267l171 267q11 17 7.5 30t-24.5 15l-57 5l1 15h192v-15l-39 -5q-12 -2 -19.5 -6t-14 -13.5t-18.5 -25.5l-185 -288l190 -306
q14 -23 23 -32.5t33 -12.5l35 -4v-15h-209v15l34 3q27 2 33.5 13t-7.5 32l-162 266l-174 -262q-10 -15 -12.5 -29.5t19.5 -16.5l59 -6v-15h-197z" />
    <glyph glyph-name="Y" unicode="Y" horiz-adv-x="564" vert-adv-y="1485" 
d="M159 0v15l71 6q19 2 25 11.5t6 35.5v273l-175 311q-15 25 -25.5 36t-33.5 15l-32 5v15h209v-15l-48 -5q-21 -2 -25.5 -12.5t9.5 -35.5l159 -284h1l158 286q11 19 6 31.5t-26 14.5l-48 5v15h182v-15l-42 -6q-17 -2 -24.5 -11t-22.5 -35l-173 -315v-275q0 -23 6 -33t25 -12
l68 -6v-15h-250z" />
    <glyph glyph-name="Z" unicode="Z" horiz-adv-x="591" vert-adv-y="1485" 
d="M45 0v19l440 683h-257q-36 0 -60 -4.5t-39.5 -18.5t-28 -42t-25.5 -75l-16 -2l24 163h460v-20l-440 -682h273q35 0 58.5 5t40 19.5t28 43.5t22.5 76h16l-16 -165h-480z" />
    <glyph glyph-name="bracketleft" unicode="[" horiz-adv-x="283" vert-adv-y="1485" 
d="M101 -212v1024h142v-16l-75 -6q-21 -1 -25 -11.5t-4 -41.5v-876q0 -30 4.5 -39.5t23.5 -11.5l76 -6v-16h-142z" />
    <glyph glyph-name="backslash" unicode="\" horiz-adv-x="371" vert-adv-y="1485" 
d="M322 -110l-304 912h31l304 -912h-31z" />
    <glyph glyph-name="bracketright" unicode="]" horiz-adv-x="283" vert-adv-y="1485" 
d="M40 -212v16l75 6q21 2 25 12t4 41v875q0 30 -4 40.5t-24 11.5l-76 6v16h142v-1024h-142z" />
    <glyph glyph-name="asciicircum" unicode="^" horiz-adv-x="582" vert-adv-y="1485" 
d="M76 387l-19 13l222 337h24l222 -337l-19 -14l-215 327z" />
    <glyph glyph-name="underscore" unicode="_" horiz-adv-x="470" vert-adv-y="1485" 
d="M0 -84v31h470v-31h-470z" />
    <glyph glyph-name="grave" unicode="`" horiz-adv-x="500" vert-adv-y="1485" 
d="M300 586l-114 97q-17 14 -24 25t-7 20q0 7 3 13t8.5 9.5t12.5 3.5q8 0 15.5 -5.5t15.5 -16.5l100 -137z" />
    <glyph glyph-name="a" unicode="a" horiz-adv-x="490" vert-adv-y="1485" 
d="M195 -14q-64 0 -101.5 34t-37.5 98q0 51 26.5 85t88 53t169.5 22v100q0 46 -13.5 72.5t-39.5 38.5t-62 12q-35 0 -63.5 -9t-48.5 -25q11 -20 17 -32.5t8.5 -20.5t2.5 -15q0 -15 -11 -24.5t-30 -9.5q-17 0 -29 11t-12 30q0 38 26.5 63.5t65 39t78.5 13.5q59 0 94 -20.5
t50.5 -56t15.5 -84.5v-287q0 -29 11.5 -42t33.5 -13q16 0 29.5 5.5t23.5 12.5l8 -10q-16 -19 -35 -30t-43 -11q-32 0 -53.5 19.5t-20.5 67.5q-18 -31 -41 -50.5t-49.5 -28t-57.5 -8.5zM211 17q32 0 61.5 13t48.5 40t19 65v123q-86 -3 -137.5 -15.5t-73.5 -40t-22 -76.5
q0 -55 28.5 -82t75.5 -27z" />
    <glyph glyph-name="b" unicode="b" horiz-adv-x="570" vert-adv-y="1485" 
d="M119 -5l-5 2v687q0 35 -8.5 46t-35.5 13l-48 4l1 14l133 5l7 -6v-331h1q15 30 38.5 50.5t54 31.5t65.5 11q65 0 109 -29.5t67 -87.5t23 -144q0 -85 -28 -147t-78.5 -95t-119.5 -33q-36 0 -71.5 9.5t-68.5 27.5zM300 8q50 0 88.5 24.5t60 79t21.5 143.5q0 81 -19 133.5
t-54.5 78t-85.5 25.5q-44 0 -77.5 -17.5t-52 -50.5t-18.5 -81v-293q31 -21 65.5 -31.5t71.5 -10.5z" />
    <glyph glyph-name="c" unicode="c" horiz-adv-x="452" vert-adv-y="1485" 
d="M246 -14q-59 0 -104.5 29.5t-71.5 87.5t-26 144q0 91 28 151t76.5 91t108.5 31q45 0 79.5 -14t54 -38t19.5 -53q0 -21 -6 -34t-16 -19t-23 -6q-22 0 -31 11.5t-9 27.5q0 15 9.5 30.5t25.5 38.5q-19 17 -43.5 26t-56.5 9q-46 0 -84 -21.5t-60 -73t-22 -141.5
q0 -125 47 -182.5t120 -57.5q54 0 89 22t57 48l11 -9q-30 -46 -71.5 -72t-100.5 -26z" />
    <glyph glyph-name="d" unicode="d" horiz-adv-x="571" vert-adv-y="1485" 
d="M249 -14q-65 0 -109.5 29.5t-67.5 87.5t-23 143q0 86 28 147.5t79 95t119 33.5q40 0 74 -10.5t58 -24.5v197q0 35 -7.5 46t-35.5 13l-48 4l1 14l132 5l7 -6v-697q0 -23 6.5 -33.5t26.5 -12.5l46 -2v-16l-125 -8l-2 87h-2q-14 -28 -36.5 -48.5t-52.5 -32t-68 -11.5z
M260 16q44 0 77.5 17.5t51.5 51t18 81.5v289q-30 21 -64 33t-74 12q-50 0 -88.5 -24.5t-59.5 -78.5t-21 -143q0 -79 18.5 -131.5t54 -79.5t87.5 -27z" />
    <glyph glyph-name="e" unicode="e" horiz-adv-x="457" vert-adv-y="1485" 
d="M247 -14q-59 0 -105 28.5t-72 87t-26 149.5q0 82 26 142.5t72.5 94.5t109.5 34q54 0 90.5 -22.5t55.5 -61.5t19 -89q0 -17 -0.5 -37t-3.5 -40h-320q-2 -90 21.5 -144t63 -77.5t86.5 -23.5q41 0 76.5 15t68.5 50l10 -10q-37 -52 -80 -74t-92 -22zM94 295h271q2 16 2.5 29
t0.5 26q0 77 -29.5 114t-88.5 37q-45 0 -78.5 -22t-53.5 -68t-24 -116z" />
    <glyph glyph-name="f" unicode="f" horiz-adv-x="327" vert-adv-y="1485" 
d="M42 0v15l50 5q17 2 22 10t5 35v421h-73v15l73 7v52q0 61 12.5 103t34 68t48.5 38.5t57 12.5q31 0 56 -8.5t40 -26t15 -44.5q0 -17 -9.5 -29.5t-32.5 -12.5q-14 0 -22 8t-8 19q0 13 6.5 26.5t17.5 29.5q-11 8 -26.5 12.5t-35.5 4.5q-32 0 -55.5 -14.5t-36 -49t-12.5 -95.5
v-94h149v-22h-149v-422q0 -24 5.5 -33.5t20.5 -10.5l86 -6v-14h-238z" />
    <glyph glyph-name="g" unicode="g" horiz-adv-x="496" vert-adv-y="1485" 
d="M236 -230q-42 0 -80 7t-66.5 22.5t-45 39.5t-16.5 59q0 23 10.5 44.5t31 39.5t50.5 29v3q-28 13 -40.5 32.5t-12.5 47.5q0 25 17 50t44 56v2q-36 22 -55 57.5t-19 83.5q0 52 21.5 92.5t62.5 63t98 22.5q24 0 45 -4.5t39.5 -13.5t32.5 -20q16 52 38.5 74.5t47.5 22.5
q18 0 29.5 -6.5t17.5 -16t6 -19.5q0 -18 -12 -32t-28 -14q-11 0 -19 5t-18 19l-17 24q-11 -14 -18.5 -31.5t-11.5 -38.5q23 -22 35 -52.5t12 -64.5q0 -57 -23 -96.5t-63.5 -59.5t-93.5 -20q-27 0 -49 4.5t-41 12.5q-12 -14 -26 -36t-14 -50q0 -12 4.5 -25t19.5 -21.5
t46 -8.5h140q71 0 113.5 -25.5t42.5 -83.5q0 -41 -15 -71t-40.5 -50t-56.5 -31.5t-63 -16.5t-60 -5zM237 -209q53 0 98.5 15t74 44t28.5 73q0 47 -28.5 64.5t-82.5 17.5h-186q-27 -14 -48.5 -38t-21.5 -63q0 -62 45 -87.5t121 -25.5zM236 197q62 0 96.5 36.5t34.5 116.5
q0 75 -35.5 113t-101.5 38q-60 0 -94 -37t-34 -117q0 -74 36.5 -112t97.5 -38z" />
    <glyph glyph-name="h" unicode="h" horiz-adv-x="602" vert-adv-y="1485" 
d="M48 0v15l51 5q15 2 20.5 10t5.5 35v620q0 34 -8 45t-34 13l-50 4l2 14l132 5l7 -6v-344h1q23 54 71 80t99 26q50 0 83.5 -19t51 -54.5t17.5 -87.5v-300q0 -22 5.5 -30.5t24.5 -10.5l47 -5v-15h-204v14l47 5q19 2 25 10.5t6 32.5v293q0 46 -12.5 75.5t-39 44t-68.5 14.5
q-44 0 -78.5 -19t-55 -53t-20.5 -79v-275q0 -23 5 -32t20 -11l54 -6v-14h-205z" />
    <glyph glyph-name="i" unicode="i" horiz-adv-x="288" vert-adv-y="1485" 
d="M48 0v15l51 5q15 2 20.5 10t5.5 35v356q0 38 -6 49.5t-27 12.5l-49 5l1 14l124 12l6 -5v-446q0 -24 5 -32.5t20 -10.5l52 -6v-14h-203zM135 635q-19 0 -29.5 13t-10.5 32q0 20 11 34.5t30 14.5t30 -12.5t11 -32.5q0 -19 -10.5 -34t-31.5 -15z" />
    <glyph glyph-name="j" unicode="j" horiz-adv-x="264" vert-adv-y="1485" 
d="M36 -236l-8 12q26 21 43 39.5t26.5 43t13.5 62.5t4 97v402q0 39 -6 50.5t-27 12.5l-49 5l2 14l123 12l6 -5v-418q0 -70 -2.5 -119.5t-13.5 -86t-37.5 -65t-74.5 -56.5zM125 633q-20 0 -31 14t-11 33q0 21 11.5 35.5t31.5 14.5t31 -12.5t11 -33.5q0 -20 -11 -35.5
t-32 -15.5z" />
    <glyph glyph-name="k" unicode="k" horiz-adv-x="546" vert-adv-y="1485" 
d="M458 -8q-18 0 -35.5 6.5t-34.5 22t-36 40.5l-155 219v8l180 162q15 13 19.5 24t-18.5 13l-41 5l1 16h164v-15l-32 -5q-19 -2 -35 -15.5t-32 -28.5l-159 -144l148 -212q22 -31 44 -48.5t44 -17.5q18 0 32 6.5t26 14.5l7 -11q-19 -17 -40.5 -28.5t-46.5 -11.5zM45 0v15
l54 5q16 2 21 10.5t5 34.5v621q0 33 -8 44t-33 12l-51 5l2 14l132 5l7 -6v-697q0 -24 5 -32.5t20 -10.5l53 -6v-14h-207z" />
    <glyph glyph-name="l" unicode="l" horiz-adv-x="289" vert-adv-y="1485" 
d="M48 0v15l51 5q15 2 20.5 10t5.5 35v621q0 33 -8 44t-33 12l-51 5l2 14l132 5l7 -6v-697q0 -24 5 -32.5t20 -10.5l52 -6v-14h-203z" />
    <glyph glyph-name="m" unicode="m" horiz-adv-x="891" vert-adv-y="1485" 
d="M38 0v15l52 5q16 2 21 10t5 35v356q0 36 -5.5 48t-27.5 14l-48 5l1 14l123 12l5 -5v-93h2q17 36 43.5 59.5t58 35t63.5 11.5q58 0 93.5 -29.5t46.5 -86.5q23 59 69 87.5t101 28.5q46 0 78 -18t49.5 -54t17.5 -90v-299q0 -23 5.5 -31t24.5 -10l47 -5v-15h-204v14l46 5
q20 2 26 10.5t6 31.5v294q0 47 -13 76.5t-38.5 43.5t-62.5 14q-43 0 -76 -19.5t-52 -53.5t-19 -78v-276q0 -21 5 -30t23 -11l50 -6v-15h-204v14l45 6q20 2 26 10.5t6 31.5v292q0 47 -12.5 76.5t-37.5 44t-62 14.5q-43 0 -77 -19.5t-53.5 -53t-19.5 -78.5v-275q0 -23 5.5 -32
t19.5 -11l54 -6v-14h-206z" />
    <glyph glyph-name="n" unicode="n" horiz-adv-x="593" vert-adv-y="1485" 
d="M38 0v15l52 5q16 2 21 10t5 35v356q0 37 -6 49t-27 13l-48 5l1 14l123 12l5 -5v-93h2q24 54 71 80t102 26q50 0 83 -19t49.5 -54.5t16.5 -87.5v-300q0 -22 6 -30.5t25 -10.5l47 -5v-15h-205v15l48 5q19 2 24.5 10.5t5.5 31.5v293q0 46 -12 75.5t-38 44t-66 14.5
q-45 0 -81 -19t-56.5 -53t-20.5 -79v-275q0 -23 5 -32t20 -11l55 -5v-15h-207z" />
    <glyph glyph-name="o" unicode="o" horiz-adv-x="521" vert-adv-y="1485" 
d="M262 -14q-68 0 -117 32t-75 91t-26 139q0 83 26 144t76 94.5t122 33.5q65 0 112 -31.5t72.5 -88t25.5 -132.5q0 -86 -25.5 -149.5t-73.5 -98t-117 -34.5zM269 8q50 0 85 25.5t54 79t19 135.5q0 63 -11 110t-31.5 78.5t-51.5 47t-73 15.5q-51 0 -88.5 -25t-57 -77.5
t-19.5 -134.5q0 -86 21 -142.5t59.5 -84t93.5 -27.5z" />
    <glyph glyph-name="p" unicode="p" horiz-adv-x="568" vert-adv-y="1485" 
d="M41 -216v15l44 5q16 2 21 10.5t5 33.5v569q0 38 -5.5 51t-27.5 15l-48 5l1 14l123 12l5 -5l1 -81h1q18 32 41.5 53t53.5 31t64 10q64 0 108 -29.5t67.5 -87t23.5 -144.5q0 -85 -28 -147t-79 -95t-119 -33q-35 0 -68 8.5t-65 25.5v-172q0 -23 5 -32.5t22 -11.5l64 -6v-14
h-210zM298 8q50 0 88.5 24.5t60 78.5t21.5 144q0 82 -19.5 134.5t-55 77.5t-84.5 25q-44 0 -77.5 -17.5t-52.5 -51t-19 -80.5v-293q31 -21 66 -31.5t72 -10.5z" />
    <glyph glyph-name="q" unicode="q" horiz-adv-x="540" vert-adv-y="1485" 
d="M318 -216v14l63 6q14 1 20 9t6 34v232h-1q-15 -30 -38.5 -51t-53 -31.5t-65.5 -10.5q-65 0 -109.5 29.5t-67.5 87.5t-23 143q0 86 28 148t79 95t119 33q25 0 48.5 -4.5t46.5 -12.5t44 -20l36 35l6 -2v-670q0 -26 5.5 -34t21.5 -10l43 -5v-15h-208zM260 16q44 0 77.5 17.5
t51.5 51.5t18 81v293q-31 20 -65 30.5t-73 10.5q-52 0 -90 -25t-58.5 -79t-20.5 -142q0 -117 41.5 -177.5t118.5 -60.5z" />
    <glyph glyph-name="r" unicode="r" horiz-adv-x="414" vert-adv-y="1485" 
d="M39 0v15l51 5q16 2 21 10t5 34v357q0 37 -6 49t-27 13l-48 5l1 14l123 12l5 -5l1 -94h2q24 51 59.5 78t78.5 27q40 0 64 -20t24 -51q0 -15 -5.5 -26t-16 -16.5t-26.5 -5.5q-19 0 -29.5 9t-10.5 22q0 8 2.5 15.5t8 17t13.5 21.5q-30 10 -59 1t-52.5 -30.5t-38 -52
t-14.5 -66.5v-275q0 -23 5 -32t23 -11l79 -6v-14h-233z" />
    <glyph glyph-name="s" unicode="s" horiz-adv-x="418" vert-adv-y="1485" 
d="M51 -14l-11 168h14q15 -55 39.5 -87.5t55 -45.5t65.5 -13q60 0 90 33t30 79q0 38 -15.5 60t-47 36t-78.5 25q-21 5 -44.5 14t-44.5 24.5t-34.5 40t-13.5 62.5t17 69.5t49.5 51t79.5 19.5q41 0 71 -13t52 -33l11 46h13l10 -146h-16q-16 65 -52 95t-91 30q-48 0 -78 -26.5
t-30 -70.5q0 -41 18 -64t48 -34t63 -20q25 -7 52 -17t50 -26.5t37 -42.5t14 -65q0 -41 -19 -75t-54.5 -54t-86.5 -20q-37 0 -72 11.5t-66 38.5l-9 -50h-16z" />
    <glyph glyph-name="t" unicode="t" horiz-adv-x="348" vert-adv-y="1485" 
d="M217 -14q-38 0 -62.5 15t-36 47.5t-11.5 83.5v354h-76v15q30 0 50.5 11.5t34 41t19.5 84.5l20 3l1 -3v-130h154v-22h-154v-362q0 -60 19.5 -82t60.5 -22q25 0 50.5 11.5t48.5 35.5l11 -10q-28 -37 -59.5 -54t-69.5 -17z" />
    <glyph glyph-name="u" unicode="u" horiz-adv-x="586" vert-adv-y="1485" 
d="M263 -14q-75 0 -115 41.5t-40 126.5v267q0 36 -5.5 48.5t-28.5 13.5l-48 5l2 14l123 12l6 -5v-367q0 -39 12 -66.5t37 -42t63 -14.5q47 0 82 16.5t54.5 48.5t19.5 77v260q0 36 -5.5 48.5t-27.5 13.5l-48 5l1 14l123 12l6 -5v-448q0 -26 6.5 -35.5t25.5 -10.5l52 -3v-14
l-132 -8l-2 90h-1q-18 -33 -43.5 -54t-55 -30.5t-61.5 -9.5z" />
    <glyph glyph-name="v" unicode="v" horiz-adv-x="496" vert-adv-y="1485" 
d="M242 0l-164 437q-5 15 -10.5 25.5t-14 16.5t-23.5 8l-30 5l1 16h185v-16l-40 -5q-20 -3 -23 -14t4 -33l135 -372h2l132 373q7 20 4 31.5t-24 14.5l-39 5l2 16h157v-15l-34 -6q-16 -2 -22.5 -9.5t-17.5 -36.5l-158 -441h-22z" />
    <glyph glyph-name="w" unicode="w" horiz-adv-x="731" vert-adv-y="1485" 
d="M211 0l-132 436q-5 18 -11 28t-15 15t-24 8l-29 5l1 15h185v-15l-42 -5q-19 -2 -21.5 -13.5t3.5 -34.5l106 -366h1l128 432h25l130 -432h2l111 366q6 21 4 33t-22 15l-41 5l1 15h160v-15l-35 -5q-16 -2 -23.5 -10.5t-16.5 -36.5l-136 -440h-24l-132 425h-1l-126 -425h-26
z" />
    <glyph glyph-name="x" unicode="x" horiz-adv-x="533" vert-adv-y="1485" 
d="M2 0v15l34 5q19 3 31 10t23.5 18.5t24.5 29.5l132 168l-139 189q-20 26 -30.5 38t-30.5 15l-35 4l1 16h201v-16l-39 -5q-23 -3 -30 -13t10 -33l119 -162l122 170q14 19 15.5 28.5t-28.5 12.5l-43 3l2 16h188l-1 -16l-40 -5q-13 -1 -24.5 -5t-23 -13.5t-24.5 -27.5
l-130 -181l137 -187q11 -14 19.5 -25t22 -18.5t37.5 -12.5l19 -4v-14h-203v15l34 4q32 5 34.5 18.5t-12.5 33.5l-115 157l-120 -156q-11 -13 -18.5 -23.5t-4.5 -17t23 -9.5l56 -7v-15h-194z" />
    <glyph glyph-name="y" unicode="y" horiz-adv-x="529" vert-adv-y="1485" 
d="M95 -230q-30 0 -49.5 20t-19.5 49q0 18 11.5 31.5t31.5 13.5q21 0 32 -11.5t11 -28.5q-1 -7 -3 -19t-7 -29q21 -2 44 9t46.5 44t47.5 97l19 52l-180 439q-10 24 -18 35t-30 15l-30 5l1 16h185v-16l-40 -5q-20 -3 -24 -14t5 -33l154 -381h2l144 382q7 18 5 30.5t-24 15.5
l-42 5l1 16h161v-15l-35 -6q-16 -2 -22.5 -10.5t-17.5 -35.5l-194 -509q-20 -51 -40 -83.5t-40.5 -49.5t-41.5 -23t-43 -6z" />
    <glyph glyph-name="z" unicode="z" horiz-adv-x="458" vert-adv-y="1485" 
d="M51 0v18l304 469h-135q-49 0 -75 -8t-41.5 -32.5t-32.5 -75.5l-15 -2l21 139h329v-20l-301 -467h144q35 0 58 4t38.5 16t26.5 36t22 65h14l-13 -142h-344z" />
    <glyph glyph-name="braceleft" unicode="{" horiz-adv-x="325" vert-adv-y="1485" 
d="M237 -235q-49 0 -75.5 35.5t-26.5 86.5q0 26 3 66t6.5 85.5t6.5 86t3 66.5q0 50 -8 71t-28.5 26t-58.5 5v16q38 1 58 8t27.5 29t7.5 66q0 27 -2.5 66.5t-6 83t-6 81t-2.5 59.5q0 56 27 92t75 36q14 0 26 -2.5t25 -6.5l-3 -13q-10 2 -19 3.5t-20 1.5q-22 0 -36.5 -9
t-22 -30t-7.5 -59q0 -21 2.5 -57.5t6.5 -78.5t6.5 -82t2.5 -68q0 -41 -3.5 -67t-21.5 -40.5t-59 -20.5q41 -6 58.5 -19.5t21.5 -40t4 -75.5q0 -24 -2.5 -64t-6 -83.5t-6 -81t-2.5 -57.5q0 -36 7 -57.5t21.5 -31t36.5 -9.5q11 0 20 1.5t19 3.5l3 -13q-13 -4 -25 -6.5
t-26 -2.5z" />
    <glyph glyph-name="bar" unicode="|" horiz-adv-x="266" vert-adv-y="1485" 
d="M118 -110v912h30v-912h-30z" />
    <glyph glyph-name="braceright" unicode="}" horiz-adv-x="325" vert-adv-y="1485" 
d="M88 -235q-14 0 -25.5 2.5t-25.5 6.5l3 13q11 -2 19.5 -3.5t19.5 -1.5q22 0 36.5 9.5t21.5 31t7 57.5q0 20 -2.5 57.5t-6 81t-6 83.5t-2.5 64q0 49 4 76t22 40.5t57 19.5q-40 5 -57 19.5t-21.5 40.5t-4.5 67q0 28 2.5 68t6.5 82t6.5 78.5t2.5 57.5q0 38 -7.5 59t-22 30.5
t-36.5 9.5q-11 0 -19.5 -2t-19.5 -4l-3 13q14 4 25.5 6.5t25.5 2.5q50 0 76 -36t26 -92q0 -22 -2.5 -59.5t-6 -81t-6 -83t-2.5 -66.5q0 -44 7.5 -66t27.5 -28.5t58 -7.5v-17q-38 0 -58.5 -5t-28.5 -26t-8 -71q0 -26 3 -66.5t6.5 -86t6.5 -85t3 -64.5q0 -52 -26 -88t-76 -36z
" />
    <glyph glyph-name="asciitilde" unicode="~" horiz-adv-x="577" vert-adv-y="1485" 
d="M91 257l-15 6q14 34 28.5 50.5t29 22.5t29.5 6q25 0 58 -5t73 -15q41 -10 74.5 -15t63.5 -5q25 0 35.5 11.5t18.5 29.5l15 -6q-14 -34 -30 -50.5t-31 -21t-29 -4.5q-32 0 -65 6.5t-79 16.5q-40 11 -66.5 14t-55.5 3q-24 0 -35 -13.5t-19 -30.5z" />
    <glyph glyph-name="uni00A0" unicode="&#xa0;" horiz-adv-x="198" vert-adv-y="1485" 
 />
    <glyph glyph-name="exclamdown" unicode="&#xa1;" horiz-adv-x="280" vert-adv-y="1485" 
d="M152 333v-103q0 -51 3 -96.5t7 -86.5t8 -77.5t6.5 -69.5t2.5 -62q0 -20 -3 -35.5t-11.5 -23.5t-27.5 -8q-23 0 -30 17t-7 50q0 32 4.5 71t10 85.5t10 105.5t4.5 131v102h23zM141 516q22 0 35.5 -13.5t13.5 -34.5q0 -22 -14 -36.5t-34 -14.5q-22 0 -36 14.5t-14 35.5
t14 35t35 14z" />
    <glyph glyph-name="cent" unicode="&#xa2;" horiz-adv-x="474" vert-adv-y="0" 
d="M182 -28l133 666h23l-132 -666h-24zM262 42q-59 0 -104.5 29.5t-72 88t-26.5 144.5q0 90 28.5 150.5t76.5 91.5t108 31q45 0 79.5 -14.5t54.5 -38t20 -53.5q0 -21 -6 -33.5t-16 -18.5t-24 -6q-22 0 -30.5 11.5t-8.5 26.5q0 16 9 31.5t25 38.5q-18 17 -42.5 26t-57.5 9
q-46 0 -83.5 -21.5t-59.5 -73t-22 -142.5q0 -125 47 -182.5t120 -57.5q54 0 89 22.5t57 48.5l11 -10q-30 -46 -71.5 -72t-100.5 -26z" />
    <glyph glyph-name="sterling" unicode="&#xa3;" horiz-adv-x="539" vert-adv-y="1485" 
d="M68 0l-5 33q44 15 74 35t45.5 49t15.5 68q0 48 -12.5 85.5t-28.5 73.5h-123l2 21h112q-17 37 -30.5 76t-13.5 88q0 68 25.5 114.5t69.5 71t99 24.5q50 0 90.5 -15.5t64.5 -43t24 -63.5q0 -26 -11 -40t-28 -14q-18 0 -29 10t-11 26q0 9 3.5 18.5t11 22t20.5 28.5
q-27 27 -60.5 38t-74.5 11q-71 0 -111.5 -43.5t-40.5 -121.5q0 -36 8.5 -68t21 -61.5t24.5 -57.5h200v-21h-190q12 -29 20.5 -59.5t8.5 -65.5q0 -55 -25.5 -103t-86.5 -71v-2h198q38 0 62.5 4t40 17t26.5 40t23 73h19l-30 -177h-398z" />
    <glyph glyph-name="currency" unicode="&#xa4;" horiz-adv-x="490" vert-adv-y="1485" 
d="M424 151l-80 62q-20 -16 -45.5 -25t-55.5 -9q-31 0 -55 8t-43 22l-79 -60l-11 11l61 79q-17 22 -24.5 50t-7.5 58q0 31 7.5 60t23.5 52l-60 79l11 10l77 -58q20 18 47.5 27.5t61.5 9.5q30 0 54.5 -8t43.5 -24l75 57l10 -11l-57 -76q14 -22 21.5 -49.5t7.5 -57.5
q0 -33 -8.5 -62t-25.5 -53l62 -81zM249 198q37 0 64 19.5t42 55t15 79.5q0 77 -31 116.5t-94 39.5q-54 0 -89 -39t-35 -115q0 -69 32 -112.5t96 -43.5z" />
    <glyph glyph-name="yen" unicode="&#xa5;" horiz-adv-x="595" vert-adv-y="1485" 
d="M174 0v15l71 6q19 2 25 11.5t6 35.5v176h-189l3 19h186v78l-15 27h-171l3 20h156l-148 264q-14 25 -25 36t-34 15l-32 5v15h210v-15l-49 -5q-21 -2 -25.5 -12.5t9.5 -35.5l159 -284h1l158 286q11 19 6.5 31.5t-25.5 14.5l-49 5v15h182v-15l-42 -6q-17 -2 -24.5 -11
t-21.5 -35l-148 -268h163v-20h-174l-15 -27v-78h189v-19h-189v-178q0 -23 6 -33t26 -12l68 -6v-15h-251z" />
    <glyph glyph-name="brokenbar" unicode="&#xa6;" horiz-adv-x="269" vert-adv-y="1485" 
d="M118 -110v390h30l-1 -390h-29zM118 422v380h30l-1 -380h-29z" />
    <glyph glyph-name="section" unicode="&#xa7;" horiz-adv-x="595" vert-adv-y="1485" 
d="M273 -154q-40 0 -67.5 12t-42 33t-14.5 48q0 16 6.5 29.5t19.5 21.5t30 8q20 0 31.5 -9t11.5 -26q0 -13 -7.5 -28t-17.5 -29t-17 -26q13 -7 28.5 -10.5t38.5 -3.5q36 0 63.5 14.5t43 39.5t15.5 58q0 37 -22.5 67t-59.5 57t-82 56q-40 25 -69 48.5t-48 47.5t-28.5 50
t-9.5 57q0 45 25 77.5t71 57.5q-8 17 -12.5 35.5t-4.5 40.5q0 43 21 74t59 48.5t86 17.5q40 0 68 -12t42.5 -33t14.5 -48q0 -15 -6.5 -28.5t-19.5 -22.5t-31 -9q-19 0 -31 9.5t-12 26.5q0 13 7.5 27.5t17.5 29t17 26.5q-13 7 -28 10.5t-39 3.5q-53 0 -87.5 -31t-34.5 -81
q0 -36 22.5 -66.5t60 -57t82.5 -56.5q39 -25 68 -48.5t48 -47.5t28.5 -50t9.5 -57q0 -45 -24.5 -77.5t-71.5 -57.5q9 -16 13.5 -34.5t4.5 -41.5q0 -43 -21.5 -74t-59 -48.5t-86.5 -17.5zM415 75q31 19 44 47t13 63q0 34 -15.5 61.5t-45 53.5t-72.5 55q-34 23 -64.5 42.5
t-54.5 40t-40 45.5q-31 -19 -44.5 -47t-13.5 -61q0 -25 8.5 -47.5t25.5 -42.5t42 -40t58 -42q51 -33 93 -61.5t66 -66.5z" />
    <glyph glyph-name="dieresis" unicode="&#xa8;" horiz-adv-x="500" vert-adv-y="1485" 
d="M340 636q-22 0 -32 12t-10 32t10.5 33t31.5 13t31 -11t10 -31q0 -19 -10 -33.5t-31 -14.5zM164 636q-22 0 -32 12t-10 32t10.5 33t32.5 13q20 0 30.5 -11t10.5 -31q0 -19 -10.5 -33.5t-31.5 -14.5z" />
    <glyph glyph-name="copyright" unicode="&#xa9;" horiz-adv-x="756" vert-adv-y="1485" 
d="M378 -11q-102 0 -174 41t-110 113.5t-38 165.5q0 70 23.5 129t66.5 103t102 68t131 24q77 0 137 -23.5t101 -66.5t62.5 -101.5t21.5 -128.5q0 -69 -23.5 -128.5t-66.5 -103.5t-102 -68t-131 -24zM378 9q69 0 124 23t94.5 64t61 96.5t21.5 120.5q0 90 -35.5 157.5
t-103 105t-161.5 37.5q-91 0 -158.5 -40t-105 -108.5t-37.5 -154.5q0 -68 20.5 -123.5t59.5 -95t94.5 -61t125.5 -21.5zM386 104q-61 0 -101.5 29t-60.5 76t-20 101q0 62 23 107.5t63.5 70.5t91.5 25q36 0 62.5 -12.5t42.5 -28.5l6 39h11l18 -123l-13 -1q-15 54 -46.5 80.5
t-77.5 26.5t-76 -25t-44.5 -67t-14.5 -92q0 -39 9 -73.5t27 -60.5t44 -40t61 -14q42 0 71 15.5t56 45.5l10 -10q-19 -23 -40 -38.5t-45.5 -23t-56.5 -7.5z" />
    <glyph glyph-name="ordfeminine" unicode="&#xaa;" horiz-adv-x="391" vert-adv-y="1485" 
d="M152 362q-26 0 -52 9.5t-43 31.5t-17 58q0 40 30 64t85 33q25 4 54.5 6t54.5 3v52q0 38 -10 61t-30.5 33t-50.5 10q-25 0 -44.5 -6.5t-36.5 -17.5q10 -17 19 -34.5t9 -31.5q0 -8 -11.5 -16.5t-28.5 -8.5q-18 0 -28.5 12t-10.5 32q0 24 18.5 44.5t49.5 33t70 12.5
q38 0 66 -13t43.5 -41.5t15.5 -75.5v-185q0 -23 7.5 -32.5t25.5 -9.5q11 0 21 3.5t18 7.5l5 -10q-11 -9 -24.5 -17t-33.5 -8q-30 0 -43 16t-15 48q-16 -32 -42 -47.5t-71 -15.5zM159 382q28 0 51.5 10.5t38.5 34t15 60.5v63q-49 -1 -90 -7.5t-66.5 -24.5t-25.5 -55
q0 -43 19.5 -62t57.5 -19z" />
    <glyph glyph-name="guillemotleft" unicode="&#xab;" horiz-adv-x="446" vert-adv-y="1485" 
d="M390 66l-164 168q-9 9 -12.5 15.5t-3.5 13.5q0 8 3.5 13.5t11.5 14.5l165 174l13 -11l-141 -190l142 -187zM230 66l-164 168q-9 9 -12.5 15.5t-3.5 13.5q0 8 3.5 13.5t11.5 14.5l165 174l13 -11l-141 -190l142 -187z" />
    <glyph glyph-name="logicalnot" unicode="&#xac;" horiz-adv-x="582" vert-adv-y="1485" 
d="M471 158v174h-383v23h406v-197h-23z" />
    <glyph glyph-name="uni00AD" unicode="&#xad;" horiz-adv-x="0" vert-adv-y="1485" 
 />
    <glyph glyph-name="registered" unicode="&#xae;" horiz-adv-x="465" vert-adv-y="1485" 
d="M232 417q-56 0 -94.5 21.5t-57.5 58.5t-19 84q0 53 23 91t62 59t87 21q79 0 125 -45t46 -119q0 -51 -22 -89.5t-60.5 -60t-89.5 -21.5zM318 469q8 0 14.5 1.5t10.5 3.5v7q-3 -1 -6 -1.5t-7 -0.5q-7 0 -13.5 4t-11.5 19l-11 28q-7 18 -16 34.5t-34 21.5v2q12 1 28.5 6
t28.5 17.5t12 34.5q0 31 -23.5 43.5t-61.5 12.5h-85l-1 -6l15 -3q8 -1 11 -4.5t3 -13.5v-174q0 -7 -2.5 -12t-11.5 -7l-18 -2v-7h89v7l-20 2q-7 1 -10.5 4.5t-3.5 14.5v81h26q19 0 29 -13t20 -40l10 -26q7 -16 15 -25t24 -9zM194 592v101h27q25 0 46.5 -8.5t21.5 -37.5
q0 -31 -19 -43t-44 -12h-32z" />
    <glyph glyph-name="macron" unicode="&#xaf;" horiz-adv-x="500" vert-adv-y="1485" 
d="M129 649v41h242v-41h-242z" />
    <glyph glyph-name="degree" unicode="&#xb0;" horiz-adv-x="310" vert-adv-y="1485" 
d="M155 558q-52 0 -81 30t-29 81q0 50 29.5 80.5t80.5 30.5q52 0 81 -30t29 -81t-29 -81t-81 -30zM156 584q38 0 59.5 23t21.5 61q0 41 -22 63.5t-60 22.5t-60 -23t-22 -62t21.5 -62t61.5 -23z" />
    <glyph glyph-name="plusminus" unicode="&#xb1;" horiz-adv-x="582" vert-adv-y="1485" 
d="M278 131v182h107v23h-107v173h24v-173h-105v-23h105v-182h-24zM106 1v23h370v-23h-370z" />
    <glyph glyph-name="uni00B2" unicode="&#xb2;" horiz-adv-x="370" vert-adv-y="1485" 
d="M31 374l-4 27q77 69 124 117t72 82t34 62t9 57q0 51 -26.5 75.5t-76.5 24.5q-21 0 -42 -5t-38 -17q10 -16 20 -35t10 -35q0 -11 -10 -21.5t-29 -10.5q-23 0 -34 15.5t-11 31.5q0 28 19 50t52 34.5t75 12.5q49 0 80 -14.5t46.5 -40.5t15.5 -59q0 -38 -18 -72.5t-50.5 -70
t-77.5 -76t-100 -90.5h169q25 0 39.5 8.5t23.5 30t16 60.5h15l-19 -141h-284z" />
    <glyph glyph-name="uni00B3" unicode="&#xb3;" horiz-adv-x="377" vert-adv-y="1485" 
d="M181 362q-53 0 -84.5 17t-48 38.5t-23.5 36.5l13 9q12 -23 31 -41t46 -28.5t63 -10.5q40 0 65 14t36.5 39t11.5 58q0 43 -15.5 67.5t-47.5 33.5t-84 7l2 17q67 5 97 28.5t30 76.5q0 51 -25.5 73t-76.5 22q-27 0 -49.5 -6.5t-43.5 -22.5q7 -11 19.5 -29.5t12.5 -34.5
q0 -12 -9.5 -22.5t-28.5 -10.5q-22 0 -33 15t-11 34q0 25 19.5 47t53 36t75.5 14q44 0 76 -13.5t49.5 -38.5t17.5 -59q0 -42 -26 -71t-75 -40v-3q59 -9 90.5 -37t31.5 -79q0 -43 -22.5 -73.5t-58.5 -46.5t-78 -16z" />
    <glyph glyph-name="acute" unicode="&#xb4;" horiz-adv-x="500" vert-adv-y="1485" 
d="M200 586l-9 9l99 137q8 11 15.5 16.5t16.5 5.5q7 0 12.5 -3.5t8 -9.5t2.5 -13q0 -9 -7 -20t-23 -25z" />
    <glyph glyph-name="uni00B5" unicode="&#xb5;" horiz-adv-x="560" vert-adv-y="1485" 
d="M94 -220l-7 4q-2 20 -3 53.5t-2 89t-1 138.5q0 7 -0.5 39t-1 79.5t-1 100.5t-1 101.5t-1 82t-0.5 41.5l46 5l6 -5q-1 -30 -1.5 -81.5t-1 -114t-0.5 -126.5v-119q19 -23 49.5 -36t63.5 -13q72 0 114 38.5t42 103.5v63.5t-1 71t-1.5 70.5t-1 64t-0.5 50.5t-1 28.5l46 5
l6 -5q-1 -29 -1.5 -65.5t-0.5 -77.5t-0.5 -86t-0.5 -91.5v-93.5q0 -26 5 -43t16.5 -25t28.5 -8q13 0 26 5t26 13l7 -10q-15 -20 -34.5 -30.5t-40.5 -10.5q-26 0 -42.5 9.5t-25 30.5t-8.5 54h-2q-24 -45 -66 -69.5t-95 -24.5q-31 0 -59.5 9t-45.5 25h-2q1 -33 2.5 -75
t4.5 -83.5t7 -76.5z" />
    <glyph glyph-name="paragraph" unicode="&#xb6;" horiz-adv-x="483" vert-adv-y="1485" 
d="M192 -121v16l62 6q27 2 34.5 13.5t7.5 39.5v769h132v-15l-56 -6q-22 -2 -28 -15.5t-6 -46.5v-761h-146zM234 260q-55 0 -97 27.5t-66 79.5t-24 126q0 76 23.5 127t66 77t99.5 26h11v-463h-13z" />
    <glyph glyph-name="periodcentered" unicode="&#xb7;" horiz-adv-x="267" vert-adv-y="1485" 
d="M134 252q-22 0 -35.5 14t-13.5 35q0 22 13.5 36t34.5 14q22 0 36.5 -13.5t14.5 -35.5t-14 -36t-36 -14z" />
    <glyph glyph-name="cedilla" unicode="&#xb8;" horiz-adv-x="500" vert-adv-y="1485" 
d="M255 -225q-38 0 -62.5 14.5t-37.5 29.5l9 12q13 -11 34 -21t45 -10q29 0 45.5 14t16.5 44t-16.5 42.5t-38.5 12.5q-9 0 -18 -1t-17 -3l-4 7l34 87h18l-26 -67q33 6 58 -2t39.5 -27t14.5 -45q0 -23 -10 -43t-30.5 -32t-53.5 -12z" />
    <glyph glyph-name="uni00B9" unicode="&#xb9;" horiz-adv-x="278" vert-adv-y="1485" 
d="M30 374v15l66 5q15 1 19.5 9t4.5 26v329q0 21 -5 29.5t-32 9.5l-51 3l1 14l126 18l6 -6v-399q0 -18 4.5 -25t20.5 -8l64 -5v-15h-224z" />
    <glyph glyph-name="ordmasculine" unicode="&#xba;" horiz-adv-x="397" vert-adv-y="1485" 
d="M195 362q-53 0 -88.5 26t-52.5 67.5t-17 90.5q0 71 22.5 114t61 62.5t84.5 19.5q44 0 79 -21.5t55.5 -62.5t20.5 -98q0 -64 -19.5 -108t-57 -67t-88.5 -23zM205 381q34 0 59 19.5t38.5 56t13.5 88.5q0 54 -13.5 94t-40 62t-67.5 22q-33 0 -59.5 -17.5t-41.5 -52
t-15 -88.5q0 -56 13.5 -97.5t41.5 -64t71 -22.5z" />
    <glyph glyph-name="guillemotright" unicode="&#xbb;" horiz-adv-x="445" vert-adv-y="1485" 
d="M57 66l-14 11l142 190l-142 187l14 11l163 -168q9 -8 12.5 -14.5t3.5 -14.5q0 -7 -3 -13t-12 -15zM216 66l-14 11l142 190l-142 187l14 11l163 -168q9 -8 12.5 -14.5t3.5 -14.5q0 -7 -3 -13t-12 -15z" />
    <glyph glyph-name="onequarter" unicode="&#xbc;" horiz-adv-x="820" vert-adv-y="1485" 
d="M30 259v15l66 5q15 1 19.5 9t4.5 26v329q0 21 -5 29.5t-32 9.5l-51 3l1 14l126 18l6 -6v-399q0 -18 4.5 -25t20.5 -8l64 -5v-15h-224zM199 -14l417 728h30l-416 -728h-31zM684 0v110h-232l-4 16l244 334l30 5l7 -6v-327h80v-22h-80v-110h-45zM480 132h204v275v3z" />
    <glyph glyph-name="onehalf" unicode="&#xbd;" horiz-adv-x="904" vert-adv-y="1485" 
d="M30 259v15l66 5q15 1 19.5 9t4.5 26v329q0 21 -5 29.5t-32 9.5l-51 3l1 14l126 18l6 -6v-399q0 -18 4.5 -25t20.5 -8l64 -5v-15h-224zM199 -14l417 728h30l-416 -728h-31zM565 13l-4 27q77 69 124 117t72 82t34 62t9 57q0 51 -26.5 75.5t-76.5 24.5q-21 0 -42 -5t-38 -17
q10 -16 20 -35t10 -35q0 -11 -10 -21.5t-29 -10.5q-23 0 -34 15.5t-11 31.5q0 28 19 50t52 34.5t75 12.5q49 0 80 -14.5t46.5 -40.5t15.5 -59q0 -38 -18 -72.5t-50.5 -70t-77.5 -76t-100 -90.5h169q25 0 39.5 8.5t23.5 30t16 60.5h15l-19 -141h-284z" />
    <glyph glyph-name="threequarters" unicode="&#xbe;" horiz-adv-x="882" vert-adv-y="1485" 
d="M265 -14l417 728h30l-416 -728h-31zM746 0v110h-232l-4 16l244 334l30 5l7 -6v-327h80v-22h-80v-110h-45zM542 132h204v275v3zM181 237q-53 0 -84.5 17t-48 38.5t-23.5 36.5l13 9q12 -23 31 -41t46 -28.5t63 -10.5q40 0 65 14t36.5 39t11.5 58q0 43 -15.5 67.5
t-47.5 33.5t-84 7l2 17q67 5 97 28.5t30 76.5q0 51 -25.5 73t-76.5 22q-27 0 -49.5 -6.5t-43.5 -22.5q7 -11 19.5 -29.5t12.5 -34.5q0 -12 -9.5 -22.5t-28.5 -10.5q-22 0 -33 15t-11 34q0 25 19.5 47t53 36t75.5 14q44 0 76 -13.5t49.5 -38.5t17.5 -59q0 -42 -26 -71
t-75 -40v-3q59 -9 90.5 -37t31.5 -79q0 -43 -22.5 -73.5t-58.5 -46.5t-78 -16z" />
    <glyph glyph-name="questiondown" unicode="&#xbf;" horiz-adv-x="467" vert-adv-y="1485" 
d="M258 332v-136q0 -17 -6 -35t-19.5 -37.5t-38.5 -44.5q-47 -46 -63.5 -84.5t-16.5 -86.5q0 -55 34 -86t87 -31q43 0 74.5 13.5t49.5 33.5q-23 27 -31 41.5t-8 30.5q0 14 11.5 23.5t30.5 9.5q23 0 33 -14.5t10 -34.5q0 -39 -25.5 -66.5t-64 -42.5t-78.5 -15q-51 0 -89 18.5
t-59 52.5t-21 80q0 31 7.5 60t26 59t52.5 64q27 26 43 43t23.5 31t10.5 30t3 41v83h24zM247 515q21 0 34.5 -13.5t13.5 -34.5q0 -22 -13.5 -36.5t-34.5 -14.5q-22 0 -36 14.5t-14 35.5q0 22 14 35.5t36 13.5z" />
    <glyph glyph-name="Agrave" unicode="&#xc0;" vert-adv-y="1485" 
d="M-6 0v15l40 6q17 2 24 10.5t16 35.5l213 656h30l208 -652q8 -26 17.5 -36.5t30.5 -13.5l39 -5v-16h-208v15l51 6q20 2 22.5 13.5t-4.5 33.5l-53 179h-262l-59 -180q-7 -20 -4 -32t24 -14l57 -6v-15h-182zM164 268h248l-122 392h-1zM364 771l-143 80q-17 10 -25 19.5
t-8 20.5t7.5 20t18.5 9q8 0 15.5 -4t20.5 -18l122 -116z" />
    <glyph glyph-name="Aacute" unicode="&#xc1;" vert-adv-y="1485" 
d="M-6 0v15l40 6q17 2 24 10.5t16 35.5l213 656h30l208 -652q8 -26 17.5 -36.5t30.5 -13.5l39 -5v-16h-208v15l51 6q20 2 22.5 13.5t-4.5 33.5l-53 179h-262l-59 -180q-7 -20 -4 -32t24 -14l57 -6v-15h-182zM164 268h248l-122 392h-1zM240 771l-8 11l122 116q13 14 21 18
t15 4q11 0 18 -9t7 -20t-7.5 -20.5t-24.5 -19.5z" />
    <glyph glyph-name="Acircumflex" unicode="&#xc2;" vert-adv-y="1485" 
d="M-6 0v15l40 6q17 2 24 10.5t16 35.5l213 656h30l208 -652q8 -26 17.5 -36.5t30.5 -13.5l39 -5v-16h-208v15l51 6q20 2 22.5 13.5t-4.5 33.5l-53 179h-262l-59 -180q-7 -20 -4 -32t24 -14l57 -6v-15h-182zM164 268h248l-122 392h-1zM167 767l-9 10l112 126q8 8 15 12.5
t17 4.5q11 0 18 -5t19 -19l105 -119l-9 -10l-133 92z" />
    <glyph glyph-name="Atilde" unicode="&#xc3;" horiz-adv-x="608" vert-adv-y="1485" 
d="M-6 0v15l40 6q17 2 24 10.5t16 35.5l213 656h30l208 -652q8 -26 17.5 -36.5t30.5 -13.5l39 -5v-16h-208v15l51 6q20 2 22.5 13.5t-4.5 33.5l-53 179h-262l-59 -180q-7 -20 -4 -32t24 -14l57 -6v-15h-182zM164 268h248l-122 392h-1zM380 798q-16 0 -34.5 5.5t-44.5 16.5
q-24 10 -38 15t-22 7.5t-14 2.5q-11 0 -20 -9.5t-22 -36.5l-13 5q6 34 15 51t21.5 24t27.5 7t32.5 -4.5t48.5 -17.5q36 -16 49.5 -20.5t22.5 -4.5t18 7.5t24 38.5l13 -5q-7 -35 -16.5 -52.5t-21.5 -23.5t-26 -6z" />
    <glyph glyph-name="Adieresis" unicode="&#xc4;" vert-adv-y="1485" 
d="M-6 0v15l40 6q17 2 24 10.5t16 35.5l213 656h30l208 -652q8 -26 17.5 -36.5t30.5 -13.5l39 -5v-16h-208v15l51 6q20 2 22.5 13.5t-4.5 33.5l-53 179h-262l-59 -180q-7 -20 -4 -32t24 -14l57 -6v-15h-182zM164 268h248l-122 392h-1zM391 796q-21 0 -31 12t-10 32t10 33
t32 13q21 0 31 -11t10 -31q0 -19 -10.5 -33.5t-31.5 -14.5zM216 796q-21 0 -31.5 12t-10.5 32t11 33t32 13q20 0 30.5 -11t10.5 -31q0 -19 -10 -33.5t-32 -14.5z" />
    <glyph glyph-name="Aring" unicode="&#xc5;" vert-adv-y="1485" 
d="M-6 0v15l40 6q17 2 24 10.5t16 35.5l213 656h30l208 -652q8 -26 17.5 -36.5t30.5 -13.5l39 -5v-16h-208v15l51 6q20 2 22.5 13.5t-4.5 33.5l-53 179h-262l-59 -180q-7 -20 -4 -32t24 -14l57 -6v-15h-182zM164 268h248l-122 392h-1zM302 757q-52 0 -76 27t-24 69
q0 25 11.5 45.5t33.5 34t56 13.5q47 0 72.5 -25.5t25.5 -66.5q0 -27 -11.5 -49.5t-33 -35t-54.5 -12.5zM304 775q32 0 44 20t12 57q0 24 -6.5 41t-19 26.5t-34.5 9.5q-31 0 -43.5 -21t-12.5 -56q0 -23 6 -40.5t19 -27t35 -9.5z" />
    <glyph glyph-name="AE" unicode="&#xc6;" horiz-adv-x="881" vert-adv-y="1485" 
d="M-6 0v15l40 6q11 2 21 5.5t19 12.5t16 25l308 637l-64 7v15h453l30 -151l-16 -1q-15 48 -28 74.5t-29.5 38.5t-41.5 15t-64 3h-131v-327h135q27 0 43.5 3t25 12t14 27t10.5 47l16 1v-200h-16q-5 38 -13.5 56.5t-27 25.5t-58.5 7h-129v-333h165q36 0 59 5t39 18.5t27.5 41
t22.5 72.5h16l-16 -158h-453v15l60 6q19 2 25 11.5t6 35.5v286h-202l-139 -291q-5 -10 -7 -17.5t-1 -13t7 -8t17 -3.5l56 -6v-15h-195zM267 375h191v327h-34z" />
    <glyph glyph-name="Ccedilla" unicode="&#xc7;" horiz-adv-x="660" vert-adv-y="1485" 
d="M367 -225q-39 0 -63.5 14.5t-37.5 29.5l10 12q12 -11 33 -21t45 -10q29 0 45.5 14t16.5 44t-16 42.5t-38 12.5q-10 0 -19 -1t-17 -3l-3 7l27 70q-89 2 -156 45t-104 125t-37 199q0 89 21.5 159t61.5 120.5t96.5 76.5t125.5 26q65 0 112.5 -23t81.5 -57l10 80h14l36 -221
l-15 -1q-26 67 -60 112t-79 67t-104 22q-75 0 -131.5 -40t-87.5 -117t-31 -189q0 -81 17 -146t50.5 -110.5t84 -70.5t118.5 -25q42 0 81.5 11t77 37t68.5 70l16 -14q-22 -33 -48 -57t-54 -39t-56 -24t-55 -13l-18 -2t-18 -1l-20 -50q33 6 58.5 -2t39.5 -27t14 -45
q0 -23 -10 -43t-30.5 -32t-52.5 -12z" />
    <glyph glyph-name="Egrave" unicode="&#xc8;" horiz-adv-x="576" vert-adv-y="1485" 
d="M58 0v15l62 6q19 2 25 11.5t6 35.5v587q0 26 -6 36t-27 12l-60 5v15h427l30 -151l-16 -1q-15 48 -28.5 74.5t-29.5 38.5t-41.5 15t-63.5 3h-136v-321h136q37 0 53.5 6t24.5 25t15 58l16 1v-200h-16q-6 38 -14 56.5t-27 25.5t-58 7h-130v-339h166q35 0 59 5t40 19.5t27 43
t22 75.5h16l-17 -164h-455zM360 771l-143 80q-17 10 -25 19.5t-8 20.5t7.5 20t18.5 9q8 0 15.5 -4t20.5 -18l122 -116z" />
    <glyph glyph-name="Eacute" unicode="&#xc9;" horiz-adv-x="576" vert-adv-y="1485" 
d="M58 0v15l62 6q19 2 25 11.5t6 35.5v587q0 26 -6 36t-27 12l-60 5v15h427l30 -151l-16 -1q-15 48 -28.5 74.5t-29.5 38.5t-41.5 15t-63.5 3h-136v-321h136q37 0 53.5 6t24.5 25t15 58l16 1v-200h-16q-6 38 -14 56.5t-27 25.5t-58 7h-130v-339h166q35 0 59 5t40 19.5t27 43
t22 75.5h16l-17 -164h-455zM236 771l-8 11l122 116q13 14 21 18t15 4q11 0 18 -9t7 -20t-7.5 -20.5t-24.5 -19.5z" />
    <glyph glyph-name="Ecircumflex" unicode="&#xca;" horiz-adv-x="576" vert-adv-y="1485" 
d="M58 0v15l62 6q19 2 25 11.5t6 35.5v587q0 26 -6 36t-27 12l-60 5v15h427l30 -151l-16 -1q-15 48 -28.5 74.5t-29.5 38.5t-41.5 15t-63.5 3h-136v-321h136q37 0 53.5 6t24.5 25t15 58l16 1v-200h-16q-6 38 -14 56.5t-27 25.5t-58 7h-130v-339h166q35 0 59 5t40 19.5t27 43
t22 75.5h16l-17 -164h-455zM163 767l-9 10l112 126q8 8 15 12.5t17 4.5q11 0 18 -5t19 -19l105 -119l-9 -10l-133 92z" />
    <glyph glyph-name="Edieresis" unicode="&#xcb;" horiz-adv-x="576" vert-adv-y="1485" 
d="M58 0v15l62 6q19 2 25 11.5t6 35.5v587q0 26 -6 36t-27 12l-60 5v15h427l30 -151l-16 -1q-15 48 -28.5 74.5t-29.5 38.5t-41.5 15t-63.5 3h-136v-321h136q37 0 53.5 6t24.5 25t15 58l16 1v-200h-16q-6 38 -14 56.5t-27 25.5t-58 7h-130v-339h166q35 0 59 5t40 19.5t27 43
t22 75.5h16l-17 -164h-455zM387 796q-21 0 -31 12t-10 32t10 33t32 13q21 0 31 -11t10 -31q0 -19 -10.5 -33.5t-31.5 -14.5zM212 796q-21 0 -31.5 12t-10.5 32t11 33t32 13q20 0 30.5 -11t10.5 -31q0 -19 -10 -33.5t-32 -14.5z" />
    <glyph glyph-name="Igrave" unicode="&#xcc;" horiz-adv-x="351" vert-adv-y="1485" 
d="M58 0v15l62 6q19 2 25 11.5t6 35.5v587q0 26 -6.5 36t-26.5 12l-60 5v15h236v-15l-63 -5q-19 -2 -25 -11.5t-6 -37.5v-588q0 -24 7 -33.5t26 -11.5l61 -6v-15h-236zM239 769l-143 80q-17 10 -25 19.5t-8 20.5t7.5 20t18.5 9q8 0 15.5 -4t20.5 -18l122 -116z" />
    <glyph glyph-name="Iacute" unicode="&#xcd;" horiz-adv-x="351" vert-adv-y="1485" 
d="M58 0v15l62 6q19 2 25 11.5t6 35.5v587q0 26 -6.5 36t-26.5 12l-60 5v15h236v-15l-63 -5q-19 -2 -25 -11.5t-6 -37.5v-588q0 -24 7 -33.5t26 -11.5l61 -6v-15h-236zM115 769l-8 11l122 116q13 14 21 18t15 4q11 0 18 -9t7 -20t-7.5 -20.5t-24.5 -19.5z" />
    <glyph glyph-name="Icircumflex" unicode="&#xce;" horiz-adv-x="351" vert-adv-y="1485" 
d="M58 0v15l62 6q19 2 25 11.5t6 35.5v587q0 26 -6.5 36t-26.5 12l-60 5v15h236v-15l-63 -5q-19 -2 -25 -11.5t-6 -37.5v-588q0 -24 7 -33.5t26 -11.5l61 -6v-15h-236zM42 765l-9 10l112 126q8 8 15 12.5t17 4.5q11 0 18 -5t19 -19l105 -119l-9 -10l-133 92z" />
    <glyph glyph-name="Idieresis" unicode="&#xcf;" horiz-adv-x="351" vert-adv-y="1485" 
d="M58 0v15l62 6q19 2 25 11.5t6 35.5v587q0 26 -6.5 36t-26.5 12l-60 5v15h236v-15l-63 -5q-19 -2 -25 -11.5t-6 -37.5v-588q0 -24 7 -33.5t26 -11.5l61 -6v-15h-236zM266 794q-21 0 -31 12t-10 32t10 33t32 13q21 0 31 -11t10 -31q0 -19 -10.5 -33.5t-31.5 -14.5zM91 794
q-21 0 -31.5 12t-10.5 32t11 33t32 13q20 0 30.5 -11t10.5 -31q0 -19 -10 -33.5t-32 -14.5z" />
    <glyph glyph-name="Eth" unicode="&#xd0;" horiz-adv-x="717" vert-adv-y="1485" 
d="M315 723q60 0 113 -12t96 -37.5t74.5 -65.5t48 -95.5t16.5 -128.5q0 -113 -28.5 -187.5t-78.5 -117.5t-114.5 -61t-136.5 -18h-247v15l62 6q19 2 25 11.5t6 35.5v288h-101l3 21h98v278q0 26 -6 36t-27 12l-60 5v15h257zM292 21q69 0 127.5 16t101.5 55t67 108t24 175
q0 111 -36 183.5t-103.5 108t-164.5 35.5h-108v-325h211v-21h-211v-330q19 -2 43 -3.5t49 -1.5z" />
    <glyph glyph-name="Ntilde" unicode="&#xd1;" horiz-adv-x="774" vert-adv-y="1485" 
d="M58 0v15l59 4q19 1 26.5 11.5t7.5 36.5v590q0 25 -5.5 34.5t-27.5 11.5l-60 5v15h147l397 -628h1v561q0 25 -8 35t-30 12l-53 5v15h210v-15l-61 -4q-19 -2 -26 -12t-7 -37v-655h-27l-422 674h-2v-608q0 -26 7 -35.5t26 -11.5l58 -4v-15h-210zM464 798q-16 0 -34.5 5.5
t-44.5 16.5q-24 10 -38 15t-22 7.5t-14 2.5q-11 0 -20 -9.5t-22 -36.5l-13 5q6 34 15 51t21.5 24t27.5 7t32.5 -4.5t48.5 -17.5q36 -16 49.5 -20.5t22.5 -4.5t18 7.5t24 38.5l13 -5q-7 -35 -16.5 -52.5t-21.5 -23.5t-26 -6z" />
    <glyph glyph-name="Ograve" unicode="&#xd2;" horiz-adv-x="700" vert-adv-y="1485" 
d="M351 -14q-95 0 -161.5 44t-101.5 126t-35 195q0 123 35 209t101.5 131.5t163.5 45.5q94 0 159.5 -43.5t99.5 -124.5t34 -194q0 -95 -20 -167.5t-58.5 -122t-93 -74.5t-123.5 -25zM356 8q60 0 104.5 23.5t74 68.5t44.5 112t15 152q0 83 -16 148.5t-47 110.5t-77.5 69
t-107.5 24q-60 0 -105.5 -23.5t-75 -68.5t-44.5 -110t-15 -148q0 -84 16 -150.5t47.5 -113t78.5 -70.5t108 -24zM412 771l-143 80q-17 10 -25 19.5t-8 20.5t7.5 20t18.5 9q8 0 15.5 -4t20.5 -18l122 -116z" />
    <glyph glyph-name="Oacute" unicode="&#xd3;" horiz-adv-x="700" vert-adv-y="1485" 
d="M351 -14q-95 0 -161.5 44t-101.5 126t-35 195q0 123 35 209t101.5 131.5t163.5 45.5q94 0 159.5 -43.5t99.5 -124.5t34 -194q0 -95 -20 -167.5t-58.5 -122t-93 -74.5t-123.5 -25zM356 8q60 0 104.5 23.5t74 68.5t44.5 112t15 152q0 83 -16 148.5t-47 110.5t-77.5 69
t-107.5 24q-60 0 -105.5 -23.5t-75 -68.5t-44.5 -110t-15 -148q0 -84 16 -150.5t47.5 -113t78.5 -70.5t108 -24zM288 771l-8 11l122 116q13 14 21 18t15 4q11 0 18 -9t7 -20t-7.5 -20.5t-24.5 -19.5z" />
    <glyph glyph-name="Ocircumflex" unicode="&#xd4;" horiz-adv-x="700" vert-adv-y="1485" 
d="M351 -14q-95 0 -161.5 44t-101.5 126t-35 195q0 123 35 209t101.5 131.5t163.5 45.5q94 0 159.5 -43.5t99.5 -124.5t34 -194q0 -95 -20 -167.5t-58.5 -122t-93 -74.5t-123.5 -25zM356 8q60 0 104.5 23.5t74 68.5t44.5 112t15 152q0 83 -16 148.5t-47 110.5t-77.5 69
t-107.5 24q-60 0 -105.5 -23.5t-75 -68.5t-44.5 -110t-15 -148q0 -84 16 -150.5t47.5 -113t78.5 -70.5t108 -24zM215 767l-9 10l112 126q8 8 15 12.5t17 4.5q11 0 18 -5t19 -19l105 -119l-9 -10l-133 92z" />
    <glyph glyph-name="Otilde" unicode="&#xd5;" horiz-adv-x="700" vert-adv-y="1485" 
d="M351 -14q-95 0 -161.5 44t-101.5 126t-35 195q0 123 35 209t101.5 131.5t163.5 45.5q94 0 159.5 -43.5t99.5 -124.5t34 -194q0 -95 -20 -167.5t-58.5 -122t-93 -74.5t-123.5 -25zM356 8q60 0 104.5 23.5t74 68.5t44.5 112t15 152q0 83 -16 148.5t-47 110.5t-77.5 69
t-107.5 24q-60 0 -105.5 -23.5t-75 -68.5t-44.5 -110t-15 -148q0 -84 16 -150.5t47.5 -113t78.5 -70.5t108 -24zM421 798q-16 0 -34.5 5.5t-44.5 16.5q-24 10 -38 15t-22 7.5t-14 2.5q-11 0 -20 -9.5t-22 -36.5l-13 5q6 34 15 51t21.5 24t27.5 7t32.5 -4.5t48.5 -17.5
q36 -16 49.5 -20.5t22.5 -4.5t18 7.5t24 38.5l13 -5q-7 -35 -16.5 -52.5t-21.5 -23.5t-26 -6z" />
    <glyph glyph-name="Odieresis" unicode="&#xd6;" horiz-adv-x="700" vert-adv-y="1485" 
d="M351 -14q-95 0 -161.5 44t-101.5 126t-35 195q0 123 35 209t101.5 131.5t163.5 45.5q94 0 159.5 -43.5t99.5 -124.5t34 -194q0 -95 -20 -167.5t-58.5 -122t-93 -74.5t-123.5 -25zM356 8q60 0 104.5 23.5t74 68.5t44.5 112t15 152q0 83 -16 148.5t-47 110.5t-77.5 69
t-107.5 24q-60 0 -105.5 -23.5t-75 -68.5t-44.5 -110t-15 -148q0 -84 16 -150.5t47.5 -113t78.5 -70.5t108 -24zM439 796q-21 0 -31 12t-10 32t10 33t32 13q21 0 31 -11t10 -31q0 -19 -10.5 -33.5t-31.5 -14.5zM264 796q-21 0 -31.5 12t-10.5 32t11 33t32 13q20 0 30.5 -11
t10.5 -31q0 -19 -10 -33.5t-32 -14.5z" />
    <glyph glyph-name="multiply" unicode="&#xd7;" horiz-adv-x="582" vert-adv-y="1485" 
d="M440 143l-149 149l-150 -151l-16 16l150 150l-145 146l18 17l145 -144l145 144l16 -16l-144 -145l148 -149z" />
    <glyph glyph-name="Oslash" unicode="&#xd8;" horiz-adv-x="718" vert-adv-y="1485" 
d="M59 -14l72 97q-38 47 -58 115t-20 153q0 123 35 209t101.5 131.5t163.5 45.5q63 0 113.5 -19.5t87.5 -57.5l56 77h30l-71 -95q39 -47 58 -114t19 -153q0 -95 -20 -167.5t-58.5 -122t-93 -74.5t-123.5 -25q-64 0 -115 20t-89 59l-58 -79h-30zM356 8q60 0 104.5 23.5
t74 68.5t44.5 112t15 152q0 76 -13 136.5t-39 104.5l-370 -505q21 -30 49 -50.5t62 -31t73 -10.5zM159 120l370 506q-21 30 -48 49.5t-61 30t-74 10.5q-60 0 -105.5 -23.5t-75 -68.5t-44.5 -110t-15 -148q0 -76 13.5 -138t39.5 -108z" />
    <glyph glyph-name="Ugrave" unicode="&#xd9;" horiz-adv-x="746" vert-adv-y="1485" 
d="M379 -14q-62 0 -108 16t-75.5 49t-44 83.5t-14.5 119.5v402q0 26 -6.5 35.5t-26.5 11.5l-62 5v15h236v-15l-64 -5q-16 -2 -23 -10.5t-7 -36.5v-384q0 -85 21 -142.5t67 -85.5t122 -28q69 0 114 31.5t67 91t22 143.5v374q0 25 -5.5 35t-25.5 12l-51 5v15h189v-15l-53 -5
q-19 -2 -24 -12t-5 -36v-376q0 -93 -27 -158.5t-81 -100t-135 -34.5zM456 771l-143 80q-17 10 -25 19.5t-8 20.5t7.5 20t18.5 9q8 0 15.5 -4t20.5 -18l122 -116z" />
    <glyph glyph-name="Uacute" unicode="&#xda;" horiz-adv-x="746" vert-adv-y="1485" 
d="M379 -14q-62 0 -108 16t-75.5 49t-44 83.5t-14.5 119.5v402q0 26 -6.5 35.5t-26.5 11.5l-62 5v15h236v-15l-64 -5q-16 -2 -23 -10.5t-7 -36.5v-384q0 -85 21 -142.5t67 -85.5t122 -28q69 0 114 31.5t67 91t22 143.5v374q0 25 -5.5 35t-25.5 12l-51 5v15h189v-15l-53 -5
q-19 -2 -24 -12t-5 -36v-376q0 -93 -27 -158.5t-81 -100t-135 -34.5zM332 771l-8 11l122 116q13 14 21 18t15 4q11 0 18 -9t7 -20t-7.5 -20.5t-24.5 -19.5z" />
    <glyph glyph-name="Ucircumflex" unicode="&#xdb;" horiz-adv-x="746" vert-adv-y="1485" 
d="M379 -14q-62 0 -108 16t-75.5 49t-44 83.5t-14.5 119.5v402q0 26 -6.5 35.5t-26.5 11.5l-62 5v15h236v-15l-64 -5q-16 -2 -23 -10.5t-7 -36.5v-384q0 -85 21 -142.5t67 -85.5t122 -28q69 0 114 31.5t67 91t22 143.5v374q0 25 -5.5 35t-25.5 12l-51 5v15h189v-15l-53 -5
q-19 -2 -24 -12t-5 -36v-376q0 -93 -27 -158.5t-81 -100t-135 -34.5zM259 767l-9 10l112 126q8 8 15 12.5t17 4.5q11 0 18 -5t19 -19l105 -119l-9 -10l-133 92z" />
    <glyph glyph-name="Udieresis" unicode="&#xdc;" horiz-adv-x="746" vert-adv-y="1485" 
d="M379 -14q-62 0 -108 16t-75.5 49t-44 83.5t-14.5 119.5v402q0 26 -6.5 35.5t-26.5 11.5l-62 5v15h236v-15l-64 -5q-16 -2 -23 -10.5t-7 -36.5v-384q0 -85 21 -142.5t67 -85.5t122 -28q69 0 114 31.5t67 91t22 143.5v374q0 25 -5.5 35t-25.5 12l-51 5v15h189v-15l-53 -5
q-19 -2 -24 -12t-5 -36v-376q0 -93 -27 -158.5t-81 -100t-135 -34.5zM483 796q-21 0 -31 12t-10 32t10 33t32 13q21 0 31 -11t10 -31q0 -19 -10.5 -33.5t-31.5 -14.5zM308 796q-21 0 -31.5 12t-10.5 32t11 33t32 13q20 0 30.5 -11t10.5 -31q0 -19 -10 -33.5t-32 -14.5z" />
    <glyph glyph-name="Yacute" unicode="&#xdd;" horiz-adv-x="564" vert-adv-y="1485" 
d="M159 0v15l71 6q19 2 25 11.5t6 35.5v273l-175 311q-15 25 -25.5 36t-33.5 15l-32 5v15h209v-15l-48 -5q-21 -2 -25.5 -12.5t9.5 -35.5l159 -284h1l158 286q11 19 6 31.5t-26 14.5l-48 5v15h182v-15l-42 -6q-17 -2 -24.5 -11t-22.5 -35l-173 -315v-275q0 -23 6 -33t25 -12
l68 -6v-15h-250zM233 771l-8 11l122 116q13 14 21 18t15 4q11 0 18 -9t7 -20t-7.5 -20.5t-24.5 -19.5z" />
    <glyph glyph-name="Thorn" unicode="&#xde;" horiz-adv-x="561" vert-adv-y="1485" 
d="M58 0v15l58 6q20 2 25.5 11.5t5.5 35.5v586q0 28 -6.5 38t-25.5 11l-57 5v15h253v-15l-82 -5q-20 -1 -26.5 -11.5t-6.5 -36.5v-98h73q50 0 89.5 -8t69.5 -23t50 -37.5t30 -52t10 -66.5q0 -39 -8.5 -71t-26 -56.5t-45.5 -41.5t-66.5 -26t-89.5 -9q-21 0 -37 0.5t-27.5 2
t-21.5 2.5v-105q0 -24 7.5 -33.5t26.5 -11.5l81 -6v-15h-253zM196 192q17 -2 36.5 -4t48.5 -2q43 0 77.5 9.5t58.5 30t36.5 55t12.5 84.5q0 70 -23 107t-67.5 51t-110.5 14h-69v-345z" />
    <glyph glyph-name="germandbls" unicode="&#xdf;" horiz-adv-x="613" vert-adv-y="1485" 
d="M265 -14l-9 171h14q9 -46 26.5 -76t39.5 -46.5t45.5 -22t45.5 -5.5q32 0 57.5 12.5t41 37.5t15.5 62t-17 61.5t-44 41.5t-57 32t-57 31.5t-44 39.5t-17 57q0 35 13 58.5t32.5 43.5t39 43t32.5 54.5t13 78.5q0 44 -18 65.5t-44.5 28.5t-54.5 7q-27 0 -53 -7t-47 -25
t-33.5 -52.5t-12.5 -89.5v-587h-130v15l54 5q15 1 21 9.5t6 35.5v421h-75v15l75 7v60q0 46 13 84.5t38 68t61.5 45.5t83.5 16q42 0 78.5 -12.5t59 -38.5t22.5 -71q0 -36 -13.5 -64.5t-33.5 -53t-40 -46t-33.5 -41.5t-13.5 -42q0 -32 17 -54t43.5 -38t56 -31.5t56 -34.5
t43.5 -48t17 -72q0 -32 -15 -67t-48 -58.5t-89 -23.5q-46 0 -81 15.5t-56 33.5l-8 -49h-16z" />
    <glyph glyph-name="agrave" unicode="&#xe0;" horiz-adv-x="490" vert-adv-y="1485" 
d="M195 -14q-64 0 -101.5 34t-37.5 98q0 51 26.5 85t88 53t169.5 22v100q0 46 -13.5 72.5t-39.5 38.5t-62 12q-35 0 -63.5 -9t-48.5 -25q11 -20 17 -32.5t8.5 -20.5t2.5 -15q0 -15 -11 -24.5t-30 -9.5q-17 0 -29 11t-12 30q0 38 26.5 63.5t65 39t78.5 13.5q59 0 94 -20.5
t50.5 -56t15.5 -84.5v-287q0 -29 11.5 -42t33.5 -13q16 0 29.5 5.5t23.5 12.5l8 -10q-16 -19 -35 -30t-43 -11q-32 0 -53.5 19.5t-20.5 67.5q-18 -31 -41 -50.5t-49.5 -28t-57.5 -8.5zM211 17q32 0 61.5 13t48.5 40t19 65v123q-86 -3 -137.5 -15.5t-73.5 -40t-22 -76.5
q0 -55 28.5 -82t75.5 -27zM276 586l-114 97q-17 14 -24 25t-7 20q0 7 3 13t8.5 9.5t12.5 3.5q8 0 15.5 -5.5t15.5 -16.5l100 -137z" />
    <glyph glyph-name="aacute" unicode="&#xe1;" horiz-adv-x="490" vert-adv-y="1485" 
d="M195 -14q-64 0 -101.5 34t-37.5 98q0 51 26.5 85t88 53t169.5 22v100q0 46 -13.5 72.5t-39.5 38.5t-62 12q-35 0 -63.5 -9t-48.5 -25q11 -20 17 -32.5t8.5 -20.5t2.5 -15q0 -15 -11 -24.5t-30 -9.5q-17 0 -29 11t-12 30q0 38 26.5 63.5t65 39t78.5 13.5q59 0 94 -20.5
t50.5 -56t15.5 -84.5v-287q0 -29 11.5 -42t33.5 -13q16 0 29.5 5.5t23.5 12.5l8 -10q-16 -19 -35 -30t-43 -11q-32 0 -53.5 19.5t-20.5 67.5q-18 -31 -41 -50.5t-49.5 -28t-57.5 -8.5zM211 17q32 0 61.5 13t48.5 40t19 65v123q-86 -3 -137.5 -15.5t-73.5 -40t-22 -76.5
q0 -55 28.5 -82t75.5 -27zM176 586l-9 9l99 137q8 11 15.5 16.5t16.5 5.5q7 0 12.5 -3.5t8 -9.5t2.5 -13q0 -9 -7 -20t-23 -25z" />
    <glyph glyph-name="acircumflex" unicode="&#xe2;" horiz-adv-x="490" vert-adv-y="1485" 
d="M195 -14q-64 0 -101.5 34t-37.5 98q0 51 26.5 85t88 53t169.5 22v100q0 46 -13.5 72.5t-39.5 38.5t-62 12q-35 0 -63.5 -9t-48.5 -25q11 -20 17 -32.5t8.5 -20.5t2.5 -15q0 -15 -11 -24.5t-30 -9.5q-17 0 -29 11t-12 30q0 38 26.5 63.5t65 39t78.5 13.5q59 0 94 -20.5
t50.5 -56t15.5 -84.5v-287q0 -29 11.5 -42t33.5 -13q16 0 29.5 5.5t23.5 12.5l8 -10q-16 -19 -35 -30t-43 -11q-32 0 -53.5 19.5t-20.5 67.5q-18 -31 -41 -50.5t-49.5 -28t-57.5 -8.5zM211 17q32 0 61.5 13t48.5 40t19 65v123q-86 -3 -137.5 -15.5t-73.5 -40t-22 -76.5
q0 -55 28.5 -82t75.5 -27zM104 586l-10 9l101 140q7 8 15.5 13t15.5 5q6 0 11 -1.5t10.5 -6t11.5 -13.5l100 -137l-10 -9l-124 109z" />
    <glyph glyph-name="atilde" unicode="&#xe3;" horiz-adv-x="490" vert-adv-y="1485" 
d="M195 -14q-64 0 -101.5 34t-37.5 98q0 51 26.5 85t88 53t169.5 22v100q0 46 -13.5 72.5t-39.5 38.5t-62 12q-35 0 -63.5 -9t-48.5 -25q11 -20 17 -32.5t8.5 -20.5t2.5 -15q0 -15 -11 -24.5t-30 -9.5q-17 0 -29 11t-12 30q0 38 26.5 63.5t65 39t78.5 13.5q59 0 94 -20.5
t50.5 -56t15.5 -84.5v-287q0 -29 11.5 -42t33.5 -13q16 0 29.5 5.5t23.5 12.5l8 -10q-16 -19 -35 -30t-43 -11q-32 0 -53.5 19.5t-20.5 67.5q-18 -31 -41 -50.5t-49.5 -28t-57.5 -8.5zM211 17q32 0 61.5 13t48.5 40t19 65v123q-86 -3 -137.5 -15.5t-73.5 -40t-22 -76.5
q0 -55 28.5 -82t75.5 -27zM299 627q-16 0 -34.5 5.5t-45.5 16.5q-23 9 -37 14.5t-22 7.5t-14 2q-12 0 -20.5 -9t-21.5 -36l-13 5q6 33 15 50t21.5 23.5t27.5 6.5t32 -4.5t48 -17.5q36 -15 49.5 -20t22.5 -5q10 0 19 8t23 38l13 -5q-6 -34 -15.5 -51.5t-22 -23t-25.5 -5.5z
" />
    <glyph glyph-name="adieresis" unicode="&#xe4;" horiz-adv-x="490" vert-adv-y="1485" 
d="M195 -14q-64 0 -101.5 34t-37.5 98q0 51 26.5 85t88 53t169.5 22v100q0 46 -13.5 72.5t-39.5 38.5t-62 12q-35 0 -63.5 -9t-48.5 -25q11 -20 17 -32.5t8.5 -20.5t2.5 -15q0 -15 -11 -24.5t-30 -9.5q-17 0 -29 11t-12 30q0 38 26.5 63.5t65 39t78.5 13.5q59 0 94 -20.5
t50.5 -56t15.5 -84.5v-287q0 -29 11.5 -42t33.5 -13q16 0 29.5 5.5t23.5 12.5l8 -10q-16 -19 -35 -30t-43 -11q-32 0 -53.5 19.5t-20.5 67.5q-18 -31 -41 -50.5t-49.5 -28t-57.5 -8.5zM211 17q32 0 61.5 13t48.5 40t19 65v123q-86 -3 -137.5 -15.5t-73.5 -40t-22 -76.5
q0 -55 28.5 -82t75.5 -27zM314 636q-22 0 -32 12t-10 32t10.5 33t31.5 13t31 -11t10 -31q0 -19 -10 -33.5t-31 -14.5zM138 636q-22 0 -32 12t-10 32t10.5 33t32.5 13q20 0 30.5 -11t10.5 -31q0 -19 -10.5 -33.5t-31.5 -14.5z" />
    <glyph glyph-name="aring" unicode="&#xe5;" horiz-adv-x="490" vert-adv-y="1485" 
d="M195 -14q-64 0 -101.5 34t-37.5 98q0 51 26.5 85t88 53t169.5 22v100q0 46 -13.5 72.5t-39.5 38.5t-62 12q-35 0 -63.5 -9t-48.5 -25q11 -20 17 -32.5t8.5 -20.5t2.5 -15q0 -15 -11 -24.5t-30 -9.5q-17 0 -29 11t-12 30q0 38 26.5 63.5t65 39t78.5 13.5q59 0 94 -20.5
t50.5 -56t15.5 -84.5v-287q0 -29 11.5 -42t33.5 -13q16 0 29.5 5.5t23.5 12.5l8 -10q-16 -19 -35 -30t-43 -11q-32 0 -53.5 19.5t-20.5 67.5q-18 -31 -41 -50.5t-49.5 -28t-57.5 -8.5zM211 17q32 0 61.5 13t48.5 40t19 65v123q-86 -3 -137.5 -15.5t-73.5 -40t-22 -76.5
q0 -55 28.5 -82t75.5 -27zM226 591q-52 0 -76 27t-24 68q0 25 11.5 46t33.5 34.5t56 13.5q47 0 72.5 -26t25.5 -66q0 -28 -11.5 -50t-33.5 -34.5t-54 -12.5zM228 609q22 0 34 9t17 26t5 42q0 24 -6.5 40.5t-19.5 26.5t-34 10t-33.5 -9.5t-17.5 -27t-5 -40.5t6 -40.5t19 -27
t35 -9.5z" />
    <glyph glyph-name="ae" unicode="&#xe6;" horiz-adv-x="741" vert-adv-y="1485" 
d="M195 -14q-43 0 -74 15t-48 44.5t-17 72.5q0 53 30 89.5t103 54.5q29 7 66.5 12t84.5 6v98q0 45 -13.5 72t-39.5 39t-62 12q-35 0 -63.5 -9.5t-48.5 -25.5q11 -20 17 -32t8.5 -20t2.5 -15q0 -15 -11 -24.5t-30 -9.5q-17 0 -29 11t-12 30q0 38 26.5 63.5t65 39t78.5 13.5
q65 0 101 -24.5t49 -67.5q28 44 68 68t90 24q51 0 87.5 -22.5t55 -61.5t18.5 -89q0 -17 -0.5 -37t-2.5 -40h-313q-2 -89 21 -142.5t61.5 -78t84.5 -24.5q38 0 73 15t69 50l12 -12q-37 -52 -80.5 -73t-90.5 -21q-57 0 -103 30.5t-73 95.5q-9 -44 -32 -71.5t-56 -41t-73 -13.5
zM211 17q32 0 61.5 13.5t48.5 41.5t19 70v116q-49 -2 -85.5 -6.5t-63.5 -13.5q-45 -13 -64.5 -39.5t-19.5 -72.5q0 -55 28.5 -82t75.5 -27zM383 295h263q2 16 2.5 29t0.5 26q0 77 -28.5 114t-85.5 37q-43 0 -75.5 -22t-52.5 -68t-24 -116z" />
    <glyph glyph-name="ccedilla" unicode="&#xe7;" horiz-adv-x="452" vert-adv-y="1485" 
d="M255 -225q-39 0 -63.5 14.5t-37.5 29.5l10 12q12 -11 33 -21t45 -10q29 0 45.5 14t16.5 44t-16 42.5t-38 12.5q-10 0 -19 -1t-17 -3l-3 7l27 70q-56 3 -100 33t-69 87t-25 141q0 91 28 151t76.5 91t108.5 31q45 0 79.5 -14t54 -38t19.5 -53q0 -21 -6 -34t-16 -19t-23 -6
q-22 0 -31 11.5t-9 27.5q0 15 9.5 30.5t25.5 38.5q-19 17 -43.5 26t-56.5 9q-46 0 -84 -21.5t-60 -73t-22 -141.5q0 -125 47 -182.5t120 -57.5q54 0 89 22t57 48l11 -9q-29 -44 -68 -69.5t-94 -28.5l-20 -50q33 6 58.5 -2t39.5 -27t14 -45q0 -23 -10 -43t-30.5 -32
t-52.5 -12z" />
    <glyph glyph-name="egrave" unicode="&#xe8;" horiz-adv-x="457" vert-adv-y="1485" 
d="M247 -14q-59 0 -105 28.5t-72 87t-26 149.5q0 82 26 142.5t72.5 94.5t109.5 34q54 0 90.5 -22.5t55.5 -61.5t19 -89q0 -17 -0.5 -37t-3.5 -40h-320q-2 -90 21.5 -144t63 -77.5t86.5 -23.5q41 0 76.5 15t68.5 50l10 -10q-37 -52 -80 -74t-92 -22zM94 295h271q2 16 2.5 29
t0.5 26q0 77 -29.5 114t-88.5 37q-45 0 -78.5 -22t-53.5 -68t-24 -116zM298 586l-114 97q-17 14 -24 25t-7 20q0 7 3 13t8.5 9.5t12.5 3.5q8 0 15.5 -5.5t15.5 -16.5l100 -137z" />
    <glyph glyph-name="eacute" unicode="&#xe9;" horiz-adv-x="457" vert-adv-y="1485" 
d="M247 -14q-59 0 -105 28.5t-72 87t-26 149.5q0 82 26 142.5t72.5 94.5t109.5 34q54 0 90.5 -22.5t55.5 -61.5t19 -89q0 -17 -0.5 -37t-3.5 -40h-320q-2 -90 21.5 -144t63 -77.5t86.5 -23.5q41 0 76.5 15t68.5 50l10 -10q-37 -52 -80 -74t-92 -22zM94 295h271q2 16 2.5 29
t0.5 26q0 77 -29.5 114t-88.5 37q-45 0 -78.5 -22t-53.5 -68t-24 -116zM198 586l-9 9l99 137q8 11 15.5 16.5t16.5 5.5q7 0 12.5 -3.5t8 -9.5t2.5 -13q0 -9 -7 -20t-23 -25z" />
    <glyph glyph-name="ecircumflex" unicode="&#xea;" horiz-adv-x="457" vert-adv-y="1485" 
d="M247 -14q-59 0 -105 28.5t-72 87t-26 149.5q0 82 26 142.5t72.5 94.5t109.5 34q54 0 90.5 -22.5t55.5 -61.5t19 -89q0 -17 -0.5 -37t-3.5 -40h-320q-2 -90 21.5 -144t63 -77.5t86.5 -23.5q41 0 76.5 15t68.5 50l10 -10q-37 -52 -80 -74t-92 -22zM94 295h271q2 16 2.5 29
t0.5 26q0 77 -29.5 114t-88.5 37q-45 0 -78.5 -22t-53.5 -68t-24 -116zM126 586l-10 9l101 140q7 8 15.5 13t15.5 5q6 0 11 -1.5t10.5 -6t11.5 -13.5l100 -137l-10 -9l-124 109z" />
    <glyph glyph-name="edieresis" unicode="&#xeb;" horiz-adv-x="457" vert-adv-y="1485" 
d="M247 -14q-59 0 -105 28.5t-72 87t-26 149.5q0 82 26 142.5t72.5 94.5t109.5 34q54 0 90.5 -22.5t55.5 -61.5t19 -89q0 -17 -0.5 -37t-3.5 -40h-320q-2 -90 21.5 -144t63 -77.5t86.5 -23.5q41 0 76.5 15t68.5 50l10 -10q-37 -52 -80 -74t-92 -22zM94 295h271q2 16 2.5 29
t0.5 26q0 77 -29.5 114t-88.5 37q-45 0 -78.5 -22t-53.5 -68t-24 -116zM335 636q-22 0 -32 12t-10 32t10.5 33t31.5 13t31 -11t10 -31q0 -19 -10 -33.5t-31 -14.5zM159 636q-22 0 -32 12t-10 32t10.5 33t32.5 13q20 0 30.5 -11t10.5 -31q0 -19 -10.5 -33.5t-31.5 -14.5z" />
    <glyph glyph-name="igrave" unicode="&#xec;" horiz-adv-x="288" vert-adv-y="1485" 
d="M48 0v15l51 5q16 2 21 10.5t5 34.5v356q0 38 -6 49.5t-27 12.5l-49 5l1 14l124 12l6 -5v-446q0 -24 5 -32.5t20 -10.5l52 -6v-14h-203zM175 586l-114 97q-17 14 -24 25t-7 20q0 7 3 13t8.5 9.5t12.5 3.5q8 0 15.5 -5.5t15.5 -16.5l100 -137z" />
    <glyph glyph-name="iacute" unicode="&#xed;" horiz-adv-x="288" vert-adv-y="1485" 
d="M48 0v15l51 5q16 2 21 10.5t5 34.5v356q0 38 -6 49.5t-27 12.5l-49 5l1 14l124 12l6 -5v-446q0 -24 5 -32.5t20 -10.5l52 -6v-14h-203zM75 586l-9 9l99 137q8 11 15.5 16.5t16.5 5.5q7 0 12.5 -3.5t8 -9.5t2.5 -13q0 -9 -7 -20t-23 -25z" />
    <glyph glyph-name="icircumflex" unicode="&#xee;" horiz-adv-x="288" vert-adv-y="1485" 
d="M48 0v15l51 5q16 2 21 10.5t5 34.5v356q0 38 -6 49.5t-27 12.5l-49 5l1 14l124 12l6 -5v-446q0 -24 5 -32.5t20 -10.5l52 -6v-14h-203zM3 586l-10 9l101 140q7 8 15.5 13t15.5 5q6 0 11 -1.5t10.5 -6t11.5 -13.5l100 -137l-10 -9l-124 109z" />
    <glyph glyph-name="idieresis" unicode="&#xef;" horiz-adv-x="288" vert-adv-y="1485" 
d="M48 0v15l51 5q16 2 21 10.5t5 34.5v356q0 38 -6 49.5t-27 12.5l-49 5l1 14l124 12l6 -5v-446q0 -24 5 -32.5t20 -10.5l52 -6v-14h-203zM213 636q-22 0 -32 12t-10 32t10.5 33t31.5 13t31 -11t10 -31q0 -19 -10 -33.5t-31 -14.5zM37 636q-22 0 -32 12t-10 32t10.5 33
t32.5 13q20 0 30.5 -11t10.5 -31q0 -19 -10.5 -33.5t-31.5 -14.5z" />
    <glyph glyph-name="eth" unicode="&#xf0;" horiz-adv-x="538" vert-adv-y="1485" 
d="M258 -14q-98 0 -156 68.5t-58 187.5q0 67 19.5 115t51.5 79t71 45.5t77 14.5q63 0 108.5 -28t65.5 -74l2 -1q-3 54 -15 104t-33.5 93t-54.5 75l-99 -80l-12 18l96 75q-36 30 -78.5 47.5t-98.5 24.5l4 18q57 -5 105 -24.5t87 -50.5l99 82l12 -18l-97 -77q43 -39 71.5 -92
t43.5 -117.5t15 -138.5q0 -85 -14 -149.5t-41.5 -108t-70.5 -66t-100 -22.5zM272 8q51 0 87 30t55.5 83t19.5 120q0 21 -1.5 44t-6.5 48t-17 52q-17 40 -52.5 65t-87.5 25q-50 0 -89.5 -25t-62 -77.5t-22.5 -134.5q0 -58 13 -101.5t37 -72t56 -42.5t71 -14z" />
    <glyph glyph-name="ntilde" unicode="&#xf1;" horiz-adv-x="593" vert-adv-y="1485" 
d="M38 0v15l52 5q16 2 21 10t5 35v356q0 37 -6 49t-27 13l-48 5l1 14l123 12l5 -5v-93h2q24 54 71 80t102 26q50 0 83 -19t49.5 -54.5t16.5 -87.5v-300q0 -22 6 -30.5t25 -10.5l47 -5v-15h-205v15l48 5q19 2 24.5 10.5t5.5 31.5v293q0 46 -12 75.5t-38 44t-66 14.5
q-45 0 -81 -19t-56.5 -53t-20.5 -79v-275q0 -23 5 -32t20 -11l55 -5v-15h-207zM373 627q-16 0 -34.5 5.5t-45.5 16.5q-23 9 -37 14.5t-22 7.5t-14 2q-12 0 -20.5 -9t-21.5 -36l-13 5q6 33 15 50t21.5 23.5t27.5 6.5t32 -4.5t48 -17.5q36 -15 49.5 -20t22.5 -5q10 0 19 8
t23 38l13 -5q-6 -34 -15.5 -51.5t-22 -23t-25.5 -5.5z" />
    <glyph glyph-name="ograve" unicode="&#xf2;" horiz-adv-x="521" vert-adv-y="1485" 
d="M262 -14q-68 0 -117 32t-75 91t-26 139q0 83 26 144t76 94.5t122 33.5q65 0 112 -31.5t72.5 -88t25.5 -132.5q0 -86 -25.5 -149.5t-73.5 -98t-117 -34.5zM269 8q50 0 85 25.5t54 79t19 135.5q0 63 -11 110t-31.5 78.5t-51.5 47t-73 15.5q-51 0 -88.5 -25t-57 -77.5
t-19.5 -134.5q0 -86 21 -142.5t59.5 -84t93.5 -27.5zM311 586l-114 97q-17 14 -24 25t-7 20q0 7 3 13t8.5 9.5t12.5 3.5q8 0 15.5 -5.5t15.5 -16.5l100 -137z" />
    <glyph glyph-name="oacute" unicode="&#xf3;" horiz-adv-x="521" vert-adv-y="1485" 
d="M262 -14q-68 0 -117 32t-75 91t-26 139q0 83 26 144t76 94.5t122 33.5q65 0 112 -31.5t72.5 -88t25.5 -132.5q0 -86 -25.5 -149.5t-73.5 -98t-117 -34.5zM269 8q50 0 85 25.5t54 79t19 135.5q0 63 -11 110t-31.5 78.5t-51.5 47t-73 15.5q-51 0 -88.5 -25t-57 -77.5
t-19.5 -134.5q0 -86 21 -142.5t59.5 -84t93.5 -27.5zM211 586l-9 9l99 137q8 11 15.5 16.5t16.5 5.5q7 0 12.5 -3.5t8 -9.5t2.5 -13q0 -9 -7 -20t-23 -25z" />
    <glyph glyph-name="ocircumflex" unicode="&#xf4;" horiz-adv-x="521" vert-adv-y="1485" 
d="M262 -14q-68 0 -117 32t-75 91t-26 139q0 83 26 144t76 94.5t122 33.5q65 0 112 -31.5t72.5 -88t25.5 -132.5q0 -86 -25.5 -149.5t-73.5 -98t-117 -34.5zM269 8q50 0 85 25.5t54 79t19 135.5q0 63 -11 110t-31.5 78.5t-51.5 47t-73 15.5q-51 0 -88.5 -25t-57 -77.5
t-19.5 -134.5q0 -86 21 -142.5t59.5 -84t93.5 -27.5zM139 586l-10 9l101 140q7 8 15.5 13t15.5 5q6 0 11 -1.5t10.5 -6t11.5 -13.5l100 -137l-10 -9l-124 109z" />
    <glyph glyph-name="otilde" unicode="&#xf5;" horiz-adv-x="521" vert-adv-y="1485" 
d="M262 -14q-68 0 -117 32t-75 91t-26 139q0 83 26 144t76 94.5t122 33.5q65 0 112 -31.5t72.5 -88t25.5 -132.5q0 -86 -25.5 -149.5t-73.5 -98t-117 -34.5zM269 8q50 0 85 25.5t54 79t19 135.5q0 63 -11 110t-31.5 78.5t-51.5 47t-73 15.5q-51 0 -88.5 -25t-57 -77.5
t-19.5 -134.5q0 -86 21 -142.5t59.5 -84t93.5 -27.5zM334 627q-16 0 -34.5 5.5t-45.5 16.5q-23 9 -37 14.5t-22 7.5t-14 2q-12 0 -20.5 -9t-21.5 -36l-13 5q6 33 15 50t21.5 23.5t27.5 6.5t32 -4.5t48 -17.5q36 -15 49.5 -20t22.5 -5q10 0 19 8t23 38l13 -5
q-6 -34 -15.5 -51.5t-22 -23t-25.5 -5.5z" />
    <glyph glyph-name="odieresis" unicode="&#xf6;" horiz-adv-x="539" vert-adv-y="1485" 
d="M262 -14q-68 0 -117 32t-75 91t-26 139q0 83 26 144t76 94.5t122 33.5q65 0 112 -31.5t72.5 -88t25.5 -132.5q0 -86 -25.5 -149.5t-73.5 -98t-117 -34.5zM269 8q50 0 85 25.5t54 79t19 135.5q0 63 -11 110t-31.5 78.5t-51.5 47t-73 15.5q-51 0 -88.5 -25t-57 -77.5
t-19.5 -134.5q0 -86 21 -142.5t59.5 -84t93.5 -27.5zM358 636q-22 0 -32 12t-10 32t10.5 33t31.5 13t31 -11t10 -31q0 -19 -10 -33.5t-31 -14.5zM182 636q-22 0 -32 12t-10 32t10.5 33t32.5 13q20 0 30.5 -11t10.5 -31q0 -19 -10.5 -33.5t-31.5 -14.5z" />
    <glyph glyph-name="divide" unicode="&#xf7;" horiz-adv-x="582" vert-adv-y="1485" 
d="M76 291v25h425v-25h-425zM288 118q-20 0 -35.5 13.5t-15.5 33.5q0 21 15 34.5t35 13.5q21 0 36.5 -13.5t15.5 -33.5t-15 -34t-36 -14zM288 396q-20 0 -35.5 13.5t-15.5 33.5t15 33.5t35 13.5q21 0 36.5 -13t15.5 -33q0 -21 -15 -34.5t-36 -13.5z" />
    <glyph glyph-name="oslash" unicode="&#xf8;" horiz-adv-x="529" vert-adv-y="1485" 
d="M50 -14l55 72q-27 34 -42 82.5t-15 107.5q0 83 26 144t76 94.5t121 33.5q45 0 81 -15t63 -42l45 59h28l-58 -76q25 -33 38.5 -78t13.5 -100q0 -86 -25.5 -149.5t-74 -98t-116.5 -34.5q-45 0 -81.5 14.5t-64.5 40.5l-42 -55h-28zM273 8q49 0 84.5 25.5t54.5 79t19 135.5
q0 51 -7 92t-21 71l-259 -339q15 -22 34 -36t43 -21t52 -7zM132 91l259 341q-13 22 -32 37t-42.5 22.5t-52.5 7.5q-51 0 -88.5 -25t-57 -77.5t-19.5 -134.5q0 -55 8.5 -97.5t24.5 -73.5z" />
    <glyph glyph-name="ugrave" unicode="&#xf9;" horiz-adv-x="586" vert-adv-y="1485" 
d="M263 -14q-75 0 -115 41.5t-40 126.5v267q0 36 -5.5 48.5t-28.5 13.5l-48 5l2 14l123 12l6 -5v-367q0 -39 12 -66.5t37 -42t63 -14.5q47 0 82 16.5t54.5 48.5t19.5 77v260q0 36 -5.5 48.5t-27.5 13.5l-48 5l1 14l123 12l6 -5v-448q0 -26 6.5 -35.5t25.5 -10.5l52 -3v-14
l-132 -8l-2 90h-1q-18 -33 -43.5 -54t-55 -30.5t-61.5 -9.5zM325 586l-114 97q-17 14 -24 25t-7 20q0 7 3 13t8.5 9.5t12.5 3.5q8 0 15.5 -5.5t15.5 -16.5l100 -137z" />
    <glyph glyph-name="uacute" unicode="&#xfa;" horiz-adv-x="586" vert-adv-y="1485" 
d="M263 -14q-75 0 -115 41.5t-40 126.5v267q0 36 -5.5 48.5t-28.5 13.5l-48 5l2 14l123 12l6 -5v-367q0 -39 12 -66.5t37 -42t63 -14.5q47 0 82 16.5t54.5 48.5t19.5 77v260q0 36 -5.5 48.5t-27.5 13.5l-48 5l1 14l123 12l6 -5v-448q0 -26 6.5 -35.5t25.5 -10.5l52 -3v-14
l-132 -8l-2 90h-1q-18 -33 -43.5 -54t-55 -30.5t-61.5 -9.5zM225 586l-9 9l99 137q8 11 15.5 16.5t16.5 5.5q7 0 12.5 -3.5t8 -9.5t2.5 -13q0 -9 -7 -20t-23 -25z" />
    <glyph glyph-name="ucircumflex" unicode="&#xfb;" horiz-adv-x="586" vert-adv-y="1485" 
d="M263 -14q-75 0 -115 41.5t-40 126.5v267q0 36 -5.5 48.5t-28.5 13.5l-48 5l2 14l123 12l6 -5v-367q0 -39 12 -66.5t37 -42t63 -14.5q47 0 82 16.5t54.5 48.5t19.5 77v260q0 36 -5.5 48.5t-27.5 13.5l-48 5l1 14l123 12l6 -5v-448q0 -26 6.5 -35.5t25.5 -10.5l52 -3v-14
l-132 -8l-2 90h-1q-18 -33 -43.5 -54t-55 -30.5t-61.5 -9.5zM153 586l-10 9l101 140q7 8 15.5 13t15.5 5q6 0 11 -1.5t10.5 -6t11.5 -13.5l100 -137l-10 -9l-124 109z" />
    <glyph glyph-name="udieresis" unicode="&#xfc;" horiz-adv-x="586" vert-adv-y="1485" 
d="M263 -14q-75 0 -115 41.5t-40 126.5v267q0 36 -5.5 48.5t-28.5 13.5l-48 5l2 14l123 12l6 -5v-367q0 -39 12 -66.5t37 -42t63 -14.5q47 0 82 16.5t54.5 48.5t19.5 77v260q0 36 -5.5 48.5t-27.5 13.5l-48 5l1 14l123 12l6 -5v-448q0 -26 6.5 -35.5t25.5 -10.5l52 -3v-14
l-132 -8l-2 90h-1q-18 -33 -43.5 -54t-55 -30.5t-61.5 -9.5zM363 636q-22 0 -32 12t-10 32t10.5 33t31.5 13t31 -11t10 -31q0 -19 -10 -33.5t-31 -14.5zM187 636q-22 0 -32 12t-10 32t10.5 33t32.5 13q20 0 30.5 -11t10.5 -31q0 -19 -10.5 -33.5t-31.5 -14.5z" />
    <glyph glyph-name="yacute" unicode="&#xfd;" horiz-adv-x="529" vert-adv-y="1485" 
d="M95 -230q-30 0 -49.5 20t-19.5 49q0 18 11.5 31.5t31.5 13.5q21 0 32 -11.5t11 -28.5q-1 -7 -3 -19t-7 -29q21 -2 44 9t46.5 44t47.5 97l19 52l-180 439q-10 24 -18 35t-30 15l-30 5l1 16h185v-16l-40 -5q-20 -3 -24 -14t5 -33l154 -381h2l144 382q7 18 5 30.5t-24 15.5
l-42 5l1 16h161v-15l-35 -6q-16 -2 -22.5 -10.5t-17.5 -35.5l-194 -509q-20 -51 -40 -83.5t-40.5 -49.5t-41.5 -23t-43 -6zM227 586l-9 9l99 137q8 11 15.5 16.5t16.5 5.5q7 0 12.5 -3.5t8 -9.5t2.5 -13q0 -9 -7 -20t-23 -25z" />
    <glyph glyph-name="thorn" unicode="&#xfe;" horiz-adv-x="565" vert-adv-y="1485" 
d="M39 -216v15l44 5q16 2 21 10.5t5 33.5v836q0 24 -3 36t-13 17t-28 6l-48 4l2 14l133 5l7 -6l-1 -326h1q16 29 40 48.5t54 29.5t65 10q64 0 108 -29.5t67 -87t23 -144.5q0 -85 -28 -147t-78.5 -95t-119.5 -33q-34 0 -67.5 8.5t-64.5 25.5v-172q0 -25 5 -33.5t21 -10.5
l65 -6v-14h-210zM295 8q50 0 88.5 24.5t60 78.5t21.5 144q0 82 -19 134.5t-54.5 77.5t-85.5 25q-44 0 -77.5 -17.5t-52 -51t-18.5 -80.5v-293q31 -21 66 -31.5t71 -10.5z" />
    <glyph glyph-name="ydieresis" unicode="&#xff;" horiz-adv-x="529" vert-adv-y="1485" 
d="M95 -230q-30 0 -49.5 20t-19.5 49q0 18 11.5 31.5t31.5 13.5q21 0 32 -11.5t11 -28.5q-1 -7 -3 -19t-7 -29q21 -2 44 9t46.5 44t47.5 97l19 52l-180 439q-10 24 -18 35t-30 15l-30 5l1 16h185v-16l-40 -5q-20 -3 -24 -14t5 -33l154 -381h2l144 382q7 18 5 30.5t-24 15.5
l-42 5l1 16h161v-15l-35 -6q-16 -2 -22.5 -10.5t-17.5 -35.5l-194 -509q-20 -51 -40 -83.5t-40.5 -49.5t-41.5 -23t-43 -6zM365 636q-22 0 -32 12t-10 32t10.5 33t31.5 13t31 -11t10 -31q0 -19 -10 -33.5t-31 -14.5zM189 636q-22 0 -32 12t-10 32t10.5 33t32.5 13
q20 0 30.5 -11t10.5 -31q0 -19 -10.5 -33.5t-31.5 -14.5z" />
    <glyph glyph-name="Amacron" unicode="&#x100;" vert-adv-y="1485" 
d="M-6 0v15l40 6q17 2 24 10.5t16 35.5l213 656h30l208 -652q8 -26 17.5 -36.5t30.5 -13.5l39 -5v-16h-208v15l51 6q20 2 22.5 13.5t-4.5 33.5l-53 179h-262l-59 -180q-7 -20 -4 -32t24 -14l57 -6v-15h-182zM164 268h248l-122 392h-1zM180 819v41h243v-41h-243z" />
    <glyph glyph-name="amacron" unicode="&#x101;" horiz-adv-x="490" vert-adv-y="1485" 
d="M195 -14q-64 0 -101.5 34t-37.5 98q0 51 26.5 85t88 53t169.5 22v100q0 46 -13.5 72.5t-39.5 38.5t-62 12q-35 0 -63.5 -9t-48.5 -25q11 -20 17 -32.5t8.5 -20.5t2.5 -15q0 -15 -11 -24.5t-30 -9.5q-17 0 -29 11t-12 30q0 38 26.5 63.5t65 39t78.5 13.5q59 0 94 -20.5
t50.5 -56t15.5 -84.5v-287q0 -29 11.5 -42t33.5 -13q16 0 29.5 5.5t23.5 12.5l8 -10q-16 -19 -35 -30t-43 -11q-32 0 -53.5 19.5t-20.5 67.5q-18 -31 -41 -50.5t-49.5 -28t-57.5 -8.5zM211 17q32 0 61.5 13t48.5 40t19 65v123q-86 -3 -137.5 -15.5t-73.5 -40t-22 -76.5
q0 -55 28.5 -82t75.5 -27zM105 649v41h242v-41h-242z" />
    <glyph glyph-name="Abreve" unicode="&#x102;" vert-adv-y="1485" 
d="M-6 0v15l40 6q17 2 24 10.5t16 35.5l213 656h30l208 -652q8 -26 17.5 -36.5t30.5 -13.5l39 -5v-16h-208v15l51 6q20 2 22.5 13.5t-4.5 33.5l-53 179h-262l-59 -180q-7 -20 -4 -32t24 -14l57 -6v-15h-182zM164 268h248l-122 392h-1zM301 778q-42 0 -69.5 16.5t-43 48.5
t-21.5 78l15 3q18 -47 44.5 -70t75.5 -23q51 0 78 24.5t42 68.5l15 -3q-4 -42 -20 -74t-44 -50.5t-72 -18.5z" />
    <glyph glyph-name="abreve" unicode="&#x103;" horiz-adv-x="490" vert-adv-y="1485" 
d="M195 -14q-64 0 -101.5 34t-37.5 98q0 51 26.5 85t88 53t169.5 22v100q0 46 -13.5 72.5t-39.5 38.5t-62 12q-35 0 -63.5 -9t-48.5 -25q11 -20 17 -32.5t8.5 -20.5t2.5 -15q0 -15 -11 -24.5t-30 -9.5q-17 0 -29 11t-12 30q0 38 26.5 63.5t65 39t78.5 13.5q59 0 94 -20.5
t50.5 -56t15.5 -84.5v-287q0 -29 11.5 -42t33.5 -13q16 0 29.5 5.5t23.5 12.5l8 -10q-16 -19 -35 -30t-43 -11q-32 0 -53.5 19.5t-20.5 67.5q-18 -31 -41 -50.5t-49.5 -28t-57.5 -8.5zM211 17q32 0 61.5 13t48.5 40t19 65v123q-86 -3 -137.5 -15.5t-73.5 -40t-22 -76.5
q0 -55 28.5 -82t75.5 -27zM225 597q-43 0 -68.5 18t-38.5 52t-19 83l16 3q17 -56 40 -82t73 -26q51 0 73.5 28.5t38.5 78.5l15 -2q-5 -47 -18.5 -81.5t-40 -53t-71.5 -18.5z" />
    <glyph glyph-name="Aogonek" unicode="&#x104;" vert-adv-y="1485" 
d="M490 -222q-21 0 -36.5 8.5t-24.5 24.5t-9 37q0 25 12 49.5t36.5 50t60.5 52.5h-125v15l51 6q20 2 22.5 13.5t-4.5 33.5l-53 179h-262l-59 -180q-7 -20 -4 -32t24 -14l57 -6v-15h-182v15l40 6q17 2 24 10.5t16 35.5l213 656h30l208 -652q8 -26 17.5 -36.5t30.5 -13.5
l39 -5v-16h-64q-43 -39 -63 -72t-20 -67q0 -26 10.5 -38.5t29.5 -12.5q14 0 30 5.5t32 19.5l8 -10q-13 -18 -26.5 -28.5t-28 -14.5t-30.5 -4zM164 268h248l-122 392h-1z" />
    <glyph glyph-name="aogonek" unicode="&#x105;" horiz-adv-x="490" vert-adv-y="1485" 
d="M393 -222q-31 0 -51 19t-20 51q0 22 10.5 44t33.5 45t59 49q-42 0 -62.5 21t-19.5 66q-25 -44 -61.5 -65.5t-86.5 -21.5q-66 0 -102.5 34.5t-36.5 97.5q0 54 28.5 88t91.5 51.5t164 20.5v100q0 65 -28.5 94t-86.5 29q-34 0 -62.5 -8.5t-49.5 -25.5q18 -32 23 -45t5 -23
q0 -16 -11 -25t-30 -9q-18 0 -29.5 11.5t-11.5 29.5q0 34 23 59.5t62 41t85 15.5q83 0 121.5 -41t38.5 -120v-287q0 -28 11 -41.5t34 -13.5q14 0 27.5 4.5t25.5 13.5l8 -10q-29 -21 -52.5 -42t-40.5 -42.5t-26.5 -42.5t-9.5 -43t11 -34.5t31 -12.5q16 0 31.5 6.5t28.5 18.5
l9 -10q-19 -25 -39 -36t-45 -11zM211 17q36 0 65.5 15t46.5 42t17 61v123q-90 -3 -140.5 -16.5t-71.5 -41t-21 -74.5q0 -53 27.5 -81t76.5 -28z" />
    <glyph glyph-name="Cacute" unicode="&#x106;" horiz-adv-x="660" vert-adv-y="1485" 
d="M356 -14q-91 0 -159.5 43t-106 125.5t-37.5 200.5q0 89 21.5 159t61.5 120.5t96.5 76.5t125.5 26q65 0 112.5 -23t81.5 -57l10 80h14l36 -221l-15 -1q-26 67 -60 112t-79 67t-104 22q-75 0 -131.5 -40t-87.5 -117t-31 -189q0 -81 17 -146t50.5 -110.5t84 -70.5t118.5 -25
q42 0 81.5 11t77 37t68.5 70l16 -14q-28 -40 -60.5 -66.5t-67 -42t-68 -21.5t-65.5 -6zM293 771l-8 11l122 116q13 14 21 18t15 4q11 0 18 -9t7 -20t-7.5 -20.5t-24.5 -19.5z" />
    <glyph glyph-name="cacute" unicode="&#x107;" horiz-adv-x="452" vert-adv-y="1485" 
d="M246 -14q-59 0 -104.5 29.5t-71.5 87.5t-26 144q0 91 28 151t76.5 91t108.5 31q45 0 79.5 -14t54 -38t19.5 -53q0 -21 -6 -34t-16 -19t-23 -6q-22 0 -31 11.5t-9 27.5q0 15 9.5 30.5t25.5 38.5q-19 17 -43.5 26t-56.5 9q-46 0 -84 -21.5t-60 -73t-22 -141.5
q0 -125 47 -182.5t120 -57.5q54 0 89 22t57 48l11 -9q-30 -46 -71.5 -72t-100.5 -26zM202 586l-9 9l99 137q8 11 15.5 16.5t16.5 5.5q7 0 12.5 -3.5t8 -9.5t2.5 -13q0 -9 -7 -20t-23 -25z" />
    <glyph glyph-name="Ccircumflex" unicode="&#x108;" horiz-adv-x="660" vert-adv-y="1485" 
d="M356 -14q-91 0 -159.5 43t-106 125.5t-37.5 200.5q0 89 21.5 159t61.5 120.5t96.5 76.5t125.5 26q65 0 112.5 -23t81.5 -57l10 80h14l36 -221l-15 -1q-26 67 -60 112t-79 67t-104 22q-75 0 -131.5 -40t-87.5 -117t-31 -189q0 -81 17 -146t50.5 -110.5t84 -70.5t118.5 -25
q42 0 81.5 11t77 37t68.5 70l16 -14q-28 -40 -60.5 -66.5t-67 -42t-68 -21.5t-65.5 -6zM220 767l-9 10l112 126q8 8 15 12.5t17 4.5q11 0 18 -5t19 -19l105 -119l-9 -10l-133 92z" />
    <glyph glyph-name="ccircumflex" unicode="&#x109;" horiz-adv-x="452" vert-adv-y="1485" 
d="M246 -14q-59 0 -104.5 29.5t-71.5 87.5t-26 144q0 91 28 151t76.5 91t108.5 31q45 0 79.5 -14t54 -38t19.5 -53q0 -21 -6 -34t-16 -19t-23 -6q-22 0 -31 11.5t-9 27.5q0 15 9.5 30.5t25.5 38.5q-19 17 -43.5 26t-56.5 9q-46 0 -84 -21.5t-60 -73t-22 -141.5
q0 -125 47 -182.5t120 -57.5q54 0 89 22t57 48l11 -9q-30 -46 -71.5 -72t-100.5 -26zM130 586l-10 9l101 140q7 8 15.5 13t15.5 5q6 0 11 -1.5t10.5 -6t11.5 -13.5l100 -137l-10 -9l-124 109z" />
    <glyph glyph-name="Cdotaccent" unicode="&#x10a;" horiz-adv-x="660" vert-adv-y="1485" 
d="M356 -14q-91 0 -159.5 43t-106 125.5t-37.5 200.5q0 89 21.5 159t61.5 120.5t96.5 76.5t125.5 26q65 0 112.5 -23t81.5 -57l10 80h14l36 -221l-15 -1q-26 67 -60 112t-79 67t-104 22q-75 0 -131.5 -40t-87.5 -117t-31 -189q0 -81 17 -146t50.5 -110.5t84 -70.5t118.5 -25
q42 0 81.5 11t77 37t68.5 70l16 -14q-28 -40 -60.5 -66.5t-67 -42t-68 -21.5t-65.5 -6zM355 803q-20 0 -30 12.5t-10 31.5q0 23 10.5 35t30.5 12t30 -11t10 -32q0 -20 -10 -34t-31 -14z" />
    <glyph glyph-name="cdotaccent" unicode="&#x10b;" horiz-adv-x="452" vert-adv-y="1485" 
d="M246 -14q-59 0 -104.5 29.5t-71.5 87.5t-26 144q0 91 28 151t76.5 91t108.5 31q45 0 79.5 -14t54 -38t19.5 -53q0 -21 -6 -34t-16 -19t-23 -6q-22 0 -31 11.5t-9 27.5q0 15 9.5 30.5t25.5 38.5q-19 17 -43.5 26t-56.5 9q-46 0 -84 -21.5t-60 -73t-22 -141.5
q0 -125 47 -182.5t120 -57.5q54 0 89 22t57 48l11 -9q-30 -46 -71.5 -72t-100.5 -26zM252 636q-20 0 -30 12.5t-10 31.5q0 23 10.5 35t30.5 12t30 -10.5t10 -32.5q0 -20 -10 -34t-31 -14z" />
    <glyph glyph-name="Ccaron" unicode="&#x10c;" horiz-adv-x="660" vert-adv-y="1485" 
d="M356 -14q-91 0 -159.5 43t-106 125.5t-37.5 200.5q0 89 21.5 159t61.5 120.5t96.5 76.5t125.5 26q65 0 112.5 -23t81.5 -57l10 80h14l36 -221l-15 -1q-26 67 -60 112t-79 67t-104 22q-75 0 -131.5 -40t-87.5 -117t-31 -189q0 -81 17 -146t50.5 -110.5t84 -70.5t118.5 -25
q42 0 81.5 11t77 37t68.5 70l16 -14q-28 -40 -60.5 -66.5t-67 -42t-68 -21.5t-65.5 -6zM353 777q-10 0 -17.5 5.5t-18.5 18.5l-106 119l9 10l133 -92l135 92l9 -10l-112 -126q-7 -7 -14.5 -12t-17.5 -5z" />
    <glyph glyph-name="ccaron" unicode="&#x10d;" horiz-adv-x="452" vert-adv-y="1485" 
d="M246 -14q-59 0 -104.5 29.5t-71.5 87.5t-26 144q0 91 28 151t76.5 91t108.5 31q45 0 79.5 -14t54 -38t19.5 -53q0 -21 -6 -34t-16 -19t-23 -6q-22 0 -31 11.5t-9 27.5q0 15 9.5 30.5t25.5 38.5q-19 17 -43.5 26t-56.5 9q-46 0 -84 -21.5t-60 -73t-22 -141.5
q0 -125 47 -182.5t120 -57.5q54 0 89 22t57 48l11 -9q-30 -46 -71.5 -72t-100.5 -26zM252 591q-5 0 -10.5 2t-10.5 6.5t-12 13.5l-100 136l11 10l123 -110l121 110l10 -10l-101 -139q-6 -9 -14.5 -14t-16.5 -5z" />
    <glyph glyph-name="Dcaron" unicode="&#x10e;" horiz-adv-x="717" vert-adv-y="1485" 
d="M58 0v15l62 6q19 2 25 11.5t6 35.5v587q0 26 -6 36t-27 12l-60 5v15h257q60 0 113 -12t96 -37.5t74.5 -65.5t48 -95.5t16.5 -128.5q0 -113 -28.5 -187.5t-78.5 -117.5t-114.5 -61t-136.5 -18h-247zM292 21q69 0 127.5 16t101.5 55t67 108t24 175q0 111 -36 183.5
t-103.5 108t-164.5 35.5h-108v-676q19 -2 43 -3.5t49 -1.5zM356 777q-10 0 -17.5 5.5t-18.5 18.5l-106 119l9 10l133 -92l135 92l9 -10l-112 -126q-7 -7 -14.5 -12t-17.5 -5z" />
    <glyph glyph-name="dcaron" unicode="&#x10f;" horiz-adv-x="642" vert-adv-y="1485" 
d="M249 -14q-65 0 -109.5 29.5t-67.5 87.5t-23 143q0 86 28 147.5t79 95t119 33.5q40 0 74 -10.5t58 -24.5v197q0 35 -7.5 46t-35.5 13l-48 4l1 14l132 5l7 -6v-697q0 -23 6.5 -33.5t26.5 -12.5l46 -2v-16l-125 -8l-2 87h-2q-14 -28 -36.5 -48.5t-52.5 -32t-68 -11.5z
M260 16q44 0 77.5 17.5t51.5 51t18 81.5v289q-30 21 -64 33t-74 12q-50 0 -88.5 -24.5t-59.5 -78.5t-21 -143q0 -79 18.5 -131.5t54 -79.5t87.5 -27zM546 563l-12 12q27 26 35 49t8 41q0 11 -5 19t-17 16q-10 7 -14.5 16.5t-4.5 18.5q0 16 11 25.5t27 9.5q24 0 37 -19
t13 -42q0 -22 -8 -47.5t-25.5 -51t-44.5 -47.5z" />
    <glyph glyph-name="Dcroat" unicode="&#x110;" horiz-adv-x="717" vert-adv-y="1485" 
d="M58 0v15l62 6q19 2 25 11.5t6 35.5v288h-101l3 23h98v276q0 26 -6 36t-27 12l-60 5v15h257q60 0 113 -12t96 -37.5t74.5 -65.5t48 -95.5t16.5 -128.5q0 -113 -28.5 -187.5t-78.5 -117.5t-114.5 -61t-136.5 -18h-247zM292 21q69 0 127.5 16t101.5 55t67 108t24 175
q0 111 -36 183.5t-103.5 108t-164.5 35.5h-108v-323h211v-23h-211v-330q19 -2 43 -3.5t49 -1.5z" />
    <glyph glyph-name="dcroat" unicode="&#x111;" horiz-adv-x="568" vert-adv-y="0" 
d="M249 -14q-65 0 -109.5 29.5t-67.5 87.5t-23 143q0 86 28 147.5t79 95t119 33.5q40 0 74 -10.5t58 -24.5v128h-152l4 21h148v48q0 35 -7.5 46t-35.5 13l-48 4l1 14l132 5l7 -6v-124h81v-21h-81v-552q0 -23 6.5 -33.5t26.5 -12.5l46 -2v-16l-125 -8l-2 87h-2
q-14 -28 -36.5 -48.5t-52.5 -32t-68 -11.5zM260 16q44 0 77.5 17.5t51.5 51t18 81.5v289q-30 21 -64 33t-74 12q-50 0 -88.5 -24.5t-59.5 -78.5t-21 -143q0 -79 18.5 -131.5t54 -79.5t87.5 -27z" />
    <glyph glyph-name="Emacron" unicode="&#x112;" horiz-adv-x="576" vert-adv-y="1485" 
d="M58 0v15l62 6q19 2 25 11.5t6 35.5v587q0 26 -6 36t-27 12l-60 5v15h427l30 -151l-16 -1q-15 48 -28.5 74.5t-29.5 38.5t-41.5 15t-63.5 3h-136v-321h136q37 0 53.5 6t24.5 25t15 58l16 1v-200h-16q-6 38 -14 56.5t-27 25.5t-58 7h-130v-339h166q35 0 59 5t40 19.5t27 43
t22 75.5h16l-17 -164h-455zM176 819v41h243v-41h-243z" />
    <glyph glyph-name="emacron" unicode="&#x113;" horiz-adv-x="457" vert-adv-y="1485" 
d="M247 -14q-59 0 -105 28.5t-72 87t-26 149.5q0 82 26 142.5t72.5 94.5t109.5 34q54 0 90.5 -22.5t55.5 -61.5t19 -89q0 -17 -0.5 -37t-3.5 -40h-320q-2 -90 21.5 -144t63 -77.5t86.5 -23.5q41 0 76.5 15t68.5 50l10 -10q-37 -52 -80 -74t-92 -22zM94 295h271q2 16 2.5 29
t0.5 26q0 77 -29.5 114t-88.5 37q-45 0 -78.5 -22t-53.5 -68t-24 -116zM127 649v41h242v-41h-242z" />
    <glyph glyph-name="Ebreve" unicode="&#x114;" horiz-adv-x="576" vert-adv-y="1485" 
d="M58 0v15l62 6q19 2 25 11.5t6 35.5v587q0 26 -6 36t-27 12l-60 5v15h427l30 -151l-16 -1q-15 48 -28.5 74.5t-29.5 38.5t-41.5 15t-63.5 3h-136v-321h136q37 0 53.5 6t24.5 25t15 58l16 1v-200h-16q-6 38 -14 56.5t-27 25.5t-58 7h-130v-339h166q35 0 59 5t40 19.5t27 43
t22 75.5h16l-17 -164h-455zM297 778q-42 0 -69.5 16.5t-43 48.5t-21.5 78l15 3q18 -47 44.5 -70t75.5 -23q51 0 78 24.5t42 68.5l15 -3q-4 -42 -20 -74t-44 -50.5t-72 -18.5z" />
    <glyph glyph-name="ebreve" unicode="&#x115;" horiz-adv-x="457" vert-adv-y="1485" 
d="M247 -14q-59 0 -105 28.5t-72 87t-26 149.5q0 82 26 142.5t72.5 94.5t109.5 34q54 0 90.5 -22.5t55.5 -61.5t19 -89q0 -17 -0.5 -37t-3.5 -40h-320q-2 -90 21.5 -144t63 -77.5t86.5 -23.5q41 0 76.5 15t68.5 50l10 -10q-37 -52 -80 -74t-92 -22zM94 295h271q2 16 2.5 29
t0.5 26q0 77 -29.5 114t-88.5 37q-45 0 -78.5 -22t-53.5 -68t-24 -116zM247 597q-43 0 -68.5 18t-38.5 52t-19 83l16 3q17 -56 40 -82t73 -26q51 0 73.5 28.5t38.5 78.5l15 -2q-5 -47 -18.5 -81.5t-40 -53t-71.5 -18.5z" />
    <glyph glyph-name="Edotaccent" unicode="&#x116;" horiz-adv-x="576" vert-adv-y="1485" 
d="M58 0v15l62 6q19 2 25 11.5t6 35.5v587q0 26 -6 36t-27 12l-60 5v15h427l30 -151l-16 -1q-15 48 -28.5 74.5t-29.5 38.5t-41.5 15t-63.5 3h-136v-321h136q37 0 53.5 6t24.5 25t15 58l16 1v-200h-16q-6 38 -14 56.5t-27 25.5t-58 7h-130v-339h166q35 0 59 5t40 19.5t27 43
t22 75.5h16l-17 -164h-455zM298 803q-20 0 -30 12.5t-10 31.5q0 23 10.5 35t30.5 12t30 -11t10 -32q0 -20 -10 -34t-31 -14z" />
    <glyph glyph-name="edotaccent" unicode="&#x117;" horiz-adv-x="457" vert-adv-y="1485" 
d="M247 -14q-59 0 -105 28.5t-72 87t-26 149.5q0 82 26 142.5t72.5 94.5t109.5 34q54 0 90.5 -22.5t55.5 -61.5t19 -89q0 -17 -0.5 -37t-3.5 -40h-320q-2 -90 21.5 -144t63 -77.5t86.5 -23.5q41 0 76.5 15t68.5 50l10 -10q-37 -52 -80 -74t-92 -22zM94 295h271q2 16 2.5 29
t0.5 26q0 77 -29.5 114t-88.5 37q-45 0 -78.5 -22t-53.5 -68t-24 -116zM248 636q-20 0 -30 12.5t-10 31.5q0 23 10.5 35t30.5 12t30 -10.5t10 -32.5q0 -20 -10 -34t-31 -14z" />
    <glyph glyph-name="Eogonek" unicode="&#x118;" horiz-adv-x="576" vert-adv-y="1485" 
d="M422 -222q-21 0 -37 8.5t-25 24.5t-9 37q0 26 16 50.5t46.5 49.5t76.5 52h-432v15l62 6q19 2 25 11.5t6 35.5v587q0 26 -6 36t-27 12l-60 5v15h427l30 -151l-16 -1q-15 48 -28.5 74.5t-29.5 38.5t-41.5 15t-63.5 3h-136v-321h136q37 0 53.5 6t24.5 25t15 58l16 1v-200
h-16q-6 38 -14 56.5t-27 25.5t-58 7h-130v-339h166q35 0 59 5t40 19.5t27 43t22 75.5h16l-17 -164q-38 -24 -64 -47t-40 -46.5t-14 -49.5q0 -23 11.5 -35t30.5 -12q14 0 29 5.5t31 19.5l9 -10q-13 -18 -26.5 -28.5t-27.5 -14.5t-30 -4z" />
    <glyph glyph-name="eogonek" unicode="&#x119;" horiz-adv-x="457" vert-adv-y="1485" 
d="M287 -222q-21 0 -37 9t-25.5 25.5t-9.5 38.5q0 35 25 68.5t76 79.5q-16 -6 -33.5 -9.5t-35.5 -3.5q-59 0 -105 28.5t-72 87t-26 149.5q0 82 26 142.5t72.5 94.5t109.5 34q54 0 90.5 -22.5t55.5 -61.5t19 -89q0 -17 -0.5 -37t-3.5 -40h-320q-2 -90 21.5 -144t63 -77.5
t86.5 -23.5q41 0 76.5 15t68.5 50l10 -10q-13 -19 -28 -34t-31 -26q-37 -37 -59.5 -63.5t-31.5 -49.5t-9 -48q0 -26 12 -38.5t31 -12.5q14 0 29 5.5t31 19.5l9 -10q-14 -18 -27 -28.5t-27 -14.5t-31 -4zM94 295h271q2 16 2.5 29t0.5 26q0 77 -29.5 114t-88.5 37
q-45 0 -78.5 -22t-53.5 -68t-24 -116z" />
    <glyph glyph-name="Ecaron" unicode="&#x11a;" horiz-adv-x="576" vert-adv-y="1485" 
d="M58 0v15l62 6q19 2 25 11.5t6 35.5v587q0 26 -6 36t-27 12l-60 5v15h427l30 -151l-16 -1q-15 48 -28.5 74.5t-29.5 38.5t-41.5 15t-63.5 3h-136v-321h136q37 0 53.5 6t24.5 25t15 58l16 1v-200h-16q-6 38 -14 56.5t-27 25.5t-58 7h-130v-339h166q35 0 59 5t40 19.5t27 43
t22 75.5h16l-17 -164h-455zM296 777q-10 0 -17.5 5.5t-18.5 18.5l-106 119l9 10l133 -92l135 92l9 -10l-112 -126q-7 -7 -14.5 -12t-17.5 -5z" />
    <glyph glyph-name="ecaron" unicode="&#x11b;" horiz-adv-x="457" vert-adv-y="1485" 
d="M247 -14q-59 0 -105 28.5t-72 87t-26 149.5q0 82 26 142.5t72.5 94.5t109.5 34q54 0 90.5 -22.5t55.5 -61.5t19 -89q0 -17 -0.5 -37t-3.5 -40h-320q-2 -90 21.5 -144t63 -77.5t86.5 -23.5q41 0 76.5 15t68.5 50l10 -10q-37 -52 -80 -74t-92 -22zM94 295h271q2 16 2.5 29
t0.5 26q0 77 -29.5 114t-88.5 37q-45 0 -78.5 -22t-53.5 -68t-24 -116zM247 591q-5 0 -10.5 2t-10.5 6.5t-12 13.5l-100 136l11 10l123 -110l121 110l10 -10l-101 -139q-6 -9 -14.5 -14t-16.5 -5z" />
    <glyph glyph-name="Gcircumflex" unicode="&#x11c;" horiz-adv-x="706" vert-adv-y="1485" 
d="M354 -14q-90 0 -158 43t-105.5 125.5t-37.5 200.5q0 89 22 159.5t62 120.5t96.5 76t126.5 26q66 0 114 -23t83 -57l10 80h14l36 -221l-16 -1q-26 67 -60 112t-79.5 67t-106.5 22q-56 0 -102 -22t-79 -66t-51.5 -108.5t-18.5 -149.5q0 -80 17.5 -145.5t51 -112.5t83 -72
t113.5 -25q37 0 70 8.5t62 24.5t54 39v176q0 24 -7 32.5t-26 10.5l-69 5v15h235v-15l-56 -5q-13 -1 -20.5 -8t-7.5 -36v-263h-16l-29 62q-32 -27 -66.5 -43.5t-70 -24t-68.5 -7.5zM215 767l-9 10l112 126q8 8 15 12.5t17 4.5q11 0 18 -5t19 -19l105 -119l-9 -10l-133 92z
" />
    <glyph glyph-name="gcircumflex" unicode="&#x11d;" horiz-adv-x="505" vert-adv-y="1485" 
d="M113 584l-10 9l101 140q7 9 15.5 13.5t16.5 4.5q7 0 14.5 -3.5t17.5 -17.5l100 -137l-10 -9l-123 110zM236 -230q-42 0 -80 7t-66.5 22.5t-45 39.5t-16.5 59q0 23 10.5 44.5t31 39.5t50.5 29v3q-28 13 -40.5 32.5t-12.5 47.5q0 25 17 50t44 56v2q-36 22 -55 57.5
t-19 83.5q0 52 21.5 92.5t62.5 63t98 22.5q24 0 45 -4.5t39.5 -13.5t32.5 -20q16 52 38.5 74.5t47.5 22.5q18 0 29.5 -6.5t17.5 -16t6 -19.5q0 -18 -12 -32t-28 -14q-11 0 -19 5t-18 19l-17 24q-11 -14 -18.5 -31.5t-11.5 -38.5q23 -22 35 -52.5t12 -64.5q0 -57 -23 -96.5
t-63.5 -59.5t-93.5 -20q-27 0 -49 4.5t-41 12.5q-12 -14 -26 -36.5t-14 -49.5q0 -12 4.5 -25t19.5 -21.5t46 -8.5h140q71 0 113.5 -25.5t42.5 -83.5q0 -41 -15 -71t-40.5 -50t-56.5 -31.5t-63 -16.5t-60 -5zM237 -209q53 0 98.5 15t74 44t28.5 73q0 47 -28.5 64.5
t-82.5 17.5h-186q-27 -14 -48.5 -38t-21.5 -63q0 -62 45 -87.5t121 -25.5zM236 197q62 0 96.5 36.5t34.5 116.5q0 75 -35.5 113t-101.5 38q-60 0 -94 -37t-34 -117q0 -74 36.5 -112t97.5 -38z" />
    <glyph glyph-name="Gbreve" unicode="&#x11e;" horiz-adv-x="706" vert-adv-y="1485" 
d="M354 -14q-90 0 -158 43t-105.5 125.5t-37.5 200.5q0 89 22 159.5t62 120.5t96.5 76t126.5 26q66 0 114 -23t83 -57l10 80h14l36 -221l-16 -1q-26 67 -60 112t-79.5 67t-106.5 22q-56 0 -102 -22t-79 -66t-51.5 -108.5t-18.5 -149.5q0 -80 17.5 -145.5t51 -112.5t83 -72
t113.5 -25q37 0 70 8.5t62 24.5t54 39v176q0 24 -7 32.5t-26 10.5l-69 5v15h235v-15l-56 -5q-13 -1 -20.5 -8t-7.5 -36v-263h-16l-29 62q-32 -27 -66.5 -43.5t-70 -24t-68.5 -7.5zM349 778q-42 0 -69.5 16.5t-43 48.5t-21.5 78l15 3q18 -47 44.5 -70t75.5 -23q51 0 78 24.5
t42 68.5l15 -3q-4 -42 -20 -74t-44 -50.5t-72 -18.5z" />
    <glyph glyph-name="gbreve" unicode="&#x11f;" horiz-adv-x="496" vert-adv-y="1485" 
d="M236 -230q-42 0 -80 7t-66.5 22.5t-45 39.5t-16.5 59q0 23 10.5 44.5t31 39.5t50.5 29v3q-28 13 -40.5 32.5t-12.5 47.5q0 25 17 50t44 56v2q-36 22 -55 57.5t-19 83.5q0 52 21.5 92.5t62.5 63t98 22.5q24 0 45 -4.5t39.5 -13.5t32.5 -20q16 52 38.5 74.5t47.5 22.5
q18 0 29.5 -6.5t17.5 -16t6 -19.5q0 -18 -12 -32t-28 -14q-11 0 -19 5t-18 19l-17 24q-11 -14 -18.5 -31.5t-11.5 -38.5q23 -22 35 -52.5t12 -64.5q0 -57 -23 -96.5t-63.5 -59.5t-93.5 -20q-27 0 -49 4.5t-41 12.5q-12 -14 -26 -36t-14 -50q0 -12 4.5 -25t19.5 -21.5
t46 -8.5h140q71 0 113.5 -25.5t42.5 -83.5q0 -41 -15 -71t-40.5 -50t-56.5 -31.5t-63 -16.5t-60 -5zM237 -209q53 0 98.5 15t74 44t28.5 73q0 47 -28.5 64.5t-82.5 17.5h-186q-27 -14 -48.5 -38t-21.5 -63q0 -62 45 -87.5t121 -25.5zM236 197q62 0 96.5 36.5t34.5 116.5
q0 75 -35.5 113t-101.5 38q-60 0 -94 -37t-34 -117q0 -74 36.5 -112t97.5 -38zM234 595q-43 0 -68.5 18t-38.5 52t-19 83l16 3q17 -56 40 -82t73 -26q51 0 73.5 28.5t38.5 78.5l15 -2q-5 -47 -18.5 -81.5t-40 -53t-71.5 -18.5z" />
    <glyph glyph-name="Gdotaccent" unicode="&#x120;" horiz-adv-x="706" vert-adv-y="1485" 
d="M354 -14q-90 0 -158 43t-105.5 125.5t-37.5 200.5q0 89 22 159.5t62 120.5t96.5 76t126.5 26q66 0 114 -23t83 -57l10 80h14l36 -221l-16 -1q-26 67 -60 112t-79.5 67t-106.5 22q-56 0 -102 -22t-79 -66t-51.5 -108.5t-18.5 -149.5q0 -80 17.5 -145.5t51 -112.5t83 -72
t113.5 -25q37 0 70 8.5t62 24.5t54 39v176q0 24 -7 32.5t-26 10.5l-69 5v15h235v-15l-56 -5q-13 -1 -20.5 -8t-7.5 -36v-263h-16l-29 62q-32 -27 -66.5 -43.5t-70 -24t-68.5 -7.5zM350 803q-20 0 -30 12.5t-10 31.5q0 23 10.5 35t30.5 12t30 -11t10 -32q0 -20 -10 -34
t-31 -14z" />
    <glyph glyph-name="gdotaccent" unicode="&#x121;" horiz-adv-x="496" vert-adv-y="1485" 
d="M236 -230q-42 0 -80 7t-66.5 22.5t-45 39.5t-16.5 59q0 23 10.5 44.5t31 39.5t50.5 29v3q-28 13 -40.5 32.5t-12.5 47.5q0 25 17 50t44 56v2q-36 22 -55 57.5t-19 83.5q0 52 21.5 92.5t62.5 63t98 22.5q24 0 45 -4.5t39.5 -13.5t32.5 -20q16 52 38.5 74.5t47.5 22.5
q18 0 29.5 -6.5t17.5 -16t6 -19.5q0 -18 -12 -32t-28 -14q-11 0 -19 5t-18 19l-17 24q-11 -14 -18.5 -31.5t-11.5 -38.5q23 -22 35 -52.5t12 -64.5q0 -57 -23 -96.5t-63.5 -59.5t-93.5 -20q-27 0 -49 4.5t-41 12.5q-12 -14 -26 -36t-14 -50q0 -12 4.5 -25t19.5 -21.5
t46 -8.5h140q71 0 113.5 -25.5t42.5 -83.5q0 -41 -15 -71t-40.5 -50t-56.5 -31.5t-63 -16.5t-60 -5zM237 -209q53 0 98.5 15t74 44t28.5 73q0 47 -28.5 64.5t-82.5 17.5h-186q-27 -14 -48.5 -38t-21.5 -63q0 -62 45 -87.5t121 -25.5zM236 197q62 0 96.5 36.5t34.5 116.5
q0 75 -35.5 113t-101.5 38q-60 0 -94 -37t-34 -117q0 -74 36.5 -112t97.5 -38zM235 634q-20 0 -30 12.5t-10 31.5q0 23 10.5 35t30.5 12t30 -10.5t10 -32.5q0 -20 -10 -34t-31 -14z" />
    <glyph glyph-name="uni0122" unicode="&#x122;" horiz-adv-x="706" vert-adv-y="1485" 
d="M354 -14q-90 0 -158 43t-105.5 125.5t-37.5 200.5q0 89 22 159.5t62 120.5t96.5 76t126.5 26q66 0 114 -23t83 -57l10 80h14l36 -221l-16 -1q-26 67 -60 112t-79.5 67t-106.5 22q-56 0 -102 -22t-79 -66t-51.5 -108.5t-18.5 -149.5q0 -80 17.5 -145.5t51 -112.5t83 -72
t113.5 -25q37 0 70 8.5t62 24.5t54 39v176q0 24 -7 32.5t-26 10.5l-69 5v15h235v-15l-56 -5q-13 -1 -20.5 -8t-7.5 -36v-263h-16l-29 62q-32 -27 -66.5 -43.5t-70 -24t-68.5 -7.5zM331 -262l-11 12q20 21 31 39.5t16 36t4 32.5h-8q-26 0 -36.5 11t-10.5 30q0 10 4 19
t13 14.5t22 5.5q17 0 27 -8t14.5 -21t4.5 -28q0 -20 -6 -43.5t-21 -48.5t-43 -51z" />
    <glyph glyph-name="uni0123" unicode="&#x123;" horiz-adv-x="496" vert-adv-y="1485" 
d="M236 -230q-42 0 -80 7t-66.5 22.5t-45 39.5t-16.5 59q0 23 10.5 44.5t31 39.5t50.5 29v3q-28 13 -40.5 32.5t-12.5 47.5q0 25 17 50t44 56v2q-36 22 -55 57.5t-19 83.5q0 52 21.5 92.5t62.5 63t98 22.5q24 0 45 -4.5t39.5 -13.5t32.5 -20q16 52 38.5 74.5t47.5 22.5
q18 0 29.5 -6.5t17.5 -16t6 -19.5q0 -18 -12 -32t-28 -14q-11 0 -19 5t-18 19l-17 24q-11 -14 -18.5 -31.5t-11.5 -38.5q23 -22 35 -52.5t12 -64.5q0 -57 -23 -96.5t-63.5 -59.5t-93.5 -20q-27 0 -49 4.5t-41 12.5q-12 -14 -26 -36t-14 -50q0 -12 4.5 -25t19.5 -21.5
t46 -8.5h140q71 0 113.5 -25.5t42.5 -83.5q0 -41 -15 -71t-40.5 -50t-56.5 -31.5t-63 -16.5t-60 -5zM237 -209q53 0 98.5 15t74 44t28.5 73q0 47 -28.5 64.5t-82.5 17.5h-186q-27 -14 -48.5 -38t-21.5 -63q0 -62 45 -87.5t121 -25.5zM236 197q62 0 96.5 36.5t34.5 116.5
q0 75 -35.5 113t-101.5 38q-60 0 -94 -37t-34 -117q0 -74 36.5 -112t97.5 -38zM236 583q-25 0 -35.5 17t-10.5 40q0 21 6.5 43.5t22.5 46t43 46.5l10 -12q-19 -18 -30.5 -35.5t-16.5 -33.5t-5 -32h8q25 0 35.5 -11t10.5 -31q0 -8 -4 -17.5t-12.5 -15t-21.5 -5.5z" />
    <glyph glyph-name="Hcircumflex" unicode="&#x124;" horiz-adv-x="778" vert-adv-y="1485" 
d="M58 0v15l63 6q19 2 25 11.5t6 35.5v587q0 26 -6 36t-26 12l-62 5v15h235v-15l-63 -6q-16 -1 -22.5 -10t-6.5 -39v-271h377v273q0 26 -6.5 36t-26.5 12l-60 5v15h236v-15l-63 -5q-19 -1 -25 -11t-6 -39v-587q0 -24 7 -33.5t26 -11.5l61 -6v-15h-236v15l62 6q19 2 25 11.5
t6 35.5v293h-377v-295q0 -22 6 -32.5t25 -12.5l61 -6v-15h-235zM256 767l-9 10l112 126q8 8 15 12.5t17 4.5q11 0 18 -5t19 -19l105 -119l-9 -10l-133 92z" />
    <glyph glyph-name="hcircumflex" unicode="&#x125;" horiz-adv-x="599" vert-adv-y="1485" 
d="M48 0v15l51 5q15 2 20.5 10t5.5 35v620q0 34 -8 45t-34 13l-50 4l2 14l132 5l7 -6v-344h1q23 54 71 80t99 26q50 0 83.5 -19t51 -54.5t17.5 -87.5v-300q0 -22 5.5 -30.5t24.5 -10.5l47 -5v-15h-204v14l47 5q19 2 25 10.5t6 32.5v293q0 46 -12.5 75.5t-39 44t-68.5 14.5
q-44 0 -78.5 -19t-55 -53t-20.5 -79v-275q0 -23 5 -32t20 -11l54 -6v-14h-205zM-12 787l-9 10l112 126q8 8 15 12.5t17 4.5q11 0 18 -5t19 -19l105 -119l-9 -10l-133 92z" />
    <glyph glyph-name="Hbar" unicode="&#x126;" horiz-adv-x="778" vert-adv-y="1485" 
d="M58 0v15l63 6q19 2 25 11.5t6 35.5v473h-102l3 22h99v92q0 26 -6 36t-26 12l-62 5v15h235v-15l-63 -5q-18 -2 -23.5 -12.5t-5.5 -37.5v-90h377v92q0 27 -6.5 36.5t-26.5 11.5l-60 5v15h236v-15l-63 -5q-19 -2 -25 -12t-6 -38v-90h98v-22h-98v-475q0 -25 7 -34t26 -11
l61 -6v-15h-236v15l62 6q19 2 25 11.5t6 35.5v291h-377v-293q0 -23 6 -33t25 -12l61 -6v-15h-235zM201 380h377v161h-377v-161z" />
    <glyph glyph-name="hbar" unicode="&#x127;" horiz-adv-x="602" vert-adv-y="0" 
d="M48 0v15l51 5q15 2 20.5 10t5.5 35v550h-92l4 21h88v49q0 34 -8 45t-34 13l-50 4l2 14l132 5l7 -6v-124h159v-21h-159v-199h1q23 54 71 80t99 26q50 0 83.5 -19t51 -54.5t17.5 -87.5v-300q0 -22 5.5 -30.5t24.5 -10.5l47 -5v-15h-204v14l47 5q19 2 25 10.5t6 32.5v293
q0 46 -12.5 75.5t-39 44t-68.5 14.5q-44 0 -78.5 -19t-55 -53t-20.5 -79v-275q0 -23 5 -32t20 -11l54 -6v-14h-205z" />
    <glyph glyph-name="Itilde" unicode="&#x128;" horiz-adv-x="351" vert-adv-y="1485" 
d="M58 0v15l62 6q19 2 25 11.5t6 35.5v587q0 26 -6.5 36t-26.5 12l-60 5v15h236v-15l-63 -5q-19 -2 -25 -11.5t-6 -37.5v-588q0 -24 7 -33.5t26 -11.5l61 -6v-15h-236zM248 796q-16 0 -34.5 5.5t-44.5 16.5q-24 10 -38 15t-22 7.5t-14 2.5q-11 0 -20 -9.5t-22 -36.5l-13 5
q6 34 15 51t21.5 24t27.5 7t32.5 -4.5t48.5 -17.5q36 -16 49.5 -20.5t22.5 -4.5t18 7.5t24 38.5l13 -5q-7 -35 -16.5 -52.5t-21.5 -23.5t-26 -6z" />
    <glyph glyph-name="itilde" unicode="&#x129;" horiz-adv-x="288" vert-adv-y="1485" 
d="M48 0v15l51 5q16 2 21 10.5t5 34.5v356q0 38 -6 49.5t-27 12.5l-49 5l1 14l124 12l6 -5v-446q0 -24 5 -32.5t20 -10.5l52 -6v-14h-203zM198 627q-16 0 -34.5 5.5t-45.5 16.5q-23 9 -37 14.5t-22 7.5t-14 2q-12 0 -20.5 -9t-21.5 -36l-13 5q6 33 15 50t21.5 23.5t27.5 6.5
t32 -4.5t48 -17.5q36 -15 49.5 -20t22.5 -5q10 0 19 8t23 38l13 -5q-6 -34 -15.5 -51.5t-22 -23t-25.5 -5.5z" />
    <glyph glyph-name="Imacron" unicode="&#x12a;" horiz-adv-x="351" vert-adv-y="1485" 
d="M58 0v15l62 6q19 2 25 11.5t6 35.5v587q0 26 -6.5 36t-26.5 12l-60 5v15h236v-15l-63 -5q-19 -2 -25 -11.5t-6 -37.5v-588q0 -24 7 -33.5t26 -11.5l61 -6v-15h-236zM55 817v41h243v-41h-243z" />
    <glyph glyph-name="imacron" unicode="&#x12b;" horiz-adv-x="288" vert-adv-y="1485" 
d="M48 0v15l51 5q16 2 21 10.5t5 34.5v356q0 38 -6 49.5t-27 12.5l-49 5l1 14l124 12l6 -5v-446q0 -24 5 -32.5t20 -10.5l52 -6v-14h-203zM4 649v41h242v-41h-242z" />
    <glyph glyph-name="Ibreve" unicode="&#x12c;" horiz-adv-x="351" vert-adv-y="1485" 
d="M58 0v15l62 6q19 2 25 11.5t6 35.5v587q0 26 -6.5 36t-26.5 12l-60 5v15h236v-15l-63 -5q-19 -2 -25 -11.5t-6 -37.5v-588q0 -24 7 -33.5t26 -11.5l61 -6v-15h-236zM176 776q-42 0 -69.5 16.5t-43 48.5t-21.5 78l15 3q18 -47 44.5 -70t75.5 -23q51 0 78 24.5t42 68.5
l15 -3q-4 -42 -20 -74t-44 -50.5t-72 -18.5z" />
    <glyph glyph-name="ibreve" unicode="&#x12d;" horiz-adv-x="288" vert-adv-y="1485" 
d="M48 0v15l51 5q16 2 21 10.5t5 34.5v356q0 38 -6 49.5t-27 12.5l-49 5l1 14l124 12l6 -5v-446q0 -24 5 -32.5t20 -10.5l52 -6v-14h-203zM124 597q-43 0 -68.5 18t-38.5 52t-19 83l15 2q17 -55 40.5 -81t73.5 -26q51 0 74 28.5t38 78.5l15 -2q-5 -47 -18.5 -82t-40 -53
t-71.5 -18z" />
    <glyph glyph-name="Iogonek" unicode="&#x12e;" horiz-adv-x="369" vert-adv-y="1485" 
d="M166 -222q-21 0 -36.5 8.5t-24 24.5t-8.5 37q0 25 12 49.5t36.5 50t60.5 52.5h-148v15l62 6q19 2 25 11.5t6 35.5v587q0 26 -6.5 36t-26.5 12l-60 5v15h236v-15l-63 -5q-19 -2 -25 -11.5t-6 -37.5v-588q0 -24 7 -33.5t26 -11.5l61 -6v-15h-69q-43 -39 -63 -72t-20 -67
q0 -26 10.5 -38.5t29.5 -12.5q14 0 30 5.5t32 19.5l8 -10q-13 -18 -26.5 -28.5t-28 -14.5t-31.5 -4z" />
    <glyph glyph-name="iogonek" unicode="&#x12f;" horiz-adv-x="287" vert-adv-y="1485" 
d="M150 -222q-21 0 -36.5 8.5t-24 24.5t-8.5 37q0 25 12 49.5t36.5 50t60.5 52.5h-142v15l51 5q15 2 20.5 10t5.5 35v356q0 38 -6 49.5t-27 12.5l-49 5l1 14l124 12l6 -5v-446q0 -24 5 -32.5t20 -10.5l52 -6v-14h-42q-43 -39 -63 -72t-20 -67q0 -26 10.5 -38.5t29.5 -12.5
q14 0 30 5.5t32 19.5l8 -10q-13 -18 -26.5 -28.5t-28 -14.5t-31.5 -4zM135 635q-19 0 -29.5 13t-10.5 32q0 20 11 34.5t30 14.5t30 -12.5t11 -32.5q0 -19 -10.5 -34t-31.5 -15z" />
    <glyph glyph-name="Idotaccent" unicode="&#x130;" horiz-adv-x="351" vert-adv-y="1485" 
d="M58 0v15l62 6q19 2 25 11.5t6 35.5v587q0 26 -6.5 36t-26.5 12l-60 5v15h236v-15l-63 -5q-19 -2 -25 -11.5t-6 -37.5v-588q0 -24 7 -33.5t26 -11.5l61 -6v-15h-236zM177 801q-20 0 -30 12.5t-10 31.5q0 23 10.5 35t30.5 12t30 -11t10 -32q0 -20 -10 -34t-31 -14z" />
    <glyph glyph-name="dotlessi" unicode="&#x131;" horiz-adv-x="288" vert-adv-y="1485" 
d="M48 0v15l51 5q16 2 21 10.5t5 34.5v356q0 38 -6 49.5t-27 12.5l-49 5l1 14l124 12l6 -5v-446q0 -24 5 -32.5t20 -10.5l52 -6v-14h-203z" />
    <glyph glyph-name="IJ" unicode="&#x132;" horiz-adv-x="847" vert-adv-y="1485" 
d="M58 0v15l62 6q19 2 25 11.5t6 35.5v587q0 26 -6.5 36t-26.5 12l-60 5v15h236v-15l-63 -5q-19 -2 -25 -11.5t-6 -37.5v-588q0 -24 7 -33.5t26 -11.5l61 -6v-15h-236zM543 -14q-47 0 -81.5 12.5t-53.5 34t-19 47.5q0 19 7.5 31.5t20.5 19.5t28 7q17 0 29.5 -9t12.5 -28
q0 -15 -9.5 -32t-24.5 -39q19 -13 43 -18t49 -5q43 0 71 19t43 60t15 107v462q0 28 -6 37.5t-26 10.5l-82 5v15h261v-15l-68 -5q-17 -2 -23.5 -11t-6.5 -38v-447q0 -112 -47.5 -166.5t-132.5 -54.5z" />
    <glyph glyph-name="ij" unicode="&#x133;" horiz-adv-x="545" vert-adv-y="1485" 
d="M48 0v15l51 5q15 2 20.5 10t5.5 35v356q0 38 -6 49.5t-27 12.5l-49 5l1 14l124 12l6 -5v-446q0 -24 5 -32.5t20 -10.5l52 -6v-14h-203zM135 635q-19 0 -29.5 13t-10.5 32q0 20 11 34.5t30 14.5t30 -12.5t11 -32.5q0 -19 -10.5 -34t-31.5 -15zM318 -236l-8 12
q26 21 43 39.5t26.5 43t13.5 62.5t4 97v402q0 39 -6 50.5t-27 12.5l-49 5l2 14l123 12l6 -5v-418q0 -70 -2.5 -119.5t-13.5 -86t-37.5 -65t-74.5 -56.5zM407 633q-20 0 -31 14t-11 33q0 21 11.5 35.5t31.5 14.5t31 -12.5t11 -33.5q0 -20 -11 -35.5t-32 -15.5z" />
    <glyph glyph-name="Jcircumflex" unicode="&#x134;" horiz-adv-x="495" vert-adv-y="1485" 
d="M192 -14q-47 0 -81.5 12.5t-53.5 34t-19 47.5q0 19 7.5 31.5t20.5 19.5t28 7q17 0 29.5 -9t12.5 -28q0 -15 -9.5 -32t-24.5 -39q19 -13 43 -18t49 -5q43 0 71 19t43 60t15 107v462q0 28 -6 37.5t-26 10.5l-82 5v15h261v-15l-68 -5q-17 -2 -23.5 -11t-6.5 -38v-447
q0 -112 -47.5 -166.5t-132.5 -54.5zM208 765l-9 10l112 126q8 8 15 12.5t17 4.5q11 0 18 -5t19 -19l105 -119l-9 -10l-133 92z" />
    <glyph glyph-name="jcircumflex" unicode="&#x135;" horiz-adv-x="260" vert-adv-y="1485" 
d="M36 -236l-8 12q26 21 43 39.5t26.5 43t13.5 62.5t4 97v402q0 39 -6 50.5t-27 12.5l-49 5l2 14l123 12l6 -5v-418q0 -70 -2.5 -119.5t-13.5 -86t-37.5 -65t-74.5 -56.5zM13 586l-10 9l101 140q7 8 15.5 13t15.5 5q6 0 11 -1.5t10.5 -6t11.5 -13.5l100 -137l-10 -9
l-124 109z" />
    <glyph glyph-name="uni0136" unicode="&#x136;" horiz-adv-x="659" vert-adv-y="1485" 
d="M577 -14q-27 0 -46.5 8.5t-34.5 22.5t-27 32t-23 37l-173 296l-73 -75v-241q0 -23 7 -33t26 -12l63 -6v-15h-238v15l62 6q19 2 25 11.5t6 35.5v587q0 26 -6.5 36t-26.5 12l-60 5v15h236v-15l-63 -5q-19 -2 -25 -11.5t-6 -37.5v-313l304 316q12 13 18.5 23t-1.5 17t-38 8
l-42 2l2 16h207v-15l-35 -4q-15 -1 -28 -7t-25 -15.5t-27 -26.5l-227 -238l177 -298q19 -33 36.5 -57t36 -37.5t40.5 -13.5q15 0 29 5.5t25 13.5l6 -11q-13 -15 -34 -24t-47 -9zM348 -262l-11 12q20 21 31 39.5t16 36t4 32.5h-8q-26 0 -36.5 11t-10.5 30q0 10 4 19t13 14.5
t22 5.5q17 0 27 -8t14.5 -21t4.5 -28q0 -20 -6 -43.5t-21 -48.5t-43 -51z" />
    <glyph glyph-name="uni0137" unicode="&#x137;" horiz-adv-x="546" vert-adv-y="1485" 
d="M458 -8q-18 0 -35.5 6.5t-34.5 22t-36 40.5l-155 219v8l180 162q15 13 19.5 24t-18.5 13l-41 5l1 16h164v-15l-32 -5q-19 -2 -35 -15.5t-32 -28.5l-159 -144l148 -212q22 -31 44 -48.5t44 -17.5q18 0 32 6.5t26 14.5l7 -11q-19 -17 -40.5 -28.5t-46.5 -11.5zM45 0v15
l54 5q16 2 21 10.5t5 34.5v621q0 33 -8 44t-33 12l-51 5l2 14l132 5l7 -6v-697q0 -24 5 -32.5t20 -10.5l53 -6v-14h-207zM268 -262l-11 12q20 21 31 39.5t16 36t4 32.5h-8q-26 0 -36.5 11t-10.5 30q0 10 4 19t13 14.5t22 5.5q17 0 27 -8t14.5 -21t4.5 -28q0 -20 -6 -43.5
t-21 -48.5t-43 -51z" />
    <glyph glyph-name="kgreenlandic" unicode="&#x138;" horiz-adv-x="546" vert-adv-y="1485" 
d="M458 -8q-15 0 -31.5 5t-34.5 20t-40 44l-155 219v8l180 162q16 14 19 24.5t-18 12.5l-41 5l1 16h164v-15l-32 -5q-19 -2 -34.5 -15.5t-32.5 -28.5l-159 -144l148 -212q22 -31 44 -48.5t44 -17.5q19 0 32.5 6.5t25.5 14.5l7 -11q-19 -17 -40.5 -28.5t-46.5 -11.5zM48 0v15
l51 5q16 2 21 10.5t5 34.5v356q0 38 -6 49.5t-27 12.5l-49 5l1 14l124 12l6 -5v-446q0 -24 5 -32.5t20 -10.5l52 -6v-14h-203z" />
    <glyph glyph-name="Lacute" unicode="&#x139;" horiz-adv-x="552" vert-adv-y="1485" 
d="M58 0v15l62 6q19 2 25 11.5t6 35.5v587q0 27 -6.5 36.5t-26.5 11.5l-60 5v15h256v-15l-82 -5q-19 -2 -25.5 -11.5t-6.5 -36.5v-634h154q37 0 59.5 4t37 19.5t26 47t27.5 86.5h16l-26 -178h-436zM116 771l-8 11l122 116q13 14 21 18t15 4q11 0 18 -9t7 -20t-7.5 -20.5
t-24.5 -19.5z" />
    <glyph glyph-name="lacute" unicode="&#x13a;" horiz-adv-x="288" vert-adv-y="1485" 
d="M48 0v15l51 5q15 2 20.5 10t5.5 35v621q0 33 -8 44t-33 12l-51 5l2 14l132 5l7 -6v-697q0 -24 5 -32.5t20 -10.5l52 -6v-14h-203zM50 807l-8 11l122 116q13 14 21 18t15 4q11 0 18 -9t7 -20t-7.5 -20.5t-24.5 -19.5z" />
    <glyph glyph-name="uni013B" unicode="&#x13b;" horiz-adv-x="552" vert-adv-y="1485" 
d="M58 0v15l62 6q19 2 25 11.5t6 35.5v587q0 27 -6.5 36.5t-26.5 11.5l-60 5v15h256v-15l-82 -5q-19 -2 -25.5 -11.5t-6.5 -36.5v-634h154q37 0 59.5 4t37 19.5t26 47t27.5 86.5h16l-26 -178h-436zM276 -262l-11 12q20 21 31 39.5t16 36t4 32.5h-8q-26 0 -36.5 11t-10.5 30
q0 10 4 19t13 14.5t22 5.5q17 0 27 -8t14.5 -21t4.5 -28q0 -20 -6 -43.5t-21 -48.5t-43 -51z" />
    <glyph glyph-name="uni013C" unicode="&#x13c;" horiz-adv-x="289" vert-adv-y="1485" 
d="M48 0v15l51 5q15 2 20.5 10t5.5 35v621q0 33 -8 44t-33 12l-51 5l2 14l132 5l7 -6v-697q0 -24 5 -32.5t20 -10.5l52 -6v-14h-203zM126 -262l-11 12q20 21 31 39.5t16 36t4 32.5h-8q-26 0 -36.5 11t-10.5 30q0 10 4 19t13 14.5t22 5.5q17 0 27 -8t14.5 -21t4.5 -28
q0 -20 -6 -43.5t-21 -48.5t-43 -51z" />
    <glyph glyph-name="Lcaron" unicode="&#x13d;" horiz-adv-x="552" vert-adv-y="1485" 
d="M58 0v15l62 6q19 2 25 11.5t6 35.5v587q0 27 -6.5 36.5t-26.5 11.5l-60 5v15h256v-15l-82 -5q-19 -2 -25.5 -11.5t-6.5 -36.5v-634h154q37 0 59.5 4t37 19.5t26 47t27.5 86.5h16l-26 -178h-436zM390 551l-12 12q27 26 35 49t8 41q0 11 -5 19t-17 16q-10 7 -14.5 16.5
t-4.5 18.5q0 16 11 25.5t27 9.5q24 0 37 -19t13 -42q0 -22 -8 -47.5t-25.5 -51t-44.5 -47.5z" />
    <glyph glyph-name="lcaron" unicode="&#x13e;" horiz-adv-x="366" vert-adv-y="1485" 
d="M48 0v15l51 5q15 2 20.5 10t5.5 35v621q0 33 -8 44t-33 12l-51 5l2 14l132 5l7 -6v-697q0 -24 5 -32.5t20 -10.5l52 -6v-14h-203zM269 563l-12 12q27 26 35 49t8 41q0 11 -5 19t-17 16q-10 7 -14.5 16.5t-4.5 18.5q0 16 11 25.5t27 9.5q24 0 37 -19t13 -42
q0 -22 -8 -47.5t-25.5 -51t-44.5 -47.5z" />
    <glyph glyph-name="Ldot" unicode="&#x13f;" horiz-adv-x="552" vert-adv-y="1485" 
d="M58 0v15l62 6q19 2 25 11.5t6 35.5v587q0 27 -6.5 36.5t-26.5 11.5l-60 5v15h256v-15l-82 -5q-19 -2 -25.5 -11.5t-6.5 -36.5v-634h154q37 0 59.5 4t37 19.5t26 47t27.5 86.5h16l-26 -178h-436zM441 350q-20 0 -30 12.5t-10 31.5q0 23 10.5 35t30.5 12t30 -10.5t10 -32.5
q0 -20 -10 -34t-31 -14z" />
    <glyph glyph-name="ldot" unicode="&#x140;" horiz-adv-x="376" vert-adv-y="1485" 
d="M48 3v15l51 5q15 2 20.5 10t5.5 35v621q0 33 -8 44t-33 12l-51 5l2 14l132 5l7 -6v-697q0 -24 5 -32.5t20 -10.5l52 -6v-14h-203zM365 346q-20 0 -30 12.5t-10 31.5q0 23 10.5 35t30.5 12t30 -10.5t10 -32.5q0 -20 -10 -34t-31 -14z" />
    <glyph glyph-name="Lslash" unicode="&#x141;" horiz-adv-x="552" vert-adv-y="1485" 
d="M504 178h16l-26 -178h-436v15l62 6q19 2 25 11.5t6 35.5v257l-123 -65v24l123 65v306q0 27 -6.5 36.5t-26.5 11.5l-60 5v15h256v-15l-82 -5q-19 -2 -25.5 -11.5t-6.5 -36.5v-284l195 101v-24l-195 -101v-326h154q37 0 59.5 4t37 19.5t26 47t27.5 86.5z" />
    <glyph glyph-name="lslash" unicode="&#x142;" horiz-adv-x="295" vert-adv-y="1485" 
d="M48 0v15l51 5q15 2 20.5 10t5.5 35v321l-90 -49v23l90 50v276q0 33 -8 44t-33 12l-51 5l2 14l132 5l7 -6v-330l97 55v-23l-97 -55v-344q0 -24 5 -32.5t20 -10.5l52 -6v-14h-203z" />
    <glyph glyph-name="Nacute" unicode="&#x143;" horiz-adv-x="774" vert-adv-y="1485" 
d="M58 0v15l59 4q19 1 26.5 11.5t7.5 36.5v590q0 25 -5.5 34.5t-27.5 11.5l-60 5v15h147l397 -628h1v561q0 25 -8 35t-30 12l-53 5v15h210v-15l-61 -4q-19 -2 -26 -12t-7 -37v-655h-27l-422 674h-2v-608q0 -26 7 -35.5t26 -11.5l58 -4v-15h-210zM331 771l-8 11l122 116
q13 14 21 18t15 4q11 0 18 -9t7 -20t-7.5 -20.5t-24.5 -19.5z" />
    <glyph glyph-name="nacute" unicode="&#x144;" horiz-adv-x="593" vert-adv-y="1485" 
d="M38 0v15l52 5q16 2 21 10t5 35v356q0 37 -6 49t-27 13l-48 5l1 14l123 12l5 -5v-93h2q24 54 71 80t102 26q50 0 83 -19t49.5 -54.5t16.5 -87.5v-300q0 -22 6 -30.5t25 -10.5l47 -5v-15h-205v15l48 5q19 2 24.5 10.5t5.5 31.5v293q0 46 -12 75.5t-38 44t-66 14.5
q-45 0 -81 -19t-56.5 -53t-20.5 -79v-275q0 -23 5 -32t20 -11l55 -5v-15h-207zM250 586l-9 9l99 137q8 11 15.5 16.5t16.5 5.5q7 0 12.5 -3.5t8 -9.5t2.5 -13q0 -9 -7 -20t-23 -25z" />
    <glyph glyph-name="uni0145" unicode="&#x145;" horiz-adv-x="774" vert-adv-y="1485" 
d="M58 0v15l59 4q19 1 26.5 11.5t7.5 36.5v590q0 25 -5.5 34.5t-27.5 11.5l-60 5v15h147l397 -628h1v561q0 25 -8 35t-30 12l-53 5v15h210v-15l-61 -4q-19 -2 -26 -12t-7 -37v-655h-27l-422 674h-2v-608q0 -26 7 -35.5t26 -11.5l58 -4v-15h-210zM358 -262l-11 12
q20 21 31 39.5t16 36t4 32.5h-8q-26 0 -36.5 11t-10.5 30q0 10 4 19t13 14.5t22 5.5q17 0 27 -8t14.5 -21t4.5 -28q0 -20 -6 -43.5t-21 -48.5t-43 -51z" />
    <glyph glyph-name="uni0146" unicode="&#x146;" horiz-adv-x="593" vert-adv-y="1485" 
d="M38 0v15l52 5q16 2 21 10t5 35v356q0 37 -6 49t-27 13l-48 5l1 14l123 12l5 -5v-93h2q24 54 71 80t102 26q50 0 83 -19t49.5 -54.5t16.5 -87.5v-300q0 -22 6 -30.5t25 -10.5l47 -5v-15h-205v15l48 5q19 2 24.5 10.5t5.5 31.5v293q0 46 -12 75.5t-38 44t-66 14.5
q-45 0 -81 -19t-56.5 -53t-20.5 -79v-275q0 -23 5 -32t20 -11l55 -5v-15h-207zM279 -262l-11 12q20 21 31 39.5t16 36t4 32.5h-8q-26 0 -36.5 11t-10.5 30q0 10 4 19t13 14.5t22 5.5q17 0 27 -8t14.5 -21t4.5 -28q0 -20 -6 -43.5t-21 -48.5t-43 -51z" />
    <glyph glyph-name="Ncaron" unicode="&#x147;" horiz-adv-x="774" vert-adv-y="1485" 
d="M58 0v15l59 4q19 1 26.5 11.5t7.5 36.5v590q0 25 -5.5 34.5t-27.5 11.5l-60 5v15h147l397 -628h1v561q0 25 -8 35t-30 12l-53 5v15h210v-15l-61 -4q-19 -2 -26 -12t-7 -37v-655h-27l-422 674h-2v-608q0 -26 7 -35.5t26 -11.5l58 -4v-15h-210zM391 777q-10 0 -17.5 5.5
t-18.5 18.5l-106 119l9 10l133 -92l135 92l9 -10l-112 -126q-7 -7 -14.5 -12t-17.5 -5z" />
    <glyph glyph-name="ncaron" unicode="&#x148;" horiz-adv-x="593" vert-adv-y="1485" 
d="M38 0v15l52 5q16 2 21 10t5 35v356q0 37 -6 49t-27 13l-48 5l1 14l123 12l5 -5v-93h2q24 54 71 80t102 26q50 0 83 -19t49.5 -54.5t16.5 -87.5v-300q0 -22 6 -30.5t25 -10.5l47 -5v-15h-205v15l48 5q19 2 24.5 10.5t5.5 31.5v293q0 46 -12 75.5t-38 44t-66 14.5
q-45 0 -81 -19t-56.5 -53t-20.5 -79v-275q0 -23 5 -32t20 -11l55 -5v-15h-207zM300 591q-5 0 -10.5 2t-10.5 6.5t-12 13.5l-100 136l11 10l123 -110l121 110l10 -10l-101 -139q-6 -9 -14.5 -14t-16.5 -5z" />
    <glyph glyph-name="napostrophe" unicode="&#x149;" horiz-adv-x="692" vert-adv-y="1485" 
d="M136 0v15l52 5q16 2 21 10t5 35v356q0 37 -6 49t-27 13l-48 5l1 14l123 12l5 -5v-93h2q24 54 71 80t102 26q50 0 83 -19t49.5 -54.5t16.5 -87.5v-300q0 -22 6 -30.5t25 -10.5l47 -5v-15h-205v15l48 5q19 2 24.5 10.5t5.5 31.5v293q0 46 -12 75.5t-38 44t-66 14.5
q-45 0 -81 -19t-56.5 -53t-20.5 -79v-275q0 -23 5 -32t20 -11l55 -5v-15h-207zM38 543l-10 12q33 33 45.5 58t13.5 60h-14q-16 0 -26.5 5.5t-15.5 15t-5 21.5q0 16 12 29t33 13q25 0 37.5 -17.5t12.5 -44.5q0 -28 -9.5 -54t-28 -50.5t-45.5 -47.5z" />
    <glyph glyph-name="Eng" unicode="&#x14a;" horiz-adv-x="774" vert-adv-y="1485" 
d="M58 0v15l59 4q19 1 26.5 11.5t7.5 36.5v590q0 25 -5.5 34.5t-27.5 11.5l-60 5v15h147l397 -628h1v561q0 25 -8 35t-30 12l-53 5v15h210v-15l-61 -4q-19 -2 -26 -12t-7 -37v-564q0 -70 -2.5 -119.5t-13.5 -86t-37.5 -65t-74.5 -56.5l-8 12q26 20 43 38.5t26.5 43t13.5 62
t4 95.5v19l-400 640h-2v-608q0 -26 7 -35.5t26 -11.5l58 -4v-15h-210z" />
    <glyph glyph-name="eng" unicode="&#x14b;" horiz-adv-x="585" vert-adv-y="1485" 
d="M344 522q46 0 78.5 -19t49 -54.5t16.5 -87.5v-270q0 -70 -2 -119.5t-13.5 -86t-38 -65t-74.5 -56.5l-8 12q27 21 43.5 39.5t26.5 43t13.5 62.5t3.5 97v337q0 46 -12.5 75.5t-39.5 44t-69 14.5q-44 0 -78.5 -19t-54.5 -53t-20 -79v-275q0 -23 5 -32t20 -11l55 -5v-15h-207
v15l52 5q16 2 21 10t5 35v356q0 37 -6 49t-27 13l-48 5l1 14l123 12l5 -5v-93h2q24 54 73 80t105 26z" />
    <glyph glyph-name="Omacron" unicode="&#x14c;" horiz-adv-x="700" vert-adv-y="1485" 
d="M351 -14q-95 0 -161.5 44t-101.5 126t-35 195q0 123 35 209t101.5 131.5t163.5 45.5q94 0 159.5 -43.5t99.5 -124.5t34 -194q0 -95 -20 -167.5t-58.5 -122t-93 -74.5t-123.5 -25zM356 8q60 0 104.5 23.5t74 68.5t44.5 112t15 152q0 83 -16 148.5t-47 110.5t-77.5 69
t-107.5 24q-60 0 -105.5 -23.5t-75 -68.5t-44.5 -110t-15 -148q0 -84 16 -150.5t47.5 -113t78.5 -70.5t108 -24zM228 819v41h243v-41h-243z" />
    <glyph glyph-name="omacron" unicode="&#x14d;" horiz-adv-x="521" vert-adv-y="1485" 
d="M262 -14q-68 0 -117 32t-75 91t-26 139q0 83 26 144t76 94.5t122 33.5q65 0 112 -31.5t72.5 -88t25.5 -132.5q0 -86 -25.5 -149.5t-73.5 -98t-117 -34.5zM269 8q50 0 85 25.5t54 79t19 135.5q0 63 -11 110t-31.5 78.5t-51.5 47t-73 15.5q-51 0 -88.5 -25t-57 -77.5
t-19.5 -134.5q0 -86 21 -142.5t59.5 -84t93.5 -27.5zM140 649v41h242v-41h-242z" />
    <glyph glyph-name="Obreve" unicode="&#x14e;" horiz-adv-x="700" vert-adv-y="1485" 
d="M351 -14q-95 0 -161.5 44t-101.5 126t-35 195q0 123 35 209t101.5 131.5t163.5 45.5q94 0 159.5 -43.5t99.5 -124.5t34 -194q0 -95 -20 -167.5t-58.5 -122t-93 -74.5t-123.5 -25zM356 8q60 0 104.5 23.5t74 68.5t44.5 112t15 152q0 83 -16 148.5t-47 110.5t-77.5 69
t-107.5 24q-60 0 -105.5 -23.5t-75 -68.5t-44.5 -110t-15 -148q0 -84 16 -150.5t47.5 -113t78.5 -70.5t108 -24zM349 778q-42 0 -69.5 16.5t-43 48.5t-21.5 78l15 3q18 -47 44.5 -70t75.5 -23q51 0 78 24.5t42 68.5l15 -3q-4 -42 -20 -74t-44 -50.5t-72 -18.5z" />
    <glyph glyph-name="obreve" unicode="&#x14f;" horiz-adv-x="521" vert-adv-y="1485" 
d="M262 -14q-68 0 -117 32t-75 91t-26 139q0 83 26 144t76 94.5t122 33.5q65 0 112 -31.5t72.5 -88t25.5 -132.5q0 -86 -25.5 -149.5t-73.5 -98t-117 -34.5zM269 8q50 0 85 25.5t54 79t19 135.5q0 63 -11 110t-31.5 78.5t-51.5 47t-73 15.5q-51 0 -88.5 -25t-57 -77.5
t-19.5 -134.5q0 -86 21 -142.5t59.5 -84t93.5 -27.5zM260 597q-43 0 -68.5 18t-38.5 52t-19 83l15 2q17 -55 40.5 -81t73.5 -26q51 0 74 28.5t38 78.5l15 -2q-5 -47 -18.5 -82t-40 -53t-71.5 -18z" />
    <glyph glyph-name="Ohungarumlaut" unicode="&#x150;" horiz-adv-x="700" vert-adv-y="1485" 
d="M351 -14q-95 0 -161.5 44t-101.5 126t-35 195q0 123 35 209t101.5 131.5t163.5 45.5q94 0 159.5 -43.5t99.5 -124.5t34 -194q0 -95 -20 -167.5t-58.5 -122t-93 -74.5t-123.5 -25zM356 8q60 0 104.5 23.5t74 68.5t44.5 112t15 152q0 83 -16 148.5t-47 110.5t-77.5 69
t-107.5 24q-60 0 -105.5 -23.5t-75 -68.5t-44.5 -110t-15 -148q0 -84 16 -150.5t47.5 -113t78.5 -70.5t108 -24zM252 771l-8 11l120 119q13 13 21 17.5t15 4.5q11 0 18 -8.5t7 -19.5q0 -10 -7.5 -19.5t-24.5 -20.5zM416 771l-8 11l121 112q14 12 21.5 17t15.5 5q10 0 17 -8
t7 -19t-7.5 -21t-24.5 -20z" />
    <glyph glyph-name="ohungarumlaut" unicode="&#x151;" horiz-adv-x="521" vert-adv-y="1485" 
d="M262 -14q-68 0 -117 32t-75 91t-26 139q0 83 26 144t76 94.5t122 33.5q65 0 112 -31.5t72.5 -88t25.5 -132.5q0 -86 -25.5 -149.5t-73.5 -98t-117 -34.5zM269 8q50 0 85 25.5t54 79t19 135.5q0 63 -11 110t-31.5 78.5t-51.5 47t-73 15.5q-51 0 -88.5 -25t-57 -77.5
t-19.5 -134.5q0 -86 21 -142.5t59.5 -84t93.5 -27.5zM317 586l-9 9l97 134q8 12 15.5 17.5t16.5 5.5q7 0 12 -3.5t7.5 -9t2.5 -12.5q0 -10 -6.5 -20.5t-23.5 -25.5zM183 586l-10 9l95 136q8 12 15.5 17.5t15.5 5.5q7 0 12 -3.5t8 -9.5t3 -13q0 -9 -7 -19.5t-24 -25.5z" />
    <glyph glyph-name="OE" unicode="&#x152;" horiz-adv-x="999" vert-adv-y="1485" 
d="M343 -14q-91 0 -156 44t-99.5 126t-34.5 195q0 123 34.5 209t100 131.5t157.5 45.5q80 0 139 -34t95 -98v118h330l29 -151l-16 -1q-14 48 -27.5 74.5t-30 38.5t-41.5 15t-63 3h-132v-321h132q36 0 53 6t25 25t15 58l15 1v-200h-15q-6 38 -14 56.5t-27 25.5t-59 7h-125
v-339h161q36 0 59.5 5t39.5 19.5t27.5 43t22.5 75.5h16l-17 -164h-358v129q-37 -71 -97.5 -107t-138.5 -36zM348 8q57 0 100 23.5t72 68.5t43.5 112t14.5 152q0 83 -15.5 148.5t-46 110.5t-75.5 69t-103 24t-101 -23.5t-72 -68.5t-44 -110t-15 -148q0 -84 16 -150.5t47 -113
t76 -70.5t103 -24z" />
    <glyph glyph-name="oe" unicode="&#x153;" horiz-adv-x="842" vert-adv-y="1485" 
d="M262 -14q-68 0 -117 32t-75 91t-26 139q0 83 26 144t76 94.5t122 33.5q44 0 80 -14.5t63 -42.5t43 -67q26 59 72.5 92.5t108.5 33.5q54 0 90.5 -22.5t55.5 -61.5t19 -89q0 -17 -0.5 -37t-2.5 -40h-321q-1 -90 21.5 -144t62.5 -77.5t87 -23.5q41 0 76.5 15t68.5 50l12 -11
q-37 -51 -81 -73t-94 -22q-40 0 -75 13.5t-61.5 41.5t-43.5 71q-25 -59 -72.5 -92.5t-114.5 -33.5zM269 8q50 0 85 25.5t54 79t19 135.5q0 63 -11 110t-31.5 78.5t-51.5 47t-73 15.5q-51 0 -88.5 -25t-57 -77.5t-19.5 -134.5q0 -65 12 -112.5t34 -79t54.5 -47t73.5 -15.5z
M477 295h271q2 16 2.5 29t0.5 26q0 77 -29 114t-89 37q-44 0 -78 -22t-54 -68t-24 -116z" />
    <glyph glyph-name="Racute" unicode="&#x154;" horiz-adv-x="628" vert-adv-y="1485" 
d="M580 -14q-26 0 -48 9t-39.5 31t-32.5 60l-56 142q-21 54 -40 79.5t-42 33t-55 7.5h-37t-29 -2v-280q0 -22 7 -32.5t26 -12.5l68 -6v-15h-244v15l63 6q19 2 25 11.5t6 35.5v587q0 27 -6.5 36.5t-26.5 11.5l-61 5v15h207q68 0 117.5 -11t81.5 -32.5t47 -54t15 -75.5
q0 -23 -5.5 -47.5t-18 -47.5t-35 -42.5t-54.5 -33.5t-78 -20v-3q44 -10 73 -41.5t43 -69.5l38 -93q16 -40 31 -72t32.5 -50t39.5 -18q18 0 32 5t24 12l6 -10q-14 -16 -34 -24.5t-40 -8.5zM277 369q55 0 99 19.5t70.5 59t26.5 99.5q0 55 -23.5 89t-69 50t-113.5 16h-66v-332
q31 -1 48.5 -1h27.5zM241 771l-8 11l122 116q13 14 21 18t15 4q11 0 18 -9t7 -20t-7.5 -20.5t-24.5 -19.5z" />
    <glyph glyph-name="racute" unicode="&#x155;" horiz-adv-x="414" vert-adv-y="1485" 
d="M39 0v15l51 5q16 2 21 10t5 34v357q0 37 -6 49t-27 13l-48 5l1 14l123 12l5 -5l1 -94h2q24 51 59.5 78t78.5 27q40 0 64 -20t24 -51q0 -15 -5.5 -26t-16 -16.5t-26.5 -5.5q-19 0 -29.5 9t-10.5 22q0 8 2.5 15.5t8 17t13.5 21.5q-30 10 -59 1t-52.5 -30.5t-38 -52
t-14.5 -66.5v-275q0 -23 5 -32t23 -11l79 -6v-14h-233zM175 586l-9 9l99 137q8 11 15.5 16.5t16.5 5.5q7 0 12.5 -3.5t8 -9.5t2.5 -13q0 -9 -7 -20t-23 -25z" />
    <glyph glyph-name="uni0156" unicode="&#x156;" horiz-adv-x="632" vert-adv-y="1485" 
d="M580 -14q-26 0 -48 9t-39.5 31t-32.5 60l-56 142q-21 54 -40 79.5t-42 33t-55 7.5h-37t-29 -2v-280q0 -22 7 -32.5t26 -12.5l68 -6v-15h-244v15l63 6q19 2 25 11.5t6 35.5v587q0 27 -6.5 36.5t-26.5 11.5l-61 5v15h207q68 0 117.5 -11t81.5 -32.5t47 -54t15 -75.5
q0 -23 -5.5 -47.5t-18 -47.5t-35 -42.5t-54.5 -33.5t-78 -20v-3q44 -10 73 -41.5t43 -69.5l38 -93q16 -40 31 -72t32.5 -50t39.5 -18q18 0 32 5t24 12l6 -10q-14 -16 -34 -24.5t-40 -8.5zM277 369q55 0 99 19.5t70.5 59t26.5 99.5q0 55 -23.5 89t-69 50t-113.5 16h-66v-332
q31 -1 48.5 -1h27.5zM316 -262l-11 12q20 21 31 39.5t16 36t4 32.5h-8q-26 0 -36.5 11t-10.5 30q0 10 4 19t13 14.5t22 5.5q17 0 27 -8t14.5 -21t4.5 -28q0 -20 -6 -43.5t-21 -48.5t-43 -51z" />
    <glyph glyph-name="uni0157" unicode="&#x157;" horiz-adv-x="414" vert-adv-y="1485" 
d="M39 0v15l51 5q16 2 21 10t5 34v357q0 37 -6 49t-27 13l-48 5l1 14l123 12l5 -5l1 -94h2q24 51 59.5 78t78.5 27q40 0 64 -20t24 -51q0 -15 -5.5 -26t-16 -16.5t-26.5 -5.5q-19 0 -29.5 9t-10.5 22q0 8 2.5 15.5t8 17t13.5 21.5q-30 10 -59 1t-52.5 -30.5t-38 -52
t-14.5 -66.5v-275q0 -23 5 -32t23 -11l79 -6v-14h-233zM120 -262l-11 12q20 21 31 39.5t16 36t4 32.5h-8q-26 0 -36.5 11t-10.5 30q0 10 4 19t13 14.5t22 5.5q17 0 27 -8t14.5 -21t4.5 -28q0 -20 -6 -43.5t-21 -48.5t-43 -51z" />
    <glyph glyph-name="Rcaron" unicode="&#x158;" horiz-adv-x="632" vert-adv-y="1485" 
d="M580 -14q-26 0 -48 9t-39.5 31t-32.5 60l-56 142q-21 54 -40 79.5t-42 33t-55 7.5h-37t-29 -2v-280q0 -22 7 -32.5t26 -12.5l68 -6v-15h-244v15l63 6q19 2 25 11.5t6 35.5v587q0 27 -6.5 36.5t-26.5 11.5l-61 5v15h207q68 0 117.5 -11t81.5 -32.5t47 -54t15 -75.5
q0 -23 -5.5 -47.5t-18 -47.5t-35 -42.5t-54.5 -33.5t-78 -20v-3q44 -10 73 -41.5t43 -69.5l38 -93q16 -40 31 -72t32.5 -50t39.5 -18q18 0 32 5t24 12l6 -10q-14 -16 -34 -24.5t-40 -8.5zM277 369q55 0 99 19.5t70.5 59t26.5 99.5q0 55 -23.5 89t-69 50t-113.5 16h-66v-332
q31 -1 48.5 -1h27.5zM300 777q-10 0 -17.5 5.5t-18.5 18.5l-106 119l9 10l133 -92l135 92l9 -10l-112 -126q-7 -7 -14.5 -12t-17.5 -5z" />
    <glyph glyph-name="rcaron" unicode="&#x159;" horiz-adv-x="414" vert-adv-y="1485" 
d="M39 0v15l51 5q16 2 21 10t5 34v357q0 37 -6 49t-27 13l-48 5l1 14l123 12l5 -5l1 -94h2q24 51 59.5 78t78.5 27q40 0 64 -20t24 -51q0 -15 -5.5 -26t-16 -16.5t-26.5 -5.5q-19 0 -29.5 9t-10.5 22q0 8 2.5 15.5t8 17t13.5 21.5q-30 10 -59 1t-52.5 -30.5t-38 -52
t-14.5 -66.5v-275q0 -23 5 -32t23 -11l79 -6v-14h-233zM225 591q-5 0 -10.5 2t-10.5 6.5t-12 13.5l-100 136l11 10l123 -110l121 110l10 -10l-101 -139q-6 -9 -14.5 -14t-16.5 -5z" />
    <glyph glyph-name="Sacute" unicode="&#x15a;" horiz-adv-x="550" vert-adv-y="1485" 
d="M288 -14q-69 0 -114 23t-78 51l-12 -72h-14l-14 213h13q13 -58 36.5 -96t53.5 -59.5t63 -30t64 -8.5q40 0 78 14.5t62.5 48.5t24.5 91q0 46 -15 81.5t-52.5 63.5t-105.5 49q-60 20 -99.5 42.5t-61.5 47.5t-31 55.5t-9 65.5t10.5 62.5t29.5 48t44 34t54.5 20t59.5 6.5
q48 0 85 -17.5t72 -46.5l16 64h14l13 -183l-16 -1q-18 64 -48 99.5t-65.5 49.5t-73.5 14q-69 0 -109.5 -35.5t-40.5 -96.5q0 -40 14.5 -71.5t52 -57t105.5 -48.5q59 -20 98.5 -44.5t62 -52.5t32.5 -58.5t10 -61.5q0 -41 -12.5 -78t-38.5 -65t-65 -44.5t-93 -16.5zM216 770
l-8 11l122 116q13 14 21 18t15 4q11 0 18 -9t7 -20t-7.5 -20.5t-24.5 -19.5z" />
    <glyph glyph-name="sacute" unicode="&#x15b;" horiz-adv-x="418" vert-adv-y="1485" 
d="M51 -14l-11 168h14q15 -55 39.5 -87.5t55 -45.5t65.5 -13q60 0 90 33t30 79q0 38 -15.5 60t-47 36t-78.5 25q-21 5 -44.5 14t-44.5 24.5t-34.5 40t-13.5 62.5t17 69.5t49.5 51t79.5 19.5q41 0 71 -13t52 -33l11 46h13l10 -146h-16q-16 65 -52 95t-91 30q-48 0 -78 -26.5
t-30 -70.5q0 -41 18 -64t48 -34t63 -20q25 -7 52 -17t50 -26.5t37 -42.5t14 -65q0 -41 -19 -75t-54.5 -54t-86.5 -20q-37 0 -72 11.5t-66 38.5l-9 -50h-16zM157 586l-9 9l99 137q8 11 15.5 16.5t16.5 5.5q7 0 12.5 -3.5t8 -9.5t2.5 -13q0 -9 -7 -20t-23 -25z" />
    <glyph glyph-name="Scircumflex" unicode="&#x15c;" horiz-adv-x="550" vert-adv-y="1485" 
d="M288 -14q-69 0 -114 23t-78 51l-12 -72h-14l-14 213h13q13 -58 36.5 -96t53.5 -59.5t63 -30t64 -8.5q40 0 78 14.5t62.5 48.5t24.5 91q0 46 -15 81.5t-52.5 63.5t-105.5 49q-60 20 -99.5 42.5t-61.5 47.5t-31 55.5t-9 65.5t10.5 62.5t29.5 48t44 34t54.5 20t59.5 6.5
q48 0 85 -17.5t72 -46.5l16 64h14l13 -183l-16 -1q-18 64 -48 99.5t-65.5 49.5t-73.5 14q-69 0 -109.5 -35.5t-40.5 -96.5q0 -40 14.5 -71.5t52 -57t105.5 -48.5q59 -20 98.5 -44.5t62 -52.5t32.5 -58.5t10 -61.5q0 -41 -12.5 -78t-38.5 -65t-65 -44.5t-93 -16.5zM143 766
l-9 10l112 126q8 8 15 12.5t17 4.5q11 0 18 -5t19 -19l105 -119l-9 -10l-133 92z" />
    <glyph glyph-name="scircumflex" unicode="&#x15d;" horiz-adv-x="418" vert-adv-y="1485" 
d="M51 -14l-11 168h14q15 -55 39.5 -87.5t55 -45.5t65.5 -13q60 0 90 33t30 79q0 38 -15.5 60t-47 36t-78.5 25q-21 5 -44.5 14t-44.5 24.5t-34.5 40t-13.5 62.5t17 69.5t49.5 51t79.5 19.5q41 0 71 -13t52 -33l11 46h13l10 -146h-16q-16 65 -52 95t-91 30q-48 0 -78 -26.5
t-30 -70.5q0 -41 18 -64t48 -34t63 -20q25 -7 52 -17t50 -26.5t37 -42.5t14 -65q0 -41 -19 -75t-54.5 -54t-86.5 -20q-37 0 -72 11.5t-66 38.5l-9 -50h-16zM85 586l-10 9l101 140q7 8 15.5 13t15.5 5q6 0 11 -1.5t10.5 -6t11.5 -13.5l100 -137l-10 -9l-124 109z" />
    <glyph glyph-name="Scedilla" unicode="&#x15e;" horiz-adv-x="550" vert-adv-y="1485" 
d="M287 -225q-38 0 -63 14.5t-37 29.5l9 12q13 -11 34 -21t45 -10q28 0 45 14t17 44t-16.5 42.5t-38.5 12.5q-9 0 -18.5 -1t-16.5 -3l-4 7l28 71q-62 3 -103.5 25t-71.5 48l-12 -72h-14l-14 213h13q13 -58 36.5 -96t53.5 -59.5t63 -30t64 -8.5q40 0 78 14.5t62.5 48.5
t24.5 91q0 46 -15 81.5t-52.5 63.5t-105.5 49q-60 20 -99.5 42.5t-61.5 47.5t-31 55.5t-9 65.5t10.5 62.5t29.5 48t44 34t54.5 20t59.5 6.5q48 0 85 -17.5t72 -46.5l16 64h14l13 -183l-16 -1q-18 64 -48 99.5t-65.5 49.5t-73.5 14q-69 0 -109.5 -35.5t-40.5 -96.5
q0 -40 14.5 -71.5t52 -57t105.5 -48.5q59 -20 98.5 -44.5t62 -52.5t32.5 -58.5t10 -61.5q0 -41 -12.5 -78t-38 -65t-65 -44.5t-92.5 -16.5l-20 -50q32 6 57.5 -2t40 -27t14.5 -45q0 -23 -10 -43t-31 -32t-53 -12z" />
    <glyph glyph-name="scedilla" unicode="&#x15f;" horiz-adv-x="418" vert-adv-y="1485" 
d="M210 -225q-39 0 -63.5 14.5t-37.5 29.5l10 12q12 -11 33 -21t45 -10q29 0 46 14t17 44t-16.5 42.5t-38.5 12.5q-9 0 -18.5 -1t-17.5 -3l-3 7l28 71q-32 3 -61.5 14t-56.5 35l-9 -50h-16l-11 168h14q15 -55 39.5 -87.5t55 -45.5t65.5 -13q60 0 90 33t30 79q0 38 -15.5 60
t-47 36t-78.5 25q-21 5 -44.5 14t-44.5 24.5t-34.5 40t-13.5 62.5t17 69.5t49.5 51t79.5 19.5q41 0 71 -13t52 -33l11 46h13l10 -146h-16q-16 65 -52 95t-91 30q-48 0 -78 -26.5t-30 -70.5q0 -41 18 -64t48 -34t63 -20q25 -7 52 -17t50 -26.5t37 -42.5t14 -65q0 -32 -11 -59
t-32 -47.5t-51 -31.5t-69 -11l-20 -50q33 6 58.5 -2t39.5 -27t14 -45q0 -23 -10 -43t-30.5 -32t-52.5 -12z" />
    <glyph glyph-name="Scaron" unicode="&#x160;" horiz-adv-x="550" vert-adv-y="1485" 
d="M288 -14q-69 0 -114 23t-78 51l-12 -72h-14l-14 213h13q13 -58 36.5 -96t53.5 -59.5t63 -30t64 -8.5q40 0 78 14.5t62.5 48.5t24.5 91q0 46 -15 81.5t-52.5 63.5t-105.5 49q-60 20 -99.5 42.5t-61.5 47.5t-31 55.5t-9 65.5t10.5 62.5t29.5 48t44 34t54.5 20t59.5 6.5
q48 0 85 -17.5t72 -46.5l16 64h14l13 -183l-16 -1q-18 64 -48 99.5t-65.5 49.5t-73.5 14q-69 0 -109.5 -35.5t-40.5 -96.5q0 -40 14.5 -71.5t52 -57t105.5 -48.5q59 -20 98.5 -44.5t62 -52.5t32.5 -58.5t10 -61.5q0 -41 -12.5 -78t-38.5 -65t-65 -44.5t-93 -16.5zM276 776
q-10 0 -17.5 5.5t-18.5 18.5l-106 119l9 10l133 -92l135 92l9 -10l-112 -126q-7 -7 -14.5 -12t-17.5 -5z" />
    <glyph glyph-name="scaron" unicode="&#x161;" horiz-adv-x="418" vert-adv-y="1485" 
d="M51 -14l-11 168h14q15 -55 39.5 -87.5t55 -45.5t65.5 -13q60 0 90 33t30 79q0 38 -15.5 60t-47 36t-78.5 25q-21 5 -44.5 14t-44.5 24.5t-34.5 40t-13.5 62.5t17 69.5t49.5 51t79.5 19.5q41 0 71 -13t52 -33l11 46h13l10 -146h-16q-16 65 -52 95t-91 30q-48 0 -78 -26.5
t-30 -70.5q0 -41 18 -64t48 -34t63 -20q25 -7 52 -17t50 -26.5t37 -42.5t14 -65q0 -41 -19 -75t-54.5 -54t-86.5 -20q-37 0 -72 11.5t-66 38.5l-9 -50h-16zM206 591q-5 0 -10.5 2t-10.5 6.5t-12 13.5l-100 136l11 10l123 -110l121 110l10 -10l-101 -139q-6 -9 -14.5 -14
t-16.5 -5z" />
    <glyph glyph-name="uni0162" unicode="&#x162;" horiz-adv-x="608" vert-adv-y="1485" 
d="M308 -225q-38 0 -62.5 14.5t-37.5 29.5l10 12q12 -11 33 -21t45 -10q29 0 45.5 14t16.5 44t-16.5 42.5t-38.5 12.5q-9 0 -18 -1t-17 -3l-3 7l32 84h-121v15l76 7q17 2 26 10t9 36v634h-87q-37 0 -61 -5.5t-40.5 -24t-30 -55t-31.5 -97.5l-16 2l33 201h518l31 -201l-15 -2
q-18 61 -32.5 97.5t-31.5 55t-40.5 24t-59.5 5.5h-88v-635q0 -26 6.5 -34.5t27.5 -10.5l77 -7v-15h-132l-25 -64q33 6 58.5 -2t39.5 -27t14 -45q0 -23 -10 -43t-30.5 -32t-53.5 -12z" />
    <glyph glyph-name="uni0163" unicode="&#x163;" horiz-adv-x="348" vert-adv-y="1485" 
d="M226 -225q-38 0 -63 14.5t-37 29.5l9 12q12 -11 33.5 -21t44.5 -10q29 0 46 14t17 44t-16.5 42.5t-38.5 12.5q-9 0 -18.5 -1t-17.5 -3l-3 7l28 70q-55 3 -79 37.5t-24 108.5v354h-76v15q30 0 50.5 11.5t34 41t19.5 84.5l18 3l3 -1v-132h154v-22h-154v-362q0 -60 19.5 -82
t60.5 -22q25 0 50.5 11.5t48.5 35.5l11 -10q-27 -35 -56 -52t-63 -19l-19 -50q32 6 57.5 -2t40 -27t14.5 -45q0 -23 -10.5 -43t-31 -32t-52.5 -12z" />
    <glyph glyph-name="Tcaron" unicode="&#x164;" horiz-adv-x="624" vert-adv-y="1485" 
d="M176 0v15l76 7q17 2 26 10t9 36v634h-87q-37 0 -61 -5.5t-40.5 -24t-30 -55t-31.5 -97.5l-16 2l33 201h518l31 -201l-15 -2q-18 61 -32.5 97.5t-31.5 55t-40.5 24t-59.5 5.5h-88v-635q0 -26 6.5 -34.5t27.5 -10.5l77 -7v-15h-271zM310 777q-10 0 -17.5 5.5t-18.5 18.5
l-106 119l9 10l133 -92l135 92l9 -10l-112 -126q-7 -7 -14.5 -12t-17.5 -5z" />
    <glyph glyph-name="tcaron" unicode="&#x165;" horiz-adv-x="404" vert-adv-y="1485" 
d="M217 -14q-38 0 -62.5 15t-36 47.5t-11.5 83.5v354h-76v15q30 0 50.5 11.5t34 41t19.5 84.5l20 3l1 -3v-130h154v-22h-154v-362q0 -60 19.5 -82t60.5 -22q25 0 50.5 11.5t48.5 35.5l11 -10q-28 -37 -59.5 -54t-69.5 -17zM310 577l-12 12q27 26 35 49t8 41q0 11 -5 19
t-17 16q-10 7 -14.5 16.5t-4.5 18.5q0 16 11 25.5t27 9.5q24 0 37 -19t13 -42q0 -22 -8 -47.5t-25.5 -51t-44.5 -47.5z" />
    <glyph glyph-name="Tbar" unicode="&#x166;" horiz-adv-x="624" vert-adv-y="1485" 
d="M176 0v15l76 7q17 2 26 10t9 36v289h-170l3 22h167v323h-87q-37 0 -61 -5.5t-40.5 -24t-30 -55t-31.5 -97.5l-16 2l33 201h518l31 -201l-15 -2q-18 61 -32.5 97.5t-31.5 55t-40.5 24t-59.5 5.5h-88v-323h168v-22h-168v-290q0 -26 6.5 -34.5t27.5 -10.5l77 -7v-15h-271z
" />
    <glyph glyph-name="tbar" unicode="&#x167;" horiz-adv-x="348" vert-adv-y="1485" 
d="M217 -14q-38 0 -62.5 15t-36 47.5t-11.5 83.5v155h-80l3 21h77v178h-76v15q30 0 50.5 11.5t34 41t19.5 84.5l18 3l3 -1v-132h154v-22h-154v-178h154v-21h-154v-163q0 -60 19.5 -82t60.5 -22q25 0 50.5 11.5t48.5 35.5l11 -10q-28 -37 -59.5 -54t-69.5 -17z" />
    <glyph glyph-name="Utilde" unicode="&#x168;" horiz-adv-x="746" vert-adv-y="1485" 
d="M379 -14q-62 0 -108 16t-75.5 49t-44 83.5t-14.5 119.5v402q0 26 -6.5 35.5t-26.5 11.5l-62 5v15h236v-15l-64 -5q-16 -2 -23 -10.5t-7 -36.5v-384q0 -85 21 -142.5t67 -85.5t122 -28q69 0 114 31.5t67 91t22 143.5v374q0 25 -5.5 35t-25.5 12l-51 5v15h189v-15l-53 -5
q-19 -2 -24 -12t-5 -36v-376q0 -93 -27 -158.5t-81 -100t-135 -34.5zM465 798q-16 0 -34.5 5.5t-44.5 16.5q-24 10 -38 15t-22 7.5t-14 2.5q-11 0 -20 -9.5t-22 -36.5l-13 5q6 34 15 51t21.5 24t27.5 7t32.5 -4.5t48.5 -17.5q36 -16 49.5 -20.5t22.5 -4.5t18 7.5t24 38.5
l13 -5q-7 -35 -16.5 -52.5t-21.5 -23.5t-26 -6z" />
    <glyph glyph-name="utilde" unicode="&#x169;" horiz-adv-x="586" vert-adv-y="1485" 
d="M263 -14q-75 0 -115 41.5t-40 126.5v267q0 36 -5.5 48.5t-28.5 13.5l-48 5l2 14l123 12l6 -5v-367q0 -39 12 -66.5t37 -42t63 -14.5q47 0 82 16.5t54.5 48.5t19.5 77v260q0 36 -5.5 48.5t-27.5 13.5l-48 5l1 14l123 12l6 -5v-448q0 -26 6.5 -35.5t25.5 -10.5l52 -3v-14
l-132 -8l-2 90h-1q-18 -33 -43.5 -54t-55 -30.5t-61.5 -9.5zM348 627q-16 0 -34.5 5.5t-45.5 16.5q-23 9 -37 14.5t-22 7.5t-14 2q-12 0 -20.5 -9t-21.5 -36l-13 5q6 33 15 50t21.5 23.5t27.5 6.5t32 -4.5t48 -17.5q36 -15 49.5 -20t22.5 -5q10 0 19 8t23 38l13 -5
q-6 -34 -15.5 -51.5t-22 -23t-25.5 -5.5z" />
    <glyph glyph-name="Umacron" unicode="&#x16a;" horiz-adv-x="746" vert-adv-y="1485" 
d="M379 -14q-62 0 -108 16t-75.5 49t-44 83.5t-14.5 119.5v402q0 26 -6.5 35.5t-26.5 11.5l-62 5v15h236v-15l-64 -5q-16 -2 -23 -10.5t-7 -36.5v-384q0 -85 21 -142.5t67 -85.5t122 -28q69 0 114 31.5t67 91t22 143.5v374q0 25 -5.5 35t-25.5 12l-51 5v15h189v-15l-53 -5
q-19 -2 -24 -12t-5 -36v-376q0 -93 -27 -158.5t-81 -100t-135 -34.5zM272 819v41h243v-41h-243z" />
    <glyph glyph-name="umacron" unicode="&#x16b;" horiz-adv-x="586" vert-adv-y="1485" 
d="M263 -14q-75 0 -115 41.5t-40 126.5v267q0 36 -5.5 48.5t-28.5 13.5l-48 5l2 14l123 12l6 -5v-367q0 -39 12 -66.5t37 -42t63 -14.5q47 0 82 16.5t54.5 48.5t19.5 77v260q0 36 -5.5 48.5t-27.5 13.5l-48 5l1 14l123 12l6 -5v-448q0 -26 6.5 -35.5t25.5 -10.5l52 -3v-14
l-132 -8l-2 90h-1q-18 -33 -43.5 -54t-55 -30.5t-61.5 -9.5zM154 649v41h242v-41h-242z" />
    <glyph glyph-name="Ubreve" unicode="&#x16c;" horiz-adv-x="746" vert-adv-y="1485" 
d="M379 -14q-62 0 -108 16t-75.5 49t-44 83.5t-14.5 119.5v402q0 26 -6.5 35.5t-26.5 11.5l-62 5v15h236v-15l-64 -5q-16 -2 -23 -10.5t-7 -36.5v-384q0 -85 21 -142.5t67 -85.5t122 -28q69 0 114 31.5t67 91t22 143.5v374q0 25 -5.5 35t-25.5 12l-51 5v15h189v-15l-53 -5
q-19 -2 -24 -12t-5 -36v-376q0 -93 -27 -158.5t-81 -100t-135 -34.5zM393 778q-42 0 -69.5 16.5t-43 48.5t-21.5 78l15 3q18 -47 44.5 -70t75.5 -23q51 0 78 24.5t42 68.5l15 -3q-4 -42 -20 -74t-44 -50.5t-72 -18.5z" />
    <glyph glyph-name="ubreve" unicode="&#x16d;" horiz-adv-x="586" vert-adv-y="1485" 
d="M263 -14q-75 0 -115 41.5t-40 126.5v267q0 36 -5.5 48.5t-28.5 13.5l-48 5l2 14l123 12l6 -5v-367q0 -39 12 -66.5t37 -42t63 -14.5q47 0 82 16.5t54.5 48.5t19.5 77v260q0 36 -5.5 48.5t-27.5 13.5l-48 5l1 14l123 12l6 -5v-448q0 -26 6.5 -35.5t25.5 -10.5l52 -3v-14
l-132 -8l-2 90h-1q-18 -33 -43.5 -54t-55 -30.5t-61.5 -9.5zM274 597q-43 0 -68.5 18t-38.5 52t-19 83l16 3q17 -56 40 -82t73 -26q51 0 73.5 28.5t38.5 78.5l15 -2q-5 -47 -18.5 -81.5t-40 -53t-71.5 -18.5z" />
    <glyph glyph-name="Uring" unicode="&#x16e;" horiz-adv-x="746" vert-adv-y="1485" 
d="M379 -14q-62 0 -108 16t-75.5 49t-44 83.5t-14.5 119.5v402q0 26 -6.5 35.5t-26.5 11.5l-62 5v15h236v-15l-64 -5q-16 -2 -23 -10.5t-7 -36.5v-384q0 -85 21 -142.5t67 -85.5t122 -28q69 0 114 31.5t67 91t22 143.5v374q0 25 -5.5 35t-25.5 12l-51 5v15h189v-15l-53 -5
q-19 -2 -24 -12t-5 -36v-376q0 -93 -27 -158.5t-81 -100t-135 -34.5zM394 757q-52 0 -76 27t-24 69q0 25 11.5 45.5t33.5 34t56 13.5q47 0 72.5 -25.5t25.5 -66.5q0 -27 -11.5 -49.5t-33 -35t-54.5 -12.5zM396 775q32 0 44 20t12 57q0 24 -6.5 41t-19 26.5t-34.5 9.5
q-31 0 -43.5 -21t-12.5 -56q0 -23 6 -40.5t19 -27t35 -9.5z" />
    <glyph glyph-name="uring" unicode="&#x16f;" horiz-adv-x="586" vert-adv-y="1485" 
d="M263 -14q-75 0 -115 41.5t-40 126.5v267q0 36 -5.5 48.5t-28.5 13.5l-48 5l2 14l123 12l6 -5v-367q0 -39 12 -66.5t37 -42t63 -14.5q47 0 82 16.5t54.5 48.5t19.5 77v260q0 36 -5.5 48.5t-27.5 13.5l-48 5l1 14l123 12l6 -5v-448q0 -26 6.5 -35.5t25.5 -10.5l52 -3v-14
l-132 -8l-2 90h-1q-18 -33 -43.5 -54t-55 -30.5t-61.5 -9.5zM275 591q-52 0 -76 27t-24 68q0 25 11.5 46t33.5 34.5t56 13.5q47 0 72.5 -26t25.5 -66q0 -28 -11.5 -50t-33.5 -34.5t-54 -12.5zM277 609q22 0 34 9t17 26t5 42q0 24 -6.5 40.5t-19.5 26.5t-34 10t-33.5 -9.5
t-17.5 -27t-5 -40.5t6 -40.5t19 -27t35 -9.5z" />
    <glyph glyph-name="Uhungarumlaut" unicode="&#x170;" horiz-adv-x="746" vert-adv-y="1485" 
d="M379 -14q-62 0 -108 16t-75.5 49t-44 83.5t-14.5 119.5v402q0 26 -6.5 35.5t-26.5 11.5l-62 5v15h236v-15l-64 -5q-16 -2 -23 -10.5t-7 -36.5v-384q0 -85 21 -142.5t67 -85.5t122 -28q69 0 114 31.5t67 91t22 143.5v374q0 25 -5.5 35t-25.5 12l-51 5v15h189v-15l-53 -5
q-19 -2 -24 -12t-5 -36v-376q0 -93 -27 -158.5t-81 -100t-135 -34.5zM296 771l-8 11l120 119q13 13 21 17.5t15 4.5q11 0 18 -8.5t7 -19.5q0 -10 -7.5 -19.5t-24.5 -20.5zM460 771l-8 11l121 112q14 12 21.5 17t15.5 5q10 0 17 -8t7 -19t-7.5 -21t-24.5 -20z" />
    <glyph glyph-name="uhungarumlaut" unicode="&#x171;" horiz-adv-x="586" vert-adv-y="1485" 
d="M263 -14q-75 0 -115 41.5t-40 126.5v267q0 36 -5.5 48.5t-28.5 13.5l-48 5l2 14l123 12l6 -5v-367q0 -39 12 -66.5t37 -42t63 -14.5q47 0 82 16.5t54.5 48.5t19.5 77v260q0 36 -5.5 48.5t-27.5 13.5l-48 5l1 14l123 12l6 -5v-448q0 -26 6.5 -35.5t25.5 -10.5l52 -3v-14
l-132 -8l-2 90h-1q-18 -33 -43.5 -54t-55 -30.5t-61.5 -9.5zM331 586l-9 9l97 134q8 12 15.5 17.5t16.5 5.5q7 0 12 -3.5t7.5 -9t2.5 -12.5q0 -10 -6.5 -20.5t-23.5 -25.5zM197 586l-10 9l95 136q8 12 15.5 17.5t15.5 5.5q7 0 12 -3.5t8 -9.5t3 -13q0 -9 -7 -19.5t-24 -25.5
z" />
    <glyph glyph-name="Uogonek" unicode="&#x172;" horiz-adv-x="746" vert-adv-y="1485" 
d="M421 -222q-21 0 -37 8.5t-25 24.5t-9 37q0 23 11.5 47t35.5 49t60 52q-18 -5 -37.5 -7.5t-40.5 -2.5q-62 0 -108 16t-75.5 49t-44 83.5t-14.5 119.5v402q0 26 -6.5 35.5t-26.5 11.5l-62 5v15h236v-15l-64 -5q-16 -2 -23 -10.5t-7 -36.5v-384q0 -85 21 -142.5t67 -85.5
t122 -28q69 0 114 31.5t67 91t22 143.5v374q0 25 -5.5 35t-25.5 12l-51 5v15h189v-15l-53 -5q-19 -2 -24 -12t-5 -36v-376q0 -98 -29.5 -165t-89.5 -99q-50 -36 -79 -78.5t-29 -79.5q0 -23 11 -35t30 -12q14 0 29.5 5.5t31.5 19.5l8 -10q-13 -18 -26.5 -28.5t-27.5 -14.5
t-30 -4z" />
    <glyph glyph-name="uogonek" unicode="&#x173;" horiz-adv-x="592" vert-adv-y="1485" 
d="M469 -222q-21 0 -36.5 8.5t-24 24.5t-8.5 37q0 25 11.5 48.5t34 48t56.5 50.5l-76 -5l-2 90h-1q-18 -33 -43.5 -54t-55 -30.5t-61.5 -9.5q-75 0 -115 41.5t-40 126.5v267q0 36 -5.5 48.5t-28.5 13.5l-48 5l2 14l123 12l6 -5v-367q0 -39 12 -66.5t37 -42t63 -14.5
q47 0 82 16.5t54.5 48.5t19.5 77v260q0 36 -5.5 48.5t-27.5 13.5l-48 5l1 14l123 12l6 -5v-448q0 -26 6.5 -35.5t25.5 -10.5l52 -3v-14l-35 -2q-40 -38 -59.5 -70.5t-19.5 -64.5q0 -26 11 -38.5t30 -12.5q14 0 29.5 5.5t31.5 19.5l9 -10q-13 -18 -27 -28.5t-28.5 -14.5
t-30.5 -4z" />
    <glyph glyph-name="Wcircumflex" unicode="&#x174;" horiz-adv-x="935" vert-adv-y="1485" 
d="M256 0l-172 652q-7 23 -15.5 35t-32.5 15l-39 6v15h205v-15l-50 -6q-20 -1 -23 -12.5t4 -34.5l149 -579h1l183 647h31l194 -647h1l149 581q6 20 3.5 32t-23.5 14l-58 5v15h185v-15l-41 -6q-11 -1 -18.5 -5t-12 -13t-9.5 -28l-169 -656h-31l-197 647h-1l-182 -647h-31z
M347 767l-9 10l112 126q8 8 15 12.5t17 4.5q11 0 18 -5t19 -19l105 -119l-9 -10l-133 92z" />
    <glyph glyph-name="wcircumflex" unicode="&#x175;" horiz-adv-x="731" vert-adv-y="1485" 
d="M211 0l-132 436q-5 18 -11 28t-15 15t-24 8l-29 5l1 15h185v-15l-42 -5q-19 -2 -21.5 -13.5t3.5 -34.5l106 -366h1l128 432h25l130 -432h2l111 366q6 21 4 33t-22 15l-41 5l1 15h160v-15l-35 -5q-16 -2 -23.5 -10.5t-16.5 -36.5l-136 -440h-24l-132 425h-1l-126 -425h-26
zM251 586l-10 9l101 140q7 8 15.5 13t15.5 5q6 0 11 -1.5t10.5 -6t11.5 -13.5l100 -137l-10 -9l-124 109z" />
    <glyph glyph-name="Ycircumflex" unicode="&#x176;" horiz-adv-x="564" vert-adv-y="1485" 
d="M159 0v15l71 6q19 2 25 11.5t6 35.5v273l-175 311q-15 25 -25.5 36t-33.5 15l-32 5v15h209v-15l-48 -5q-21 -2 -25.5 -12.5t9.5 -35.5l159 -284h1l158 286q11 19 6 31.5t-26 14.5l-48 5v15h182v-15l-42 -6q-17 -2 -24.5 -11t-22.5 -35l-173 -315v-275q0 -23 6 -33t25 -12
l68 -6v-15h-250zM160 767l-9 10l112 126q8 8 15 12.5t17 4.5q11 0 18 -5t19 -19l105 -119l-9 -10l-133 92z" />
    <glyph glyph-name="ycircumflex" unicode="&#x177;" horiz-adv-x="529" vert-adv-y="1485" 
d="M95 -230q-30 0 -49.5 20t-19.5 49q0 18 11.5 31.5t31.5 13.5q21 0 32 -11.5t11 -28.5q-1 -7 -3 -19t-7 -29q21 -2 44 9t46.5 44t47.5 97l19 52l-180 439q-10 24 -18 35t-30 15l-30 5l1 16h185v-16l-40 -5q-20 -3 -24 -14t5 -33l154 -381h2l144 382q7 18 5 30.5t-24 15.5
l-42 5l1 16h161v-15l-35 -6q-16 -2 -22.5 -10.5t-17.5 -35.5l-194 -509q-20 -51 -40 -83.5t-40.5 -49.5t-41.5 -23t-43 -6zM155 586l-10 9l101 140q7 8 15.5 13t15.5 5q6 0 11 -1.5t10.5 -6t11.5 -13.5l100 -137l-10 -9l-124 109z" />
    <glyph glyph-name="Ydieresis" unicode="&#x178;" horiz-adv-x="564" vert-adv-y="1485" 
d="M159 0v15l71 6q19 2 25 11.5t6 35.5v273l-175 311q-15 25 -25.5 36t-33.5 15l-32 5v15h209v-15l-48 -5q-21 -2 -25.5 -12.5t9.5 -35.5l159 -284h1l158 286q11 19 6 31.5t-26 14.5l-48 5v15h182v-15l-42 -6q-17 -2 -24.5 -11t-22.5 -35l-173 -315v-275q0 -23 6 -33t25 -12
l68 -6v-15h-250zM384 796q-21 0 -31 12t-10 32t10 33t32 13q21 0 31 -11t10 -31q0 -19 -10.5 -33.5t-31.5 -14.5zM209 796q-21 0 -31.5 12t-10.5 32t11 33t32 13q20 0 30.5 -11t10.5 -31q0 -19 -10 -33.5t-32 -14.5z" />
    <glyph glyph-name="Zacute" unicode="&#x179;" horiz-adv-x="591" vert-adv-y="1485" 
d="M45 0v19l440 683h-257q-36 0 -60 -4.5t-39.5 -18.5t-28 -42t-25.5 -75l-16 -2l24 163h460v-20l-440 -682h273q35 0 58.5 5t40 19.5t28 43.5t22.5 76h16l-16 -165h-480zM242 771l-8 11l122 116q13 14 21 18t15 4q11 0 18 -9t7 -20t-7.5 -20.5t-24.5 -19.5z" />
    <glyph glyph-name="zacute" unicode="&#x17a;" horiz-adv-x="458" vert-adv-y="1485" 
d="M51 0v18l304 469h-135q-49 0 -75 -8t-41.5 -32.5t-32.5 -75.5l-15 -2l21 139h329v-20l-301 -467h144q35 0 58 4t38.5 16t26.5 36t22 65h14l-13 -142h-344zM186 586l-9 9l99 137q8 11 15.5 16.5t16.5 5.5q7 0 12.5 -3.5t8 -9.5t2.5 -13q0 -9 -7 -20t-23 -25z" />
    <glyph glyph-name="Zdotaccent" unicode="&#x17b;" horiz-adv-x="591" vert-adv-y="1485" 
d="M45 0v19l440 683h-257q-36 0 -60 -4.5t-39.5 -18.5t-28 -42t-25.5 -75l-16 -2l24 163h460v-20l-440 -682h273q35 0 58.5 5t40 19.5t28 43.5t22.5 76h16l-16 -165h-480zM304 803q-20 0 -30 12.5t-10 31.5q0 23 10.5 35t30.5 12t30 -11t10 -32q0 -20 -10 -34t-31 -14z" />
    <glyph glyph-name="zdotaccent" unicode="&#x17c;" horiz-adv-x="458" vert-adv-y="1485" 
d="M51 0v18l304 469h-135q-49 0 -75 -8t-41.5 -32.5t-32.5 -75.5l-15 -2l21 139h329v-20l-301 -467h144q35 0 58 4t38.5 16t26.5 36t22 65h14l-13 -142h-344zM236 636q-20 0 -30 12.5t-10 31.5q0 23 10.5 35t30.5 12t30 -10.5t10 -32.5q0 -20 -10 -34t-31 -14z" />
    <glyph glyph-name="Zcaron" unicode="&#x17d;" horiz-adv-x="591" vert-adv-y="1485" 
d="M45 0v19l440 683h-257q-36 0 -60 -4.5t-39.5 -18.5t-28 -42t-25.5 -75l-16 -2l24 163h460v-20l-440 -682h273q35 0 58.5 5t40 19.5t28 43.5t22.5 76h16l-16 -165h-480zM302 777q-10 0 -17.5 5.5t-18.5 18.5l-106 119l9 10l133 -92l135 92l9 -10l-112 -126
q-7 -7 -14.5 -12t-17.5 -5z" />
    <glyph glyph-name="zcaron" unicode="&#x17e;" horiz-adv-x="458" vert-adv-y="1485" 
d="M51 0v18l304 469h-135q-49 0 -75 -8t-41.5 -32.5t-32.5 -75.5l-15 -2l21 139h329v-20l-301 -467h144q35 0 58 4t38.5 16t26.5 36t22 65h14l-13 -142h-344zM236 591q-5 0 -10.5 2t-10.5 6.5t-12 13.5l-100 136l11 10l123 -110l121 110l10 -10l-101 -139q-6 -9 -14.5 -14
t-16.5 -5z" />
    <glyph glyph-name="uni018F" unicode="&#x18f;" horiz-adv-x="642" vert-adv-y="1485" 
d="M296 -14q-67 0 -121.5 27t-86.5 80.5t-32 134.5q0 29 3 60t6 51h470q2 134 -30 214t-87.5 116t-123.5 36q-54 0 -96.5 -19t-74.5 -49t-53 -64l-13 8q24 45 57.5 80t80.5 55.5t109 20.5q93 0 156 -44.5t95.5 -128t32.5 -200.5q0 -83 -18.5 -152t-55 -119.5t-91.5 -78.5
t-127 -28zM299 8q77 0 127 35t76.5 104t31.5 171h-422q-4 -30 -5 -48.5t-1 -38.5q0 -80 24.5 -129t68 -71.5t100.5 -22.5z" />
    <glyph glyph-name="florin" unicode="&#x192;" horiz-adv-x="524" vert-adv-y="1485" 
d="M30 -170q-31 0 -57.5 9t-43 27t-16.5 46q0 20 10 34t32 14q14 0 22.5 -8t8.5 -21q0 -12 -5.5 -24t-21.5 -36q11 -9 29.5 -14.5t42.5 -5.5q33 0 56 16t37 51t22 92l51 429h-79l3 19h79l8 57q7 60 22.5 102.5t39 69t54 38.5t67.5 12q31 0 56.5 -10t41 -28t15.5 -43
q0 -20 -9 -33.5t-31 -13.5q-13 0 -22 8t-9 20q0 11 4.5 22.5t22.5 37.5q-13 9 -31 14.5t-41 5.5q-35 0 -58 -14.5t-37 -50t-23 -97.5l-12 -97h145l-3 -19h-145l-45 -375q-11 -84 -35.5 -135.5t-61 -75t-83.5 -23.5z" />
    <glyph glyph-name="Ohorn" unicode="&#x1a0;" horiz-adv-x="788" vert-adv-y="1485" 
d="M351 -14q-95 0 -161.5 44t-101.5 126t-35 195q0 92 20 164t57.5 121.5t94 75t128.5 25.5q73 0 128.5 -26t93 -75.5t55.5 -120.5q47 20 73 43.5t37 51t13 57.5h-16q-24 0 -39 11t-15 35q0 14 6 25t17 17t24 6q19 0 32 -9.5t19.5 -25.5t6.5 -37q0 -35 -15.5 -72.5t-49 -69
t-88.5 -52.5q5 -27 8 -57t3 -63q0 -95 -20 -167.5t-58.5 -122t-93 -74.5t-123.5 -25zM356 8q60 0 104.5 23.5t74 68.5t44.5 112t15 152q0 83 -16 148.5t-47 110.5t-77.5 69t-107.5 24q-60 0 -105.5 -23.5t-75 -68.5t-44.5 -110t-15 -148q0 -84 16 -150.5t47.5 -113
t78.5 -70.5t108 -24z" />
    <glyph glyph-name="ohorn" unicode="&#x1a1;" horiz-adv-x="578" vert-adv-y="1485" 
d="M262 -14q-68 0 -117 32t-75 91t-26 139q0 83 26 144t76 94.5t122 33.5q60 0 105.5 -27.5t71.5 -76.5q37 18 58 40.5t30 49.5t11 56h-16q-24 0 -38.5 11t-14.5 36q0 14 6 24t16.5 15.5t23.5 5.5q19 0 31.5 -9.5t19 -25.5t6.5 -36q0 -35 -12.5 -69.5t-39.5 -64t-73 -50.5
q12 -27 18.5 -60t6.5 -71q0 -86 -25.5 -149.5t-73.5 -98t-117 -34.5zM269 8q50 0 85 25.5t54 79t19 135.5q0 63 -11 110t-31.5 78.5t-51.5 47t-73 15.5q-51 0 -88.5 -25t-57 -77.5t-19.5 -134.5q0 -65 12 -112.5t34 -79t54.5 -47t73.5 -15.5z" />
    <glyph glyph-name="Uhorn" unicode="&#x1af;" horiz-adv-x="810" vert-adv-y="1485" 
d="M379 -14q-62 0 -108 16t-75.5 49t-44 83.5t-14.5 119.5v402q0 26 -6.5 35.5t-26.5 11.5l-62 5v15h236v-15l-64 -5q-18 -2 -24 -11t-6 -36v-384q0 -85 21 -142.5t67 -85.5t122 -28q69 0 114 31.5t67 91t22 143.5v374q0 26 -5.5 35.5t-25.5 11.5l-51 5v15h107v-221
q47 15 76.5 34t46 40.5t23.5 45t8 46.5h-16q-26 0 -40.5 11t-14.5 35q0 14 5.5 24.5t16.5 16.5t25 6q20 0 32.5 -9.5t19 -25.5t6.5 -37q0 -28 -9.5 -58t-30.5 -58t-57.5 -51.5t-90.5 -38.5v-204q0 -93 -27 -158.5t-81 -100t-135 -34.5z" />
    <glyph glyph-name="uhorn" unicode="&#x1b0;" horiz-adv-x="631" vert-adv-y="1485" 
d="M263 -14q-49 0 -84 18.5t-53 55.5t-18 94v267q0 38 -6 49.5t-28 12.5l-48 5l2 14l123 12l6 -5v-367q0 -39 12 -66.5t37 -42t63 -14.5q47 0 82 16.5t54.5 48.5t19.5 77v260q0 38 -6 49.5t-27 12.5l-48 5l1 14l123 12l6 -5v-100q46 19 71.5 42t37 51t13.5 60h-16
q-24 0 -38.5 11t-14.5 36q0 14 6 24t16.5 15.5t23.5 5.5q19 0 32 -9.5t19.5 -25.5t6.5 -36q0 -39 -16 -76.5t-50.5 -68.5t-90.5 -50v-327q0 -26 6.5 -35.5t25.5 -10.5l52 -3v-14l-132 -8l-2 90h-1q-18 -33 -43.5 -54t-55 -30.5t-61.5 -9.5z" />
    <glyph glyph-name="uni01C4" unicode="&#x1c4;" horiz-adv-x="1307" vert-adv-y="1485" 
d="M58 0v15l62 6q19 2 25 11.5t6 35.5v587q0 26 -6 36t-27 12l-60 5v15h257q60 0 113 -12t96 -37.5t74.5 -65.5t48 -95.5t16.5 -128.5q0 -113 -28.5 -187.5t-78.5 -117.5t-114.5 -61t-136.5 -18h-247zM292 21q69 0 127.5 16t101.5 55t67 108t24 175q0 111 -36 183.5
t-103.5 108t-164.5 35.5h-108v-676q19 -2 43 -3.5t49 -1.5zM761 0v19l440 683h-257q-36 0 -60 -4.5t-39.5 -18.5t-28 -42t-25.5 -75l-16 -2l24 163h460v-20l-440 -682h273q35 0 58.5 5t40 19.5t28 43.5t22.5 76h16l-16 -165h-480zM1017 777q-10 0 -17.5 5.5t-18.5 18.5
l-106 119l9 10l133 -92l135 92l9 -10l-112 -126q-7 -7 -14.5 -12t-17.5 -5z" />
    <glyph glyph-name="uni01C5" unicode="&#x1c5;" horiz-adv-x="1175" vert-adv-y="1485" 
d="M58 0v15l62 6q19 2 25 11.5t6 35.5v587q0 26 -6 36t-27 12l-60 5v15h257q60 0 113 -12t96 -37.5t74.5 -65.5t48 -95.5t16.5 -128.5q0 -113 -28.5 -187.5t-78.5 -117.5t-114.5 -61t-136.5 -18h-247zM292 21q69 0 127.5 16t101.5 55t67 108t24 175q0 111 -36 183.5
t-103.5 108t-164.5 35.5h-108v-676q19 -2 43 -3.5t49 -1.5zM768 0v18l304 469h-135q-49 0 -75 -8t-41.5 -32.5t-32.5 -75.5l-15 -2l21 139h329v-20l-301 -467h144q35 0 58 4t38.5 16t26.5 36t22 65h14l-13 -142h-344zM954 591q-5 0 -10.5 2t-10.5 6.5t-12 13.5l-100 136
l11 10l123 -110l121 110l10 -10l-101 -139q-6 -9 -14.5 -14t-16.5 -5z" />
    <glyph glyph-name="uni01C6" unicode="&#x1c6;" horiz-adv-x="1025" vert-adv-y="1485" 
d="M249 -14q-65 0 -109.5 29.5t-67.5 87.5t-23 143q0 86 28 147.5t79 95t119 33.5q40 0 74 -10.5t58 -24.5v197q0 35 -7.5 46t-35.5 13l-48 4l1 14l132 5l7 -6v-697q0 -23 6.5 -33.5t26.5 -12.5l46 -2v-16l-125 -8l-2 87h-2q-14 -28 -36.5 -48.5t-52.5 -32t-68 -11.5z
M260 16q44 0 77.5 17.5t51.5 51t18 81.5v289q-30 21 -64 33t-74 12q-50 0 -88.5 -24.5t-59.5 -78.5t-21 -143q0 -79 18.5 -131.5t54 -79.5t87.5 -27zM618 0v18l304 469h-135q-49 0 -75 -8t-41.5 -32.5t-32.5 -75.5l-15 -2l21 139h329v-20l-301 -467h144q35 0 58 4t38.5 16
t26.5 36t22 65h14l-13 -142h-344zM803 591q-5 0 -10.5 2t-10.5 6.5t-12 13.5l-100 136l11 10l123 -110l121 110l10 -10l-101 -139q-6 -9 -14.5 -14t-16.5 -5z" />
    <glyph glyph-name="uni01C7" unicode="&#x1c7;" horiz-adv-x="1050" vert-adv-y="1485" 
d="M58 0v15l62 6q19 2 25 11.5t6 35.5v587q0 27 -6.5 36.5t-26.5 11.5l-60 5v15h256v-15l-82 -5q-19 -2 -25.5 -11.5t-6.5 -36.5v-634h154q37 0 59.5 4t37 19.5t26 47t27.5 86.5h16l-26 -178h-436zM746 -14q-47 0 -81.5 12.5t-53.5 34t-19 47.5q0 19 7.5 31.5t20.5 19.5
t28 7q17 0 29.5 -9t12.5 -28q0 -15 -9.5 -32t-24.5 -39q19 -13 43 -18t49 -5q43 0 71 19t43 60t15 107v462q0 28 -6 37.5t-26 10.5l-82 5v15h261v-15l-68 -5q-17 -2 -23.5 -11t-6.5 -38v-447q0 -112 -47.5 -166.5t-132.5 -54.5z" />
    <glyph glyph-name="uni01C8" unicode="&#x1c8;" horiz-adv-x="793" vert-adv-y="1485" 
d="M58 0v15l62 6q19 2 25 11.5t6 35.5v587q0 27 -6.5 36.5t-26.5 11.5l-60 5v15h256v-15l-82 -5q-19 -2 -25.5 -11.5t-6.5 -36.5v-634h154q37 0 59.5 4t37 19.5t26 47t27.5 86.5h16l-26 -178h-436zM565 -236l-8 12q26 21 43 39.5t26.5 43t13.5 62.5t4 97v402q0 39 -6 50.5
t-27 12.5l-49 5l2 14l123 12l6 -5v-418q0 -70 -2.5 -119.5t-13.5 -86t-37.5 -65t-74.5 -56.5zM654 633q-20 0 -31 14t-11 33q0 21 11.5 35.5t31.5 14.5t31 -12.5t11 -33.5q0 -20 -11 -35.5t-32 -15.5z" />
    <glyph glyph-name="uni01C9" unicode="&#x1c9;" horiz-adv-x="557" vert-adv-y="1485" 
d="M48 0v15l51 5q15 2 20.5 10t5.5 35v621q0 33 -8 44t-33 12l-51 5l2 14l132 5l7 -6v-697q0 -24 5 -32.5t20 -10.5l52 -6v-14h-203zM329 -236l-8 12q26 21 43 39.5t26.5 43t13.5 62.5t4 97v402q0 39 -6 50.5t-27 12.5l-49 5l2 14l123 12l6 -5v-418q0 -70 -2.5 -119.5
t-13.5 -86t-37.5 -65t-74.5 -56.5zM418 633q-20 0 -31 14t-11 33q0 21 11.5 35.5t31.5 14.5t31 -12.5t11 -33.5q0 -20 -11 -35.5t-32 -15.5z" />
    <glyph glyph-name="uni01CA" unicode="&#x1ca;" horiz-adv-x="1208" vert-adv-y="1485" 
d="M58 0v15l59 4q19 1 26.5 11.5t7.5 36.5v590q0 25 -5.5 34.5t-27.5 11.5l-60 5v15h147l397 -628h1v561q0 25 -8 35t-30 12l-53 5v15h210v-15l-61 -4q-19 -2 -26 -12t-7 -37v-655h-27l-422 674h-2v-608q0 -26 7 -35.5t26 -11.5l58 -4v-15h-210zM905 -14q-47 0 -81.5 12.5
t-53.5 34t-19 47.5q0 19 7.5 31.5t20.5 19.5t28 7q17 0 29.5 -9t12.5 -28q0 -15 -9.5 -32t-24.5 -39q19 -13 43 -18t49 -5q43 0 71 19t43 60t15 107v462q0 28 -6 37.5t-26 10.5l-82 5v15h261v-15l-68 -5q-17 -2 -23.5 -11t-6.5 -38v-447q0 -112 -47.5 -166.5t-132.5 -54.5z
" />
    <glyph glyph-name="uni01CB" unicode="&#x1cb;" horiz-adv-x="1018" vert-adv-y="1485" 
d="M58 0v15l59 4q19 1 26.5 11.5t7.5 36.5v590q0 25 -5.5 34.5t-27.5 11.5l-60 5v15h147l397 -628h1v561q0 25 -8 35t-30 12l-53 5v15h210v-15l-61 -4q-19 -2 -26 -12t-7 -37v-655h-27l-422 674h-2v-608q0 -26 7 -35.5t26 -11.5l58 -4v-15h-210zM790 -236l-8 12
q26 21 43 39.5t26.5 43t13.5 62.5t4 97v402q0 39 -6 50.5t-27 12.5l-49 5l2 14l123 12l6 -5v-418q0 -70 -2.5 -119.5t-13.5 -86t-37.5 -65t-74.5 -56.5zM879 633q-20 0 -31 14t-11 33q0 21 11.5 35.5t31.5 14.5t31 -12.5t11 -33.5q0 -20 -11 -35.5t-32 -15.5z" />
    <glyph glyph-name="uni01CC" unicode="&#x1cc;" horiz-adv-x="848" vert-adv-y="1485" 
d="M38 0v15l52 5q16 2 21 10t5 35v356q0 37 -6 49t-27 13l-48 5l1 14l123 12l5 -5v-93h2q24 54 71 80t102 26q50 0 83 -19t49.5 -54.5t16.5 -87.5v-300q0 -22 6 -30.5t25 -10.5l47 -5v-15h-205v15l48 5q19 2 24.5 10.5t5.5 31.5v293q0 46 -12 75.5t-38 44t-66 14.5
q-45 0 -81 -19t-56.5 -53t-20.5 -79v-275q0 -23 5 -32t20 -11l55 -5v-15h-207zM620 -236l-8 12q26 21 43 39.5t26.5 43t13.5 62.5t4 97v402q0 39 -6 50.5t-27 12.5l-49 5l2 14l123 12l6 -5v-418q0 -70 -2.5 -119.5t-13.5 -86t-37.5 -65t-74.5 -56.5zM709 633q-20 0 -31 14
t-11 33q0 21 11.5 35.5t31.5 14.5t31 -12.5t11 -33.5q0 -20 -11 -35.5t-32 -15.5z" />
    <glyph glyph-name="uni01CD" unicode="&#x1cd;" vert-adv-y="1485" 
d="M-6 0v15l40 6q17 2 24 10.5t16 35.5l213 656h30l208 -652q8 -26 17.5 -36.5t30.5 -13.5l39 -5v-16h-208v15l51 6q20 2 22.5 13.5t-4.5 33.5l-53 179h-262l-59 -180q-7 -20 -4 -32t24 -14l57 -6v-15h-182zM164 268h248l-122 392h-1zM300 777q-10 0 -17.5 5.5t-18.5 18.5
l-106 119l9 10l133 -92l135 92l9 -10l-112 -126q-7 -7 -14.5 -12t-17.5 -5z" />
    <glyph glyph-name="uni01CE" unicode="&#x1ce;" horiz-adv-x="490" vert-adv-y="1485" 
d="M195 -14q-64 0 -101.5 34t-37.5 98q0 51 26.5 85t88 53t169.5 22v100q0 46 -13.5 72.5t-39.5 38.5t-62 12q-35 0 -63.5 -9t-48.5 -25q11 -20 17 -32.5t8.5 -20.5t2.5 -15q0 -15 -11 -24.5t-30 -9.5q-17 0 -29 11t-12 30q0 38 26.5 63.5t65 39t78.5 13.5q59 0 94 -20.5
t50.5 -56t15.5 -84.5v-287q0 -29 11.5 -42t33.5 -13q16 0 29.5 5.5t23.5 12.5l8 -10q-16 -19 -35 -30t-43 -11q-32 0 -53.5 19.5t-20.5 67.5q-18 -31 -41 -50.5t-49.5 -28t-57.5 -8.5zM211 17q32 0 61.5 13t48.5 40t19 65v123q-86 -3 -137.5 -15.5t-73.5 -40t-22 -76.5
q0 -55 28.5 -82t75.5 -27zM226 591q-5 0 -10.5 2t-10.5 6.5t-12 13.5l-100 136l11 10l123 -110l121 110l10 -10l-101 -139q-6 -9 -14.5 -14t-16.5 -5z" />
    <glyph glyph-name="uni01CF" unicode="&#x1cf;" horiz-adv-x="351" vert-adv-y="1485" 
d="M58 0v15l62 6q19 2 25 11.5t6 35.5v587q0 26 -6.5 36t-26.5 12l-60 5v15h236v-15l-63 -5q-19 -2 -25 -11.5t-6 -37.5v-588q0 -24 7 -33.5t26 -11.5l61 -6v-15h-236zM175 775q-10 0 -17.5 5.5t-18.5 18.5l-106 119l9 10l133 -92l135 92l9 -10l-112 -126q-7 -7 -14.5 -12
t-17.5 -5z" />
    <glyph glyph-name="uni01D0" unicode="&#x1d0;" horiz-adv-x="288" vert-adv-y="1485" 
d="M48 0v15l51 5q16 2 21 10.5t5 34.5v356q0 38 -6 49.5t-27 12.5l-49 5l1 14l124 12l6 -5v-446q0 -24 5 -32.5t20 -10.5l52 -6v-14h-203zM125 591q-5 0 -10.5 2t-10.5 6.5t-12 13.5l-100 136l11 10l123 -110l121 110l10 -10l-101 -139q-6 -9 -14.5 -14t-16.5 -5z" />
    <glyph glyph-name="uni01D1" unicode="&#x1d1;" horiz-adv-x="700" vert-adv-y="1485" 
d="M351 -14q-95 0 -161.5 44t-101.5 126t-35 195q0 123 35 209t101.5 131.5t163.5 45.5q94 0 159.5 -43.5t99.5 -124.5t34 -194q0 -95 -20 -167.5t-58.5 -122t-93 -74.5t-123.5 -25zM356 8q60 0 104.5 23.5t74 68.5t44.5 112t15 152q0 83 -16 148.5t-47 110.5t-77.5 69
t-107.5 24q-60 0 -105.5 -23.5t-75 -68.5t-44.5 -110t-15 -148q0 -84 16 -150.5t47.5 -113t78.5 -70.5t108 -24zM348 777q-10 0 -17.5 5.5t-18.5 18.5l-106 119l9 10l133 -92l135 92l9 -10l-112 -126q-7 -7 -14.5 -12t-17.5 -5z" />
    <glyph glyph-name="uni01D2" unicode="&#x1d2;" horiz-adv-x="521" vert-adv-y="1485" 
d="M262 -14q-68 0 -117 32t-75 91t-26 139q0 83 26 144t76 94.5t122 33.5q65 0 112 -31.5t72.5 -88t25.5 -132.5q0 -86 -25.5 -149.5t-73.5 -98t-117 -34.5zM269 8q50 0 85 25.5t54 79t19 135.5q0 63 -11 110t-31.5 78.5t-51.5 47t-73 15.5q-51 0 -88.5 -25t-57 -77.5
t-19.5 -134.5q0 -86 21 -142.5t59.5 -84t93.5 -27.5zM261 591q-5 0 -10.5 2t-10.5 6.5t-12 13.5l-100 136l11 10l123 -110l121 110l10 -10l-101 -139q-6 -9 -14.5 -14t-16.5 -5z" />
    <glyph glyph-name="uni01D3" unicode="&#x1d3;" horiz-adv-x="746" vert-adv-y="1485" 
d="M379 -14q-62 0 -108 16t-75.5 49t-44 83.5t-14.5 119.5v402q0 26 -6.5 35.5t-26.5 11.5l-62 5v15h236v-15l-64 -5q-16 -2 -23 -10.5t-7 -36.5v-384q0 -85 21 -142.5t67 -85.5t122 -28q69 0 114 31.5t67 91t22 143.5v374q0 25 -5.5 35t-25.5 12l-51 5v15h189v-15l-53 -5
q-19 -2 -24 -12t-5 -36v-376q0 -93 -27 -158.5t-81 -100t-135 -34.5zM392 777q-10 0 -17.5 5.5t-18.5 18.5l-106 119l9 10l133 -92l135 92l9 -10l-112 -126q-7 -7 -14.5 -12t-17.5 -5z" />
    <glyph glyph-name="uni01D4" unicode="&#x1d4;" horiz-adv-x="586" vert-adv-y="1485" 
d="M263 -14q-75 0 -115 41.5t-40 126.5v267q0 36 -5.5 48.5t-28.5 13.5l-48 5l2 14l123 12l6 -5v-367q0 -39 12 -66.5t37 -42t63 -14.5q47 0 82 16.5t54.5 48.5t19.5 77v260q0 36 -5.5 48.5t-27.5 13.5l-48 5l1 14l123 12l6 -5v-448q0 -26 6.5 -35.5t25.5 -10.5l52 -3v-14
l-132 -8l-2 90h-1q-18 -33 -43.5 -54t-55 -30.5t-61.5 -9.5zM275 591q-5 0 -10.5 2t-10.5 6.5t-12 13.5l-100 136l11 10l123 -110l121 110l10 -10l-101 -139q-6 -9 -14.5 -14t-16.5 -5z" />
    <glyph glyph-name="uni01D5" unicode="&#x1d5;" horiz-adv-x="746" vert-adv-y="1485" 
d="M379 -14q-62 0 -108 16t-75.5 49t-44 83.5t-14.5 119.5v402q0 26 -6.5 35.5t-26.5 11.5l-62 5v15h236v-15l-64 -5q-16 -2 -23 -10.5t-7 -36.5v-384q0 -85 21 -142.5t67 -85.5t122 -28q69 0 114 31.5t67 91t22 143.5v374q0 25 -5.5 35t-25.5 12l-51 5v15h189v-15l-53 -5
q-19 -2 -24 -12t-5 -36v-376q0 -93 -27 -158.5t-81 -100t-135 -34.5zM483 796q-21 0 -31 12t-10 32t10 33t32 13q21 0 31 -11t10 -31q0 -19 -10.5 -33.5t-31.5 -14.5zM308 796q-21 0 -31.5 12t-10.5 32t11 33t32 13q20 0 30.5 -11t10.5 -31q0 -19 -10 -33.5t-32 -14.5z
M275 962v41h243v-41h-243z" />
    <glyph glyph-name="uni01D6" unicode="&#x1d6;" horiz-adv-x="586" vert-adv-y="1485" 
d="M263 -14q-75 0 -115 41.5t-40 126.5v267q0 36 -5.5 48.5t-28.5 13.5l-48 5l2 14l123 12l6 -5v-367q0 -39 12 -66.5t37 -42t63 -14.5q47 0 82 16.5t54.5 48.5t19.5 77v260q0 36 -5.5 48.5t-27.5 13.5l-48 5l1 14l123 12l6 -5v-448q0 -26 6.5 -35.5t25.5 -10.5l52 -3v-14
l-132 -8l-2 90h-1q-18 -33 -43.5 -54t-55 -30.5t-61.5 -9.5zM363 636q-22 0 -32 12t-10 32t10.5 33t31.5 13t31 -11t10 -31q0 -19 -10 -33.5t-31 -14.5zM187 636q-22 0 -32 12t-10 32t10.5 33t32.5 13q20 0 30.5 -11t10.5 -31q0 -19 -10.5 -33.5t-31.5 -14.5zM153 833v41
h243v-41h-243z" />
    <glyph glyph-name="uni01D7" unicode="&#x1d7;" horiz-adv-x="746" vert-adv-y="1485" 
d="M379 -14q-62 0 -108 16t-75.5 49t-44 83.5t-14.5 119.5v402q0 26 -6.5 35.5t-26.5 11.5l-62 5v15h236v-15l-64 -5q-16 -2 -23 -10.5t-7 -36.5v-384q0 -85 21 -142.5t67 -85.5t122 -28q69 0 114 31.5t67 91t22 143.5v374q0 25 -5.5 35t-25.5 12l-51 5v15h189v-15l-53 -5
q-19 -2 -24 -12t-5 -36v-376q0 -93 -27 -158.5t-81 -100t-135 -34.5zM322 944l-8 11l122 116q13 14 21 18t15 4q11 0 18 -9t7 -20t-7.5 -20.5t-24.5 -19.5zM483 796q-21 0 -31 12t-10 32t10 33t32 13q21 0 31 -11t10 -31q0 -19 -10.5 -33.5t-31.5 -14.5zM308 796
q-21 0 -31.5 12t-10.5 32t11 33t32 13q20 0 30.5 -11t10.5 -31q0 -19 -10 -33.5t-32 -14.5z" />
    <glyph glyph-name="uni01D8" unicode="&#x1d8;" horiz-adv-x="586" vert-adv-y="1485" 
d="M263 -14q-75 0 -115 41.5t-40 126.5v267q0 36 -5.5 48.5t-28.5 13.5l-48 5l2 14l123 12l6 -5v-367q0 -39 12 -66.5t37 -42t63 -14.5q47 0 82 16.5t54.5 48.5t19.5 77v260q0 36 -5.5 48.5t-27.5 13.5l-48 5l1 14l123 12l6 -5v-448q0 -26 6.5 -35.5t25.5 -10.5l52 -3v-14
l-132 -8l-2 90h-1q-18 -33 -43.5 -54t-55 -30.5t-61.5 -9.5zM197 795l-8 11l122 116q13 14 21 18t15 4q11 0 18 -9t7 -20t-7.5 -20.5t-24.5 -19.5zM363 636q-22 0 -32 12t-10 32t10.5 33t31.5 13t31 -11t10 -31q0 -19 -10 -33.5t-31 -14.5zM187 636q-22 0 -32 12t-10 32
t10.5 33t32.5 13q20 0 30.5 -11t10.5 -31q0 -19 -10.5 -33.5t-31.5 -14.5z" />
    <glyph glyph-name="uni01D9" unicode="&#x1d9;" horiz-adv-x="746" vert-adv-y="1485" 
d="M379 -14q-62 0 -108 16t-75.5 49t-44 83.5t-14.5 119.5v402q0 26 -6.5 35.5t-26.5 11.5l-62 5v15h236v-15l-64 -5q-16 -2 -23 -10.5t-7 -36.5v-384q0 -85 21 -142.5t67 -85.5t122 -28q69 0 114 31.5t67 91t22 143.5v374q0 25 -5.5 35t-25.5 12l-51 5v15h189v-15l-53 -5
q-19 -2 -24 -12t-5 -36v-376q0 -93 -27 -158.5t-81 -100t-135 -34.5zM400 944q-10 0 -17.5 5.5t-18.5 18.5l-106 119l9 10l133 -92l135 92l9 -10l-112 -126q-7 -7 -14.5 -12t-17.5 -5zM488 796q-21 0 -31 12t-10 32t10 33t32 13q21 0 31 -11t10 -31q0 -19 -10.5 -33.5
t-31.5 -14.5zM313 796q-21 0 -31.5 12t-10.5 32t11 33t32 13q20 0 30.5 -11t10.5 -31q0 -19 -10 -33.5t-32 -14.5z" />
    <glyph glyph-name="uni01DA" unicode="&#x1da;" horiz-adv-x="586" vert-adv-y="1485" 
d="M263 -14q-75 0 -115 41.5t-40 126.5v267q0 36 -5.5 48.5t-28.5 13.5l-48 5l2 14l123 12l6 -5v-367q0 -39 12 -66.5t37 -42t63 -14.5q47 0 82 16.5t54.5 48.5t19.5 77v260q0 36 -5.5 48.5t-27.5 13.5l-48 5l1 14l123 12l6 -5v-448q0 -26 6.5 -35.5t25.5 -10.5l52 -3v-14
l-132 -8l-2 90h-1q-18 -33 -43.5 -54t-55 -30.5t-61.5 -9.5zM271 801q-10 0 -17.5 5.5t-18.5 18.5l-106 119l9 10l133 -92l135 92l9 -10l-112 -126q-7 -7 -14.5 -12t-17.5 -5zM363 636q-22 0 -32 12t-10 32t10.5 33t31.5 13t31 -11t10 -31q0 -19 -10 -33.5t-31 -14.5z
M187 636q-22 0 -32 12t-10 32t10.5 33t32.5 13q20 0 30.5 -11t10.5 -31q0 -19 -10.5 -33.5t-31.5 -14.5z" />
    <glyph glyph-name="uni01DB" unicode="&#x1db;" horiz-adv-x="746" vert-adv-y="1485" 
d="M379 -14q-62 0 -108 16t-75.5 49t-44 83.5t-14.5 119.5v402q0 26 -6.5 35.5t-26.5 11.5l-62 5v15h236v-15l-64 -5q-16 -2 -23 -10.5t-7 -36.5v-384q0 -85 21 -142.5t67 -85.5t122 -28q69 0 114 31.5t67 91t22 143.5v374q0 25 -5.5 35t-25.5 12l-51 5v15h189v-15l-53 -5
q-19 -2 -24 -12t-5 -36v-376q0 -93 -27 -158.5t-81 -100t-135 -34.5zM458 944l-143 80q-17 10 -25 19.5t-8 20.5t7.5 20t18.5 9q8 0 15.5 -4t20.5 -18l122 -116zM483 796q-21 0 -31 12t-10 32t10 33t32 13q21 0 31 -11t10 -31q0 -19 -10.5 -33.5t-31.5 -14.5zM308 796
q-21 0 -31.5 12t-10.5 32t11 33t32 13q20 0 30.5 -11t10.5 -31q0 -19 -10 -33.5t-32 -14.5z" />
    <glyph glyph-name="uni01DC" unicode="&#x1dc;" horiz-adv-x="586" vert-adv-y="1485" 
d="M263 -14q-75 0 -115 41.5t-40 126.5v267q0 36 -5.5 48.5t-28.5 13.5l-48 5l2 14l123 12l6 -5v-367q0 -39 12 -66.5t37 -42t63 -14.5q47 0 82 16.5t54.5 48.5t19.5 77v260q0 36 -5.5 48.5t-27.5 13.5l-48 5l1 14l123 12l6 -5v-448q0 -26 6.5 -35.5t25.5 -10.5l52 -3v-14
l-132 -8l-2 90h-1q-18 -33 -43.5 -54t-55 -30.5t-61.5 -9.5zM345 794l-143 80q-17 10 -25 19.5t-8 20.5t7.5 20t18.5 9q8 0 15.5 -4t20.5 -18l122 -116zM363 636q-22 0 -32 12t-10 32t10.5 33t31.5 13t31 -11t10 -31q0 -19 -10 -33.5t-31 -14.5zM187 636q-22 0 -32 12
t-10 32t10.5 33t32.5 13q20 0 30.5 -11t10.5 -31q0 -19 -10.5 -33.5t-31.5 -14.5z" />
    <glyph glyph-name="Gcaron" unicode="&#x1e6;" horiz-adv-x="706" vert-adv-y="1485" 
d="M354 -14q-90 0 -158 43t-105.5 125.5t-37.5 200.5q0 89 22 159.5t62 120.5t96.5 76t126.5 26q66 0 114 -23t83 -57l10 80h14l36 -221l-16 -1q-26 67 -60 112t-79.5 67t-106.5 22q-56 0 -102 -22t-79 -66t-51.5 -108.5t-18.5 -149.5q0 -80 17.5 -145.5t51 -112.5t83 -72
t113.5 -25q37 0 70 8.5t62 24.5t54 39v176q0 24 -7 32.5t-26 10.5l-69 5v15h235v-15l-56 -5q-13 -1 -20.5 -8t-7.5 -36v-263h-16l-29 62q-32 -27 -66.5 -43.5t-70 -24t-68.5 -7.5zM348 777q-10 0 -17.5 5.5t-18.5 18.5l-106 119l9 10l133 -92l135 92l9 -10l-112 -126
q-7 -7 -14.5 -12t-17.5 -5z" />
    <glyph glyph-name="gcaron" unicode="&#x1e7;" horiz-adv-x="496" vert-adv-y="1485" 
d="M236 -230q-42 0 -80 7t-66.5 22.5t-45 39.5t-16.5 59q0 23 10.5 44.5t31 39.5t50.5 29v3q-28 13 -40.5 32.5t-12.5 47.5q0 25 17 50t44 56v2q-36 22 -55 57.5t-19 83.5q0 52 21.5 92.5t62.5 63t98 22.5q24 0 45 -4.5t39.5 -13.5t32.5 -20q16 52 38.5 74.5t47.5 22.5
q18 0 29.5 -6.5t17.5 -16t6 -19.5q0 -18 -12 -32t-28 -14q-11 0 -19 5t-18 19l-17 24q-11 -14 -18.5 -31.5t-11.5 -38.5q23 -22 35 -52.5t12 -64.5q0 -57 -23 -96.5t-63.5 -59.5t-93.5 -20q-27 0 -49 4.5t-41 12.5q-12 -14 -26 -36t-14 -50q0 -12 4.5 -25t19.5 -21.5
t46 -8.5h140q71 0 113.5 -25.5t42.5 -83.5q0 -41 -15 -71t-40.5 -50t-56.5 -31.5t-63 -16.5t-60 -5zM237 -209q53 0 98.5 15t74 44t28.5 73q0 47 -28.5 64.5t-82.5 17.5h-186q-27 -14 -48.5 -38t-21.5 -63q0 -62 45 -87.5t121 -25.5zM236 197q62 0 96.5 36.5t34.5 116.5
q0 75 -35.5 113t-101.5 38q-60 0 -94 -37t-34 -117q0 -74 36.5 -112t97.5 -38zM235 589q-5 0 -10.5 2t-10.5 6.5t-12 13.5l-100 136l11 10l123 -110l121 110l10 -10l-101 -139q-6 -9 -14.5 -14t-16.5 -5z" />
    <glyph glyph-name="uni01EA" unicode="&#x1ea;" horiz-adv-x="700" vert-adv-y="1485" 
d="M397 -222q-21 0 -36.5 8.5t-24 24.5t-8.5 37q0 25 11.5 49t35 49t59.5 52q-19 -6 -40 -9t-43 -3q-95 0 -161.5 44t-101.5 126t-35 195q0 123 35 209t101.5 131.5t163.5 45.5q94 0 159.5 -43.5t99.5 -124.5t34 -194q0 -97 -22 -171.5t-62.5 -124t-98.5 -72.5
q-31 -28 -51 -52.5t-30 -47.5t-10 -46q0 -26 11 -38.5t30 -12.5q14 0 29.5 5.5t31.5 19.5l9 -10q-13 -18 -27 -28.5t-28.5 -14.5t-30.5 -4zM356 8q60 0 104.5 23.5t74 68.5t44.5 112t15 152q0 83 -16 148.5t-47 110.5t-77.5 69t-107.5 24q-60 0 -105.5 -23.5t-75 -68.5
t-44.5 -110t-15 -148q0 -84 16 -150.5t47.5 -113t78.5 -70.5t108 -24z" />
    <glyph glyph-name="uni01EB" unicode="&#x1eb;" horiz-adv-x="521" vert-adv-y="1485" 
d="M286 -222q-21 0 -36 8.5t-24 24.5t-9 37q0 24 11.5 47.5t33.5 48t55 49.5q-12 -3 -26 -5t-29 -2q-68 0 -117 32t-75 91t-26 139q0 83 26 144t76 94.5t122 33.5q65 0 112 -31.5t72.5 -88t25.5 -132.5q0 -98 -33 -167t-95 -97q-45 -40 -66.5 -74t-21.5 -69
q0 -26 10.5 -38.5t29.5 -12.5q14 0 30 5.5t32 19.5l8 -10q-13 -18 -26.5 -28.5t-28 -14.5t-31.5 -4zM269 8q50 0 85 25.5t54 79t19 135.5q0 63 -11 110t-31.5 78.5t-51.5 47t-73 15.5q-51 0 -88.5 -25t-57 -77.5t-19.5 -134.5q0 -86 21 -142.5t59.5 -84t93.5 -27.5z" />
    <glyph glyph-name="Aringacute" unicode="&#x1fa;" vert-adv-y="1485" 
d="M-6 0v15l40 6q17 2 24 10.5t16 35.5l210 649q-41 5 -60.5 30.5t-19.5 63.5q0 24 11 45t33.5 34.5t56.5 13.5q46 0 72 -26t26 -65t-21.5 -65.5t-62.5 -31.5l206 -644q8 -26 17.5 -36.5t30.5 -13.5l39 -5v-16h-208v15l51 6q20 2 22.5 13.5t-4.5 33.5l-53 179h-262l-59 -180
q-7 -20 -4 -32t24 -14l57 -6v-15h-182zM164 268h248l-122 392h-1zM305 732q22 0 34 9t17 26.5t5 41.5t-6.5 41t-19 26.5t-33.5 9.5t-33.5 -9.5t-18 -27t-5.5 -40.5t6 -40.5t19 -27t35 -9.5zM227 934l-8 11l122 116q13 14 21 18t15 4q11 0 18 -8.5t7 -20.5q0 -11 -7.5 -20.5
t-24.5 -19.5z" />
    <glyph glyph-name="aringacute" unicode="&#x1fb;" horiz-adv-x="490" vert-adv-y="1485" 
d="M195 -14q-64 0 -101.5 34t-37.5 98q0 51 26.5 85t88 53t169.5 22v100q0 46 -13.5 72.5t-39.5 38.5t-62 12q-35 0 -63.5 -9t-48.5 -25q11 -20 17 -32.5t8.5 -20.5t2.5 -15q0 -15 -11 -24.5t-30 -9.5q-17 0 -29 11t-12 30q0 38 26.5 63.5t65 39t78.5 13.5q59 0 94 -20.5
t50.5 -56t15.5 -84.5v-287q0 -29 11.5 -42t33.5 -13q16 0 29.5 5.5t23.5 12.5l8 -10q-16 -19 -35 -30t-43 -11q-32 0 -53.5 19.5t-20.5 67.5q-18 -31 -41 -50.5t-49.5 -28t-57.5 -8.5zM211 17q32 0 61.5 13t48.5 40t19 65v123q-86 -3 -137.5 -15.5t-73.5 -40t-22 -76.5
q0 -55 28.5 -82t75.5 -27zM226 591q-52 0 -76 27t-24 69q0 24 11.5 45t33.5 34.5t56 13.5q47 0 72.5 -26t25.5 -66q0 -28 -11 -50t-33.5 -34.5t-54.5 -12.5zM228 609q22 0 34 9t17 26.5t5 41.5t-6.5 41t-19.5 26.5t-34 9.5q-20 0 -32.5 -9.5t-18 -27.5t-5.5 -40
q0 -23 6 -40.5t19 -27t35 -9.5zM146 813l-8 11l122 116q13 14 21 18t15 4q11 0 18 -9t7 -20t-7.5 -20.5t-24.5 -19.5z" />
    <glyph glyph-name="AEacute" unicode="&#x1fc;" horiz-adv-x="881" vert-adv-y="1485" 
d="M-6 0v15l40 6q11 2 21 5.5t19 12.5t16 25l308 637l-64 7v15h453l30 -151l-16 -1q-15 48 -28 74.5t-29.5 38.5t-41.5 15t-64 3h-131v-327h135q27 0 43.5 3t25 12t14 27t10.5 47l16 1v-200h-16q-5 38 -13.5 56.5t-27 25.5t-58.5 7h-129v-333h165q36 0 59 5t39 18.5t27.5 41
t22.5 72.5h16l-16 -158h-453v15l60 6q19 2 25 11.5t6 35.5v286h-202l-139 -291q-5 -10 -7 -17.5t-1 -13t7 -8t17 -3.5l56 -6v-15h-195zM267 375h191v327h-34zM518 771l-8 11l122 116q13 14 21 18t15 4q11 0 18 -9t7 -20t-7.5 -20.5t-24.5 -19.5z" />
    <glyph glyph-name="aeacute" unicode="&#x1fd;" horiz-adv-x="741" vert-adv-y="1485" 
d="M195 -14q-43 0 -74 15t-48 44.5t-17 72.5q0 53 30 89.5t103 54.5q29 7 66.5 12t84.5 6v98q0 45 -13.5 72t-39.5 39t-62 12q-35 0 -63.5 -9.5t-48.5 -25.5q11 -20 17 -32t8.5 -20t2.5 -15q0 -15 -11 -24.5t-30 -9.5q-17 0 -29 11t-12 30q0 38 26.5 63.5t65 39t78.5 13.5
q65 0 101 -24.5t49 -67.5q28 44 68 68t90 24q51 0 87.5 -22.5t55 -61.5t18.5 -89q0 -17 -0.5 -37t-2.5 -40h-313q-2 -89 21 -142.5t61.5 -78t84.5 -24.5q38 0 73 15t69 50l12 -12q-37 -52 -80.5 -73t-90.5 -21q-57 0 -103 30.5t-73 95.5q-9 -44 -32 -71.5t-56 -41t-73 -13.5
zM211 17q32 0 61.5 13.5t48.5 41.5t19 70v116q-49 -2 -85.5 -6.5t-63.5 -13.5q-45 -13 -64.5 -39.5t-19.5 -72.5q0 -55 28.5 -82t75.5 -27zM383 295h263q2 16 2.5 29t0.5 26q0 77 -28.5 114t-85.5 37q-43 0 -75.5 -22t-52.5 -68t-24 -116zM337 586l-9 9l99 137
q8 11 15.5 16.5t16.5 5.5q7 0 12.5 -3.5t8 -9.5t2.5 -13q0 -9 -7 -20t-23 -25z" />
    <glyph glyph-name="Oslashacute" unicode="&#x1fe;" horiz-adv-x="718" vert-adv-y="1485" 
d="M59 -14l72 97q-38 47 -58 115t-20 153q0 123 35 209t101.5 131.5t163.5 45.5q63 0 113.5 -19.5t87.5 -57.5l56 77h30l-71 -95q39 -47 58 -114t19 -153q0 -95 -20 -167.5t-58.5 -122t-93 -74.5t-123.5 -25q-64 0 -115 20t-89 59l-58 -79h-30zM356 8q60 0 104.5 23.5
t74 68.5t44.5 112t15 152q0 76 -13 136.5t-39 104.5l-370 -505q21 -30 49 -50.5t62 -31t73 -10.5zM159 120l370 506q-21 30 -48 49.5t-61 30t-74 10.5q-60 0 -105.5 -23.5t-75 -68.5t-44.5 -110t-15 -148q0 -76 13.5 -138t39.5 -108zM288 771l-8 11l122 116q13 14 21 18
t15 4q11 0 18 -9t7 -20t-7.5 -20.5t-24.5 -19.5z" />
    <glyph glyph-name="oslashacute" unicode="&#x1ff;" horiz-adv-x="529" vert-adv-y="1485" 
d="M50 -14l55 72q-27 34 -42 82.5t-15 107.5q0 83 26 144t76 94.5t121 33.5q45 0 81 -15t63 -42l45 59h28l-58 -76q25 -33 38.5 -78t13.5 -100q0 -86 -25.5 -149.5t-74 -98t-116.5 -34.5q-45 0 -81.5 14.5t-64.5 40.5l-42 -55h-28zM273 8q49 0 84.5 25.5t54.5 79t19 135.5
q0 51 -7 92t-21 71l-259 -339q15 -22 34 -36t43 -21t52 -7zM132 91l259 341q-13 22 -32 37t-42.5 22.5t-52.5 7.5q-51 0 -88.5 -25t-57 -77.5t-19.5 -134.5q0 -55 8.5 -97.5t24.5 -73.5zM215 586l-9 9l99 137q8 11 15.5 16.5t16.5 5.5q7 0 12.5 -3.5t8 -9.5t2.5 -13
q0 -9 -7 -20t-23 -25z" />
    <glyph glyph-name="uni0200" unicode="&#x200;" vert-adv-y="1485" 
d="M-6 0v15l40 6q17 2 24 10.5t16 35.5l213 656h30l208 -652q8 -26 17.5 -36.5t30.5 -13.5l39 -5v-16h-208v15l51 6q20 2 22.5 13.5t-4.5 33.5l-53 179h-262l-59 -180q-7 -20 -4 -32t24 -14l57 -6v-15h-182zM164 268h248l-122 392h-1zM404 771l-141 84q-17 11 -24.5 20.5
t-7.5 19.5q0 11 7 19.5t17 8.5q8 0 16 -4.5t21 -17.5l120 -119zM239 771l-141 77q-17 10 -24.5 20t-7.5 21t6.5 19t17.5 8q8 0 15.5 -5t21.5 -17l120 -112z" />
    <glyph glyph-name="uni0201" unicode="&#x201;" horiz-adv-x="490" vert-adv-y="1485" 
d="M195 -14q-64 0 -101.5 34t-37.5 98q0 51 26.5 85t88 53t169.5 22v100q0 46 -13.5 72.5t-39.5 38.5t-62 12q-35 0 -63.5 -9t-48.5 -25q11 -20 17 -32.5t8.5 -20.5t2.5 -15q0 -15 -11 -24.5t-30 -9.5q-17 0 -29 11t-12 30q0 38 26.5 63.5t65 39t78.5 13.5q59 0 94 -20.5
t50.5 -56t15.5 -84.5v-287q0 -29 11.5 -42t33.5 -13q16 0 29.5 5.5t23.5 12.5l8 -10q-16 -19 -35 -30t-43 -11q-32 0 -53.5 19.5t-20.5 67.5q-18 -31 -41 -50.5t-49.5 -28t-57.5 -8.5zM211 17q32 0 61.5 13t48.5 40t19 65v123q-86 -3 -137.5 -15.5t-73.5 -40t-22 -76.5
q0 -55 28.5 -82t75.5 -27zM170 586l-112 95q-16 15 -23 25.5t-7 20.5q0 7 2.5 12.5t7.5 9t12 3.5q9 0 16.5 -5.5t15.5 -17.5l97 -134zM304 586l-108 97q-17 15 -24 25.5t-7 19.5q0 7 3 13t8 9.5t12 3.5q8 0 15.5 -5.5t15.5 -17.5l95 -136z" />
    <glyph glyph-name="uni0202" unicode="&#x202;" vert-adv-y="1485" 
d="M-6 0v15l40 6q17 2 24 10.5t16 35.5l213 656h30l208 -652q8 -26 17.5 -36.5t30.5 -13.5l39 -5v-16h-208v15l51 6q20 2 22.5 13.5t-4.5 33.5l-53 179h-262l-59 -180q-7 -20 -4 -32t24 -14l57 -6v-15h-182zM164 268h248l-122 392h-1zM302 910q43 0 70.5 -16t43 -48
t20.5 -78l-13 -3q-19 47 -45.5 69.5t-76.5 22.5t-77.5 -24.5t-42.5 -67.5l-14 3q4 42 19.5 74t44 50t71.5 18z" />
    <glyph glyph-name="uni0203" unicode="&#x203;" horiz-adv-x="490" vert-adv-y="1485" 
d="M195 -14q-64 0 -101.5 34t-37.5 98q0 51 26.5 85t88 53t169.5 22v100q0 46 -13.5 72.5t-39.5 38.5t-62 12q-35 0 -63.5 -9t-48.5 -25q11 -20 17 -32.5t8.5 -20.5t2.5 -15q0 -15 -11 -24.5t-30 -9.5q-17 0 -29 11t-12 30q0 38 26.5 63.5t65 39t78.5 13.5q59 0 94 -20.5
t50.5 -56t15.5 -84.5v-287q0 -29 11.5 -42t33.5 -13q16 0 29.5 5.5t23.5 12.5l8 -10q-16 -19 -35 -30t-43 -11q-32 0 -53.5 19.5t-20.5 67.5q-18 -31 -41 -50.5t-49.5 -28t-57.5 -8.5zM211 17q32 0 61.5 13t48.5 40t19 65v123q-86 -3 -137.5 -15.5t-73.5 -40t-22 -76.5
q0 -55 28.5 -82t75.5 -27zM227 741q44 0 69.5 -18t39 -52t18.5 -83l-15 -3q-11 38 -24.5 61.5t-34.5 35t-55 11.5q-51 0 -74 -28.5t-38 -79.5l-15 3q5 48 18.5 82t40.5 52.5t70 18.5z" />
    <glyph glyph-name="uni0204" unicode="&#x204;" horiz-adv-x="576" vert-adv-y="1485" 
d="M58 0v15l62 6q19 2 25 11.5t6 35.5v587q0 26 -6 36t-27 12l-60 5v15h427l30 -151l-16 -1q-15 48 -28.5 74.5t-29.5 38.5t-41.5 15t-63.5 3h-136v-321h136q37 0 53.5 6t24.5 25t15 58l16 1v-200h-16q-6 38 -14 56.5t-27 25.5t-58 7h-130v-339h166q35 0 59 5t40 19.5t27 43
t22 75.5h16l-17 -164h-455zM400 771l-141 84q-17 11 -24.5 20.5t-7.5 19.5q0 11 7 19.5t17 8.5q8 0 16 -4.5t21 -17.5l120 -119zM235 771l-141 77q-17 10 -24.5 20t-7.5 21t6.5 19t17.5 8q8 0 15.5 -5t21.5 -17l120 -112z" />
    <glyph glyph-name="uni0205" unicode="&#x205;" horiz-adv-x="457" vert-adv-y="1485" 
d="M247 -14q-59 0 -105 28.5t-72 87t-26 149.5q0 82 26 142.5t72.5 94.5t109.5 34q54 0 90.5 -22.5t55.5 -61.5t19 -89q0 -17 -0.5 -37t-3.5 -40h-320q-2 -90 21.5 -144t63 -77.5t86.5 -23.5q41 0 76.5 15t68.5 50l10 -10q-37 -52 -80 -74t-92 -22zM94 295h271q2 16 2.5 29
t0.5 26q0 77 -29.5 114t-88.5 37q-45 0 -78.5 -22t-53.5 -68t-24 -116zM191 586l-112 95q-16 15 -23 25.5t-7 20.5q0 7 2.5 12.5t7.5 9t12 3.5q9 0 16.5 -5.5t15.5 -17.5l97 -134zM325 586l-108 97q-17 15 -24 25.5t-7 19.5q0 7 3 13t8 9.5t12 3.5q8 0 15.5 -5.5t15.5 -17.5
l95 -136z" />
    <glyph glyph-name="uni0206" unicode="&#x206;" horiz-adv-x="576" vert-adv-y="1485" 
d="M58 0v15l62 6q19 2 25 11.5t6 35.5v587q0 26 -6 36t-27 12l-60 5v15h427l30 -151l-16 -1q-15 48 -28.5 74.5t-29.5 38.5t-41.5 15t-63.5 3h-136v-321h136q37 0 53.5 6t24.5 25t15 58l16 1v-200h-16q-6 38 -14 56.5t-27 25.5t-58 7h-130v-339h166q35 0 59 5t40 19.5t27 43
t22 75.5h16l-17 -164h-455zM298 910q43 0 70.5 -16t43 -48t20.5 -78l-13 -3q-19 47 -45.5 69.5t-76.5 22.5t-77.5 -24.5t-42.5 -67.5l-14 3q4 42 19.5 74t44 50t71.5 18z" />
    <glyph glyph-name="uni0207" unicode="&#x207;" horiz-adv-x="457" vert-adv-y="1485" 
d="M247 -14q-59 0 -105 28.5t-72 87t-26 149.5q0 82 26 142.5t72.5 94.5t109.5 34q54 0 90.5 -22.5t55.5 -61.5t19 -89q0 -17 -0.5 -37t-3.5 -40h-320q-2 -90 21.5 -144t63 -77.5t86.5 -23.5q41 0 76.5 15t68.5 50l10 -10q-37 -52 -80 -74t-92 -22zM94 295h271q2 16 2.5 29
t0.5 26q0 77 -29.5 114t-88.5 37q-45 0 -78.5 -22t-53.5 -68t-24 -116zM249 741q44 0 69.5 -18t39 -52t18.5 -83l-15 -3q-11 38 -24.5 61.5t-34.5 35t-55 11.5q-51 0 -74 -28.5t-38 -79.5l-15 3q5 48 18.5 82t40.5 52.5t70 18.5z" />
    <glyph glyph-name="uni0208" unicode="&#x208;" horiz-adv-x="351" vert-adv-y="1485" 
d="M58 0v15l62 6q19 2 25 11.5t6 35.5v587q0 26 -6.5 36t-26.5 12l-60 5v15h236v-15l-63 -5q-19 -2 -25 -11.5t-6 -37.5v-588q0 -24 7 -33.5t26 -11.5l61 -6v-15h-236zM279 769l-141 84q-17 11 -24.5 20.5t-7.5 19.5q0 11 7 19.5t17 8.5q8 0 16 -4.5t21 -17.5l120 -119z
M114 769l-141 77q-17 10 -24.5 20t-7.5 21t6.5 19t17.5 8q8 0 15.5 -5t21.5 -17l120 -112z" />
    <glyph glyph-name="uni0209" unicode="&#x209;" horiz-adv-x="288" vert-adv-y="1485" 
d="M48 0v15l51 5q16 2 21 10.5t5 34.5v356q0 38 -6 49.5t-27 12.5l-49 5l1 14l124 12l6 -5v-446q0 -24 5 -32.5t20 -10.5l52 -6v-14h-203zM68 586l-112 95q-16 15 -23 25.5t-7 20.5q0 7 2.5 12.5t7.5 9t12 3.5q9 0 16.5 -5.5t15.5 -17.5l97 -134zM202 586l-108 97
q-17 15 -24 25.5t-7 19.5q0 7 3 13t8 9.5t12 3.5q8 0 15.5 -5.5t15.5 -17.5l95 -136z" />
    <glyph glyph-name="uni020A" unicode="&#x20a;" horiz-adv-x="351" vert-adv-y="1485" 
d="M58 0v15l62 6q19 2 25 11.5t6 35.5v587q0 26 -6.5 36t-26.5 12l-60 5v15h236v-15l-63 -5q-19 -2 -25 -11.5t-6 -37.5v-588q0 -24 7 -33.5t26 -11.5l61 -6v-15h-236zM177 908q43 0 70.5 -16t43 -48t20.5 -78l-13 -3q-19 47 -45.5 69.5t-76.5 22.5t-77.5 -24.5t-42.5 -67.5
l-14 3q4 42 19.5 74t44 50t71.5 18z" />
    <glyph glyph-name="uni020B" unicode="&#x20b;" horiz-adv-x="288" vert-adv-y="1485" 
d="M48 0v15l51 5q16 2 21 10.5t5 34.5v356q0 38 -6 49.5t-27 12.5l-49 5l1 14l124 12l6 -5v-446q0 -24 5 -32.5t20 -10.5l52 -6v-14h-203zM126 741q44 0 69.5 -18t39 -52t18.5 -83l-15 -3q-11 38 -24.5 61.5t-34.5 35t-55 11.5q-51 0 -74 -28.5t-38 -79.5l-15 3
q5 48 18.5 82t40.5 52.5t70 18.5z" />
    <glyph glyph-name="uni020C" unicode="&#x20c;" horiz-adv-x="700" vert-adv-y="1485" 
d="M351 -14q-95 0 -161.5 44t-101.5 126t-35 195q0 123 35 209t101.5 131.5t163.5 45.5q94 0 159.5 -43.5t99.5 -124.5t34 -194q0 -95 -20 -167.5t-58.5 -122t-93 -74.5t-123.5 -25zM356 8q60 0 104.5 23.5t74 68.5t44.5 112t15 152q0 83 -16 148.5t-47 110.5t-77.5 69
t-107.5 24q-60 0 -105.5 -23.5t-75 -68.5t-44.5 -110t-15 -148q0 -84 16 -150.5t47.5 -113t78.5 -70.5t108 -24zM452 771l-141 84q-17 11 -24.5 20.5t-7.5 19.5q0 11 7 19.5t17 8.5q8 0 16 -4.5t21 -17.5l120 -119zM287 771l-141 77q-17 10 -24.5 20t-7.5 21t6.5 19t17.5 8
q8 0 15.5 -5t21.5 -17l120 -112z" />
    <glyph glyph-name="uni020D" unicode="&#x20d;" horiz-adv-x="521" vert-adv-y="1485" 
d="M262 -14q-68 0 -117 32t-75 91t-26 139q0 83 26 144t76 94.5t122 33.5q65 0 112 -31.5t72.5 -88t25.5 -132.5q0 -86 -25.5 -149.5t-73.5 -98t-117 -34.5zM269 8q50 0 85 25.5t54 79t19 135.5q0 63 -11 110t-31.5 78.5t-51.5 47t-73 15.5q-51 0 -88.5 -25t-57 -77.5
t-19.5 -134.5q0 -86 21 -142.5t59.5 -84t93.5 -27.5zM205 586l-112 95q-16 15 -23 25.5t-7 20.5q0 7 2.5 12.5t7.5 9t12 3.5q9 0 16.5 -5.5t15.5 -17.5l97 -134zM339 586l-108 97q-17 15 -24 25.5t-7 19.5q0 7 3 13t8 9.5t12 3.5q8 0 15.5 -5.5t15.5 -17.5l95 -136z" />
    <glyph glyph-name="uni020E" unicode="&#x20e;" horiz-adv-x="700" vert-adv-y="1485" 
d="M351 -14q-95 0 -161.5 44t-101.5 126t-35 195q0 123 35 209t101.5 131.5t163.5 45.5q94 0 159.5 -43.5t99.5 -124.5t34 -194q0 -95 -20 -167.5t-58.5 -122t-93 -74.5t-123.5 -25zM356 8q60 0 104.5 23.5t74 68.5t44.5 112t15 152q0 83 -16 148.5t-47 110.5t-77.5 69
t-107.5 24q-60 0 -105.5 -23.5t-75 -68.5t-44.5 -110t-15 -148q0 -84 16 -150.5t47.5 -113t78.5 -70.5t108 -24zM350 910q43 0 70.5 -16t43 -48t20.5 -78l-13 -3q-19 47 -45.5 69.5t-76.5 22.5t-77.5 -24.5t-42.5 -67.5l-14 3q4 42 19.5 74t44 50t71.5 18z" />
    <glyph glyph-name="uni020F" unicode="&#x20f;" horiz-adv-x="521" vert-adv-y="1485" 
d="M262 -14q-68 0 -117 32t-75 91t-26 139q0 83 26 144t76 94.5t122 33.5q65 0 112 -31.5t72.5 -88t25.5 -132.5q0 -86 -25.5 -149.5t-73.5 -98t-117 -34.5zM269 8q50 0 85 25.5t54 79t19 135.5q0 63 -11 110t-31.5 78.5t-51.5 47t-73 15.5q-51 0 -88.5 -25t-57 -77.5
t-19.5 -134.5q0 -86 21 -142.5t59.5 -84t93.5 -27.5zM262 741q44 0 69.5 -18t39 -52t18.5 -83l-15 -3q-11 38 -24.5 61.5t-34.5 35t-55 11.5q-51 0 -74 -28.5t-38 -79.5l-15 3q5 48 18.5 82t40.5 52.5t70 18.5z" />
    <glyph glyph-name="uni0210" unicode="&#x210;" horiz-adv-x="632" vert-adv-y="1485" 
d="M580 -14q-26 0 -48 9t-39.5 31t-32.5 60l-56 142q-21 54 -40 79.5t-42 33t-55 7.5h-37t-29 -2v-280q0 -22 7 -32.5t26 -12.5l68 -6v-15h-244v15l63 6q19 2 25 11.5t6 35.5v587q0 27 -6.5 36.5t-26.5 11.5l-61 5v15h207q68 0 117.5 -11t81.5 -32.5t47 -54t15 -75.5
q0 -23 -5.5 -47.5t-18 -47.5t-35 -42.5t-54.5 -33.5t-78 -20v-3q44 -10 73 -41.5t43 -69.5l38 -93q16 -40 31 -72t32.5 -50t39.5 -18q18 0 32 5t24 12l6 -10q-14 -16 -34 -24.5t-40 -8.5zM277 369q55 0 99 19.5t70.5 59t26.5 99.5q0 55 -23.5 89t-69 50t-113.5 16h-66v-332
q31 -1 48.5 -1h27.5zM404 771l-141 84q-17 11 -24.5 20.5t-7.5 19.5q0 11 7 19.5t17 8.5q8 0 16 -4.5t21 -17.5l120 -119zM239 771l-141 77q-17 10 -24.5 20t-7.5 21t6.5 19t17.5 8q8 0 15.5 -5t21.5 -17l120 -112z" />
    <glyph glyph-name="uni0211" unicode="&#x211;" horiz-adv-x="414" vert-adv-y="1485" 
d="M39 0v15l51 5q16 2 21 10t5 34v357q0 37 -6 49t-27 13l-48 5l1 14l123 12l5 -5l1 -94h2q24 51 59.5 78t78.5 27q40 0 64 -20t24 -51q0 -15 -5.5 -26t-16 -16.5t-26.5 -5.5q-19 0 -29.5 9t-10.5 22q0 8 2.5 15.5t8 17t13.5 21.5q-30 10 -59 1t-52.5 -30.5t-38 -52
t-14.5 -66.5v-275q0 -23 5 -32t23 -11l79 -6v-14h-233zM168 586l-112 95q-16 15 -23 25.5t-7 20.5q0 7 2.5 12.5t7.5 9t12 3.5q9 0 16.5 -5.5t15.5 -17.5l97 -134zM302 586l-108 97q-17 15 -24 25.5t-7 19.5q0 7 3 13t8 9.5t12 3.5q8 0 15.5 -5.5t15.5 -17.5l95 -136z" />
    <glyph glyph-name="uni0212" unicode="&#x212;" horiz-adv-x="632" vert-adv-y="1485" 
d="M580 -14q-26 0 -48 9t-39.5 31t-32.5 60l-56 142q-21 54 -40 79.5t-42 33t-55 7.5h-37t-29 -2v-280q0 -22 7 -32.5t26 -12.5l68 -6v-15h-244v15l63 6q19 2 25 11.5t6 35.5v587q0 27 -6.5 36.5t-26.5 11.5l-61 5v15h207q68 0 117.5 -11t81.5 -32.5t47 -54t15 -75.5
q0 -23 -5.5 -47.5t-18 -47.5t-35 -42.5t-54.5 -33.5t-78 -20v-3q44 -10 73 -41.5t43 -69.5l38 -93q16 -40 31 -72t32.5 -50t39.5 -18q18 0 32 5t24 12l6 -10q-14 -16 -34 -24.5t-40 -8.5zM277 369q55 0 99 19.5t70.5 59t26.5 99.5q0 55 -23.5 89t-69 50t-113.5 16h-66v-332
q31 -1 48.5 -1h27.5zM302 910q43 0 70.5 -16t43 -48t20.5 -78l-13 -3q-19 47 -45.5 69.5t-76.5 22.5t-77.5 -24.5t-42.5 -67.5l-14 3q4 42 19.5 74t44 50t71.5 18z" />
    <glyph glyph-name="uni0213" unicode="&#x213;" horiz-adv-x="414" vert-adv-y="1485" 
d="M39 0v15l51 5q16 2 21 10t5 34v357q0 37 -6 49t-27 13l-48 5l1 14l123 12l5 -5l1 -94h2q24 51 59.5 78t78.5 27q40 0 64 -20t24 -51q0 -15 -5.5 -26t-16 -16.5t-26.5 -5.5q-19 0 -29.5 9t-10.5 22q0 8 2.5 15.5t8 17t13.5 21.5q-30 10 -59 1t-52.5 -30.5t-38 -52
t-14.5 -66.5v-275q0 -23 5 -32t23 -11l79 -6v-14h-233zM226 741q44 0 69.5 -18t39 -52t18.5 -83l-15 -3q-11 38 -24.5 61.5t-34.5 35t-55 11.5q-51 0 -74 -28.5t-38 -79.5l-15 3q5 48 18.5 82t40.5 52.5t70 18.5z" />
    <glyph glyph-name="uni0214" unicode="&#x214;" horiz-adv-x="746" vert-adv-y="1485" 
d="M379 -14q-62 0 -108 16t-75.5 49t-44 83.5t-14.5 119.5v402q0 26 -6.5 35.5t-26.5 11.5l-62 5v15h236v-15l-64 -5q-16 -2 -23 -10.5t-7 -36.5v-384q0 -85 21 -142.5t67 -85.5t122 -28q69 0 114 31.5t67 91t22 143.5v374q0 25 -5.5 35t-25.5 12l-51 5v15h189v-15l-53 -5
q-19 -2 -24 -12t-5 -36v-376q0 -93 -27 -158.5t-81 -100t-135 -34.5zM496 771l-141 84q-17 11 -24.5 20.5t-7.5 19.5q0 11 7 19.5t17 8.5q8 0 16 -4.5t21 -17.5l120 -119zM331 771l-141 77q-17 10 -24.5 20t-7.5 21t6.5 19t17.5 8q8 0 15.5 -5t21.5 -17l120 -112z" />
    <glyph glyph-name="uni0215" unicode="&#x215;" horiz-adv-x="586" vert-adv-y="1485" 
d="M263 -14q-75 0 -115 41.5t-40 126.5v267q0 36 -5.5 48.5t-28.5 13.5l-48 5l2 14l123 12l6 -5v-367q0 -39 12 -66.5t37 -42t63 -14.5q47 0 82 16.5t54.5 48.5t19.5 77v260q0 36 -5.5 48.5t-27.5 13.5l-48 5l1 14l123 12l6 -5v-448q0 -26 6.5 -35.5t25.5 -10.5l52 -3v-14
l-132 -8l-2 90h-1q-18 -33 -43.5 -54t-55 -30.5t-61.5 -9.5zM218 586l-112 95q-16 15 -23 25.5t-7 20.5q0 7 2.5 12.5t7.5 9t12 3.5q9 0 16.5 -5.5t15.5 -17.5l97 -134zM352 586l-108 97q-17 15 -24 25.5t-7 19.5q0 7 3 13t8 9.5t12 3.5q8 0 15.5 -5.5t15.5 -17.5l95 -136z
" />
    <glyph glyph-name="uni0216" unicode="&#x216;" horiz-adv-x="746" vert-adv-y="1485" 
d="M379 -14q-62 0 -108 16t-75.5 49t-44 83.5t-14.5 119.5v402q0 26 -6.5 35.5t-26.5 11.5l-62 5v15h236v-15l-64 -5q-16 -2 -23 -10.5t-7 -36.5v-384q0 -85 21 -142.5t67 -85.5t122 -28q69 0 114 31.5t67 91t22 143.5v374q0 25 -5.5 35t-25.5 12l-51 5v15h189v-15l-53 -5
q-19 -2 -24 -12t-5 -36v-376q0 -93 -27 -158.5t-81 -100t-135 -34.5zM394 910q43 0 70.5 -16t43 -48t20.5 -78l-13 -3q-19 47 -45.5 69.5t-76.5 22.5t-77.5 -24.5t-42.5 -67.5l-14 3q4 42 19.5 74t44 50t71.5 18z" />
    <glyph glyph-name="uni0217" unicode="&#x217;" horiz-adv-x="586" vert-adv-y="1485" 
d="M263 -14q-75 0 -115 41.5t-40 126.5v267q0 36 -5.5 48.5t-28.5 13.5l-48 5l2 14l123 12l6 -5v-367q0 -39 12 -66.5t37 -42t63 -14.5q47 0 82 16.5t54.5 48.5t19.5 77v260q0 36 -5.5 48.5t-27.5 13.5l-48 5l1 14l123 12l6 -5v-448q0 -26 6.5 -35.5t25.5 -10.5l52 -3v-14
l-132 -8l-2 90h-1q-18 -33 -43.5 -54t-55 -30.5t-61.5 -9.5zM276 741q44 0 69.5 -18t39 -52t18.5 -83l-15 -3q-11 38 -24.5 61.5t-34.5 35t-55 11.5q-51 0 -74 -28.5t-38 -79.5l-15 3q5 48 18.5 82t40.5 52.5t70 18.5z" />
    <glyph glyph-name="uni0218" unicode="&#x218;" horiz-adv-x="550" vert-adv-y="1485" 
d="M288 -14q-69 0 -114 23t-78 51l-12 -72h-14l-14 213h13q13 -58 36.5 -96t53.5 -59.5t63 -30t64 -8.5q40 0 78 14.5t62.5 48.5t24.5 91q0 46 -15 81.5t-52.5 63.5t-105.5 49q-60 20 -99.5 42.5t-61.5 47.5t-31 55.5t-9 65.5t10.5 62.5t29.5 48t44 34t54.5 20t59.5 6.5
q48 0 85 -17.5t72 -46.5l16 64h14l13 -183l-16 -1q-18 64 -48 99.5t-65.5 49.5t-73.5 14q-69 0 -109.5 -35.5t-40.5 -96.5q0 -40 14.5 -71.5t52 -57t105.5 -48.5q59 -20 98.5 -44.5t62 -52.5t32.5 -58.5t10 -61.5q0 -41 -12.5 -78t-38.5 -65t-65 -44.5t-93 -16.5zM259 -262
l-11 12q20 21 31 39.5t16 36t4 32.5h-8q-26 0 -36.5 11t-10.5 30q0 10 4 19t13 14.5t22 5.5q17 0 27 -8t14.5 -21t4.5 -28q0 -20 -6 -43.5t-21 -48.5t-43 -51z" />
    <glyph glyph-name="uni0219" unicode="&#x219;" horiz-adv-x="418" vert-adv-y="1485" 
d="M51 -14l-11 168h14q15 -55 39.5 -87.5t55 -45.5t65.5 -13q60 0 90 33t30 79q0 38 -15.5 60t-47 36t-78.5 25q-21 5 -44.5 14t-44.5 24.5t-34.5 40t-13.5 62.5t17 69.5t49.5 51t79.5 19.5q41 0 71 -13t52 -33l11 46h13l10 -146h-16q-16 65 -52 95t-91 30q-48 0 -78 -26.5
t-30 -70.5q0 -41 18 -64t48 -34t63 -20q25 -7 52 -17t50 -26.5t37 -42.5t14 -65q0 -41 -19 -75t-54.5 -54t-86.5 -20q-37 0 -72 11.5t-66 38.5l-9 -50h-16zM182 -262l-11 12q20 21 31 39.5t16 36t4 32.5h-8q-26 0 -36.5 11t-10.5 30q0 10 4 19t13 14.5t22 5.5q17 0 27 -8
t14.5 -21t4.5 -28q0 -20 -6 -43.5t-21 -48.5t-43 -51z" />
    <glyph glyph-name="uni021A" unicode="&#x21a;" horiz-adv-x="624" vert-adv-y="1485" 
d="M176 0v15l76 7q17 2 26 10t9 36v634h-87q-37 0 -61 -5.5t-40.5 -24t-30 -55t-31.5 -97.5l-16 2l33 201h518l31 -201l-15 -2q-18 61 -32.5 97.5t-31.5 55t-40.5 24t-59.5 5.5h-88v-635q0 -26 6.5 -34.5t27.5 -10.5l77 -7v-15h-271zM287 -262l-11 12q20 21 31 39.5t16 36
t4 32.5h-8q-26 0 -36.5 11t-10.5 30q0 10 4 19t13 14.5t22 5.5q17 0 27 -8t14.5 -21t4.5 -28q0 -20 -6 -43.5t-21 -48.5t-43 -51z" />
    <glyph glyph-name="uni021B" unicode="&#x21b;" horiz-adv-x="348" vert-adv-y="1485" 
d="M217 -14q-38 0 -62.5 15t-36 47.5t-11.5 83.5v354h-76v15q30 0 50.5 11.5t34 41t19.5 84.5l20 3l1 -3v-130h154v-22h-154v-362q0 -60 19.5 -82t60.5 -22q25 0 50.5 11.5t48.5 35.5l11 -10q-28 -37 -59.5 -54t-69.5 -17zM198 -262l-11 12q20 21 31 39.5t16 36t4 32.5h-8
q-26 0 -36.5 11t-10.5 30q0 10 4 19t13 14.5t22 5.5q17 0 27 -8t14.5 -21t4.5 -28q0 -20 -6 -43.5t-21 -48.5t-43 -51z" />
    <glyph glyph-name="uni022A" unicode="&#x22a;" horiz-adv-x="700" vert-adv-y="1485" 
d="M351 -14q-95 0 -161.5 44t-101.5 126t-35 195q0 123 35 209t101.5 131.5t163.5 45.5q94 0 159.5 -43.5t99.5 -124.5t34 -194q0 -95 -20 -167.5t-58.5 -122t-93 -74.5t-123.5 -25zM356 8q60 0 104.5 23.5t74 68.5t44.5 112t15 152q0 83 -16 148.5t-47 110.5t-77.5 69
t-107.5 24q-60 0 -105.5 -23.5t-75 -68.5t-44.5 -110t-15 -148q0 -84 16 -150.5t47.5 -113t78.5 -70.5t108 -24zM439 796q-21 0 -31 12t-10 32t10 33t32 13q21 0 31 -11t10 -31q0 -19 -10.5 -33.5t-31.5 -14.5zM264 796q-21 0 -31.5 12t-10.5 32t11 33t32 13q20 0 30.5 -11
t10.5 -31q0 -19 -10 -33.5t-32 -14.5zM229 960v41h243v-41h-243z" />
    </font>
</defs>
</svg>
